<svg width="20" height="20" viewBox="0 0 20 20" fill="none" xmlns="http://www.w3.org/2000/svg">
<path d="M10.8571 10.3571L10.3571 10.3571L10.3571 10.8571L10.3571 15.1429C10.3571 15.2376 10.3195 15.3284 10.2525 15.3954L10.6061 15.7489L10.2525 15.3954C10.1856 15.4624 10.0947 15.5 10 15.5C9.90528 15.5 9.81444 15.4624 9.74746 15.3954C9.68049 15.3284 9.64286 15.2376 9.64286 15.1429L9.64286 10.8571L9.64286 10.3571L9.14286 10.3571L4.85714 10.3571C4.76242 10.3571 4.67158 10.3195 4.60461 10.2525C4.53763 10.1856 4.5 10.0947 4.5 10C4.5 9.90528 4.53763 9.81444 4.60461 9.74746C4.67158 9.68048 4.76242 9.64286 4.85714 9.64286L9.14286 9.64286L9.64286 9.64286L9.64286 9.14286L9.64286 4.85714C9.64286 4.76242 9.68048 4.67158 9.74746 4.6046C9.81444 4.53763 9.90528 4.5 10 4.5C10.0947 4.5 10.1856 4.53763 10.2525 4.6046C10.3195 4.67158 10.3571 4.76242 10.3571 4.85714L10.3571 9.14286L10.3571 9.64286L10.8571 9.64286L15.1429 9.64286C15.2376 9.64286 15.3284 9.68048 15.3954 9.74746L15.7489 9.39391L15.3954 9.74746C15.4624 9.81444 15.5 9.90528 15.5 10C15.5 10.0947 15.4624 10.1856 15.3954 10.2525L15.749 10.6061L15.3954 10.2525C15.3284 10.3195 15.2376 10.3571 15.1429 10.3571L10.8571 10.3571Z" fill="#1A1B22" stroke="white"/>
</svg>
