<svg width="20" height="20" viewBox="0 0 20 20" fill="none" xmlns="http://www.w3.org/2000/svg">
<path d="M3.33301 17.5003L16.6663 17.5003M4.72134 10.9894C4.36587 11.3455 4.16625 11.828 4.16634 12.3311L4.16634 15.0003L6.85218 15.0003C7.35551 15.0003 7.83801 14.8003 8.19384 14.4436L16.1105 6.52278C16.4661 6.16682 16.6659 5.68426 16.6659 5.18111C16.6659 4.67796 16.4661 4.1954 16.1105 3.83944L15.3288 3.05611C15.1526 2.87974 14.9432 2.73984 14.7129 2.64442C14.4825 2.549 14.2355 2.49992 13.9862 2.5C13.7368 2.50008 13.4899 2.5493 13.2596 2.64487C13.0292 2.74043 12.82 2.88046 12.6438 3.05695L4.72134 10.9894Z" stroke="#E1521C" stroke-width="1.5" stroke-linecap="round" stroke-linejoin="round"/>
</svg>
