<svg width="20" height="20" viewBox="0 0 20 20" fill="none" xmlns="http://www.w3.org/2000/svg">
<path d="M3.33399 17.5003L16.6673 17.5003M4.72232 10.9894C4.36684 11.3455 4.16723 11.828 4.16732 12.3311L4.16732 15.0003L6.85315 15.0003C7.35649 15.0003 7.83899 14.8003 8.19482 14.4436L16.1115 6.52278C16.4671 6.16682 16.6668 5.68426 16.6668 5.18111C16.6668 4.67796 16.4671 4.1954 16.1115 3.83944L15.3298 3.05611C15.1535 2.87974 14.9442 2.73984 14.7138 2.64442C14.4834 2.549 14.2365 2.49992 13.9871 2.5C13.7378 2.50008 13.4909 2.5493 13.2605 2.64487C13.0302 2.74043 12.821 2.88046 12.6448 3.05695L4.72232 10.9894Z" stroke="#1A1B22" stroke-width="1.5" stroke-linecap="round" stroke-linejoin="round"/>
</svg>
