<svg width="20" height="20" viewBox="0 0 20 20" fill="none" xmlns="http://www.w3.org/2000/svg">
<path d="M3.33301 17.4998L16.6663 17.4998M4.72134 10.989C4.36587 11.345 4.16625 11.8275 4.16634 12.3306L4.16634 14.9998L6.85218 14.9998C7.35551 14.9998 7.83801 14.7998 8.19384 14.4431L16.1105 6.52229C16.4661 6.16634 16.6659 5.68377 16.6659 5.18062C16.6659 4.67748 16.4661 4.19491 16.1105 3.83896L15.3288 3.05562C15.1526 2.87925 14.9432 2.73935 14.7129 2.64393C14.4825 2.54851 14.2355 2.49943 13.9862 2.49951C13.7368 2.49959 13.4899 2.54882 13.2596 2.64438C13.0292 2.73995 12.82 2.87997 12.6438 3.05646L4.72134 10.989Z" stroke="white" stroke-width="1.5" stroke-linecap="round" stroke-linejoin="round"/>
</svg>
