<svg width="18" height="20" viewBox="0 0 18 20" fill="none" xmlns="http://www.w3.org/2000/svg">
<g id="Group">
<path id="Vector" d="M4 9.16675C4 6.81008 4 5.63091 4.7325 4.89925C5.46417 4.16675 6.64333 4.16675 9 4.16675H11.5C13.8567 4.16675 15.0358 4.16675 15.7675 4.89925C16.5 5.63091 16.5 6.81008 16.5 9.16675V13.3334C16.5 15.6901 16.5 16.8692 15.7675 17.6009C15.0358 18.3334 13.8567 18.3334 11.5 18.3334H9C6.64333 18.3334 5.46417 18.3334 4.7325 17.6009C4 16.8692 4 15.6901 4 13.3334V9.16675Z" stroke="#1A1B22" stroke-width="1.5"/>
<path id="Vector_2" opacity="0.5" d="M4 15.8334C3.33696 15.8334 2.70107 15.57 2.23223 15.1012C1.76339 14.6323 1.5 13.9965 1.5 13.3334V8.33342C1.5 5.19091 1.5 3.61925 2.47667 2.64341C3.4525 1.66675 5.02417 1.66675 8.16667 1.66675H11.5C12.163 1.66675 12.7989 1.93014 13.2678 2.39898C13.7366 2.86782 14 3.50371 14 4.16675" stroke="#1A1B22" stroke-width="1.5"/>
</g>
</svg>
