<svg width="20" height="20" viewBox="0 0 20 20" fill="none" xmlns="http://www.w3.org/2000/svg">
<path d="M13.3333 5.33333L13.3333 5.83333L13.8333 5.83333L17.1667 5.83333C17.2551 5.83333 17.3399 5.86845 17.4024 5.93096C17.4649 5.99347 17.5 6.07826 17.5 6.16666C17.5 6.25507 17.4649 6.33985 17.4024 6.40237L17.7559 6.75592L17.4024 6.40237C17.3399 6.46488 17.2551 6.5 17.1667 6.5L16.3333 6.5L15.8333 6.5L15.8333 7L15.8333 16.1667C15.8333 16.6971 15.6226 17.2058 15.2475 17.5809C14.8725 17.956 14.3638 18.1667 13.8333 18.1667L7.16667 18.1667C6.63624 18.1667 6.12753 17.956 5.75246 17.5809C5.37738 17.2058 5.16667 16.6971 5.16667 16.1667L5.16667 7L5.16667 6.5L4.66667 6.5L3.83333 6.5C3.74493 6.5 3.66014 6.46488 3.59763 6.40237C3.53512 6.33986 3.5 6.25507 3.5 6.16667C3.5 6.07826 3.53512 5.99348 3.59763 5.93096C3.66014 5.86845 3.74493 5.83333 3.83333 5.83333L7.16667 5.83333L7.66667 5.83333L7.66667 5.33333L7.66667 4.5C7.66667 3.96957 7.87738 3.46086 8.25245 3.08579C8.62753 2.71071 9.13623 2.5 9.66667 2.5L11.3333 2.5C11.8638 2.5 12.3725 2.71071 12.7475 3.08578L13.0971 2.7362L12.7475 3.08578C13.1226 3.46086 13.3333 3.96956 13.3333 4.5L13.3333 5.33333ZM12.1667 5.83333L12.6667 5.83333L12.6667 5.33333L12.6667 4.5C12.6667 4.14638 12.5262 3.80724 12.2761 3.55719C12.0261 3.30714 11.687 3.16667 11.3333 3.16667L9.66667 3.16667C9.31304 3.16667 8.97391 3.30714 8.72386 3.55719C8.47381 3.80724 8.33333 4.14638 8.33333 4.5L8.33333 5.33333L8.33333 5.83333L8.83333 5.83333L12.1667 5.83333ZM6.33333 6.5L5.83333 6.5L5.83333 7L5.83334 16.1667C5.83334 16.5203 5.97381 16.8594 6.22386 17.1095C6.47391 17.3595 6.81305 17.5 7.16667 17.5L13.8333 17.5C14.187 17.5 14.5261 17.3595 14.7761 17.1095C15.0262 16.8594 15.1667 16.5203 15.1667 16.1667L15.1667 7L15.1667 6.5L14.6667 6.5L6.33333 6.5Z" fill="black" stroke="white"/>
</svg>
