<svg width="21" height="20" viewBox="0 0 21 20" fill="none" xmlns="http://www.w3.org/2000/svg">
<path d="M11.2955 2.76923C11.2955 2.56522 11.2116 2.36956 11.0625 2.2253C10.9133 2.08104 10.711 2 10.5 2C10.289 2 10.0867 2.08104 9.93753 2.2253C9.78835 2.36956 9.70455 2.56522 9.70455 2.76923L9.70455 12.2966L6.76709 9.456C6.6179 9.31172 6.41554 9.23067 6.20455 9.23067C5.99355 9.23067 5.7912 9.31172 5.642 9.456C5.49281 9.60028 5.40899 9.79596 5.40899 10C5.40899 10.101 5.42957 10.2011 5.46955 10.2944C5.50953 10.3877 5.56813 10.4726 5.642 10.544L9.93746 14.6978C10.0113 14.7693 10.099 14.826 10.1955 14.8646C10.2921 14.9033 10.3955 14.9232 10.5 14.9232C10.6045 14.9232 10.7079 14.9033 10.8045 14.8646C10.901 14.826 10.9887 14.7693 11.0625 14.6978L15.358 10.544C15.5072 10.3997 15.591 10.204 15.591 10C15.591 9.79596 15.5072 9.60028 15.358 9.456C15.2088 9.31172 15.0065 9.23067 14.7955 9.23067C14.5845 9.23067 14.3821 9.31172 14.2329 9.456L11.2955 12.2966L11.2955 2.76923ZM4.29546 16.4615C4.08449 16.4615 3.88216 16.5426 3.73299 16.6868C3.58381 16.8311 3.5 17.0268 3.5 17.2308C3.5 17.4348 3.58381 17.6304 3.73299 17.7747C3.88216 17.919 4.08449 18 4.29546 18L16.7045 18C16.9155 18 17.1178 17.919 17.267 17.7747C17.4162 17.6304 17.5 17.4348 17.5 17.2308C17.5 17.0268 17.4162 16.8311 17.267 16.6868C17.1178 16.5426 16.9155 16.4615 16.7045 16.4615L4.29546 16.4615Z" fill="#1A1B22"/>
</svg>
