<svg width="21" height="20" viewBox="0 0 21 20" fill="none" xmlns="http://www.w3.org/2000/svg">
<g id="Icon">
<path id="Vector" d="M3.83399 17.4998L17.1673 17.4998M5.22232 10.989C4.86684 11.345 4.66723 11.8275 4.66732 12.3306L4.66732 14.9998L7.35315 14.9998C7.85649 14.9998 8.33899 14.7998 8.69482 14.4431L16.6115 6.52229C16.9671 6.16634 17.1668 5.68377 17.1668 5.18062C17.1668 4.67748 16.9671 4.19491 16.6115 3.83896L15.8298 3.05562C15.6535 2.87925 15.4442 2.73935 15.2138 2.64393C14.9834 2.54851 14.7365 2.49943 14.4871 2.49951C14.2378 2.49959 13.9909 2.54882 13.7605 2.64438C13.5302 2.73995 13.321 2.87997 13.1448 3.05646L5.22232 10.989Z" stroke="white" stroke-width="1.5" stroke-linecap="round" stroke-linejoin="round"/>
</g>
</svg>
