<svg width="24" height="24" viewBox="0 0 24 24" fill="none" xmlns="http://www.w3.org/2000/svg">
<g id="Icon">
<path id="Vector" fill-rule="evenodd" clip-rule="evenodd" d="M4.69231 5.54545C4.38629 5.54545 4.0928 5.66757 3.87642 5.88494C3.66003 6.10232 3.53846 6.39714 3.53846 6.70455V18.2955C3.53846 18.6029 3.66003 18.8977 3.87642 19.1151C4.0928 19.3324 4.38629 19.4545 4.69231 19.4545H12.3846C12.6906 19.4545 12.9841 19.3324 13.2005 19.1151C13.4169 18.8977 13.5385 18.6029 13.5385 18.2955V16.3636C13.5385 15.9369 13.8829 15.5909 14.3077 15.5909C14.7325 15.5909 15.0769 15.9369 15.0769 16.3636V18.2955C15.0769 19.0127 14.7933 19.7007 14.2884 20.2079C13.7835 20.7151 13.0987 21 12.3846 21H4.69231C3.97826 21 3.29346 20.7151 2.78856 20.2079C2.28365 19.7007 2 19.0127 2 18.2955V6.70455C2 5.98726 2.28365 5.29934 2.78856 4.79214C3.29346 4.28494 3.97826 4 4.69231 4H12C12.7223 4 13.463 4.28676 14.0265 4.73031C14.5871 5.17155 15.0769 5.85702 15.0769 6.70455V8.63636C15.0769 9.06313 14.7325 9.40909 14.3077 9.40909C13.8829 9.40909 13.5385 9.06313 13.5385 8.63636V6.70455C13.5385 6.48522 13.4054 6.20478 13.0777 5.94683C12.7529 5.69118 12.3397 5.54545 12 5.54545H4.69231ZM16.8407 8.08996C17.1411 7.78819 17.6281 7.78819 17.9285 8.08996L21.7747 11.9536C22.0751 12.2554 22.0751 12.7446 21.7747 13.0464L17.9285 16.91C17.6281 17.2118 17.1411 17.2118 16.8407 16.91C16.5403 16.6083 16.5403 16.119 16.8407 15.8172L19.3737 13.2727H8.15385C7.72901 13.2727 7.38462 12.9268 7.38462 12.5C7.38462 12.0732 7.72901 11.7273 8.15385 11.7273H19.3737L16.8407 9.18276C16.5403 8.881 16.5403 8.39173 16.8407 8.08996Z" fill="#F7F7F7"/>
</g>
</svg>
