<svg width="24" height="24" viewBox="0 0 24 24" fill="none" xmlns="http://www.w3.org/2000/svg">
<g id="Icon">
<g id="Vector">
<path d="M20.9339 21C20.8332 21.0002 20.7335 20.9808 20.6405 20.943C20.5474 20.9053 20.463 20.8499 20.392 20.78L3.52563 4.26753C3.38793 4.12563 3.31229 3.93668 3.31485 3.74096C3.31741 3.54524 3.39796 3.35824 3.53933 3.21984C3.68071 3.08143 3.87171 3.00257 4.07162 3.00006C4.27154 2.99756 4.46454 3.07161 4.60949 3.20642L21.4758 19.7189C21.583 19.8238 21.6559 19.9576 21.6855 20.1031C21.715 20.2486 21.6998 20.3995 21.6418 20.5366C21.5838 20.6737 21.4856 20.7909 21.3596 20.8734C21.2336 20.9559 21.0855 20.9999 20.9339 21Z" fill="#212121"/>
<path d="M12.4844 17.9977C10.4964 17.9977 8.5793 17.4217 6.7863 16.2855C5.15381 15.2535 3.68423 13.7753 2.53617 12.0167V12.0129C3.49161 10.6727 4.53809 9.53932 5.66219 8.62551C5.67236 8.61719 5.68066 8.60689 5.68655 8.59527C5.69245 8.58365 5.69582 8.57095 5.69645 8.55799C5.69708 8.54503 5.69496 8.53208 5.69022 8.51996C5.68548 8.50785 5.67822 8.49682 5.6689 8.48759L4.71442 7.55455C4.69746 7.5378 4.67468 7.52793 4.65062 7.52688C4.62656 7.52584 4.60298 7.53371 4.58457 7.54892C3.39051 8.53403 2.28222 9.74244 1.27455 11.1573C1.10119 11.4009 1.00571 11.6894 1.00025 11.9863C0.994788 12.2832 1.07959 12.5749 1.24389 12.8245C2.50934 14.7633 4.138 16.3962 5.95304 17.546C7.99665 18.8421 10.196 19.4989 12.4844 19.4989C13.7197 19.4951 14.9462 19.2958 16.1164 18.9087C16.1319 18.9036 16.1457 18.8947 16.1567 18.8829C16.1676 18.8711 16.1753 18.8567 16.179 18.8411C16.1827 18.8256 16.1823 18.8094 16.1778 18.794C16.1733 18.7787 16.1649 18.7647 16.1533 18.7535L15.1193 17.7411C15.0955 17.7184 15.0661 17.7021 15.0339 17.6939C15.0017 17.6857 14.9679 17.6858 14.9358 17.6942C14.135 17.8961 13.3114 17.9981 12.4844 17.9977Z" fill="#212121"/>
<path d="M23.7532 11.177C22.4854 9.25739 20.8404 7.62679 18.9967 6.46106C16.9569 5.17009 14.7048 4.48754 12.4844 4.48754C11.2623 4.48967 10.0492 4.69313 8.89602 5.0894C8.88066 5.09464 8.86691 5.10362 8.85607 5.11549C8.84523 5.12737 8.83765 5.14175 8.83406 5.15728C8.83046 5.17281 8.83097 5.18899 8.83552 5.20428C8.84007 5.21957 8.84853 5.23347 8.86009 5.24468L9.89267 6.2556C9.91671 6.27873 9.94655 6.29525 9.9792 6.30348C10.0118 6.31172 10.0461 6.31138 10.0786 6.30251C10.8629 6.09478 11.6719 5.98926 12.4844 5.98868C14.4341 5.98868 16.3455 6.57177 18.1648 7.72436C19.828 8.77515 21.3148 10.2519 22.4657 11.9932C22.4666 11.9943 22.4671 11.9956 22.4671 11.997C22.4671 11.9983 22.4666 11.9996 22.4657 12.0007C21.6303 13.2884 20.5936 14.4396 19.3934 15.4125C19.3831 15.4208 19.3747 15.4311 19.3687 15.4427C19.3627 15.4544 19.3593 15.4671 19.3586 15.4801C19.358 15.4932 19.3601 15.5062 19.3648 15.5184C19.3696 15.5305 19.3768 15.5416 19.3862 15.5509L20.3397 16.4839C20.3566 16.5006 20.3793 16.5105 20.4032 16.5116C20.4272 16.5128 20.4507 16.505 20.4691 16.49C21.7504 15.4338 22.8595 14.1924 23.758 12.8085C23.9169 12.5646 24.0008 12.2813 24 11.992C23.9991 11.7028 23.9135 11.4199 23.7532 11.177Z" fill="#212121"/>
<path d="M12.5007 7.48981C12.1562 7.48963 11.8127 7.52739 11.4768 7.60239C11.4598 7.60584 11.4441 7.61373 11.4314 7.62522C11.4186 7.63671 11.4093 7.65137 11.4044 7.66764C11.3994 7.68391 11.3991 7.70118 11.4034 7.71761C11.4077 7.73404 11.4165 7.74902 11.4288 7.76095L16.8237 13.0412C16.8359 13.0532 16.8512 13.0618 16.8679 13.0661C16.8847 13.0703 16.9024 13.07 16.919 13.0652C16.9356 13.0603 16.9506 13.0512 16.9623 13.0387C16.974 13.0262 16.9821 13.0109 16.9856 12.9943C17.1392 12.3347 17.1391 11.6498 16.9852 10.9903C16.8313 10.3308 16.5277 9.71376 16.0968 9.18493C15.6659 8.65611 15.1189 8.2291 14.4963 7.93564C13.8738 7.64218 13.1917 7.4898 12.5007 7.48981Z" fill="#212121"/>
<path d="M8.17777 10.9452C8.16558 10.9332 8.15028 10.9246 8.1335 10.9203C8.11671 10.9161 8.09907 10.9164 8.08246 10.9212C8.06584 10.9261 8.05086 10.9352 8.03913 10.9477C8.02739 10.9602 8.01934 10.9755 8.01581 10.9921C7.84204 11.7354 7.86386 12.5096 8.07923 13.2423C8.29459 13.975 8.69644 14.6422 9.24713 15.1814C9.79781 15.7205 10.4793 16.1139 11.2277 16.3247C11.9761 16.5356 12.767 16.557 13.5261 16.3868C13.5431 16.3834 13.5588 16.3755 13.5715 16.364C13.5843 16.3525 13.5936 16.3379 13.5985 16.3216C13.6034 16.3053 13.6038 16.288 13.5995 16.2716C13.5951 16.2552 13.5864 16.2402 13.574 16.2283L8.17777 10.9452Z" fill="#212121"/>
</g>
</g>
</svg>
