<svg width="14" height="12" viewBox="0 0 14 12" fill="none" xmlns="http://www.w3.org/2000/svg">
<path d="M12.6875 5.14347L3.05125 5.14347L6.00063 1.40666C6.13854 1.23163 6.20489 1.00598 6.18508 0.779354C6.16527 0.552723 6.06093 0.343675 5.895 0.198198C5.72907 0.0527204 5.51516 -0.0172692 5.30031 0.00362584C5.08547 0.0245209 4.88729 0.134589 4.74937 0.309616L0.686876 5.45201C0.659544 5.49292 0.635103 5.53589 0.613751 5.58057C0.613751 5.62343 0.613751 5.64914 0.556876 5.69199C0.520048 5.79026 0.500766 5.89487 0.500001 6.00054C0.500766 6.1062 0.520048 6.21081 0.556876 6.30908C0.556876 6.35193 0.556876 6.37764 0.613751 6.4205C0.635103 6.46519 0.659544 6.50816 0.686876 6.54906L4.74938 11.6915C4.82577 11.7882 4.92143 11.866 5.02956 11.9193C5.1377 11.9727 5.25564 12.0002 5.375 12C5.56484 12.0004 5.74882 11.9306 5.895 11.8029C5.97728 11.7309 6.04528 11.6426 6.09513 11.5428C6.14498 11.4431 6.17569 11.334 6.1855 11.2218C6.19531 11.1095 6.18403 10.9963 6.15231 10.8887C6.12059 10.781 6.06904 10.681 6.00063 10.5944L3.05125 6.8576L12.6875 6.8576C12.903 6.8576 13.1097 6.7673 13.262 6.60657C13.4144 6.44584 13.5 6.22784 13.5 6.00053C13.5 5.77323 13.4144 5.55523 13.262 5.3945C13.1097 5.23377 12.903 5.14347 12.6875 5.14347Z" fill="#1A1B22"/>
</svg>
