<svg width="18" height="20" viewBox="0 0 18 20" fill="none" xmlns="http://www.w3.org/2000/svg">
<g id="Group">
<path id="Vector" d="M4 9.16699C4 6.81033 4 5.63116 4.7325 4.89949C5.46417 4.16699 6.64333 4.16699 9 4.16699H11.5C13.8567 4.16699 15.0358 4.16699 15.7675 4.89949C16.5 5.63116 16.5 6.81033 16.5 9.16699V13.3337C16.5 15.6903 16.5 16.8695 15.7675 17.6012C15.0358 18.3337 13.8567 18.3337 11.5 18.3337H9C6.64333 18.3337 5.46417 18.3337 4.7325 17.6012C4 16.8695 4 15.6903 4 13.3337V9.16699Z" stroke="#1A1B22" stroke-width="1.5"/>
<path id="Vector_2" opacity="0.5" d="M4 15.8337C3.33696 15.8337 2.70107 15.5703 2.23223 15.1014C1.76339 14.6326 1.5 13.9967 1.5 13.3337V8.33366C1.5 5.19116 1.5 3.61949 2.47667 2.64366C3.4525 1.66699 5.02417 1.66699 8.16667 1.66699H11.5C12.163 1.66699 12.7989 1.93038 13.2678 2.39923C13.7366 2.86807 14 3.50395 14 4.16699" stroke="#1A1B22" stroke-width="1.5"/>
</g>
</svg>
