<svg width="588" height="588" viewBox="0 0 588 588" fill="none" xmlns="http://www.w3.org/2000/svg">
<path d="M588 449.702H0V449.996H588V449.702Z" fill="#EBEBEB"/>
<path d="M529.082 468.624H490.133V468.918H529.082V468.624Z" fill="#EBEBEB"/>
<path d="M389.514 471.822H379.295V472.116H389.514V471.822Z" fill="#EBEBEB"/>
<path d="M488.958 457.711H466.391V458.005H488.958V457.711Z" fill="#EBEBEB"/>
<path d="M112.485 459.687H61.6934V459.981H112.485V459.687Z" fill="#EBEBEB"/>
<path d="M130.407 459.687H122.963V459.981H130.407V459.687Z" fill="#EBEBEB"/>
<path d="M264.777 464.649H154.609V464.943H264.777V464.649Z" fill="#EBEBEB"/>
<path d="M278.713 397.252H51.6387C49.8599 397.249 48.1549 396.541 46.8982 395.282C45.6414 394.023 44.9355 392.316 44.9355 390.538V71.3358C44.951 69.5672 45.6637 67.876 46.9188 66.6298C48.1739 65.3835 49.87 64.6827 51.6387 64.6797H278.713C280.494 64.6797 282.202 65.3872 283.461 66.6465C284.72 67.9058 285.428 69.6137 285.428 71.3946V390.538C285.428 392.318 284.72 394.026 283.461 395.286C282.202 396.545 280.494 397.252 278.713 397.252ZM51.6387 64.9149C49.9378 64.918 48.3077 65.5959 47.106 66.7997C45.9044 68.0035 45.2295 69.6349 45.2295 71.3358V390.538C45.2295 392.238 45.9044 393.87 47.106 395.074C48.3077 396.277 49.9378 396.955 51.6387 396.958H278.713C280.415 396.955 282.046 396.278 283.249 395.074C284.453 393.871 285.13 392.24 285.134 390.538V71.3358C285.13 69.6339 284.453 68.0025 283.249 66.799C282.046 65.5955 280.415 64.918 278.713 64.9149H51.6387Z" fill="#EBEBEB"/>
<path d="M533.094 397.252H306.008C304.228 397.249 302.522 396.541 301.263 395.282C300.005 394.024 299.296 392.317 299.293 390.538V71.3358C299.312 69.5661 300.027 67.875 301.284 66.629C302.541 65.3831 304.238 64.6827 306.008 64.6797H533.094C534.86 64.6858 536.553 65.3879 537.806 66.6339C539.058 67.8798 539.77 69.5692 539.785 71.3358V390.538C539.785 392.314 539.081 394.019 537.827 395.277C536.572 396.536 534.87 397.246 533.094 397.252ZM306.008 64.9149C304.306 64.918 302.675 65.5955 301.471 66.799C300.268 68.0025 299.59 69.6339 299.587 71.3358V390.538C299.59 392.24 300.268 393.871 301.471 395.074C302.675 396.278 304.306 396.955 306.008 396.958H533.094C534.796 396.955 536.427 396.278 537.63 395.074C538.834 393.871 539.511 392.24 539.514 390.538V71.3358C539.511 69.6339 538.834 68.0025 537.63 66.799C536.427 65.5955 534.796 64.918 533.094 64.9149H306.008Z" fill="#EBEBEB"/>
<path d="M100.406 406.696C100.406 406.226 101.994 360.032 109.509 352.729C116.812 345.673 125.196 352.459 125.549 352.729L126.302 351.824C126.208 351.753 116.741 344.027 108.662 351.824C100.806 359.456 99.2539 404.673 99.2539 406.59L100.406 406.696Z" fill="#E0E0E0"/>
<path d="M99.7722 415.763C99.7722 415.222 104.9 360.314 84.8488 337.3L83.9668 338.076C103.688 360.702 98.655 415.104 98.5962 415.692L99.7722 415.763Z" fill="#E0E0E0"/>
<path d="M100.513 409.965L101.689 409.883C101.689 409.259 97.7732 347.461 112.473 333.937L111.685 333.066C96.5502 346.978 100.337 407.39 100.513 409.965Z" fill="#E0E0E0"/>
<path d="M98.596 409.93H99.772C99.772 408.225 99.2898 368.194 87.9061 361.714C86.8266 361.018 85.5964 360.59 84.318 360.465C83.0396 360.34 81.7499 360.522 80.5561 360.997C73.6765 363.843 70.2661 376.085 70.125 376.602L71.301 376.92C71.301 376.79 74.6996 364.713 81.0383 362.09C82.0682 361.687 83.1796 361.535 84.28 361.648C85.3805 361.76 86.4381 362.134 87.3652 362.737C98.1138 368.864 98.596 409.518 98.596 409.93Z" fill="#E0E0E0"/>
<path d="M103.017 409.953L104.193 409.883C104.193 409.577 102.476 378.248 110.931 367.217C112.978 364.559 115.247 363.266 117.599 363.383C123.138 363.772 127.784 371.874 127.831 371.957L128.854 371.38C128.654 371.016 123.856 362.643 117.682 362.207C114.93 362.008 112.354 363.383 110.049 366.453C101.277 377.884 102.946 408.648 103.017 409.953Z" fill="#E0E0E0"/>
<path d="M101.136 414.21C101.359 411.176 106.663 339.652 97.3373 327.057L96.3965 327.751C105.452 340.004 100.019 413.387 99.9245 414.128L101.136 414.21Z" fill="#E0E0E0"/>
<path d="M78.0163 368.194C78.0163 368.194 83.614 370.252 81.9441 375.121C80.2742 379.989 62.6107 387.986 62.6107 387.986C62.6107 387.986 55.2019 381.2 61.9991 370.17C68.7964 359.139 77.8634 364.713 78.0163 368.194Z" fill="#EBEBEB"/>
<path d="M102.312 358.927C102.312 358.927 96.4321 358.68 96.0323 363.807C95.6324 368.935 108.968 383.129 108.968 383.129C108.968 383.129 118.376 379.719 116.389 366.912C114.401 354.105 103.806 355.775 102.312 358.927Z" fill="#EBEBEB"/>
<path d="M107.357 334.371C107.357 334.371 103.394 333.948 103.711 331.526C104.029 329.103 119.141 322.894 128.055 332.948C128.055 332.948 122.351 342.756 114.096 342.886C105.84 343.015 107.357 334.371 107.357 334.371Z" fill="#EBEBEB"/>
<path d="M99.9601 328.503C99.9601 328.503 103.559 330.232 104.57 328.021C105.581 325.81 96.044 312.521 83.1551 316.343C83.1551 316.343 82.814 327.692 89.7524 332.161C96.6908 336.629 99.9601 328.503 99.9601 328.503Z" fill="#EBEBEB"/>
<path d="M118.775 366.23C118.775 366.23 116.035 364.019 118.999 362.949C121.962 361.879 136.45 362.173 136.639 376.544C136.639 376.544 119.751 379.342 117.658 373.874C115.565 368.406 118.775 366.23 118.775 366.23Z" fill="#EBEBEB"/>
<path d="M84.3068 333.983C84.3068 333.983 87.0468 331.773 84.0951 330.691C81.1433 329.609 66.6315 329.926 66.4551 344.285C66.4551 344.285 83.3542 347.096 85.4357 341.627C87.5172 336.159 84.3068 333.983 84.3068 333.983Z" fill="#EBEBEB"/>
<path d="M93.2342 345.579C93.2342 345.579 93.4812 342.898 91.3056 343.945C89.13 344.991 81.5801 353.164 89.4122 360.903C89.4122 360.903 99.9962 353.082 98.0676 349.013C96.139 344.944 93.2342 345.579 93.2342 345.579Z" fill="#EBEBEB"/>
<path d="M121.21 349.413C121.21 349.413 119.563 347.273 121.962 347.002C124.361 346.732 135.11 349.601 132.605 360.338C132.605 360.338 119.516 359.35 118.952 354.893C118.387 350.436 121.21 349.413 121.21 349.413Z" fill="#EBEBEB"/>
<path d="M76.9701 449.749H121.893L126.738 400.568H72.125L76.9701 449.749Z" fill="#F0F0F0"/>
<path d="M69.7369 406.002H129.148V395.147H69.7369V406.002Z" fill="#E6E6E6"/>
<path d="M487.122 406.696C487.122 406.226 485.546 360.032 478.032 352.729C470.729 345.673 462.332 352.459 461.991 352.729L461.227 351.824C461.332 351.753 470.787 344.027 478.867 351.824C486.722 359.456 488.275 404.673 488.275 406.59L487.122 406.696Z" fill="#E0E0E0"/>
<path d="M487.769 415.763C487.769 415.222 482.641 360.314 502.692 337.3L503.574 338.076C483.853 360.702 488.886 415.104 488.945 415.692L487.769 415.763Z" fill="#E0E0E0"/>
<path d="M487.028 409.965L485.852 409.883C485.852 409.259 489.78 347.461 475.068 333.937L475.868 333.066C490.991 346.978 487.205 407.39 487.028 409.965Z" fill="#E0E0E0"/>
<path d="M488.946 409.93H487.77C487.77 408.225 488.252 368.194 499.624 361.714C500.705 361.018 501.937 360.59 503.218 360.465C504.498 360.34 505.79 360.522 506.985 360.997C513.865 363.843 517.275 376.085 517.417 376.602L516.241 376.92C516.241 376.79 512.842 364.713 506.503 362.09C505.473 361.687 504.362 361.535 503.261 361.648C502.161 361.76 501.103 362.134 500.176 362.737C489.416 368.864 488.946 409.518 488.946 409.93Z" fill="#E0E0E0"/>
<path d="M484.512 409.953L483.336 409.882C483.336 409.577 485.053 378.248 476.598 367.217C474.552 364.536 472.317 363.266 469.977 363.43C464.438 363.818 459.793 371.921 459.746 372.003L458.723 371.427C458.923 371.063 463.721 362.689 469.895 362.254C472.646 362.054 475.222 363.43 477.527 366.5C486.253 377.883 484.595 408.648 484.512 409.953Z" fill="#E0E0E0"/>
<path d="M486.371 414.21C486.136 411.176 480.844 339.652 490.169 327.057L491.11 327.751C482.043 340.004 487.488 413.387 487.582 414.128L486.371 414.21Z" fill="#E0E0E0"/>
<path d="M509.526 368.194C509.526 368.194 503.928 370.252 505.598 375.121C507.268 379.989 524.932 387.986 524.932 387.986C524.932 387.986 532.34 381.2 525.531 370.17C518.722 359.139 509.667 364.713 509.526 368.194Z" fill="#EBEBEB"/>
<path d="M485.217 358.927C485.217 358.927 491.167 358.68 491.508 363.807C491.849 368.935 478.572 383.129 478.572 383.129C478.572 383.129 469.164 379.719 471.164 366.912C473.163 354.105 483.735 355.775 485.217 358.927Z" fill="#EBEBEB"/>
<path d="M480.184 334.371C480.184 334.371 484.147 333.948 483.83 331.526C483.512 329.103 468.4 322.894 459.486 332.948C459.486 332.948 465.19 342.756 473.445 342.886C481.701 343.015 480.184 334.371 480.184 334.371Z" fill="#EBEBEB"/>
<path d="M487.57 328.503C487.57 328.503 483.983 330.232 482.972 328.021C481.961 325.81 491.498 312.521 504.387 316.343C504.387 316.343 504.728 327.692 497.79 332.161C490.851 336.629 487.57 328.503 487.57 328.503Z" fill="#EBEBEB"/>
<path d="M468.789 366.23C468.789 366.23 471.529 364.019 468.566 362.949C465.602 361.879 451.102 362.173 450.926 376.544C450.926 376.544 467.813 379.342 469.906 373.874C472 368.406 468.789 366.23 468.789 366.23Z" fill="#EBEBEB"/>
<path d="M503.233 333.983C503.233 333.983 500.493 331.773 503.445 330.691C506.397 329.609 520.909 329.926 521.085 344.285C521.085 344.285 504.186 347.096 502.104 341.627C500.023 336.159 503.233 333.983 503.233 333.983Z" fill="#EBEBEB"/>
<path d="M494.297 345.579C494.297 345.579 494.061 342.898 496.225 343.945C498.389 344.991 505.963 353.164 498.13 360.903C498.13 360.903 487.546 353.082 489.475 349.013C491.404 344.944 494.297 345.579 494.297 345.579Z" fill="#EBEBEB"/>
<path d="M466.331 349.413C466.331 349.413 467.977 347.273 465.578 347.002C463.179 346.732 452.43 349.601 454.994 360.338C454.994 360.338 468.083 359.35 468.647 354.893C469.212 350.436 466.331 349.413 466.331 349.413Z" fill="#EBEBEB"/>
<path d="M510.561 449.749H465.65L460.805 400.568H515.418L510.561 449.749Z" fill="#F0F0F0"/>
<path d="M517.816 395.136H458.404V405.99H517.816V395.136Z" fill="#E6E6E6"/>
<path d="M279.582 150.257H159.959V390.796H279.582V150.257Z" fill="#FAFAFA"/>
<path d="M282.345 146.988H157.195V158.795H282.345V146.988Z" fill="#F0F0F0"/>
<path d="M282.345 160.101H157.195V166.004H282.345V160.101Z" fill="#F0F0F0"/>
<path d="M282.345 168.861H157.195V174.765H282.345V168.861Z" fill="#F0F0F0"/>
<path d="M282.345 177.623H157.195V183.527H282.345V177.623Z" fill="#F0F0F0"/>
<path d="M282.345 186.384H157.195V192.287H282.345V186.384Z" fill="#F0F0F0"/>
<path d="M282.345 195.134H157.195V201.037H282.345V195.134Z" fill="#F0F0F0"/>
<path d="M282.345 203.895H157.195V209.798H282.345V203.895Z" fill="#F0F0F0"/>
<path d="M282.345 212.656H157.195V218.56H282.345V212.656Z" fill="#F0F0F0"/>
<path d="M282.345 221.417H157.195V227.321H282.345V221.417Z" fill="#F0F0F0"/>
<path d="M282.345 230.178H157.195V236.081H282.345V230.178Z" fill="#F0F0F0"/>
<path d="M282.345 238.939H157.195V244.843H282.345V238.939Z" fill="#F0F0F0"/>
<path d="M282.345 247.688H157.195V253.592H282.345V247.688Z" fill="#F0F0F0"/>
<path d="M282.345 256.45H157.195V262.354H282.345V256.45Z" fill="#F0F0F0"/>
<path d="M282.345 265.211H157.195V271.114H282.345V265.211Z" fill="#F0F0F0"/>
<path d="M282.345 273.973H157.195V279.876H282.345V273.973Z" fill="#F0F0F0"/>
<path d="M282.345 282.733H157.195V288.637H282.345V282.733Z" fill="#F0F0F0"/>
<path d="M282.345 291.483H157.195V297.387H282.345V291.483Z" fill="#F0F0F0"/>
<path d="M282.345 300.244H157.195V306.148H282.345V300.244Z" fill="#F0F0F0"/>
<path d="M282.345 309.006H157.195V314.909H282.345V309.006Z" fill="#F0F0F0"/>
<path d="M282.345 317.767H157.195V323.67H282.345V317.767Z" fill="#F0F0F0"/>
<path d="M282.345 326.528H157.195V332.432H282.345V326.528Z" fill="#F0F0F0"/>
<path d="M282.345 335.289H157.195V341.193H282.345V335.289Z" fill="#F0F0F0"/>
<path d="M282.345 344.038H157.195V349.942H282.345V344.038Z" fill="#F0F0F0"/>
<path d="M282.345 352.8H157.195V358.703H282.345V352.8Z" fill="#F0F0F0"/>
<path d="M282.345 361.561H157.195V367.464H282.345V361.561Z" fill="#F0F0F0"/>
<path d="M282.345 370.322H157.195V376.226H282.345V370.322Z" fill="#F0F0F0"/>
<path d="M282.345 379.083H157.195V384.987H282.345V379.083Z" fill="#F0F0F0"/>
<path d="M282.345 387.833H157.195V393.737H282.345V387.833Z" fill="#F0F0F0"/>
<path d="M428.041 150.257H308.418V390.796H428.041V150.257Z" fill="#FAFAFA"/>
<path d="M430.804 146.988H305.654V158.795H430.804V146.988Z" fill="#F0F0F0"/>
<path d="M430.804 160.101H305.654V161.183H430.804V160.101Z" fill="#F0F0F0"/>
<path d="M430.804 162.57H305.654V163.652H430.804V162.57Z" fill="#F0F0F0"/>
<path d="M430.804 165.027H305.654V166.109H430.804V165.027Z" fill="#F0F0F0"/>
<path d="M430.804 167.497H305.654V168.579H430.804V167.497Z" fill="#F0F0F0"/>
<path d="M430.804 169.955H305.654V171.037H430.804V169.955Z" fill="#F0F0F0"/>
<path d="M430.804 172.425H305.654V173.507H430.804V172.425Z" fill="#F0F0F0"/>
<path d="M430.804 174.883H305.654V175.965H430.804V174.883Z" fill="#F0F0F0"/>
<path d="M430.804 177.353H305.654V178.434H430.804V177.353Z" fill="#F0F0F0"/>
<path d="M430.804 179.822H305.654V180.904H430.804V179.822Z" fill="#F0F0F0"/>
<path d="M430.804 182.279H305.654V183.361H430.804V182.279Z" fill="#F0F0F0"/>
<path d="M430.804 184.749H305.654V185.831H430.804V184.749Z" fill="#F0F0F0"/>
<path d="M430.804 187.207H305.654V188.289H430.804V187.207Z" fill="#F0F0F0"/>
<path d="M430.804 189.677H305.654V190.759H430.804V189.677Z" fill="#F0F0F0"/>
<path d="M430.804 192.135H305.654V193.217H430.804V192.135Z" fill="#F0F0F0"/>
<path d="M430.804 194.604H305.654V195.686H430.804V194.604Z" fill="#F0F0F0"/>
<path d="M430.804 197.074H305.654V198.156H430.804V197.074Z" fill="#F0F0F0"/>
<path d="M430.804 199.531H305.654V200.613H430.804V199.531Z" fill="#F0F0F0"/>
<path d="M430.804 202.001H305.654V203.083H430.804V202.001Z" fill="#F0F0F0"/>
<path d="M311.624 116.091C313.203 106.365 306.599 97.2016 296.873 95.6229C287.148 94.0443 277.984 100.649 276.405 110.374C274.827 120.099 281.431 129.263 291.156 130.842C300.882 132.42 310.045 125.816 311.624 116.091Z" fill="#F0F0F0"/>
<path d="M308.989 115.663C310.331 107.393 304.715 99.6007 296.445 98.2583C288.175 96.9158 280.382 102.532 279.04 110.802C277.698 119.072 283.314 126.865 291.584 128.207C299.854 129.549 307.646 123.933 308.989 115.663Z" fill="#FAFAFA"/>
<path d="M293.282 102.817V113.425L286.262 109.45" fill="#F0F0F0"/>
<path d="M293.282 102.817V113.425L286.262 109.45" stroke="#E0E0E0" stroke-width="2" stroke-linecap="round" stroke-linejoin="round"/>
<path d="M294.001 502.81C419.93 502.81 522.016 496.85 522.016 489.498C522.016 482.146 419.93 476.186 294.001 476.186C168.072 476.186 65.9863 482.146 65.9863 489.498C65.9863 496.85 168.072 502.81 294.001 502.81Z" fill="#F5F5F5"/>
<path opacity="0.5" d="M515.652 180.822H300.773C298.402 180.822 296.48 182.744 296.48 185.115V419.68C296.48 422.05 298.402 423.972 300.773 423.972H515.652C518.022 423.972 519.944 422.05 519.944 419.68V185.115C519.944 182.744 518.022 180.822 515.652 180.822Z" fill="#DA693F"/>
<path d="M508.597 176.118H293.718C291.348 176.118 289.426 178.04 289.426 180.411V414.976C289.426 417.346 291.348 419.268 293.718 419.268H508.597C510.968 419.268 512.889 417.346 512.889 414.976V180.411C512.889 178.04 510.968 176.118 508.597 176.118Z" fill="#DA693F"/>
<path opacity="0.8" d="M508.597 176.118H293.718C291.348 176.118 289.426 178.04 289.426 180.411V414.976C289.426 417.346 291.348 419.268 293.718 419.268H508.597C510.968 419.268 512.889 417.346 512.889 414.976V180.411C512.889 178.04 510.968 176.118 508.597 176.118Z" fill="white"/>
<path opacity="0.5" d="M222.382 175.071H113.343C110.973 175.071 109.051 176.993 109.051 179.364V378.649C109.051 381.019 110.973 382.941 113.343 382.941H222.382C224.753 382.941 226.674 381.019 226.674 378.649V179.364C226.674 176.993 224.753 175.071 222.382 175.071Z" fill="#DA693F"/>
<path d="M215.325 168.016H106.287C103.916 168.016 101.994 169.937 101.994 172.308V371.593C101.994 373.964 103.916 375.885 106.287 375.885H215.325C217.696 375.885 219.618 373.964 219.618 371.593V172.308C219.618 169.937 217.696 168.016 215.325 168.016Z" fill="#DA693F"/>
<path opacity="0.8" d="M215.325 168.016H106.287C103.916 168.016 101.994 169.937 101.994 172.308V371.593C101.994 373.964 103.916 375.885 106.287 375.885H215.325C217.696 375.885 219.618 373.964 219.618 371.593V172.308C219.618 169.937 217.696 168.016 215.325 168.016Z" fill="white"/>
<path d="M509.302 107.381H106.522C104.021 107.381 101.994 109.408 101.994 111.908V130.207C101.994 132.708 104.021 134.735 106.522 134.735H509.302C511.802 134.735 513.829 132.708 513.829 130.207V111.908C513.829 109.408 511.802 107.381 509.302 107.381Z" fill="#DA693F"/>
<path opacity="0.6" d="M472.035 121.058C472.023 122.1 471.704 123.115 471.116 123.975C470.529 124.836 469.701 125.503 468.735 125.894C467.769 126.285 466.709 126.381 465.689 126.17C464.668 125.96 463.733 125.453 463.001 124.712C462.268 123.971 461.771 123.03 461.572 122.008C461.373 120.985 461.481 119.926 461.882 118.965C462.283 118.004 462.96 117.182 463.827 116.605C464.694 116.027 465.713 115.719 466.755 115.719C467.452 115.722 468.142 115.862 468.785 116.133C469.428 116.403 470.012 116.797 470.502 117.293C470.993 117.789 471.38 118.377 471.643 119.023C471.906 119.669 472.039 120.36 472.035 121.058Z" fill="white"/>
<path opacity="0.6" d="M488.545 121.058C488.533 122.1 488.213 123.115 487.626 123.975C487.039 124.836 486.21 125.503 485.245 125.894C484.279 126.285 483.219 126.381 482.199 126.17C481.178 125.96 480.243 125.453 479.51 124.712C478.778 123.971 478.281 123.03 478.082 122.008C477.883 120.985 477.991 119.926 478.392 118.965C478.793 118.004 479.47 117.182 480.337 116.605C481.204 116.027 482.222 115.719 483.264 115.719C483.962 115.722 484.652 115.862 485.295 116.133C485.938 116.403 486.521 116.797 487.012 117.293C487.502 117.789 487.89 118.377 488.153 119.023C488.416 119.669 488.549 120.36 488.545 121.058Z" fill="white"/>
<path opacity="0.6" d="M505.045 121.058C505.033 122.101 504.712 123.118 504.124 123.979C503.535 124.84 502.704 125.508 501.736 125.897C500.768 126.287 499.707 126.381 498.686 126.168C497.664 125.955 496.729 125.444 495.998 124.699C495.267 123.955 494.772 123.011 494.577 121.986C494.382 120.961 494.495 119.901 494.902 118.941C495.309 117.98 495.991 117.161 496.863 116.588C497.734 116.014 498.756 115.712 499.8 115.719C501.202 115.734 502.541 116.305 503.524 117.305C504.507 118.306 505.054 119.655 505.045 121.058Z" fill="white"/>
<path opacity="0.6" d="M125.161 114.189H111.59V127.913H125.161V114.189Z" fill="white"/>
<path d="M212.279 201.143H85.459V225.403H212.279V201.143Z" fill="#DA693F"/>
<path opacity="0.2" d="M212.279 201.143H85.459V225.403H212.279V201.143Z" fill="black"/>
<path d="M103.711 208.21H93.5859V218.335H103.711V208.21Z" fill="white"/>
<path d="M95.7969 213.303L97.6902 215.725L101.5 210.821" stroke="#DA693F" stroke-width="1.5" stroke-linecap="round" stroke-linejoin="round"/>
<path d="M205.6 218.959H195.416V212.068H205.6V218.959ZM200.508 206.976C199.362 206.976 198.263 207.43 197.452 208.239C196.641 209.048 196.184 210.146 196.18 211.292H197.356C197.405 210.49 197.758 209.738 198.343 209.188C198.927 208.638 199.7 208.332 200.502 208.332C201.305 208.332 202.077 208.638 202.662 209.188C203.246 209.738 203.599 210.49 203.648 211.292H204.824C204.821 210.148 204.365 209.052 203.556 208.243C202.748 207.434 201.652 206.979 200.508 206.976Z" fill="#DA693F"/>
<path d="M193.64 245.995H66.8203V270.256H193.64V245.995Z" fill="#DA693F"/>
<path opacity="0.4" d="M193.64 245.995H66.8203V270.256H193.64V245.995Z" fill="white"/>
<path d="M85.0726 253.051H74.9473V263.176H85.0726V253.051Z" fill="white"/>
<path d="M186.96 256.92H176.775V263.8H186.96V256.92Z" fill="white"/>
<path d="M186.185 256.167H185.009C185.009 255.335 184.678 254.536 184.089 253.947C183.5 253.358 182.701 253.028 181.869 253.028C181.036 253.028 180.237 253.358 179.648 253.947C179.06 254.536 178.729 255.335 178.729 256.167H177.553C177.553 255.023 178.007 253.925 178.817 253.116C179.626 252.306 180.724 251.852 181.869 251.852C183.013 251.852 184.111 252.306 184.92 253.116C185.73 253.925 186.185 255.023 186.185 256.167Z" fill="white"/>
<path d="M212.939 292.941H86.1191V317.202H212.939V292.941Z" fill="#DA693F"/>
<path opacity="0.4" d="M212.939 292.941H86.1191V317.202H212.939V292.941Z" fill="white"/>
<path d="M104.37 300.009H94.2441V310.134H104.37V300.009Z" fill="white"/>
<path d="M96.4551 305.089L98.3484 307.523L102.159 302.619" stroke="#DA693F" stroke-width="1.5" stroke-linecap="round" stroke-linejoin="round"/>
<g opacity="0.6">
<path d="M206.258 303.866H196.074V310.746H206.258V303.866Z" fill="white"/>
<path d="M205.482 303.125H204.306C204.332 302.696 204.27 302.266 204.124 301.862C203.977 301.457 203.75 301.087 203.455 300.774C203.161 300.46 202.805 300.211 202.41 300.04C202.015 299.869 201.59 299.781 201.16 299.781C200.73 299.781 200.304 299.869 199.909 300.04C199.514 300.211 199.159 300.46 198.864 300.774C198.569 301.087 198.342 301.457 198.196 301.862C198.05 302.266 197.988 302.696 198.014 303.125H196.838C196.807 302.539 196.896 301.952 197.1 301.401C197.303 300.85 197.617 300.347 198.021 299.921C198.425 299.495 198.912 299.155 199.452 298.924C199.991 298.692 200.572 298.572 201.16 298.572C201.747 298.572 202.328 298.692 202.868 298.924C203.407 299.155 203.894 299.495 204.299 299.921C204.703 300.347 205.016 300.85 205.22 301.401C205.423 301.952 205.512 302.539 205.482 303.125Z" fill="white"/>
</g>
<path d="M483.547 266.505H384.516V330.914H483.547V266.505Z" fill="#DA693F"/>
<path opacity="0.5" d="M483.547 266.505H384.516V330.914H483.547V266.505Z" fill="white"/>
<path d="M479.925 278.57H388.139V327.68H479.925V278.57Z" fill="#DA693F"/>
<path d="M463.508 285.909H395.617V288.026H463.508V285.909Z" fill="white"/>
<path d="M428.192 292.389H395.617V294.505H428.192V292.389Z" fill="white"/>
<path d="M436.648 298.856H395.617V300.973H436.648V298.856Z" fill="white"/>
<path d="M410.082 305.324H395.617V307.441H410.082V305.324Z" fill="white"/>
<path d="M404.978 311.793H395.617V313.91H404.978V311.793Z" fill="white"/>
<path d="M486.382 393.512V429.428C486.384 430.4 486.035 431.34 485.4 432.077C484.765 432.813 483.886 433.296 482.924 433.438C482.721 433.455 482.516 433.455 482.313 433.438H436.178C435.102 433.438 434.07 433.01 433.309 432.249C432.549 431.488 432.121 430.456 432.121 429.38V393.512C432.118 392.896 432.259 392.288 432.533 391.737C432.864 391.051 433.381 390.472 434.026 390.066C434.671 389.661 435.417 389.445 436.178 389.443H454.265C455.11 389.429 455.93 389.159 456.617 388.667C457.309 388.164 457.827 387.457 458.099 386.645C458.365 385.828 458.882 385.116 459.577 384.611C460.272 384.106 461.109 383.834 461.968 383.834H471.576C472.435 383.832 473.273 384.104 473.969 384.609C474.664 385.114 475.181 385.827 475.445 386.645C475.713 387.459 476.231 388.169 476.926 388.671C477.621 389.174 478.456 389.444 479.314 389.443H482.266C482.804 389.437 483.338 389.538 483.837 389.74C484.336 389.941 484.791 390.24 485.173 390.618C485.556 390.997 485.86 391.448 486.068 391.944C486.275 392.441 486.382 392.974 486.382 393.512Z" fill="#DA693F"/>
<path opacity="0.3" d="M482.924 395.207V433.438H436.178C435.102 433.438 434.07 433.011 433.309 432.25C432.549 431.489 432.121 430.457 432.121 429.381V393.513C432.118 392.897 432.259 392.289 432.533 391.737H479.455C480.371 391.752 481.244 392.123 481.891 392.77C482.539 393.418 482.909 394.291 482.924 395.207Z" fill="white"/>
<path d="M376.284 340.651V385.563L367.511 394.336H335.336V340.651H376.284Z" fill="#DA693F"/>
<path opacity="0.4" d="M376.284 340.651V385.563L367.511 394.336H335.336V340.651H376.284Z" fill="white"/>
<path d="M376.285 385.563H367.512V394.336L376.285 385.563Z" fill="#DA693F"/>
<path d="M371.321 349.766H340.439V351.447H371.321V349.766Z" fill="#DA693F"/>
<path d="M366.417 354.929H340.439V356.61H366.417V354.929Z" fill="#DA693F"/>
<path d="M371.321 360.079H340.439V361.761H371.321V360.079Z" fill="#DA693F"/>
<path d="M351.964 365.242H340.439V366.924H351.964V365.242Z" fill="#DA693F"/>
<path d="M347.907 370.404H340.439V372.086H347.907V370.404Z" fill="#DA693F"/>
<path d="M403.885 169.227H320.166V238.399H403.885V169.227Z" fill="#DA693F"/>
<path opacity="0.6" d="M320.166 169.227V238.399H403.885V169.227H320.166ZM401.157 235.671H322.906V171.955H401.157V235.671Z" fill="white"/>
<path opacity="0.3" d="M322.906 216.784L346.897 199.355L364.725 216.784L382.553 206.6L401.157 218.054V235.67H322.906V216.784Z" fill="white"/>
<path opacity="0.6" d="M379.425 187.678C379.423 188.811 379.085 189.917 378.454 190.857C377.823 191.797 376.928 192.529 375.881 192.961C374.835 193.393 373.683 193.505 372.573 193.282C371.463 193.06 370.444 192.514 369.644 191.712C368.844 190.911 368.3 189.89 368.08 188.78C367.86 187.669 367.974 186.518 368.408 185.472C368.842 184.426 369.576 183.533 370.517 182.904C371.459 182.275 372.566 181.939 373.698 181.939C374.451 181.939 375.197 182.088 375.892 182.377C376.588 182.665 377.22 183.088 377.752 183.621C378.284 184.154 378.705 184.787 378.992 185.483C379.279 186.179 379.426 186.925 379.425 187.678Z" fill="white"/>
<path d="M409.354 241.269V243.621H407.002" stroke="#263238" stroke-miterlimit="10"/>
<path d="M403.309 243.632H319.107" stroke="#263238" stroke-miterlimit="10" stroke-dasharray="4.18 3.14"/>
<path d="M317.26 243.621H314.908V241.269" stroke="#263238" stroke-miterlimit="10"/>
<path d="M314.908 237.869V168.18" stroke="#263238" stroke-miterlimit="10" stroke-dasharray="3.85 2.89"/>
<path d="M314.908 166.475V164.123H317.26" stroke="#263238" stroke-miterlimit="10"/>
<path d="M320.953 164.123H405.155" stroke="#263238" stroke-miterlimit="10" stroke-dasharray="4.18 3.14"/>
<path d="M407.002 164.123H409.354V166.475" stroke="#263238" stroke-miterlimit="10"/>
<path d="M409.354 169.873V239.575" stroke="#263238" stroke-miterlimit="10" stroke-dasharray="3.85 2.89"/>
<path d="M411.2 162.265H407.496V165.969H411.2V162.265Z" fill="#263238"/>
<path d="M411.2 241.774H407.496V245.479H411.2V241.774Z" fill="#263238"/>
<path d="M316.755 241.774H313.051V245.479H316.755V241.774Z" fill="#263238"/>
<path d="M316.755 162.265H313.051V165.969H316.755V162.265Z" fill="#263238"/>
<path d="M363.878 162.265H360.174V165.969H363.878V162.265Z" fill="#263238"/>
<path d="M363.984 241.774H360.279V245.479H363.984V241.774Z" fill="#263238"/>
<path d="M411.2 202.025H407.496V205.73H411.2V202.025Z" fill="#263238"/>
<path d="M316.755 202.025H313.051V205.73H316.755V202.025Z" fill="#263238"/>
<path d="M205.8 278.265L193.288 288.425C193.288 288.425 190.23 288.484 189.266 289.495C188.302 290.507 184.562 298.021 185.138 299.045C185.714 300.068 191.83 302.09 193.135 300.879C194.44 299.668 196.663 292.718 196.663 291.977L212.657 281.252L205.8 278.265Z" fill="#FAC7B5"/>
<path d="M199.074 282.958L201.873 289.061C201.873 289.061 219.078 281.064 222.806 276.36C223.758 275.184 225.076 273.22 226.499 271.021C228.851 267.387 231.485 263.013 233.319 259.943C234.683 257.65 235.601 256.086 235.601 256.086L225.863 240.728C223.735 242.362 217.22 268.611 216.056 270.022C214.891 271.433 199.074 282.958 199.074 282.958Z" fill="#DA693F"/>
<mask id="mask0_2466_4310" style="mask-type:luminance" maskUnits="userSpaceOnUse" x="199" y="240" width="37" height="50">
<path d="M199.074 282.958L201.873 289.061C201.873 289.061 219.078 281.064 222.806 276.36C223.758 275.184 225.076 273.22 226.499 271.021C228.851 267.387 231.485 263.013 233.319 259.943C234.683 257.65 235.601 256.086 235.601 256.086L225.863 240.728C223.735 242.362 217.22 268.611 216.056 270.022C214.891 271.433 199.074 282.958 199.074 282.958Z" fill="white"/>
</mask>
<g mask="url(#mask0_2466_4310)">
<path opacity="0.1" d="M226.498 270.975C228.85 267.341 231.484 262.966 233.319 259.897L228.791 248.725C228.791 248.725 226.334 261.543 226.498 270.975Z" fill="black"/>
</g>
<path d="M305.818 220.205L318.143 210.633C318.143 210.633 319.142 207.74 320.401 207.105C321.659 206.47 329.938 205.282 330.75 206.093C331.561 206.905 331.596 213.408 330.044 214.325C328.492 215.243 321.189 215.219 320.495 214.949L307.03 224.78L305.818 220.205Z" fill="#FAC7B5"/>
<path d="M201.721 483.336L209.094 484.642L212.128 474.575L214.88 465.332L206.378 462.356L203.908 473.458L201.721 483.336Z" fill="#FAC7B5"/>
<path opacity="0.2" d="M203.859 473.693L212.091 474.775L214.867 465.437L206.364 462.403L203.859 473.693Z" fill="black"/>
<path d="M250.994 483.512H258.497L259.72 473.458L260.837 464.073L251.935 462.721L251.441 473.752L250.994 483.512Z" fill="#FAC7B5"/>
<path opacity="0.2" d="M251.441 474.41L259.72 474.045L260.838 464.367L251.935 462.861L251.441 474.41Z" fill="black"/>
<path d="M203.166 465.613L215.302 467.754C227.545 437.248 236.259 411.776 242.35 390.643C245.667 379.236 248.289 369.099 250.277 360.067L249.759 393.289V468.212H262.001C291.978 325.916 270.739 292.835 270.739 292.835L234.871 286.838C233.449 293.479 232.447 300.204 231.872 306.971L230.249 318.86L216.231 391.278L203.166 465.613Z" fill="#263238"/>
<path d="M217.207 466.261L202.154 461.263L202.354 467.672L214.808 471.635L217.207 466.261Z" fill="#DA693F"/>
<path opacity="0.6" d="M217.207 466.261L202.154 461.263L202.354 467.672L214.808 471.635L217.207 466.261Z" fill="white"/>
<path d="M263.672 466.954L247.984 464.649L249.29 470.929L262.238 472.67L263.672 466.954Z" fill="#DA693F"/>
<path opacity="0.6" d="M263.672 466.954L247.984 464.649L249.29 470.929L262.238 472.67L263.672 466.954Z" fill="white"/>
<path opacity="0.2" d="M240.764 396.23C241.328 394.325 241.94 392.467 242.457 390.644C245.468 380.283 247.467 370.981 249.819 362.62L250.995 347.238C250.995 347.238 243.316 330.339 246.185 318.449C245.926 319.12 240.846 332.079 242.845 345.027C243.314 362.122 242.619 379.229 240.764 396.23Z" fill="black"/>
<path d="M239.728 225.239C239.827 225.309 239.934 225.368 240.046 225.415C241.546 226.286 243.205 226.846 244.926 227.062C249.936 227.556 253.158 226.462 255.04 223.981C257.651 220.288 257.639 214.349 256.298 207.352C255.857 204.557 254.976 201.85 253.687 199.332C253.687 199.332 253.687 199.226 253.687 199.202C253.687 199.179 253.582 199.003 253.523 198.92C252.735 197.506 251.605 196.313 250.237 195.448C248.869 194.583 247.306 194.075 245.691 193.969C244.285 193.84 242.869 193.868 241.469 194.052C227.686 195.686 228.145 218.736 239.728 225.239Z" fill="#FAC7B5"/>
<path opacity="0.2" d="M240.045 225.416C241.549 226.224 243.201 226.72 244.902 226.874C249.912 227.368 253.134 226.109 254.992 223.593C252.181 224.692 249.087 224.841 246.184 224.016C245.121 223.767 244.016 223.764 242.953 224.006C241.889 224.249 240.894 224.731 240.045 225.416Z" fill="black"/>
<path d="M239.011 236.669C237.776 240.503 242.703 242.608 242.703 242.608C251.37 239.868 253.346 235.552 253.346 235.552C246.76 231.248 249.818 221.217 249.818 221.217L248.336 221.77L238.234 222.734C238.234 222.734 240.469 228.285 240.716 229.519C241.927 236.07 239.011 236.669 239.011 236.669Z" fill="#FAC7B5"/>
<path d="M253.699 199.238C253.699 199.238 255.71 208.776 247.114 214.103C247.114 214.103 244.503 224.616 238.741 225.51C230.897 226.686 222.512 216.431 223.747 204.671C225.358 189.43 247.608 185.314 253.699 199.238Z" fill="#263238"/>
<path d="M251.383 210.727C251.183 209.222 249.643 206.858 247.35 207.505C245.056 208.152 244.421 214.314 250.536 214.867C251.407 214.949 251.795 213.867 251.383 210.727Z" fill="#FAC7B5"/>
<path d="M259.284 482.16H250.923C250.749 482.157 250.579 482.215 250.443 482.325C250.308 482.435 250.215 482.589 250.182 482.76L248.465 490.51C248.429 490.675 248.426 490.846 248.456 491.013C248.486 491.179 248.549 491.338 248.641 491.48C248.733 491.622 248.852 491.745 248.991 491.841C249.131 491.936 249.288 492.004 249.453 492.039C249.547 492.05 249.642 492.05 249.735 492.039C253.158 492.039 253.44 491.78 257.732 491.78C260.378 491.78 268.375 492.05 272.032 492.05C275.69 492.05 276.16 488.44 274.667 488.111C267.952 486.641 262.907 484.583 260.754 482.69C260.35 482.332 259.824 482.143 259.284 482.16Z" fill="#263238"/>
<path d="M259.897 483.336C259.856 483.328 259.818 483.306 259.79 483.274C259.762 483.242 259.746 483.202 259.744 483.159C259.739 483.121 259.744 483.081 259.761 483.045C259.778 483.01 259.805 482.98 259.838 482.96C260.156 482.76 262.967 481.031 263.931 481.537C264.04 481.587 264.131 481.669 264.194 481.772C264.257 481.874 264.288 481.993 264.284 482.113C264.316 482.319 264.292 482.53 264.216 482.725C264.139 482.919 264.013 483.089 263.849 483.218C263.362 483.559 262.77 483.717 262.179 483.665C261.408 483.643 260.643 483.533 259.897 483.336ZM260.497 483.054C261.515 483.392 262.622 483.338 263.602 482.901C263.703 482.808 263.781 482.693 263.828 482.564C263.875 482.435 263.89 482.296 263.872 482.16C263.872 481.983 263.802 481.913 263.743 481.913C263.659 481.87 263.566 481.85 263.472 481.854C262.412 482.05 261.398 482.445 260.485 483.018L260.497 483.054Z" fill="#DA693F"/>
<path d="M259.827 483.336C259.796 483.315 259.771 483.287 259.755 483.254C259.738 483.221 259.731 483.184 259.733 483.147C259.733 483.03 259.956 480.525 260.909 479.702C261.029 479.598 261.169 479.521 261.322 479.476C261.474 479.432 261.634 479.42 261.791 479.443C261.947 479.44 262.099 479.493 262.219 479.593C262.34 479.692 262.421 479.83 262.449 479.984C262.637 480.901 260.897 482.818 259.991 483.3H259.897C259.876 483.317 259.852 483.329 259.827 483.336ZM261.226 479.949C260.61 480.731 260.249 481.683 260.191 482.677C261.097 481.995 262.202 480.548 262.097 479.984C262.097 479.925 262.097 479.772 261.791 479.772H261.697C261.522 479.773 261.354 479.841 261.226 479.96V479.949Z" fill="#DA693F"/>
<path d="M209.388 482.16H201.015C200.842 482.161 200.674 482.222 200.54 482.33C200.405 482.439 200.311 482.591 200.274 482.76L198.557 490.51C198.521 490.675 198.518 490.846 198.548 491.012C198.578 491.179 198.641 491.338 198.733 491.48C198.824 491.622 198.943 491.745 199.083 491.841C199.222 491.936 199.379 492.004 199.545 492.039C199.639 492.05 199.733 492.05 199.827 492.039C203.261 492.039 203.532 491.78 207.836 491.78C210.482 491.78 218.42 492.05 222.124 492.05C225.829 492.05 226.264 488.44 224.77 488.111C218.055 486.641 213.01 484.583 210.846 482.689C210.446 482.333 209.924 482.143 209.388 482.16Z" fill="#263238"/>
<path d="M209.976 483.336C209.934 483.328 209.896 483.306 209.869 483.274C209.841 483.242 209.825 483.202 209.823 483.159C209.82 483.12 209.828 483.08 209.847 483.044C209.866 483.009 209.894 482.979 209.929 482.96C210.234 482.76 213.045 481.031 214.021 481.537C214.127 481.591 214.217 481.673 214.279 481.775C214.341 481.877 214.374 481.994 214.374 482.113C214.406 482.319 214.383 482.53 214.306 482.725C214.23 482.919 214.103 483.089 213.939 483.218C213.45 483.555 212.86 483.713 212.269 483.665C211.494 483.644 210.725 483.533 209.976 483.336ZM210.576 483.054C211.593 483.392 212.701 483.338 213.68 482.901C213.783 482.809 213.863 482.694 213.912 482.565C213.961 482.436 213.978 482.297 213.962 482.16C213.962 481.983 213.88 481.913 213.821 481.913C213.742 481.869 213.653 481.848 213.563 481.854C212.503 482.053 211.49 482.448 210.576 483.018V483.054Z" fill="#DA693F"/>
<path d="M209.928 483.336C209.895 483.318 209.867 483.291 209.848 483.257C209.829 483.224 209.82 483.186 209.823 483.148C209.823 483.03 210.046 480.525 211.057 479.702C211.174 479.597 211.313 479.519 211.463 479.475C211.614 479.43 211.772 479.419 211.928 479.443C212.085 479.44 212.239 479.493 212.361 479.592C212.484 479.691 212.568 479.83 212.598 479.984C212.774 480.901 211.034 482.818 210.14 483.301H210.034L209.928 483.336ZM211.316 479.949C210.704 480.732 210.347 481.685 210.293 482.677C211.187 481.995 212.292 480.549 212.186 479.984C212.186 479.925 212.186 479.773 211.892 479.773H211.787C211.612 479.774 211.444 479.841 211.316 479.961V479.949Z" fill="#DA693F"/>
<path d="M270.798 292.988C270.798 292.988 277.642 251.299 265.882 232.612C265.882 232.612 242.362 231.154 225.898 240.691C225.898 240.691 232.719 259.249 233.742 292.988H270.798Z" fill="#DA693F"/>
<mask id="mask1_2466_4310" style="mask-type:luminance" maskUnits="userSpaceOnUse" x="225" y="232" width="48" height="61">
<path d="M270.798 292.988C270.798 292.988 277.642 251.299 265.882 232.612C265.882 232.612 242.362 231.154 225.898 240.691C225.898 240.691 232.719 259.249 233.742 292.988H270.798Z" fill="white"/>
</mask>
<g mask="url(#mask1_2466_4310)">
<path opacity="0.1" d="M272.938 261.071C273.444 255.414 271.762 249.97 271.527 245.172C268.585 242.575 265.985 239.615 263.789 236.363C263.789 236.363 261.66 253.262 272.938 261.071Z" fill="black"/>
</g>
<path d="M262.966 232.531C262.966 232.531 286.239 229.802 289.743 228.332C291.931 227.415 309.042 216.231 309.042 216.231L313.052 222.264C313.052 222.264 295.553 236.376 292.589 238.023C285.651 241.833 270.057 247.219 270.057 247.219C270.057 247.219 260.637 240.61 262.966 232.531Z" fill="#DA693F"/>
<path d="M253.345 205.553C253.345 205.553 263.024 195.874 253.898 189.359C244.772 182.844 235.6 191.347 235.6 191.347C235.6 191.347 213.773 196.615 218.418 211.139C223.063 225.663 226.098 226.886 219.183 234.33C212.268 241.774 205.212 252.84 212.28 259.896C219.347 266.952 244.032 259.696 251.546 249.053C259.061 238.41 245.784 215.537 253.345 205.553Z" fill="#263238"/>
<path d="M233.719 292.988L233.566 289.037L271.222 289.99V293.647L233.719 292.988Z" fill="black"/>
<path d="M245.656 289.308H244.139V293.2H245.656V289.308Z" fill="#263238"/>
<path d="M263.036 289.743H261.695V294H263.036V289.743Z" fill="#263238"/>
<path d="M235.883 289.096H234.602V293.647H235.883V289.096Z" fill="#263238"/>
</svg>
