<svg width="588" height="588" viewBox="0 0 588 588" fill="none" xmlns="http://www.w3.org/2000/svg">
<path d="M345.18 464.485V503.517H331.773L360.668 537.174L387.775 504.211H374.074V464.485H345.18Z" fill="#EBEBEB"/>
<path d="M396.3 170.521V184.256H391.584L401.756 196.11L411.305 184.503H406.472V170.521H396.3Z" fill="#EBEBEB"/>
<path d="M518.263 297.952V326.164H508.572L529.458 350.496L549.05 326.658H539.148V297.952H518.263Z" fill="#EBEBEB"/>
<path d="M71.5477 411.953V440.165H61.8574L82.7432 464.485L102.347 440.659H92.4334V411.953H71.5477Z" fill="#EBEBEB"/>
<path d="M245.008 458.064V479.115H237.775L253.369 497.272L267.987 479.491H260.602V458.064H245.008Z" fill="#EBEBEB"/>
<path d="M197.909 113.72C198.897 106.558 188.783 100.666 181.186 100.055C177.576 99.7608 173.813 100.325 170.379 99.1258C162.946 96.5386 159.971 86.9307 152.739 83.8378C147.317 81.5446 141.085 83.5791 135.816 86.1898C130.548 88.8005 125.373 92.1756 119.493 92.5519C114.389 92.8695 108.839 90.9761 104.37 93.4692C101.042 95.3391 99.2896 99.1728 96.2203 101.431C93.1509 103.689 89.3054 104.124 85.6363 104.324C81.9671 104.524 78.0511 104.559 74.6524 106.111C71.2538 107.664 68.4549 111.262 69.1605 114.919L197.909 113.72Z" fill="#F5F5F5"/>
<path d="M550.98 247.337C551.838 241.104 543.042 235.977 536.433 235.448C533.281 235.189 530.012 235.671 527.024 234.636C520.568 232.378 517.981 224.052 511.666 221.371C506.962 219.372 501.517 221.147 496.954 223.452C492.391 225.757 487.852 228.65 482.748 228.98C478.303 229.262 473.481 227.615 469.589 229.779C466.696 231.402 465.179 234.742 462.533 236.706C459.887 238.67 456.512 239.058 453.278 239.222C450.044 239.387 446.68 239.434 443.728 240.775C440.777 242.115 438.331 245.255 438.942 248.442L550.98 247.337Z" fill="#F5F5F5"/>
<path d="M263.095 57.6244C263.519 54.5785 259.215 52.0736 255.981 51.8149C254.437 51.8724 252.893 51.7381 251.382 51.4151C248.219 50.3096 246.961 46.2289 243.868 44.9236C241.516 43.9592 238.905 44.8177 236.671 45.9467C234.436 47.0756 232.225 48.4868 229.732 48.6515C227.557 48.7926 225.193 47.9812 223.288 49.0396C221.877 49.8392 221.136 51.4621 219.83 52.4264C218.464 53.2406 216.893 53.6485 215.303 53.6024C213.7 53.5518 212.103 53.8113 210.599 54.3668C209.855 54.6517 209.223 55.1703 208.799 55.8446C208.375 56.5189 208.181 57.3126 208.247 58.1065L263.095 57.6244Z" fill="#E0E0E0"/>
<path d="M545.322 508.843C546.098 503.234 538.184 498.636 532.245 498.154C529.411 497.918 526.471 498.353 523.789 497.424C517.98 495.39 515.651 487.887 509.983 485.488C505.738 483.7 500.857 485.3 496.741 487.37C492.625 489.439 488.568 492.074 483.97 492.332C479.983 492.591 475.644 491.156 472.139 493.061C469.54 494.508 468.176 497.518 465.777 499.282C463.378 501.046 460.356 501.388 457.439 501.54C454.523 501.693 451.559 501.729 448.855 502.952C446.15 504.175 444.009 506.974 444.562 509.831L545.322 508.843Z" fill="#E0E0E0"/>
<path d="M249.993 168.439L240.927 152.457C246.531 143.358 248.53 132.492 246.53 121.995C244.53 111.497 238.676 102.127 230.119 95.7266C221.561 89.3261 210.919 86.3579 200.284 87.4055C189.649 88.4531 179.79 93.4407 172.646 101.388C165.502 109.335 161.588 119.667 161.675 130.353C161.762 141.039 165.843 151.306 173.115 159.137C180.387 166.967 190.326 171.794 200.976 172.668C211.627 173.543 222.219 170.403 230.672 163.864L249.993 168.439Z" fill="#FAFAFA"/>
<path d="M249.994 168.438L230.613 164.028H230.39L230.531 163.84L230.754 164.052C224.794 168.702 217.71 171.692 210.221 172.719C207.974 173.036 205.703 173.15 203.436 173.06C202.26 173.06 201.084 172.966 199.908 172.872L196.297 172.319C190.548 171.221 185.084 168.957 180.243 165.667C175.402 162.376 171.286 158.13 168.148 153.189C165.01 148.247 162.917 142.716 161.998 136.935C161.08 131.154 161.354 125.246 162.805 119.576C164.417 113.048 167.566 107 171.99 101.936C176.46 96.7573 182.105 92.7248 188.454 90.1755C194.549 87.7647 201.108 86.7559 207.646 87.2238C213.837 87.6432 219.86 89.4219 225.286 92.4335C235.017 97.8508 242.293 106.802 245.607 117.435C246.925 121.956 247.552 126.651 247.465 131.359C247.229 138.854 245.023 146.155 241.068 152.527V152.374L250.005 168.438L240.809 152.527V152.445V152.374C244.699 146.013 246.848 138.742 247.042 131.289C247.105 126.629 246.467 121.987 245.149 117.518C241.848 107.011 234.642 98.1712 225.015 92.8215C219.668 89.8599 213.733 88.1132 207.634 87.7059C201.187 87.2469 194.719 88.2478 188.712 90.6342C182.429 93.165 176.847 97.1703 172.436 102.312C168.082 107.296 164.978 113.247 163.381 119.67C161.826 125.827 161.653 132.253 162.876 138.486C164.053 144.376 166.479 149.946 169.99 154.82C176.321 163.617 185.759 169.679 196.392 171.778L199.92 172.331C201.096 172.437 202.272 172.472 203.448 172.531C205.69 172.627 207.938 172.524 210.162 172.225C217.591 171.241 224.628 168.316 230.566 163.746L231.507 163.017L230.778 163.958L230.684 163.723L249.994 168.438Z" fill="#263238"/>
<path d="M217.006 107.815H189.3C187.962 107.815 186.877 108.9 186.877 110.238V151.186C186.877 152.524 187.962 153.609 189.3 153.609H217.006C218.344 153.609 219.429 152.524 219.429 151.186V110.238C219.429 108.9 218.344 107.815 217.006 107.815Z" fill="#263238"/>
<path d="M217.759 110.567H188.383V144.789H217.759V110.567Z" fill="#FAFAFA"/>
<path d="M203.153 151.645C204.517 151.645 205.623 150.54 205.623 149.176C205.623 147.812 204.517 146.706 203.153 146.706C201.789 146.706 200.684 147.812 200.684 149.176C200.684 150.54 201.789 151.645 203.153 151.645Z" fill="#455A64"/>
<path d="M207.27 120.999L218.112 133.794L228.261 120.999H222.993V103.394L212.456 103.265L212.585 121.022L207.27 120.999Z" fill="#DA693F"/>
<path d="M207.94 125.832C206.552 127.72 205.006 129.487 203.318 131.112C201.778 132.872 200.091 134.497 198.273 135.969C199.65 134.076 201.193 132.309 202.883 130.689C204.422 128.924 206.114 127.299 207.94 125.832Z" fill="#263238"/>
<path d="M205.799 124.268C205.098 125.372 204.233 126.363 203.235 127.208C202.383 128.185 201.383 129.022 200.271 129.689C200.968 128.582 201.833 127.59 202.835 126.749C203.685 125.77 204.685 124.932 205.799 124.268Z" fill="#263238"/>
<path d="M473.211 120.199V140.085H466.379L481.114 157.243L494.932 140.438H487.947V120.199H473.211Z" fill="#DA693F"/>
<path opacity="0.3" d="M473.211 120.199V140.085H466.379L481.114 157.243L494.932 140.438H487.947V120.199H473.211Z" fill="black"/>
<path d="M521.239 75.8289C519.409 68.7099 515.63 62.2418 510.328 57.1507C505.026 52.0595 498.41 48.5468 491.222 47.0067C484.035 45.4666 476.56 45.9601 469.638 48.4318C462.715 50.9035 456.618 55.2555 452.032 60.9996C450.768 60.8436 449.495 60.7651 448.221 60.7644C443.774 60.5583 439.33 61.2564 435.16 62.8165C430.99 64.3765 427.179 66.7661 423.959 69.8408C420.739 72.9155 418.175 76.6113 416.424 80.7048C414.673 84.7984 413.77 89.2046 413.77 93.6571C413.77 98.1096 414.673 102.516 416.424 106.609C418.175 110.703 420.739 114.399 423.959 117.473C427.179 120.548 430.99 122.938 435.16 124.498C439.33 126.058 443.774 126.756 448.221 126.55H519.852C526.471 126.563 532.833 123.99 537.582 119.378C542.331 114.767 545.09 108.483 545.271 101.866C545.452 95.249 543.041 88.8233 538.551 83.9592C534.062 79.0951 527.849 76.1776 521.239 75.8289Z" fill="#DA693F"/>
<path d="M528.812 117.683C528.754 117.589 530.176 116.707 532.058 114.814C534.527 112.362 536.422 109.394 537.606 106.122C538.789 102.85 539.232 99.3558 538.902 95.892C538.655 93.2342 538.138 91.6348 538.244 91.6113C538.437 91.9535 538.58 92.3219 538.667 92.705C538.971 93.7328 539.195 94.7826 539.337 95.8449C539.797 99.381 539.404 102.976 538.191 106.329C536.978 109.682 534.98 112.696 532.364 115.12C531.583 115.856 530.741 116.525 529.847 117.119C529.535 117.362 529.186 117.553 528.812 117.683Z" fill="#263238"/>
<path d="M452.948 70.6191C452.948 70.725 451.125 70.2663 448.185 70.2075C444.349 70.1047 440.538 70.848 437.022 72.3846C433.505 73.9211 430.371 76.2133 427.84 79.0981C425.888 81.309 425.018 82.9436 424.912 82.8731C425.048 82.4561 425.242 82.0603 425.488 81.6971C426.087 80.6782 426.763 79.707 427.511 78.7923C430.006 75.7652 433.179 73.3689 436.773 71.7976C440.367 70.2263 444.281 69.5245 448.197 69.7489C449.384 69.8112 450.563 69.9685 451.725 70.2193C452.148 70.2993 452.559 70.4337 452.948 70.6191Z" fill="#263238"/>
<path d="M475.163 54.3673C475.163 54.4849 473.857 54.5673 471.835 55.0965C469.196 55.8205 466.71 57.0157 464.496 58.6245C462.295 60.2284 460.406 62.2211 458.922 64.5045C457.746 66.2567 457.299 67.4797 457.193 67.4445C457.233 67.1349 457.32 66.8334 457.452 66.5507C457.747 65.7587 458.113 64.9951 458.546 64.2693C459.175 63.1635 459.907 62.12 460.733 61.1529C461.761 60.0041 462.904 58.9638 464.144 58.0482C465.393 57.1508 466.733 56.3862 468.142 55.7668C469.298 55.2643 470.499 54.8706 471.729 54.5908C472.553 54.4105 473.391 54.3003 474.234 54.2615C474.547 54.2482 474.86 54.2839 475.163 54.3673Z" fill="#263238"/>
<path d="M505.962 126.268C505.962 126.444 496.295 126.573 484.371 126.573C472.446 126.573 462.768 126.444 462.768 126.268C462.768 126.091 472.434 125.962 484.371 125.962C496.307 125.962 505.962 126.103 505.962 126.268Z" fill="#263238"/>
<path d="M508.386 185.526C508.221 185.526 508.08 177.6 508.08 167.886C508.08 158.172 508.221 150.246 508.386 150.246C508.55 150.246 508.703 158.161 508.703 167.886C508.703 177.612 508.562 185.526 508.386 185.526Z" fill="#263238"/>
<path d="M515.3 200.979C515.135 200.979 514.994 190.783 514.994 178.2C514.994 165.617 515.135 155.421 515.3 155.421C515.465 155.421 515.617 165.617 515.617 178.2C515.617 190.783 515.476 200.979 515.3 200.979Z" fill="#263238"/>
<path d="M73.1573 221.194V233.378H68.9707L77.9906 243.891L86.4578 233.601H82.1772V221.194H73.1573Z" fill="#DA693F"/>
<path opacity="0.3" d="M73.1573 221.194V233.378H68.9707L77.9906 243.891L86.4578 233.601H82.1772V221.194H73.1573Z" fill="black"/>
<path d="M102.582 194.04C101.459 189.679 99.1438 185.716 95.8951 182.597C92.6464 179.478 88.593 177.326 84.1894 176.382C79.7858 175.438 75.2064 175.74 70.9646 177.253C66.7229 178.767 62.9867 181.432 60.1752 184.95C59.3943 184.86 58.6091 184.813 57.8232 184.809C55.136 184.744 52.4629 185.217 49.9613 186.201C47.4597 187.184 45.1801 188.658 43.2566 190.536C41.3331 192.413 39.8046 194.657 38.7609 197.134C37.7173 199.611 37.1797 202.272 37.1797 204.96C37.1797 207.648 37.7173 210.308 38.7609 212.786C39.8046 215.263 41.3331 217.506 43.2566 219.384C45.1801 221.261 47.4597 222.735 49.9613 223.719C52.4629 224.702 55.136 225.175 57.8232 225.11H101.723C105.773 225.111 109.663 223.532 112.566 220.709C115.469 217.886 117.156 214.041 117.268 209.993C117.38 205.945 115.907 202.013 113.165 199.034C110.422 196.055 106.625 194.263 102.582 194.04Z" fill="#DA693F"/>
<path d="M107.215 219.654C107.215 219.571 108.015 219.007 109.143 217.843C110.621 216.33 111.763 214.523 112.495 212.539C113.197 210.544 113.477 208.426 113.318 206.318C113.189 204.695 112.895 203.707 112.989 203.684C113.42 204.483 113.677 205.365 113.742 206.271C114.049 208.451 113.818 210.672 113.07 212.742C112.322 214.813 111.079 216.669 109.449 218.148C108.819 218.802 108.057 219.315 107.215 219.654Z" fill="#263238"/>
<path d="M60.7399 190.818C60.7399 190.924 59.5639 190.677 57.8117 190.653C55.4769 190.61 53.1604 191.072 51.0209 192.008C48.8814 192.943 46.9696 194.331 45.4166 196.075C44.2406 197.404 43.6526 198.427 43.5703 198.333C43.9009 197.393 44.4168 196.529 45.0874 195.792C46.6109 193.911 48.5639 192.422 50.7822 191.452C53.0005 190.482 55.4193 190.059 57.8352 190.218C58.8334 190.225 59.8205 190.429 60.7399 190.818Z" fill="#263238"/>
<path d="M74.3454 180.87C73.6822 181.086 73.0068 181.262 72.3227 181.399C70.7301 181.851 69.2293 182.579 67.8892 183.551C66.5549 184.522 65.3974 185.716 64.467 187.079C64.1152 187.693 63.7223 188.282 63.291 188.843C63.393 188.131 63.6543 187.452 64.0554 186.856C64.905 185.348 66.0728 184.044 67.4776 183.034C68.8774 182.009 70.482 181.299 72.1816 180.952C72.8866 180.757 73.6275 180.728 74.3454 180.87Z" fill="#263238"/>
<path d="M93.2198 224.922C93.2198 225.087 87.3398 225.228 79.9898 225.228C72.6398 225.228 66.748 225.087 66.748 224.922C66.748 224.757 72.6751 224.616 79.9663 224.616C87.2575 224.616 93.2198 224.746 93.2198 224.922Z" fill="#263238"/>
<path d="M94.7019 261.214C94.399 257.612 94.2969 253.996 94.3962 250.383C94.2967 246.766 94.3988 243.146 94.7019 239.54C95.0121 243.145 95.1142 246.766 95.0077 250.383C95.1139 253.996 95.0118 257.612 94.7019 261.214Z" fill="#263238"/>
<path d="M98.9366 270.692C98.772 270.692 98.6309 264.435 98.6309 256.733C98.6309 249.03 98.772 242.773 98.9366 242.773C99.1013 242.773 99.2424 249.03 99.2424 256.733C99.2424 264.435 99.113 270.692 98.9366 270.692Z" fill="#263238"/>
<path d="M286.098 426.547V483.548H266.518L308.724 532.704L348.32 484.547H328.305V426.547H286.098Z" fill="#DA693F"/>
<path opacity="0.3" d="M286.098 426.547V483.548H266.518L308.724 532.704L348.32 484.547H328.305V426.547H286.098Z" fill="black"/>
<path d="M423.737 299.386C418.485 278.987 407.654 260.455 392.459 245.868C377.264 231.281 358.305 221.216 337.709 216.802C317.113 212.387 295.695 213.798 275.856 220.876C256.018 227.954 238.543 240.419 225.392 256.873C221.771 256.437 218.127 256.21 214.479 256.191C189.475 256.191 165.494 266.124 147.813 283.805C130.132 301.486 120.199 325.466 120.199 350.471C120.199 375.476 130.132 399.456 147.813 417.137C165.494 434.818 189.475 444.751 214.479 444.751H419.762C438.717 444.765 456.929 437.378 470.52 424.164C484.11 410.95 492.005 392.952 492.523 374.003C493.041 355.055 486.142 336.653 473.294 322.716C460.446 308.779 442.665 300.408 423.737 299.386Z" fill="#DA693F"/>
<path d="M237.729 316.544C237.665 316.342 237.633 316.132 237.634 315.921C237.634 315.45 237.564 314.862 237.517 314.145C237.517 313.745 237.517 313.322 237.446 312.851C237.376 312.381 237.329 311.875 237.27 311.334C237.117 310.24 237.023 308.982 236.717 307.641C236.588 306.959 236.447 306.242 236.294 305.501C236.141 304.76 235.906 304.019 235.706 303.231C235.341 301.644 234.73 300.009 234.142 298.281C232.729 294.594 230.969 291.05 228.885 287.697C226.733 284.364 224.273 281.242 221.535 278.371C220.23 277.101 219.007 275.854 217.737 274.843C217.113 274.325 216.561 273.796 215.937 273.338L214.185 272.044C213.103 271.185 212.009 270.562 211.092 269.962L209.799 269.139L208.623 268.528L207.07 267.646C206.878 267.56 206.699 267.445 206.541 267.305C206.74 267.365 206.933 267.444 207.117 267.54L208.74 268.316L209.916 268.892C210.328 269.116 210.763 269.386 211.245 269.668C212.339 270.286 213.399 270.961 214.42 271.691L216.196 272.961C216.819 273.408 217.372 273.949 218.042 274.455C219.393 275.562 220.684 276.74 221.911 277.983C227.569 283.703 231.914 290.585 234.647 298.151C235.245 299.793 235.755 301.465 236.176 303.161C236.364 303.961 236.6 304.713 236.741 305.513C236.882 306.313 236.999 306.983 237.117 307.665C237.338 308.903 237.495 310.151 237.587 311.405C237.587 311.957 237.693 312.463 237.717 312.945C237.74 313.427 237.717 313.839 237.717 314.239V316.026C237.731 316.198 237.735 316.371 237.729 316.544Z" fill="#263238"/>
<path d="M199.155 298.315C199.073 298.397 197.838 297.139 195.627 295.504C189.767 291.152 182.805 288.528 175.53 287.931C172.742 287.696 171.002 287.802 171.002 287.696C171.384 287.584 171.78 287.528 172.178 287.531C173.29 287.456 174.406 287.456 175.518 287.531C182.933 287.881 190.051 290.555 195.863 295.175C196.74 295.862 197.569 296.609 198.344 297.41C198.648 297.679 198.921 297.983 199.155 298.315Z" fill="#263238"/>
<path d="M242.339 378.789C241.721 378.852 241.099 378.852 240.481 378.789C239.305 378.789 237.541 378.789 235.401 378.683C231.12 378.53 225.205 378.177 218.69 377.507C212.175 376.837 206.306 376.061 202.073 375.367C199.956 375.026 198.251 374.732 197.075 374.497C196.456 374.408 195.846 374.266 195.252 374.073C195.875 374.092 196.496 374.154 197.11 374.261L202.143 374.943C206.377 375.52 212.245 376.261 218.748 376.896C225.252 377.531 231.155 377.954 235.424 378.213L240.481 378.519C241.106 378.565 241.727 378.656 242.339 378.789Z" fill="#263238"/>
<path d="M420.656 298.81C420.44 298.858 420.219 298.886 419.997 298.892L418.104 299.021C417.293 299.021 416.281 299.115 415.129 299.268C413.976 299.421 412.636 299.492 411.189 299.75L408.908 300.115C408.12 300.244 407.308 300.444 406.462 300.609C404.768 300.926 402.992 301.432 401.111 301.926C392.998 304.234 385.307 307.827 378.332 312.569C376.744 313.686 375.215 314.721 373.886 315.826C373.204 316.367 372.534 316.861 371.934 317.379L370.194 318.896C369.018 319.837 368.136 320.801 367.289 321.601C366.442 322.4 365.749 323.129 365.184 323.741L363.879 325.105C363.731 325.272 363.566 325.422 363.385 325.552C363.499 325.362 363.633 325.184 363.785 325.023C364.102 324.635 364.514 324.164 364.961 323.576C365.407 322.988 366.137 322.189 367.007 321.365C367.877 320.542 368.736 319.543 369.853 318.578L371.581 317.026C372.181 316.485 372.852 315.979 373.522 315.427C374.851 314.251 376.38 313.239 377.967 312.098C384.996 307.261 392.788 303.64 401.017 301.385C402.91 300.903 404.709 300.409 406.415 300.115C407.273 299.95 408.096 299.762 408.896 299.645L411.248 299.327C412.706 299.092 414.047 299.033 415.211 298.927C416.212 298.829 417.216 298.782 418.222 298.786H420.115C420.296 298.775 420.477 298.783 420.656 298.81Z" fill="#263238"/>
<path d="M414.847 445.386C414.847 445.562 369.394 445.692 313.346 445.692C257.298 445.692 211.834 445.562 211.834 445.386C211.834 445.209 257.275 445.08 313.346 445.08C369.418 445.08 414.847 445.221 414.847 445.386Z" fill="#263238"/>
<path d="M169.708 486.181C169.543 486.181 169.402 477.679 169.402 467.2C169.402 456.722 169.543 448.208 169.708 448.208C169.873 448.208 170.014 456.699 170.014 467.2C170.014 477.702 169.873 486.181 169.708 486.181Z" fill="#263238"/>
<path d="M177.423 521.203C177.258 521.203 177.117 509.243 177.117 494.496C177.117 479.749 177.258 467.789 177.423 467.789C177.588 467.789 177.729 479.737 177.729 494.496C177.729 509.255 177.576 521.203 177.423 521.203Z" fill="#263238"/>
<g opacity="0.3">
<path d="M449.773 337.159C447.421 323.741 429.628 310.111 414.293 313.18C400.934 315.838 386.551 318.942 373.345 322.282C367.888 323.658 362.243 317.037 357.681 313.756C355.329 312.039 353.87 309.287 352.377 306.7C343.874 292.247 329.88 281.405 314.251 275.348C298.622 269.292 281.429 267.845 264.765 269.668C251.829 271.091 237.717 275.548 231.66 287.073C229.238 291.718 228.274 297.292 224.522 300.938C219.512 305.783 211.586 305.395 205.059 307.853C192.006 312.768 185.397 331.432 187.043 345.273C188.689 359.115 201.002 376.955 226.886 379.8C226.886 379.8 320.648 380.624 366.947 382.87C383 383.646 387.845 381.435 403.897 381.012C432.227 380.33 454.007 361.772 449.773 337.159Z" fill="black"/>
</g>
<path d="M277.535 404.602C279.111 404.203 280.875 402.58 282.239 401.71C285.579 399.561 288.884 397.354 292.153 395.089C280.393 391.678 270.456 388.985 258.719 385.681C258.316 390.385 258.754 395.124 260.013 399.675C261.095 403.309 263.165 407.178 266.834 408.142C270.162 409.013 273.549 407.178 276.489 405.367L277.3 404.861" fill="#E0E0E0"/>
<path d="M279.547 398.111C279.371 398.111 279.442 396.57 279.03 394.771C278.618 392.972 277.854 391.631 278.066 391.537C278.834 392.427 279.371 393.492 279.63 394.639C279.888 395.785 279.86 396.978 279.547 398.111Z" fill="#263238"/>
<path d="M282.076 397.487C281.955 396.614 281.892 395.734 281.888 394.853C281.706 393.992 281.584 393.12 281.523 392.242C282.066 392.992 282.403 393.871 282.5 394.791C282.597 395.711 282.451 396.641 282.076 397.487Z" fill="#263238"/>
<path d="M266.576 387.868C266.681 387.868 266.34 389.044 266.317 391.055C266.279 393.609 266.916 396.128 268.163 398.358C269.355 400.618 270.987 402.617 272.961 404.238C273.844 404.825 274.776 405.333 275.748 405.755C275.452 405.772 275.155 405.724 274.878 405.614C274.109 405.384 273.38 405.039 272.714 404.591C270.594 403.017 268.854 400.988 267.622 398.652C266.324 396.332 265.723 393.685 265.894 391.032C265.932 390.237 266.054 389.448 266.258 388.68C266.311 388.391 266.419 388.116 266.576 387.868Z" fill="#455A64"/>
<path d="M275.748 390.584C276.778 392.757 277.423 395.093 277.653 397.487C278.069 399.844 278.069 402.256 277.653 404.614C277.465 404.614 277.595 401.427 277.065 397.558C276.536 393.689 275.56 390.643 275.748 390.584Z" fill="#455A64"/>
<path d="M273.091 403.097C272.392 402.698 271.761 402.19 271.221 401.592C269.787 400.271 268.593 398.711 267.693 396.982C266.795 395.228 266.423 393.251 266.623 391.29C266.657 390.471 266.927 389.679 267.399 389.009C267.493 389.009 267.141 389.891 267.058 391.361C266.99 393.227 267.394 395.079 268.234 396.747C269.113 398.416 270.212 399.959 271.504 401.333C272.089 401.868 272.621 402.459 273.091 403.097Z" fill="#DA693F"/>
<path d="M289.532 396.723C288.264 397.75 286.874 398.615 285.392 399.298C284.006 400.156 282.522 400.843 280.971 401.344C282.232 400.306 283.624 399.436 285.11 398.757C286.494 397.899 287.98 397.215 289.532 396.723Z" fill="#DA693F"/>
<path d="M270.809 403.262C269.834 404.325 268.604 405.122 267.236 405.579C265.868 406.035 264.406 406.137 262.988 405.873C262.988 405.696 264.882 405.732 267.045 404.991C269.209 404.25 270.703 403.121 270.809 403.262Z" fill="#455A64"/>
<path d="M266.824 397.24C266.824 397.417 265.236 397.64 263.472 398.416C261.708 399.192 260.473 400.274 260.344 400.145C261.026 399.092 262.034 398.291 263.213 397.863C264.314 397.259 265.584 397.04 266.824 397.24Z" fill="#455A64"/>
<path d="M266.047 391.89C264.78 391.454 263.488 391.092 262.178 390.808C260.838 390.739 259.496 390.739 258.156 390.808C259.415 390.141 260.867 389.938 262.26 390.232C263.682 390.308 265.027 390.897 266.047 391.89Z" fill="#455A64"/>
<path d="M356.082 374.885C356.152 374.991 311.97 385.646 311.97 385.646L305.479 370.44L308.454 365.842C308.454 365.842 327.129 361.62 342.323 353.023L356.082 374.885Z" fill="#FAC7B5"/>
<path d="M252.405 331.561C252.405 331.561 250.383 328.609 241.821 324.411C234.706 320.883 216.443 318.013 209.046 332.302C201.649 346.59 207.329 368.511 219.63 373.191C231.931 377.872 252.405 384.281 260.79 386.986C269.175 389.691 296.752 396.594 296.752 396.594L308.089 389.949L309.43 368.781C309.43 368.781 293.8 352.729 280.5 348.295C267.199 343.862 252.405 331.561 252.405 331.561Z" fill="#263238"/>
<path d="M226.887 321.589C227.004 321.412 239.423 321.765 248.49 325.187C251.9 326.469 255.24 327.845 255.24 327.845L260.25 313.568L297.8 301.056H339.371L352.895 327.845V329.197C352.895 329.197 369.136 329.468 376.168 326.222C383.201 322.976 405.11 313.498 410.79 311.604C416.47 309.711 441.907 306.077 447.587 321.553C453.267 337.029 449.245 353.176 439.743 359.079C435.262 361.855 359.669 381.424 359.669 381.424L341.805 353.011C341.805 353.011 314.593 366.5 305.479 365.03C296.365 363.56 226.887 321.589 226.887 321.589Z" fill="#263238"/>
<path d="M303.561 307.959C303.641 308.137 303.704 308.322 303.749 308.512C303.855 308.935 303.996 309.464 304.161 310.099C304.502 311.487 304.937 313.521 305.337 316.038C306.254 321.071 307.171 328.092 307.877 335.865C308.582 343.639 308.959 350.695 309.111 355.857C309.194 358.409 309.217 360.479 309.217 361.914C309.217 362.572 309.217 363.09 309.217 363.56C309.25 363.751 309.25 363.946 309.217 364.137C309.179 363.947 309.156 363.754 309.147 363.56C309.147 363.113 309.147 362.572 309.064 361.914C308.982 360.397 308.888 358.386 308.759 355.881C308.5 350.777 308.041 343.733 307.347 335.96C306.654 328.186 305.795 321.201 304.995 316.156C304.607 313.639 304.231 311.605 303.961 310.205C303.843 309.558 303.737 309.029 303.655 308.582C303.589 308.381 303.558 308.17 303.561 307.959Z" fill="#455A64"/>
<path d="M352.483 329.856C352.483 330.021 343.075 331.209 331.42 332.502C319.766 333.796 310.323 334.713 310.252 334.537C310.182 334.36 319.66 333.184 331.315 331.891C342.969 330.597 352.459 329.692 352.483 329.856Z" fill="#455A64"/>
<path d="M346.273 329.914C345.824 329.934 345.374 329.899 344.933 329.808C344.074 329.691 342.839 329.538 341.299 329.385C337.304 328.95 333.286 328.765 329.268 328.832C325.254 328.91 321.248 329.232 317.273 329.797L313.663 330.349C313.223 330.45 312.774 330.505 312.322 330.514C312.735 330.33 313.17 330.199 313.616 330.126C314.451 329.903 315.674 329.644 317.203 329.373C325.184 327.979 333.333 327.836 341.358 328.95C342.887 329.173 344.121 329.385 344.968 329.573C345.413 329.643 345.851 329.757 346.273 329.914Z" fill="#455A64"/>
<path d="M352.023 328.292C349.446 327.027 346.747 326.026 343.968 325.305C341.141 324.786 338.268 324.562 335.395 324.635C336.207 324.351 337.062 324.208 337.923 324.211C342.085 323.971 346.232 324.887 349.906 326.857C350.684 327.22 351.398 327.704 352.023 328.292Z" fill="#455A64"/>
<path d="M317.402 351.542C316.333 352.613 315.028 353.419 313.591 353.894C312.233 354.549 310.736 354.867 309.229 354.823C309.229 354.646 311.122 354.223 313.356 353.317C315.591 352.412 317.296 351.4 317.402 351.542Z" fill="#455A64"/>
<path d="M315.403 356.81C313.456 357.853 311.204 358.178 309.041 357.727C310.077 357.44 311.142 357.27 312.216 357.221C313.261 356.97 314.329 356.832 315.403 356.81Z" fill="#455A64"/>
<path d="M379.295 327.257C379.124 327.401 378.938 327.527 378.742 327.633L377.107 328.609L371.016 332.137L350.812 343.497L330.514 354.705L324.328 358.045L322.623 358.927C322.428 359.035 322.223 359.125 322.012 359.197C322.181 359.051 322.366 358.925 322.564 358.821L324.211 357.833L330.303 354.305L350.506 342.945L370.804 331.737L376.99 328.409L378.683 327.527C378.872 327.407 379.078 327.315 379.295 327.257Z" fill="#455A64"/>
<path d="M411.013 321.271C410.763 321.352 410.508 321.415 410.249 321.459L408.061 321.906C406.156 322.306 403.416 322.941 400.076 323.881C391.392 326.41 382.965 329.753 374.91 333.866C365.431 338.57 357.27 343.627 351.296 347.237L344.24 351.541L342.311 352.717C342.09 352.857 341.858 352.979 341.617 353.082C341.812 352.903 342.025 352.746 342.252 352.611L344.11 351.365C345.733 350.294 348.085 348.754 351.025 346.896C356.905 343.18 365.137 338.111 374.604 333.337C382.689 329.204 391.172 325.902 399.923 323.482C403.298 322.588 406.062 322.023 407.979 321.706C408.931 321.518 409.684 321.435 410.19 321.365C410.459 321.299 410.736 321.267 411.013 321.271Z" fill="#455A64"/>
<path d="M429.629 315.921C429.629 316.026 428.265 315.921 426.101 315.921C423.25 316.005 420.419 316.432 417.669 317.191C414.924 317.958 412.279 319.048 409.79 320.436C407.873 321.518 406.768 322.318 406.709 322.236C406.65 322.153 406.932 321.965 407.414 321.577C408.099 321.031 408.818 320.528 409.567 320.072C412.032 318.54 414.706 317.372 417.505 316.603C420.299 315.828 423.189 315.452 426.089 315.485C426.967 315.494 427.842 315.557 428.712 315.674C429.028 315.711 429.337 315.794 429.629 315.921Z" fill="#455A64"/>
<path d="M423.09 320.895C423.09 321.071 419.939 320.66 416.034 320.801C412.13 320.942 409.096 321.554 409.061 321.377C411.289 320.577 413.643 320.178 416.011 320.201C418.393 320.012 420.79 320.247 423.09 320.895Z" fill="#455A64"/>
<path d="M409.449 316.097C409.531 316.261 406.826 317.696 403.816 319.942C400.805 322.188 398.629 324.352 398.5 324.223C399.856 322.352 401.532 320.736 403.451 319.448C405.242 317.993 407.271 316.859 409.449 316.097Z" fill="#455A64"/>
<path d="M449.233 329.515C449.194 329.6 449.151 329.682 449.103 329.762L448.715 330.456C448.351 331.079 447.81 331.961 447.022 333.055C444.815 336.183 442.147 338.959 439.107 341.287C434.58 344.671 429.689 347.539 424.525 349.837C418.739 352.506 412.142 354.858 405.227 357.281L369.782 369.687L359.01 373.368L356.082 374.344L355.306 374.591C355.219 374.625 355.128 374.645 355.035 374.65L355.282 374.533L356.035 374.227L358.939 373.145L369.641 369.276L405.027 356.704C411.942 354.282 418.527 352 424.302 349.319C429.438 347.06 434.315 344.252 438.849 340.946C441.891 338.665 444.595 335.965 446.881 332.926C447.68 331.855 448.268 330.985 448.657 330.397L449.103 329.727C449.19 329.578 449.233 329.507 449.233 329.515Z" fill="#455A64"/>
<path d="M306.831 390.702C306.539 390.618 306.252 390.516 305.973 390.396L303.55 389.42C301.457 388.562 298.435 387.28 294.73 385.645C287.31 382.388 277.09 377.731 266.036 372.309C254.981 366.888 245.021 361.725 238 357.609C234.472 355.587 231.697 353.87 229.768 352.635L227.592 351.188C227.332 351.033 227.088 350.852 226.863 350.647C227.141 350.771 227.409 350.916 227.663 351.083L229.886 352.435C231.826 353.611 234.648 355.269 238.188 357.221C245.244 361.184 255.193 366.312 266.283 371.757C277.372 377.202 287.521 381.894 294.883 385.245L303.644 389.256L305.996 390.326C306.287 390.423 306.566 390.549 306.831 390.702Z" fill="#455A64"/>
<path d="M229.803 329.009C230.116 328.734 230.469 328.508 230.849 328.339C231.84 327.812 232.87 327.364 233.93 326.998C237.463 325.778 241.227 325.376 244.938 325.822C248.644 326.176 252.255 327.204 255.592 328.856C256.588 329.381 257.52 330.021 258.368 330.761C258.696 331.011 258.986 331.308 259.226 331.643C258.002 330.758 256.721 329.952 255.392 329.232C252.042 327.724 248.466 326.779 244.808 326.433C241.188 325.991 237.514 326.311 234.025 327.374C231.379 328.233 229.85 329.115 229.803 329.009Z" fill="#455A64"/>
<path d="M309.419 368.793C309.214 368.68 309.028 368.538 308.866 368.37L307.361 367.088C306.055 365.912 304.127 364.383 301.728 362.454C296.929 358.609 290.156 353.458 282.688 347.754L277.255 343.58C275.479 342.263 273.727 341.134 271.939 340.052C268.411 337.97 265.236 336.194 262.684 334.442C260.643 333.098 258.74 331.554 257.004 329.832C256.532 329.37 256.085 328.883 255.664 328.374C255.499 328.209 255.357 328.023 255.24 327.821C255.24 327.821 255.911 328.503 257.169 329.668C258.953 331.303 260.877 332.779 262.92 334.078C265.483 335.771 268.717 337.5 272.233 339.57C273.986 340.616 275.761 341.745 277.608 343.098C279.454 344.45 281.136 345.849 283.053 347.272C290.52 352.976 297.259 358.174 301.998 362.125C304.35 364.089 306.267 365.724 307.513 366.9C308.16 367.488 308.631 367.958 308.948 368.287C309.12 368.441 309.278 368.61 309.419 368.793Z" fill="#455A64"/>
<path d="M278.406 339.476C279.83 339.918 281.228 340.44 282.593 341.04C285.168 342.039 288.732 343.392 292.742 344.626C296.752 345.861 300.421 346.873 303.09 347.531C304.553 347.848 305.997 348.24 307.418 348.707C307.023 348.724 306.627 348.685 306.242 348.59C305.478 348.484 304.372 348.284 303.02 348.002C299.494 347.265 296.008 346.347 292.577 345.25C289.14 344.167 285.761 342.911 282.452 341.487C281.193 340.934 280.17 340.463 279.476 340.122C279.096 339.949 278.737 339.732 278.406 339.476Z" fill="#455A64"/>
<path d="M291.413 329.056C290.022 329.382 288.612 329.626 287.191 329.785C284.581 330.173 280.97 330.726 277.007 331.432C273.044 332.137 269.469 332.878 266.882 333.419C265.497 333.769 264.091 334.028 262.672 334.195C263.014 334.02 263.378 333.89 263.754 333.807C264.459 333.595 265.494 333.313 266.776 332.996C269.352 332.349 272.915 331.549 276.901 330.832C280.888 330.115 284.498 329.656 287.133 329.35C288.45 329.209 289.485 329.115 290.261 329.068C290.642 329.008 291.031 329.004 291.413 329.056Z" fill="#455A64"/>
<path d="M285.839 322.153C285.839 322.247 284.216 322.388 281.629 322.776C274.857 323.775 268.28 325.814 262.131 328.821C259.779 329.997 258.356 330.785 258.309 330.69C258.585 330.424 258.898 330.199 259.238 330.02C259.849 329.609 260.766 329.068 261.931 328.432C264.977 326.809 268.17 325.478 271.468 324.458C274.762 323.441 278.144 322.732 281.57 322.341C282.887 322.2 283.922 322.129 284.686 322.117C285.07 322.069 285.459 322.08 285.839 322.153Z" fill="#455A64"/>
<path d="M333.091 381.529L326.035 397.993C328.634 400.345 338.513 401.851 341.993 401.674C345.474 401.498 350.508 401.533 353.977 401.145C358.397 400.788 362.84 400.82 367.254 401.239C371.671 401.658 376.121 401.575 380.519 400.992C384.928 400.387 389.039 398.422 392.279 395.371C393.846 393.987 395.03 392.224 395.719 390.251C396.408 388.278 396.578 386.161 396.213 384.103C395.848 382.045 394.961 380.115 393.636 378.499C392.31 376.883 390.592 375.634 388.645 374.873C385.099 373.365 381.213 372.833 377.391 373.333C373.589 373.834 369.841 374.684 366.196 375.873C362.28 377.049 358.269 378.225 354.2 377.872C353.377 377.801 352.554 377.872 351.743 377.684C346.427 376.696 340.888 376.649 336.102 379.66C335.161 380.259 334.091 380.789 333.091 381.529Z" fill="#E0E0E0"/>
<path d="M334.113 383.375C334.302 383.16 334.51 382.963 334.737 382.787C335.37 382.264 336.047 381.796 336.759 381.388C339.412 379.861 342.474 379.2 345.52 379.494C347.426 379.683 349.472 380.071 351.683 380.4C354.01 380.815 356.382 380.929 358.739 380.741C361.327 380.393 363.879 379.807 366.359 378.989C369.061 378.094 371.853 377.503 374.685 377.225C377.536 376.949 380.414 377.196 383.176 377.954C384.487 378.332 385.756 378.845 386.963 379.483C388.135 380.077 389.194 380.873 390.091 381.835C391.743 383.631 392.906 385.822 393.466 388.197C393.741 389.278 393.777 390.405 393.572 391.501C393.349 392.508 392.951 393.467 392.396 394.335C391.466 395.81 390.216 397.056 388.738 397.981C387.64 398.681 386.479 399.275 385.269 399.757C384.281 400.168 383.505 400.439 382.976 400.627C382.712 400.737 382.435 400.816 382.153 400.862C382.401 400.723 382.661 400.605 382.929 400.509C383.446 400.286 384.211 399.98 385.175 399.545C386.348 399.021 387.477 398.404 388.55 397.699C389.96 396.777 391.145 395.551 392.02 394.112C392.559 393.257 392.918 392.3 393.073 391.301C393.229 390.302 393.179 389.281 392.925 388.303C392.358 386.031 391.225 383.939 389.632 382.223C387.785 380.404 385.482 379.116 382.964 378.495C380.284 377.771 377.496 377.532 374.732 377.789C368.993 378.213 363.901 380.835 358.798 381.317C356.399 381.493 353.988 381.359 351.624 380.917C349.413 380.553 347.379 380.141 345.497 379.929C342.526 379.622 339.53 380.203 336.889 381.599C335.933 382.142 335.006 382.734 334.113 383.375Z" fill="#455A64"/>
<path d="M382.201 400.933C382.201 400.933 381.942 400.709 381.566 400.215C381.329 399.925 381.113 399.619 380.919 399.298C380.644 398.883 380.397 398.451 380.178 398.005C379.579 396.857 379.087 395.656 378.708 394.418C378.249 392.883 377.934 391.308 377.767 389.714C377.627 388.129 377.627 386.535 377.767 384.951C377.891 383.662 378.131 382.387 378.485 381.141C378.611 380.657 378.769 380.182 378.955 379.718C379.077 379.363 379.222 379.018 379.39 378.683C379.673 378.13 379.837 377.836 379.872 377.86C379.908 377.883 379.402 379.13 378.908 381.247C378.613 382.479 378.42 383.734 378.332 384.998C378.239 386.546 378.263 388.099 378.402 389.643C378.58 391.184 378.875 392.71 379.284 394.206C379.63 395.415 380.07 396.595 380.602 397.734C381.46 399.839 382.271 400.874 382.201 400.933Z" fill="#263238"/>
<path d="M337.43 379.224C337.583 379.306 337.43 379.918 337.089 380.624C336.748 381.329 336.478 381.894 336.313 381.8C336.148 381.706 336.219 381.094 336.525 380.353C336.83 379.612 337.289 379.142 337.43 379.224Z" fill="#455A64"/>
<path d="M342.451 377.272C342.604 377.342 342.451 377.942 342.251 378.648C342.051 379.353 341.757 379.918 341.592 379.824C341.428 379.73 341.428 379.142 341.663 378.401C341.898 377.66 342.298 377.201 342.451 377.272Z" fill="#455A64"/>
<path d="M348.907 377.143C349.06 377.202 348.978 377.896 348.719 378.695C348.461 379.495 348.108 380.107 347.955 380.048C347.802 379.989 347.873 379.307 348.131 378.507C348.39 377.708 348.743 377.096 348.907 377.143Z" fill="#455A64"/>
<path d="M354.964 377.907C355.129 377.907 355.07 378.648 354.835 379.459C354.6 380.271 354.271 380.894 354.118 380.847C353.965 380.8 354.012 380.106 354.247 379.283C354.482 378.46 354.8 377.86 354.964 377.907Z" fill="#455A64"/>
<path d="M360.068 381.106C359.903 381.106 359.762 380.282 359.774 379.271C359.786 378.26 359.915 377.448 360.092 377.448C360.268 377.448 360.386 378.271 360.386 379.271C360.386 380.271 360.233 381.106 360.068 381.106Z" fill="#455A64"/>
<path d="M365.737 379.66C365.56 379.66 365.325 378.954 365.196 378.037C365.066 377.12 365.102 376.355 365.266 376.332C365.431 376.308 365.678 377.037 365.807 377.954C365.937 378.872 365.925 379.636 365.737 379.66Z" fill="#455A64"/>
<path d="M370.981 374.521C371.146 374.521 371.416 375.179 371.581 376.061C371.745 376.943 371.745 377.684 371.581 377.707C371.416 377.731 371.146 377.049 370.981 376.167C370.816 375.285 370.816 374.544 370.981 374.521Z" fill="#455A64"/>
<path d="M377.754 373.273C377.919 373.273 377.848 374.273 377.613 375.426C377.378 376.578 377.025 377.495 376.861 377.46C376.696 377.425 376.767 376.46 377.014 375.308C377.26 374.155 377.59 373.238 377.754 373.273Z" fill="#455A64"/>
<path d="M383.565 373.438C383.718 373.509 383.306 374.614 382.636 375.79C381.966 376.966 381.307 377.978 381.166 377.895C381.295 377.051 381.612 376.247 382.095 375.543C382.754 374.309 383.377 373.368 383.565 373.438Z" fill="#455A64"/>
<path d="M389.48 374.991C389.621 375.085 389.08 376.167 388.304 377.413C387.528 378.66 386.716 379.601 386.575 379.507C386.434 379.413 386.975 378.331 387.751 377.084C388.527 375.838 389.339 374.897 389.48 374.991Z" fill="#455A64"/>
<path d="M393.29 378.566C393.419 378.66 392.902 379.636 392.114 380.753C391.326 381.87 390.597 382.694 390.467 382.599C390.338 382.505 390.844 381.518 391.643 380.4C392.443 379.283 393.149 378.46 393.29 378.566Z" fill="#455A64"/>
<path d="M395.948 383.106C396.089 383.2 395.56 384.152 394.666 385.14C393.772 386.128 392.878 386.739 392.773 386.622C392.667 386.504 393.349 385.693 394.219 384.728C395.089 383.764 395.807 383 395.948 383.106Z" fill="#455A64"/>
<path d="M395.559 390.032C395.688 390.126 395.394 390.702 394.701 391.008C394.007 391.314 393.372 391.149 393.395 391.008C393.419 390.867 393.901 390.714 394.454 390.467C395.006 390.22 395.43 389.914 395.559 390.032Z" fill="#455A64"/>
<path d="M391.797 395.959C391.797 396.112 391.691 396.312 391.432 396.277C391.174 396.241 391.091 395.983 391.197 395.853C391.235 395.797 391.286 395.75 391.345 395.718C391.404 395.685 391.471 395.667 391.538 395.665C391.602 395.689 391.66 395.728 391.705 395.779C391.75 395.831 391.782 395.892 391.797 395.959Z" fill="#455A64"/>
<path d="M350.789 398.299C351.624 396.539 352.267 394.693 352.706 392.795C352.957 390.845 352.996 388.874 352.824 386.915C353.504 388.818 353.674 390.866 353.317 392.854C352.96 394.843 352.088 396.704 350.789 398.252V398.299Z" fill="#263238"/>
<path d="M355.635 397.747C356.409 396.124 357.001 394.42 357.399 392.666C357.606 390.877 357.606 389.07 357.399 387.28C358.108 389.015 358.319 390.914 358.01 392.762C357.7 394.611 356.882 396.337 355.647 397.747H355.635Z" fill="#263238"/>
<path d="M361.738 397.782C363.854 394.412 364.603 390.361 363.832 386.457C364.167 386.956 364.376 387.529 364.443 388.127C364.718 389.549 364.718 391.01 364.443 392.431C364.19 393.857 363.658 395.22 362.879 396.441C362.303 397.37 361.797 397.829 361.738 397.782Z" fill="#263238"/>
<path d="M368.629 397.37C369.335 395.538 369.866 393.644 370.217 391.713C370.355 389.753 370.316 387.785 370.099 385.833C370.826 387.73 371.073 389.777 370.817 391.792C370.56 393.807 369.808 395.727 368.629 397.381V397.37Z" fill="#263238"/>
<path d="M349.554 392.208C349.24 392.345 348.894 392.394 348.555 392.349C347.622 392.289 346.72 391.994 345.932 391.49C344.803 390.727 343.816 389.772 343.016 388.668C342.473 388.045 342.044 387.333 341.746 386.563C341.598 386.12 341.562 385.647 341.64 385.187C341.73 384.692 341.987 384.244 342.369 383.917C342.74 383.619 343.179 383.418 343.646 383.33C344.114 383.241 344.596 383.269 345.05 383.411C345.85 383.675 346.573 384.131 347.155 384.74C348.124 385.715 348.874 386.886 349.354 388.174C349.681 389.029 349.875 389.93 349.931 390.844C349.983 391.177 349.963 391.518 349.872 391.843C349.691 390.638 349.384 389.455 348.954 388.315C348.441 387.117 347.693 386.034 346.755 385.128C346.239 384.587 345.596 384.183 344.885 383.952C344.526 383.845 344.147 383.826 343.779 383.895C343.41 383.965 343.064 384.122 342.769 384.352C342.501 384.601 342.315 384.926 342.235 385.282C342.156 385.639 342.186 386.012 342.322 386.351C342.599 387.061 342.997 387.717 343.498 388.292C344.239 389.367 345.153 390.313 346.203 391.09C347.19 391.775 348.353 392.163 349.554 392.208Z" fill="#263238"/>
<path d="M349.271 392.031C349.25 392.339 349.174 392.642 349.048 392.924C348.784 393.738 348.446 394.525 348.037 395.276C347.442 396.42 346.537 397.374 345.426 398.028C344.744 398.415 343.976 398.625 343.191 398.64C342.737 398.671 342.281 398.584 341.869 398.389C341.457 398.193 341.103 397.895 340.839 397.522C340.633 397.119 340.548 396.665 340.594 396.214C340.64 395.764 340.815 395.336 341.098 394.982C341.554 394.35 342.16 393.841 342.862 393.501C344.015 392.988 345.235 392.64 346.484 392.466C347.595 392.19 348.729 392.02 349.871 391.96C348.802 392.364 347.701 392.674 346.578 392.889C345.385 393.12 344.224 393.495 343.121 394.006C342.512 394.314 341.987 394.767 341.592 395.323C341.382 395.585 341.25 395.899 341.211 396.232C341.171 396.565 341.226 396.902 341.369 397.205C341.573 397.476 341.841 397.694 342.148 397.839C342.455 397.985 342.793 398.053 343.133 398.04C343.819 398.037 344.494 397.863 345.097 397.534C346.137 396.94 347.005 396.085 347.613 395.053C348.683 393.242 349.119 391.972 349.271 392.031Z" fill="#263238"/>
<path d="M348.791 397.04C348.649 396.923 349.332 396.017 349.531 394.688C349.731 393.359 349.402 392.336 349.531 392.242C349.83 392.587 350.037 393.001 350.136 393.447C350.235 393.892 350.221 394.355 350.096 394.794C349.896 396.311 348.885 397.17 348.791 397.04Z" fill="#263238"/>
<path d="M351.413 388.821C351.566 388.821 351.413 389.761 350.908 390.726C350.402 391.69 349.732 392.301 349.602 392.207C349.473 392.113 349.884 391.349 350.367 390.443C350.849 389.538 351.249 388.762 351.413 388.821Z" fill="#263238"/>
<path d="M370.239 380.071C369.433 380.607 368.554 381.022 367.629 381.306C363.232 382.946 358.542 383.651 353.858 383.376C352.891 383.372 351.929 383.233 351 382.964C354.261 383.004 357.521 382.835 360.761 382.459C363.969 381.87 367.135 381.073 370.239 380.071Z" fill="#DA693F"/>
<path d="M367.325 399.134C365.202 399.59 363.04 399.842 360.868 399.886C358.714 400.134 356.54 400.181 354.377 400.027C356.5 399.571 358.662 399.319 360.833 399.275C362.988 399.027 365.161 398.979 367.325 399.134Z" fill="#DA693F"/>
<path d="M382.93 399.593C384.404 399.385 385.815 398.864 387.07 398.064C388.394 397.16 389.457 395.922 390.151 394.477C390.949 392.692 391.171 390.702 390.786 388.785C390.412 386.855 389.508 385.067 388.175 383.622C387.075 382.453 385.756 381.511 384.294 380.847C382.906 380.283 381.464 379.861 379.99 379.589C380.398 379.515 380.817 379.515 381.225 379.589C382.336 379.719 383.424 380 384.459 380.424C386.014 381.054 387.421 382.004 388.587 383.211C390.021 384.716 390.993 386.602 391.386 388.644C391.802 390.689 391.546 392.813 390.657 394.7C389.899 396.218 388.74 397.5 387.305 398.405C386.347 399.01 385.274 399.41 384.153 399.581C383.75 399.661 383.335 399.665 382.93 399.593Z" fill="#DA693F"/>
<path d="M308.535 370.687L339.111 384.269C339.409 388.156 338.763 392.057 337.23 395.641C334.995 400.228 328.21 399.31 328.21 399.31L301.303 393.054L307.3 389.526L308.535 370.687Z" fill="#FAC7B5"/>
<path d="M335.867 398.052C334.657 397.205 333.551 396.218 332.574 395.112C331.597 393.992 331.047 392.563 331.021 391.078C331.154 389.74 331.606 388.454 332.339 387.326C332.964 385.964 334.04 384.86 335.384 384.198C337.078 383.563 338.912 384.292 340.571 385.104L340.888 391.925L335.867 398.052Z" fill="#E0E0E0"/>
<path d="M339.159 384.269C339.089 384.422 332.185 381.506 323.73 377.754C315.275 374.003 308.442 370.839 308.536 370.698C308.63 370.557 315.522 373.45 323.977 377.202C332.432 380.953 339.23 384.105 339.159 384.269Z" fill="#EB996E"/>
<path d="M373.969 260.965C374.264 260.981 374.558 260.939 374.836 260.84C375.114 260.742 375.37 260.589 375.588 260.391C375.807 260.193 375.984 259.954 376.11 259.687C376.236 259.42 376.308 259.132 376.321 258.837C376.662 249.17 370.288 227.273 367.231 218.183C365.361 212.632 358.999 208.575 354.624 205.588C349.285 201.977 330.41 197.556 324.189 195.839H322.096L293.178 193.687L277.29 201.295C277.29 201.295 255.264 209.645 248.878 221.287C242.492 232.93 237.635 266.951 237.635 266.951C237.635 266.951 234.707 276.677 237.635 281.063C239.458 283.803 246.244 286.179 252.347 287.343C249.043 298.351 251.653 306.524 251.536 307.923C251.289 310.816 249.066 317.555 254.276 317.143C259.485 316.731 300.222 305.971 312.323 305.489C322.568 305.211 332.7 307.697 341.653 312.686C347.756 316.108 347.709 316.355 349.885 310.334C352.06 304.313 345.11 297.527 345.11 297.527C345.11 297.527 351.343 275.007 354.248 260.283L373.969 260.965Z" fill="#455A64"/>
<path d="M276.959 247.889C276.959 247.889 276.595 247.572 276.042 246.913C275.489 246.254 274.619 245.231 273.69 244.126C271.161 241.054 268.41 238.173 265.458 235.506C263.814 234.059 262.052 232.753 260.19 231.601C258.669 230.674 257.067 229.887 255.403 229.249C252.546 228.168 250.699 227.897 250.699 227.779C251.146 227.77 251.593 227.818 252.028 227.921C252.549 227.995 253.063 228.105 253.569 228.25C254.247 228.406 254.915 228.607 255.568 228.85C257.287 229.447 258.941 230.215 260.507 231.143C262.411 232.286 264.21 233.596 265.881 235.059C268.889 237.742 271.644 240.694 274.113 243.879C275.066 245.055 275.819 246.09 276.313 246.795C276.561 247.139 276.778 247.505 276.959 247.889Z" fill="#263238"/>
<path d="M271.657 280.405C271.188 280.492 270.711 280.527 270.234 280.511C269.317 280.511 267.988 280.57 266.341 280.511C262.064 280.485 257.793 280.167 253.558 279.558C249.323 278.964 245.168 277.891 241.175 276.36C239.97 275.896 238.793 275.366 237.647 274.772C237.207 274.585 236.793 274.344 236.412 274.055C236.412 273.961 238.27 274.854 241.351 275.96C245.365 277.363 249.504 278.379 253.711 278.994C257.923 279.582 262.162 279.955 266.412 280.111L270.293 280.264C270.751 280.262 271.209 280.309 271.657 280.405Z" fill="#263238"/>
<path d="M332.808 291.436C332.714 291.75 332.571 292.048 332.385 292.318C331.943 293.077 331.461 293.811 330.939 294.517C327.469 299.217 322.78 302.877 317.379 305.101C316.568 305.445 315.735 305.735 314.886 305.971C314.584 306.084 314.267 306.152 313.945 306.171C313.945 306.065 315.204 305.63 317.203 304.713C319.793 303.499 322.242 302.005 324.506 300.256C326.754 298.487 328.798 296.471 330.597 294.247C331.926 292.541 332.667 291.389 332.808 291.436Z" fill="#263238"/>
<path d="M333.279 300.468C332.734 301.082 332.085 301.596 331.362 301.985C329.706 303.055 327.929 303.928 326.07 304.584C324.209 305.239 322.28 305.681 320.319 305.901C319.51 306.041 318.682 306.041 317.873 305.901C320.575 305.446 323.243 304.805 325.858 303.984C328.41 302.985 330.889 301.81 333.279 300.468Z" fill="#263238"/>
<path d="M367.147 218.183C367.148 218.521 367.1 218.858 367.006 219.183C366.822 220.076 366.591 220.96 366.312 221.829C365.413 224.7 364.194 227.461 362.678 230.061C361.153 232.665 359.347 235.094 357.292 237.305C356.504 238.14 355.834 238.786 355.34 239.21C354.846 239.633 354.575 239.857 354.54 239.821C354.505 239.786 355.481 238.751 356.974 237.011C358.911 234.751 360.643 232.322 362.149 229.755C363.64 227.176 364.895 224.468 365.9 221.664C366.676 219.535 367.053 218.159 367.147 218.183Z" fill="#263238"/>
<path d="M374.556 255.791C373.619 255.974 372.665 256.049 371.71 256.015C369.946 256.015 367.512 256.015 364.831 256.015C362.15 256.015 359.715 255.733 357.963 255.544C357.008 255.503 356.061 255.353 355.141 255.097C356.087 255.005 357.04 255.005 357.987 255.097L364.854 255.391L371.71 255.627C372.662 255.585 373.616 255.64 374.556 255.791Z" fill="#263238"/>
<path d="M351.625 222.075C351.804 222.58 351.938 223.099 352.025 223.628C352.26 224.804 352.566 226.179 352.919 227.896C353.648 231.507 354.694 236.505 355.271 242.114C355.817 246.91 355.793 251.754 355.2 256.544C354.929 258.367 354.659 259.837 354.4 260.836C354.301 261.365 354.155 261.885 353.965 262.388C353.977 261.85 354.044 261.314 354.165 260.789C354.353 259.79 354.565 258.308 354.765 256.485C355.233 251.724 355.198 246.927 354.659 242.173C354.036 236.611 353.06 231.589 352.448 227.979C352.131 226.168 351.884 224.686 351.743 223.675C351.643 223.148 351.603 222.611 351.625 222.075Z" fill="#263238"/>
<path d="M276.96 251.958C276.983 252.414 276.955 252.872 276.878 253.322C276.784 254.192 276.631 255.439 276.431 256.98C276.019 260.072 275.396 264.341 274.537 269.022C273.842 273.031 272.915 276.997 271.762 280.899C271.406 282.079 270.982 283.238 270.492 284.369C270.322 284.784 270.105 285.179 269.845 285.545C269.751 285.545 270.574 283.757 271.351 280.746C272.127 277.736 273.079 273.549 273.938 268.881C274.796 264.212 275.478 259.967 276.007 256.897C276.251 255.462 276.462 254.251 276.643 253.263C276.696 252.817 276.803 252.379 276.96 251.958Z" fill="#263238"/>
<path d="M272.997 233.224C273.5 233.947 273.896 234.739 274.173 235.576C275.768 239.442 276.798 243.517 277.231 247.677C277.357 248.534 277.357 249.406 277.231 250.264C277.043 250.264 276.678 246.36 275.479 241.667C274.279 236.975 272.833 233.294 272.997 233.224Z" fill="#263238"/>
<path d="M306.278 274.924C306.37 274.693 306.48 274.469 306.607 274.254C306.866 273.784 307.219 273.16 307.654 272.361L311.605 265.364C315.051 259.366 319.837 251.04 325.341 241.467L325.729 241.879C322.201 243.572 318.509 245.242 314.581 246.795C309.877 248.676 305.173 250.264 300.833 251.499L299.916 251.769L300.528 251.028L316.992 231.036L321.813 225.274L323.119 223.745C323.264 223.563 323.426 223.394 323.601 223.239C323.484 223.442 323.35 223.635 323.201 223.816L321.966 225.391L317.262 231.271L300.939 251.44L300.622 250.969C304.949 249.676 309.594 248.088 314.31 246.265C318.215 244.713 321.954 243.055 325.423 241.385L326.305 240.962L325.812 241.797L311.888 265.587L307.783 272.502L306.607 274.348C306.515 274.55 306.405 274.743 306.278 274.924Z" fill="white"/>
<g opacity="0.3">
<path d="M327.375 307.112C328.763 307.477 331.42 303.279 332.961 300.703C328.257 303.314 323.718 306.442 318.449 305.301C321.378 304.518 324.068 303.026 326.283 300.956C328.498 298.887 330.17 296.304 331.15 293.436C327.471 299.049 322.038 303.288 315.697 305.49C315.697 305.49 325.176 306.536 327.375 307.112Z" fill="black"/>
</g>
<path d="M272.996 182.279C272.996 182.279 273.796 182.609 275.348 182.938C277.471 183.446 279.703 183.226 281.687 182.315C283.022 181.659 284.135 180.624 284.885 179.339C285.322 178.624 285.595 177.82 285.685 176.987C285.774 176.153 285.678 175.31 285.403 174.518C285.125 173.638 284.618 172.847 283.934 172.227C283.25 171.607 282.414 171.18 281.51 170.99C280.537 170.88 279.555 171.085 278.707 171.577C277.86 172.068 277.194 172.819 276.806 173.718C276.629 174.171 276.546 174.655 276.564 175.14C276.583 175.626 276.701 176.103 276.912 176.541C277.356 177.401 278.054 178.103 278.911 178.552C279.728 179.016 280.653 179.256 281.593 179.245C282.5 179.224 283.392 179.016 284.215 178.634C285.76 177.89 287.106 176.789 288.143 175.423C289.083 174.253 289.844 172.949 290.401 171.554C291.206 169.519 291.605 167.346 291.577 165.157C291.577 163.616 291.377 162.805 291.436 162.746C291.52 162.941 291.575 163.147 291.6 163.358C291.711 163.952 291.782 164.553 291.812 165.157C291.921 167.391 291.556 169.623 290.742 171.707C290.195 173.157 289.434 174.517 288.484 175.741C287.413 177.186 286.009 178.352 284.392 179.14C283.5 179.563 282.532 179.8 281.546 179.833C280.501 179.848 279.471 179.588 278.559 179.081C277.591 178.572 276.806 177.774 276.312 176.799C276.059 176.289 275.917 175.73 275.895 175.161C275.872 174.591 275.971 174.024 276.183 173.495C276.617 172.47 277.372 171.613 278.335 171.055C279.298 170.497 280.417 170.268 281.522 170.402C282.525 170.601 283.456 171.067 284.217 171.75C284.979 172.432 285.543 173.307 285.85 174.283C286.143 175.151 286.242 176.073 286.138 176.984C286.034 177.894 285.731 178.771 285.25 179.551C284.43 180.901 283.232 181.98 281.804 182.656C279.727 183.578 277.394 183.744 275.207 183.126C274.622 182.978 274.051 182.777 273.502 182.526C273.325 182.462 273.155 182.379 272.996 182.279Z" fill="#263238"/>
<path d="M365.196 156.325C365.443 153.935 365.175 151.52 364.41 149.242C363.645 146.964 362.401 144.876 360.762 143.119C359.092 141.387 357.01 140.108 354.71 139.4C352.411 138.693 349.969 138.58 347.615 139.073C344.226 139.703 341.106 141.343 338.665 143.777C337.914 144.531 337.301 145.41 336.854 146.376C336.772 146.517 336.701 146.67 336.619 146.823C336.537 146.976 336.443 147.211 336.36 147.411V147.505C334.905 150.835 334.542 154.541 335.325 158.089C335.956 160.767 337.259 163.241 339.111 165.276C340.963 167.311 343.303 168.84 345.909 169.72C348.546 170.514 351.35 170.569 354.017 169.881C356.683 169.193 359.11 167.787 361.033 165.816C363.429 163.198 364.893 159.861 365.196 156.325Z" fill="#263238"/>
<path d="M363.091 164.181C362.985 164.181 362.773 162.841 361.915 160.83C360.851 158.205 359.198 155.86 357.083 153.976C354.969 152.091 352.449 150.719 349.72 149.963C347.626 149.375 346.192 149.328 346.262 149.211C346.582 149.158 346.907 149.158 347.227 149.211C348.102 149.257 348.972 149.383 349.826 149.587C352.674 150.243 355.311 151.607 357.494 153.551C359.677 155.495 361.335 157.958 362.315 160.712C362.612 161.538 362.836 162.387 362.985 163.252C363.071 163.554 363.107 163.868 363.091 164.181Z" fill="#455A64"/>
<path d="M358.492 154.89C358.278 155.86 357.917 156.792 357.422 157.654C356.325 159.792 354.914 161.755 353.235 163.475C351.545 165.18 349.606 166.619 347.485 167.744C346.635 168.27 345.712 168.667 344.745 168.92C344.627 168.72 348.931 167.05 352.8 163.04C356.669 159.03 358.304 154.772 358.492 154.89Z" fill="#455A64"/>
<path d="M345.802 149.834C345.626 149.728 347.037 147.482 348.154 144.471C348.782 142.631 349.196 140.725 349.389 138.791C349.594 139.347 349.667 139.943 349.601 140.531C349.539 141.953 349.245 143.356 348.73 144.683C348.092 146.571 347.098 148.319 345.802 149.834Z" fill="#DA693F"/>
<path d="M345.98 145.741C346.267 139.03 344 132.459 339.636 127.353C335.271 122.246 329.134 118.984 322.46 118.222C319.014 117.838 315.527 118.153 312.206 119.147C308.884 120.141 305.798 121.795 303.13 124.009C300.463 126.223 298.269 128.952 296.68 132.034C295.091 135.115 294.14 138.485 293.883 141.942L291.531 199.99C291.489 201.113 291.824 202.219 292.483 203.13C296.144 208.154 301.637 211.534 307.771 212.538C313.088 213.057 318.43 211.844 323.001 209.08C323.745 208.639 324.36 208.011 324.786 207.258C325.211 206.504 325.431 205.653 325.423 204.788V191.852C325.423 191.83 325.432 191.809 325.447 191.793C325.463 191.778 325.484 191.769 325.506 191.769C326.719 191.839 327.937 191.784 329.139 191.605C332.562 190.699 341.252 187.171 343.945 174.27C344.733 169.896 345.498 157.783 345.98 145.741Z" fill="#FAC7B5"/>
<path d="M327.27 165.051C328.497 164.744 329.756 164.586 331.021 164.581C331.609 164.581 332.197 164.463 332.291 164.075C332.36 163.484 332.25 162.886 331.974 162.358C331.492 160.935 330.974 159.442 330.445 157.89C328.328 151.527 326.823 146.318 327.082 146.235C327.34 146.153 329.269 151.245 331.386 157.596C331.892 159.171 332.385 160.665 332.844 162.088C333.18 162.796 333.251 163.601 333.044 164.358C332.948 164.558 332.809 164.733 332.636 164.872C332.463 165.01 332.261 165.108 332.044 165.157C331.716 165.228 331.38 165.256 331.045 165.24C329.784 165.332 328.516 165.269 327.27 165.051Z" fill="#263238"/>
<path d="M340.394 154.397C340.366 154.946 340.127 155.463 339.725 155.838C339.323 156.213 338.791 156.418 338.242 156.408C337.972 156.417 337.702 156.373 337.45 156.277C337.197 156.181 336.966 156.036 336.77 155.85C336.574 155.664 336.417 155.44 336.308 155.193C336.2 154.946 336.141 154.679 336.137 154.409C336.158 153.858 336.396 153.337 336.799 152.961C337.202 152.584 337.738 152.382 338.289 152.398C338.559 152.388 338.828 152.433 339.081 152.529C339.334 152.624 339.565 152.77 339.761 152.956C339.957 153.142 340.114 153.365 340.222 153.613C340.331 153.86 340.389 154.127 340.394 154.397Z" fill="#263238"/>
<path d="M342.51 148.011C342.298 148.234 340.593 148.129 338.429 148.858C336.265 149.587 334.83 150.728 334.548 150.669C334.266 150.61 334.548 150.292 335.219 149.775C336.131 149.06 337.162 148.511 338.264 148.152C339.324 147.776 340.446 147.608 341.569 147.658C342.31 147.717 342.616 147.893 342.51 148.011Z" fill="#263238"/>
<path d="M318.331 152.95C318.304 153.499 318.064 154.016 317.662 154.391C317.261 154.766 316.729 154.97 316.179 154.961C315.91 154.968 315.641 154.923 315.389 154.826C315.137 154.73 314.906 154.585 314.711 154.399C314.515 154.213 314.358 153.99 314.249 153.744C314.14 153.497 314.08 153.231 314.074 152.961C314.099 152.411 314.338 151.893 314.74 151.517C315.142 151.141 315.676 150.938 316.226 150.95C316.496 150.941 316.766 150.986 317.018 151.081C317.271 151.177 317.502 151.322 317.698 151.509C317.894 151.695 318.051 151.918 318.16 152.165C318.268 152.413 318.327 152.679 318.331 152.95Z" fill="#263238"/>
<path d="M319.084 149.893C318.743 149.893 317.496 148.552 315.262 147.541C313.028 146.529 311.076 146.271 310.911 146.012C310.746 145.753 311.228 145.765 312.087 145.847C313.315 145.997 314.508 146.355 315.615 146.906C316.718 147.407 317.716 148.113 318.555 148.987C319.143 149.528 319.237 149.881 319.084 149.893Z" fill="#263238"/>
<path d="M325.317 191.687C325.317 191.687 316.438 191.946 305.666 184.843C305.666 184.843 308.63 196.52 325.317 195.838V191.687Z" fill="#EB996E"/>
<path d="M326.058 170.425C325.64 169.864 325.089 169.416 324.454 169.121C323.82 168.825 323.123 168.692 322.424 168.732C321.919 168.752 321.423 168.873 320.965 169.087C320.506 169.301 320.095 169.604 319.755 169.978C319.437 170.339 319.238 170.788 319.183 171.265C319.129 171.742 319.221 172.225 319.449 172.648C319.802 173.073 320.272 173.386 320.801 173.547C321.33 173.708 321.894 173.71 322.424 173.553C323.517 173.228 324.536 172.693 325.423 171.977C325.692 171.81 325.927 171.595 326.117 171.342C326.199 171.219 326.243 171.073 326.243 170.925C326.243 170.776 326.199 170.631 326.117 170.507" fill="#EB996E"/>
<path d="M320.461 166.262C320.825 166.262 320.719 168.708 322.813 170.555C324.906 172.401 327.517 172.26 327.517 172.601C327.517 172.754 326.905 173.048 325.788 173.024C324.333 172.967 322.941 172.411 321.848 171.449C320.825 170.543 320.185 169.281 320.061 167.921C319.978 166.839 320.284 166.239 320.461 166.262Z" fill="#263238"/>
<path d="M320.626 140.79C320.308 141.355 318.097 140.684 315.393 140.532C312.688 140.379 310.418 140.732 310.159 140.12C310.054 139.838 310.512 139.332 311.477 138.944C312.755 138.413 314.141 138.191 315.522 138.297C316.906 138.37 318.253 138.773 319.45 139.473C320.367 139.944 320.779 140.52 320.626 140.79Z" fill="#263238"/>
<path d="M342.464 141.12C342.041 141.614 340.488 141.002 338.595 140.885C336.702 140.767 335.067 141.049 334.726 140.497C334.573 140.226 334.855 139.72 335.573 139.321C336.551 138.794 337.662 138.561 338.77 138.651C339.878 138.74 340.936 139.149 341.817 139.826C342.464 140.367 342.652 140.908 342.464 141.12Z" fill="#263238"/>
<path d="M324.387 115.248C323.211 113.237 320.859 112.355 318.413 112.014C308.229 110.673 297.01 117 291.483 125.655C285.955 134.31 285.885 147.117 290.224 156.408L294.046 157.007C301.973 156.384 314.909 134.028 325.798 121.61C327.151 120.081 325.469 117.035 324.387 115.248Z" fill="#263238"/>
<path d="M343.957 121.586C339.63 116.882 332.609 111.072 323.859 114.53C322.601 117.023 325.282 120.186 327.493 122.009C330.751 124.702 333.585 126.501 335.725 128.418C340.041 132.311 345.427 138.779 345.98 146.058C345.98 146.517 346.368 146.576 346.827 146.493C347.285 146.411 348.72 143.401 349.355 139.437C350.672 131.017 348.297 126.337 343.957 121.586Z" fill="#263238"/>
<path d="M294.671 143.73C294.202 141.784 293.283 139.976 291.989 138.45C291.144 137.446 290.143 136.585 289.026 135.898C286.936 134.704 284.578 134.059 282.172 134.024C279.766 133.989 277.39 134.565 275.267 135.698C273.176 136.869 271.359 138.474 269.939 140.405C268.519 142.336 267.529 144.548 267.035 146.893C266.224 150.357 266.584 153.992 268.058 157.23C269.289 159.693 271.173 161.771 273.503 163.237C275.834 164.703 278.523 165.502 281.276 165.545C284.03 165.515 286.732 164.783 289.125 163.419C291.518 162.054 293.524 160.103 294.953 157.748C296.905 154.431 296.352 148.575 294.671 143.73Z" fill="#263238"/>
<path d="M296.481 152.339C296.246 152.221 286.791 148.681 286.38 158.56C285.968 168.438 295.976 166.792 295.999 166.533C296.023 166.274 296.481 152.339 296.481 152.339Z" fill="#FAC7B5"/>
<path d="M293.142 162.663C293.142 162.663 292.965 162.781 292.671 162.899C292.256 163.064 291.793 163.064 291.378 162.899C290.355 162.464 289.543 160.77 289.567 158.994C289.575 158.145 289.776 157.308 290.155 156.548C290.261 156.243 290.439 155.968 290.675 155.747C290.91 155.526 291.196 155.365 291.507 155.278C291.706 155.235 291.914 155.263 292.095 155.358C292.275 155.452 292.417 155.607 292.495 155.796C292.624 156.078 292.554 156.266 292.601 156.29C292.648 156.313 292.824 156.137 292.754 155.725C292.717 155.475 292.587 155.248 292.389 155.09C292.127 154.872 291.789 154.766 291.448 154.796C291.04 154.861 290.656 155.03 290.331 155.285C290.006 155.54 289.751 155.873 289.59 156.254C289.137 157.093 288.895 158.029 288.885 158.983C288.885 160.97 289.802 162.875 291.237 163.357C291.499 163.445 291.779 163.473 292.053 163.438C292.328 163.404 292.592 163.308 292.824 163.157C293.118 162.899 293.177 162.687 293.142 162.663Z" fill="#EB996E"/>
<path d="M345.992 123.562C345.054 123.82 344.084 123.947 343.111 123.938C340.776 124.07 338.434 123.991 336.114 123.703C333.8 123.434 331.514 122.966 329.281 122.304C328.335 122.078 327.424 121.722 326.576 121.245C327.532 121.39 328.475 121.606 329.399 121.892C331.647 122.434 333.924 122.85 336.219 123.138C338.515 123.402 340.823 123.539 343.134 123.55C344.086 123.478 345.041 123.482 345.992 123.562Z" fill="#455A64"/>
<path d="M349.272 130.653C348.599 130.96 347.872 131.131 347.132 131.159C345.349 131.355 343.546 131.26 341.793 130.877C340.044 130.492 338.369 129.829 336.83 128.913C336.164 128.581 335.571 128.117 335.09 127.549C337.246 128.738 339.541 129.654 341.922 130.277C344.349 130.695 346.816 130.822 349.272 130.653Z" fill="#455A64"/>
<path d="M290.225 129.066C290.225 128.937 292.365 129.313 295.811 129.219C297.83 129.164 299.843 128.96 301.832 128.607C304.258 128.15 306.651 127.529 308.994 126.749C311.333 125.942 313.619 124.988 315.838 123.892C317.642 122.984 319.393 121.975 321.083 120.869C323.976 118.988 325.587 117.565 325.669 117.647C325.34 118.034 324.973 118.389 324.576 118.705C324.223 119.035 323.764 119.411 323.211 119.881C322.659 120.352 322.035 120.799 321.33 121.281C319.651 122.447 317.899 123.503 316.085 124.444C313.858 125.579 311.556 126.557 309.194 127.372C306.821 128.168 304.392 128.782 301.926 129.207C299.908 129.537 297.867 129.702 295.822 129.701C295.037 129.715 294.252 129.683 293.47 129.607C292.879 129.585 292.289 129.522 291.706 129.419C291.203 129.347 290.707 129.229 290.225 129.066Z" fill="#455A64"/>
<path d="M325.011 121.128C324.797 121.612 324.533 122.073 324.224 122.503C323.953 122.939 323.612 123.468 323.177 124.044C322.742 124.62 322.283 125.314 321.672 125.996C320.319 127.656 318.836 129.205 317.238 130.63C315.266 132.358 313.145 133.909 310.899 135.263C308.627 136.59 306.238 137.704 303.761 138.591C301.74 139.299 299.663 139.834 297.552 140.191C296.658 140.379 295.835 140.437 295.118 140.52C294.502 140.605 293.881 140.653 293.259 140.661C292.731 140.704 292.2 140.704 291.672 140.661C291.672 140.532 293.93 140.485 297.47 139.779C299.544 139.364 301.584 138.794 303.573 138.074C308.451 136.297 312.957 133.629 316.862 130.206C318.463 128.824 319.96 127.327 321.342 125.726C323.718 122.95 324.906 121.045 325.011 121.128Z" fill="#455A64"/>
<path d="M318.414 112.049C319.077 111.919 319.763 111.967 320.402 112.19C321.969 112.637 323.376 113.523 324.459 114.742C324.77 115.107 325.045 115.501 325.282 115.918C325.488 116.291 325.654 116.685 325.776 117.094C326.014 117.768 326.199 118.46 326.329 119.164C326.504 119.823 326.454 120.523 326.187 121.151C326.082 121.151 326.187 120.387 325.905 119.258C325.72 118.587 325.497 117.927 325.235 117.282C325.117 116.898 324.959 116.528 324.764 116.177C324.542 115.812 324.286 115.47 324 115.153C322.983 114.013 321.704 113.137 320.272 112.601C319.167 112.213 318.414 112.155 318.414 112.049Z" fill="#455A64"/>
<path d="M292.342 151.48C292.248 151.48 292.542 150.457 292.753 148.834C293.018 146.717 292.895 144.569 292.389 142.496C291.852 140.436 290.828 138.536 289.402 136.957C288.226 135.781 287.402 135.204 287.473 135.098C287.544 134.993 287.72 135.181 288.132 135.428C288.699 135.759 289.228 136.154 289.707 136.604C291.296 138.167 292.426 140.136 292.977 142.296C293.522 144.438 293.59 146.674 293.177 148.846C293.063 149.768 292.78 150.661 292.342 151.48Z" fill="#DA693F"/>
<path d="M293.082 149.352C293.024 149.434 291.812 148.658 289.731 147.623C284.303 144.941 278.309 143.606 272.255 143.731C269.903 143.731 268.516 143.966 268.492 143.872C268.806 143.737 269.14 143.654 269.48 143.625C270.394 143.46 271.317 143.35 272.244 143.296C278.378 142.932 284.491 144.302 289.884 147.247C290.698 147.682 291.484 148.169 292.236 148.705C292.824 149.046 293.106 149.27 293.082 149.352Z" fill="#455A64"/>
<path d="M284.087 145.377C283.985 146.376 283.735 147.355 283.346 148.282C282.527 150.556 281.417 152.715 280.041 154.703C278.66 156.689 277.023 158.484 275.173 160.042C274.445 160.732 273.616 161.307 272.715 161.747C275.247 159.533 277.534 157.053 279.536 154.35C281.367 151.529 282.893 148.521 284.087 145.377Z" fill="#455A64"/>
<path d="M290.59 164.569C290.661 164.381 291.014 164.263 291.602 164.416C292.453 164.674 293.185 165.224 293.671 165.968C294.324 166.947 294.577 168.138 294.378 169.298C294.179 170.457 293.543 171.496 292.601 172.201C291.812 172.766 290.871 173.082 289.901 173.107C288.93 173.132 287.974 172.866 287.156 172.342C286.434 171.87 285.844 171.223 285.439 170.461C285.067 169.771 284.873 168.998 284.875 168.214C284.899 167.58 285.046 166.957 285.31 166.38C285.643 165.531 286.292 164.844 287.121 164.463C287.744 164.228 288.121 164.392 288.168 164.581C288.238 165.004 287.497 165.568 287.38 167.015C287.327 167.366 287.327 167.722 287.38 168.073C287.473 168.416 287.629 168.739 287.839 169.026C288.054 169.341 288.344 169.599 288.682 169.777C289.02 169.956 289.397 170.049 289.779 170.049C290.141 170.055 290.497 169.959 290.807 169.771C291.117 169.584 291.368 169.314 291.531 168.991C291.856 168.367 291.927 167.643 291.731 166.968C291.378 165.662 290.473 164.969 290.59 164.569Z" fill="#455A64"/>
<path d="M300.598 148.94C302.612 148.797 304.606 148.446 306.548 147.894C311.185 146.35 315.271 143.49 318.308 139.662C321.285 135.794 323.518 131.408 324.894 126.726C325.458 124.926 325.846 123.456 326.07 122.445C326.169 121.907 326.319 121.379 326.517 120.869C326.494 121.416 326.419 121.959 326.293 122.492C326.117 123.527 325.788 125.02 325.282 126.843C324.004 131.637 321.781 136.127 318.743 140.05C315.641 143.955 311.425 146.826 306.654 148.282C305.212 148.703 303.722 148.944 302.221 148.999C301.829 149.018 301.436 149.018 301.045 148.999C300.751 148.976 300.598 148.964 300.598 148.94Z" fill="#263238"/>
<path d="M324.988 200.378C325.204 200.439 325.407 200.538 325.588 200.672C326.122 201.028 326.595 201.469 326.987 201.977C327.609 202.788 328.05 203.722 328.281 204.717C328.608 206.039 328.571 207.425 328.175 208.728C327.591 210.393 326.64 211.906 325.392 213.154C324.144 214.402 322.631 215.353 320.966 215.936C319.043 216.668 317.036 217.158 314.992 217.395C312.809 217.683 310.605 217.77 308.406 217.653C304.118 217.502 299.952 216.189 296.352 213.855C293.405 211.934 291.103 209.173 289.743 205.929C289.217 204.686 288.949 203.35 288.955 202.001C288.968 200.973 289.244 199.965 289.755 199.073C290.075 198.512 290.508 198.024 291.025 197.638C291.198 197.5 291.393 197.393 291.601 197.32C290.924 197.815 290.366 198.453 289.967 199.19C289.513 200.057 289.282 201.023 289.296 202.001C289.333 203.302 289.621 204.584 290.143 205.776C291.525 208.898 293.795 211.544 296.67 213.384C300.195 215.626 304.254 216.889 308.43 217.042C310.593 217.156 312.762 217.074 314.91 216.795C316.92 216.583 318.896 216.116 320.79 215.407C322.399 214.874 323.869 213.987 325.09 212.81C326.311 211.634 327.253 210.198 327.846 208.61C328.187 207.526 328.278 206.378 328.111 205.253C327.944 204.129 327.523 203.057 326.881 202.118C326.349 201.439 325.71 200.851 324.988 200.378Z" fill="#263238"/>
<path d="M299.115 215.62C298.934 214.643 299.14 213.635 299.691 212.809C300.444 211.351 301.585 210.61 301.679 210.739C301.773 210.868 300.914 211.762 300.232 213.091C299.55 214.42 299.291 215.643 299.115 215.62Z" fill="#263238"/>
<path d="M310.147 217.713C309.885 216.917 309.817 216.07 309.947 215.243C309.947 213.891 310.17 212.797 310.347 212.797C310.609 213.592 310.681 214.438 310.558 215.266C310.464 216.619 310.323 217.713 310.147 217.713Z" fill="#263238"/>
<path d="M321.225 216.078C320.456 214.359 320.074 212.492 320.107 210.609C320.582 211.427 320.874 212.338 320.966 213.279C321.249 214.183 321.337 215.137 321.225 216.078Z" fill="#263238"/>
<path d="M327.692 209.022C327.539 209.104 327.08 208.493 326.316 207.999C325.551 207.505 324.822 207.293 324.834 207.117C324.846 206.94 325.751 206.882 326.657 207.481C327.562 208.081 327.845 208.963 327.692 209.022Z" fill="#263238"/>
<path d="M293.271 204.624C293.271 204.789 292.648 205.012 292.025 205.53C291.402 206.047 291.013 206.6 290.849 206.541C290.684 206.482 290.849 205.659 291.637 205.047C292.425 204.436 293.26 204.471 293.271 204.624Z" fill="#263238"/>
<path d="M312.617 283.322C312.219 283.303 311.833 283.187 311.489 282.986C311.146 282.785 310.856 282.504 310.645 282.167C310.433 281.829 310.307 281.446 310.275 281.049C310.244 280.653 310.309 280.254 310.465 279.888C313.64 272.738 322.307 258.979 322.872 258.085C323.695 256.838 324.13 255.298 326.764 254.98C327.776 254.863 343.652 254.498 347.38 254.416C347.681 254.404 347.981 254.452 348.264 254.557C348.547 254.662 348.806 254.822 349.026 255.027C349.767 255.733 350.543 257.074 349.367 259.179C348.05 261.531 338.454 276.431 334.561 282.169C334.181 282.728 333.666 283.182 333.063 283.488C332.461 283.794 331.791 283.944 331.115 283.922L312.617 283.322Z" fill="#263238"/>
<path d="M337.112 259.543C336.96 259.364 336.757 259.235 336.531 259.172C336.304 259.109 336.064 259.115 335.842 259.19C335.414 259.33 335.03 259.577 334.725 259.907C334.545 260.055 334.423 260.26 334.38 260.488C334.337 260.716 334.376 260.952 334.489 261.154C334.623 261.3 334.791 261.41 334.978 261.473C335.165 261.537 335.365 261.553 335.559 261.519C336.061 261.489 336.534 261.275 336.888 260.919C337.058 260.738 337.171 260.51 337.21 260.265C337.25 260.02 337.216 259.768 337.112 259.543Z" fill="white"/>
<path d="M345.273 262.776C345.434 262.298 345.643 261.837 345.896 261.4C346.132 260.942 346.39 260.412 346.696 259.836C346.861 259.53 347.025 259.201 347.202 258.86C347.417 258.549 347.555 258.189 347.602 257.814C347.608 257.622 347.567 257.432 347.483 257.26C347.399 257.088 347.274 256.939 347.12 256.826C346.936 256.709 346.732 256.631 346.518 256.594C346.304 256.558 346.084 256.565 345.873 256.614L342.627 256.743L335.207 257.002L327.774 257.226H326.951C326.729 257.244 326.517 257.326 326.34 257.461C326.015 257.821 325.731 258.215 325.493 258.637C324.952 259.483 324.446 260.283 323.964 260.989L321.73 264.411C321.473 264.833 321.174 265.227 320.836 265.587C321.017 265.116 321.25 264.666 321.53 264.246L323.6 260.718L325.058 258.296L325.458 257.637C325.596 257.376 325.779 257.141 325.999 256.943C326.252 256.731 326.563 256.6 326.892 256.567H327.763L335.16 256.367L342.592 256.155L345.826 256.085C346.372 255.994 346.931 256.116 347.39 256.426C347.595 256.59 347.758 256.8 347.866 257.039C347.974 257.278 348.025 257.54 348.013 257.802C348.003 258.046 347.934 258.283 347.813 258.496L347.519 259.025L346.967 259.977C346.637 260.542 346.343 261.048 346.073 261.494C345.855 261.95 345.587 262.38 345.273 262.776Z" fill="#455A64"/>
<path d="M371.851 260.989C371.851 260.989 370.24 272.184 368.594 279.381C367.124 285.791 364.784 307.453 358.833 310.181C352.882 312.909 345.462 311.204 342.722 305.924C339.982 300.644 337.042 286.59 337.042 286.59L324.576 281.345C324.576 281.345 321.707 270.891 323.341 269.715C324.976 268.539 341.064 270.303 341.064 270.303L345.38 269.327C345.38 269.327 338.512 268.339 337.042 267.951C336.708 267.903 336.387 267.787 336.099 267.612C335.811 267.436 335.561 267.204 335.365 266.929C335.17 266.654 335.032 266.342 334.96 266.013C334.888 265.683 334.884 265.342 334.948 265.011C335.289 263.635 335.572 262.259 339.288 262.259C343.004 262.259 348.837 261.706 349.872 262.071C351.189 262.518 352.671 263.247 352.965 266.575C353.259 269.903 351.695 275.983 351.695 275.983L352.036 276.5L354.235 260.295L371.851 260.989Z" fill="#FAC7B5"/>
<path d="M350.918 280.322C350.607 280.513 350.265 280.649 349.907 280.722C348.97 281.037 348.016 281.296 347.049 281.498C343.857 282.193 340.584 282.442 337.324 282.239C334.058 282.03 330.842 281.328 327.786 280.158C326.86 279.825 325.956 279.432 325.081 278.982C324.746 278.84 324.433 278.649 324.152 278.417C324.152 278.323 325.587 278.982 327.939 279.781C330.983 280.801 334.144 281.43 337.347 281.651C340.55 281.829 343.763 281.632 346.92 281.063C349.413 280.64 350.895 280.228 350.918 280.322Z" fill="#EB996E"/>
<path d="M348.555 275.83C348.235 275.986 347.894 276.093 347.543 276.148C346.885 276.312 345.92 276.524 344.721 276.724C341.574 277.252 338.372 277.37 335.195 277.077C332.006 276.772 328.902 275.87 326.046 274.419C325.186 273.978 324.364 273.466 323.588 272.89C323.047 272.479 322.765 272.22 322.788 272.185C322.812 272.149 324.059 273.008 326.234 274.031C329.09 275.335 332.142 276.158 335.266 276.465C338.399 276.752 341.554 276.693 344.674 276.289C347.061 276.007 348.543 275.736 348.555 275.83Z" fill="#EB996E"/>
<path d="M352.447 264.271C352.517 264.271 352.741 264.823 352.682 265.776C352.664 266.357 352.507 266.926 352.223 267.434C352.026 267.744 351.75 267.995 351.424 268.163C351.11 268.341 350.779 268.487 350.436 268.598C349.272 268.959 348.066 269.165 346.849 269.21C346.362 269.279 345.871 269.318 345.379 269.327C345.379 269.245 345.873 268.951 346.79 268.786C347.958 268.608 349.113 268.353 350.248 268.022C350.824 267.874 351.347 267.564 351.753 267.128C352.012 266.699 352.184 266.224 352.259 265.729C352.29 265.239 352.352 264.752 352.447 264.271Z" fill="#EB996E"/>
<path d="M346.521 283.109C346.673 283.427 346.752 283.774 346.752 284.127C346.752 284.479 346.673 284.826 346.521 285.144C346.277 285.876 345.842 286.529 345.262 287.037C344.549 287.655 343.677 288.063 342.746 288.213C341.83 288.372 340.892 288.332 339.994 288.096C339.283 287.893 338.597 287.613 337.947 287.261C337.332 286.993 336.748 286.658 336.207 286.261C336.879 286.334 337.53 286.537 338.124 286.861C339.519 287.559 341.093 287.822 342.64 287.613C343.464 287.482 344.242 287.142 344.898 286.626C345.409 286.187 345.812 285.635 346.074 285.014C346.31 284.403 346.461 283.762 346.521 283.109Z" fill="#EB996E"/>
<path d="M351.706 263.142C351.706 263.142 351.788 263.142 351.929 263.271C352.13 263.434 352.297 263.634 352.423 263.859C352.864 264.698 353.105 265.628 353.129 266.576C353.197 269.783 352.801 272.984 351.953 276.078V275.913C352.558 277.519 353.302 279.069 354.176 280.546C355.386 282.598 356.737 284.563 358.221 286.426C359.572 287.885 360.755 289.491 361.749 291.213C362.365 292.45 362.486 293.875 362.09 295.199C361.97 295.552 361.791 295.883 361.561 296.175C361.408 296.364 361.302 296.446 361.29 296.434C361.517 296.017 361.706 295.58 361.855 295.129C362.146 293.867 361.97 292.543 361.361 291.401C360.341 289.747 359.159 288.199 357.833 286.779C356.306 284.927 354.922 282.961 353.693 280.899C352.806 279.401 352.055 277.827 351.447 276.195V276.101V276.019C352.285 272.971 352.735 269.83 352.788 266.67C352.794 265.767 352.622 264.872 352.282 264.035C352.108 263.726 351.916 263.428 351.706 263.142Z" fill="#EB996E"/>
<path d="M241.657 284.062C241.657 284.062 239.834 309.064 251.464 313.25C267.493 319.036 285.768 303.066 285.839 302.807C285.909 302.549 305.29 286.943 305.29 286.943L299.257 270.326C299.257 270.326 296.834 270.326 292.918 273.125C291.495 274.136 269.034 285.979 269.034 285.979C269.034 285.979 259.226 285.896 241.657 284.062Z" fill="#FAC7B5"/>
<path d="M269.845 285.603C269.928 285.791 265.694 287.508 260.579 289.801C258.027 290.977 255.781 292.153 254.169 293C253.329 293.531 252.449 293.995 251.535 294.387C252.26 293.698 253.07 293.105 253.946 292.623C256 291.363 258.133 290.235 260.332 289.248C262.895 288.072 265.271 287.155 267 286.52C267.916 286.123 268.87 285.816 269.845 285.603Z" fill="#EB996E"/>
<path d="M320.742 261.272C320.742 261.272 317.708 256.979 316.508 256.991C315.309 257.003 308.077 258.167 308.077 258.167L297.857 269.304C297.857 269.304 297.152 272.914 299.362 274.22C299.362 274.22 298.622 279.9 301.35 281.534C301.35 281.534 303.384 286.873 305.289 286.979C306.095 287.051 306.906 287.051 307.712 286.979C307.712 286.979 307.3 290.19 310.205 290.39C313.086 290.346 315.958 290.059 318.79 289.531C319.209 289.461 319.609 289.308 319.968 289.082C320.328 288.856 320.639 288.561 320.883 288.214L323.376 284.686C323.77 284.14 323.981 283.484 323.981 282.81C323.981 282.137 323.77 281.481 323.376 280.935C324.032 280.158 324.541 279.27 324.882 278.312C325.046 277.201 325.046 276.072 324.882 274.961C324.882 274.961 329.197 271.303 329.303 270.351C329.409 269.398 329.198 268.481 327.292 268.587C327.292 268.587 326.893 265.635 324.482 265.705C322.071 265.776 310.652 265.705 310.652 265.705L312.828 263.589C312.828 263.589 318.508 265.752 319.107 264.318L320.742 261.272Z" fill="#FAC7B5"/>
<path d="M304.35 274.066C304.965 273.976 305.586 273.933 306.208 273.937C307.384 273.866 309.124 273.76 311.264 273.513C313.785 273.214 316.286 272.771 318.756 272.184C320.155 271.843 321.613 271.443 323.119 271.008C324.614 270.433 325.964 269.533 327.07 268.374L327.14 268.315H327.223C327.782 268.18 328.371 268.238 328.893 268.48C329.173 268.657 329.382 268.928 329.481 269.244C329.561 269.523 329.596 269.813 329.587 270.103C329.603 270.232 329.603 270.362 329.587 270.491C329.558 270.646 329.498 270.794 329.41 270.926C329.278 271.132 329.133 271.328 328.975 271.514C328.681 271.867 328.352 272.196 328.034 272.525C327.387 273.172 326.741 273.772 326.082 274.348C323.825 276.148 321.469 277.82 319.026 279.358C317.029 280.561 314.816 281.36 312.511 281.71C310.987 281.941 309.435 281.901 307.925 281.592C307.524 281.509 307.131 281.395 306.749 281.251C306.61 281.215 306.479 281.156 306.361 281.075C308.355 281.585 310.435 281.669 312.464 281.322C314.698 280.939 316.84 280.142 318.779 278.97C321.002 277.641 323.248 275.795 325.729 273.925C326.376 273.349 327.023 272.749 327.646 272.114C327.964 271.796 328.269 271.479 328.552 271.138C328.834 270.797 328.822 270.797 328.94 270.632C329.057 270.467 329.034 270.444 329.034 270.432C329.046 270.331 329.046 270.228 329.034 270.126C329.034 269.632 328.952 269.197 328.634 269.033C328.239 268.868 327.802 268.835 327.387 268.939L327.552 268.868C326.934 269.448 326.278 269.986 325.588 270.479C324.925 271.01 324.167 271.409 323.354 271.655C321.837 272.126 320.355 272.514 318.932 272.831C316.44 273.39 313.914 273.782 311.37 274.007C309.206 274.219 307.466 274.254 306.266 274.254C305.667 274.254 305.208 274.254 304.891 274.254C304.702 274.219 304.52 274.155 304.35 274.066Z" fill="#EB996E"/>
<path d="M324.87 274.937C325.052 275.514 325.136 276.119 325.117 276.724C325.117 277.006 325.117 277.324 325.117 277.677C325.117 277.853 325.117 278.029 325.117 278.218C325.1 278.431 325.04 278.639 324.94 278.829C324.77 279.233 324.573 279.626 324.352 280.005L323.999 280.593L323.811 280.887C323.776 280.952 323.737 281.015 323.694 281.075L323.611 281.146C323.552 281.146 323.611 281.228 323.329 281.146C323.276 281.112 323.236 281.06 323.217 281C323.197 280.94 323.2 280.875 323.223 280.817C323.219 280.797 323.219 280.777 323.223 280.758L323.282 280.675L323.752 280.958C322.983 282.356 321.967 283.603 320.754 284.639C318.71 286.399 316.153 287.455 313.462 287.649C312.678 287.707 311.89 287.683 311.11 287.579C310.815 287.559 310.525 287.492 310.252 287.379C310.252 287.261 311.499 287.473 313.474 287.226C316.036 286.906 318.448 285.843 320.413 284.168C321.57 283.162 322.552 281.969 323.317 280.64L323.799 280.922C324.538 279.015 324.901 276.982 324.87 274.937Z" fill="#EB996E"/>
<path d="M313.086 263.658C313.086 263.8 311.91 263.364 311.334 262C311.132 261.438 311.1 260.829 311.24 260.248C311.358 259.813 311.522 259.578 311.593 259.601C311.663 259.625 311.499 260.695 311.91 261.789C312.322 262.882 313.204 263.506 313.086 263.658Z" fill="#EB996E"/>
<path d="M307.972 287.049C307.693 287.197 307.381 287.27 307.066 287.261C306.208 287.324 305.349 287.162 304.573 286.79C303.395 286.233 302.468 285.256 301.974 284.05C301.692 283.347 301.548 282.597 301.551 281.839C301.551 281.687 301.516 281.537 301.449 281.4C301.382 281.263 301.284 281.144 301.163 281.051C300.533 280.637 300.016 280.073 299.657 279.41C299.298 278.748 299.108 278.007 299.105 277.253C299.054 276.323 299.09 275.39 299.211 274.466L299.34 274.725C298.717 274.327 298.207 273.774 297.861 273.121C297.515 272.468 297.344 271.736 297.364 270.997C297.329 270.441 297.491 269.891 297.823 269.444C297.743 269.954 297.696 270.469 297.682 270.985C297.709 271.648 297.9 272.294 298.236 272.866C298.572 273.439 299.044 273.919 299.61 274.266L299.751 274.348V274.513C299.674 275.409 299.674 276.31 299.751 277.206C299.811 278.167 300.164 279.086 300.763 279.84C301.015 280.119 301.299 280.368 301.61 280.581C301.787 280.723 301.933 280.901 302.036 281.104C302.14 281.307 302.199 281.53 302.209 281.757C302.194 282.454 302.31 283.149 302.55 283.803C302.976 284.902 303.781 285.811 304.82 286.367C305.802 286.84 306.882 287.073 307.972 287.049Z" fill="#EB996E"/>
<g opacity="0.3">
<path d="M276.737 253.439C275.361 265.917 273.42 275.442 270.492 284.015C274.603 280.534 277.317 275.686 278.136 270.362C278.912 265.105 277.678 258.72 276.737 253.439Z" fill="black"/>
</g>
<g opacity="0.3">
<path d="M356.846 246.583C356.385 242.156 355.276 237.821 353.553 233.718C355.399 242.538 355.61 251.622 354.176 260.519L354.599 259.566C356.52 255.525 357.297 251.035 356.846 246.583Z" fill="black"/>
</g>
</svg>
