<svg width="358" height="334" viewBox="0 0 358 334" fill="none" xmlns="http://www.w3.org/2000/svg">
<g clip-path="url(#clip0_2574_19174)">
<path d="M73.1057 318.627C89.8329 306.108 93.6331 282.87 92.9672 261.972C92.8535 258.492 93.2108 254.812 91.668 251.75C90.1252 248.688 86.5037 246.6 83.548 248.07C81.112 249.288 80.0808 252.307 78.7247 254.795C76.9223 258.125 74.2758 260.84 71.0919 262.625C69.0213 263.773 66.4635 264.478 64.4173 263.269C61.6078 261.616 61.2749 257.457 61.2992 253.986C61.3317 247.525 61.3669 241.061 61.4048 234.594C61.4048 231.114 61.4048 227.59 60.4304 224.293C59.456 220.995 57.1824 217.95 54.1211 217.02C51.0599 216.089 47.2354 218.003 46.5858 221.37C46.3097 222.779 46.5858 224.249 46.4883 225.72C46.3909 227.19 45.7738 228.756 44.4989 229.2C43.2241 229.643 41.9087 228.625 40.9424 227.607C37.6051 224.127 35.3396 219.595 33.2202 215.106C31.1009 210.616 29.0466 206.031 26.0097 202.212C22.9728 198.393 18.7829 195.365 14.1545 195.087C9.52609 194.808 4.57289 197.871 3.40361 202.743C2.23433 207.615 4.88957 212.591 7.78841 216.55C12.113 222.403 17.2056 227.555 22.9079 231.844C23.9229 232.627 25.0353 233.463 25.4251 234.75C26.1234 237.056 24.0771 239.352 21.9497 240.118C19.5137 240.988 16.9234 240.71 14.3981 240.988C11.8728 241.266 9.10385 242.58 8.15381 245.094C6.82213 248.67 9.59105 252.35 12.3519 254.76C17.8072 259.628 24.0039 263.454 30.6706 266.07C33.0578 267.01 35.5426 267.81 37.4832 269.62C39.4239 271.429 36.4195 277.754 35.2584 280.199C34.0972 282.644 35.2584 280.199 32.7655 279.703C30.2727 279.207 28.0397 277.754 25.6605 276.797C21.2189 274.996 15.4699 275.327 12.6198 279.407C10.7522 282.113 10.5817 285.889 11.5317 289.116C12.4818 292.344 14.3981 295.119 16.4037 297.686C23.5331 306.647 32.6437 313.859 42.9805 317.696C53.3173 321.533 62.8583 322.568 73.1138 318.566" fill="#EBEBEB"/>
<path d="M73.3653 334.113C72.4577 324.427 70.6876 314.857 68.0792 305.533C64.8402 294.153 60.9959 282.982 56.565 272.073L53.1221 263.46C51.9853 260.641 50.8648 257.84 49.6062 255.178C47.1903 250.072 44.512 245.114 41.5836 240.327C38.8066 235.733 36.0214 231.479 33.3905 227.52C30.7597 223.562 28.2181 219.943 25.7821 216.732C21.9516 211.659 17.7512 206.92 13.2205 202.56C11.5965 201.011 10.346 199.854 9.47713 199.08L8.47837 198.21C8.36925 198.101 8.24946 198.005 8.12109 197.923C8.21481 198.045 8.32103 198.156 8.43777 198.253L9.39593 199.176C10.2079 199.976 11.4909 201.159 13.0662 202.734C17.5128 207.164 21.6464 211.942 25.4329 217.028C27.8689 220.247 30.3049 223.884 32.9602 227.842C35.6154 231.801 38.3437 236.064 41.0802 240.657C43.9931 245.428 46.6605 250.365 49.0703 255.447C50.3207 258.057 51.4332 260.867 52.5619 263.704L55.9966 272.299C60.4337 283.192 64.2968 294.342 67.5676 305.698C70.1931 314.982 71.9983 324.51 72.9593 334.156" fill="#E0E0E0"/>
<path d="M49.4355 255.16C49.593 254.682 49.6993 254.185 49.7521 253.681C49.9227 252.724 50.1257 251.332 50.353 249.601C50.8077 246.121 51.2868 241.353 51.7984 236.072C52.3099 230.791 52.854 226.05 53.3574 222.57C53.6091 220.83 53.8203 219.464 53.9827 218.498C54.0949 218.005 54.1548 217.5 54.1613 216.993C53.9799 217.461 53.8438 217.948 53.7553 218.446C53.5279 219.394 53.2437 220.778 52.9433 222.492C52.3343 225.919 51.7172 230.704 51.2137 235.994C50.7103 241.284 50.2718 245.938 49.9308 249.54C49.7684 251.167 49.6303 252.533 49.5248 253.638C49.442 254.14 49.412 254.651 49.4355 255.16Z" fill="#E0E0E0"/>
<path d="M7.82031 246.826C8.35424 246.952 8.89788 247.025 9.44431 247.044C10.5162 247.139 12.059 247.278 13.9672 247.522C17.7754 247.957 23.021 248.766 28.7699 249.923C34.5189 251.08 39.6832 252.394 43.3859 253.455C45.2454 253.969 46.7395 254.421 47.7707 254.734C48.2982 254.931 48.842 255.074 49.3947 255.161C48.8962 254.885 48.3741 254.66 47.8357 254.491C46.8207 254.108 45.3428 253.621 43.4996 253.012C39.805 251.837 34.6407 250.471 28.8836 249.288C23.1265 248.105 17.8404 247.392 14.0078 247.061C12.0914 246.887 10.5324 246.817 9.46055 246.791C8.91393 246.751 8.36501 246.762 7.82031 246.826Z" fill="#E0E0E0"/>
<path d="M67.5684 304.707C67.5684 304.707 67.6902 304.533 67.8607 304.168L68.5671 302.55C69.1842 301.149 70.0206 299.07 71.0031 296.538C73.0088 291.431 75.5747 284.28 78.3111 276.354C81.0476 268.428 83.5485 261.251 85.4486 256.109L87.7222 250.019C87.9658 249.358 88.1688 248.81 88.3312 248.357C88.415 248.169 88.4751 247.97 88.5098 247.766C88.3941 247.932 88.2986 248.113 88.2256 248.305L87.5111 249.915C86.9021 251.324 86.0657 253.395 85.0751 255.935C83.0694 261.042 80.5035 268.193 77.7671 276.128C75.0306 284.062 72.5378 291.222 70.6296 296.364C69.6958 298.869 68.9325 300.923 68.356 302.454C68.1124 303.115 67.9094 303.663 67.747 304.116C67.6679 304.305 67.608 304.504 67.5684 304.707Z" fill="#E0E0E0"/>
<path d="M12.2617 285.61C12.4337 285.72 12.6197 285.802 12.8139 285.854L14.4379 286.437L20.3655 288.49C25.3593 290.23 32.245 292.71 39.8535 295.45C47.4619 298.191 54.3558 300.627 59.3983 302.253C61.9155 303.071 63.9536 303.706 65.3746 304.115L66.9986 304.576C67.1844 304.645 67.3788 304.683 67.5752 304.689C67.4046 304.583 67.2217 304.501 67.0311 304.446L65.4071 303.872L59.4876 301.818C54.4857 300.078 47.6081 297.599 39.9996 294.858C32.3912 292.118 25.4973 289.682 20.471 288.055C17.9538 287.237 15.9076 286.602 14.4866 286.193L12.8626 285.732C12.6671 285.668 12.4656 285.627 12.2617 285.61Z" fill="#E0E0E0"/>
<path d="M278.038 14.1006L233.346 131.037L313.579 165.559L357.59 49.3878L278.038 14.1006Z" fill="#E6E6E6"/>
<path d="M278.038 14.1006L357.614 49.2921H357.703L357.663 49.3878C345.304 82.0302 330.103 122.198 313.677 165.576L313.636 165.689H313.522L312.938 165.437L233.297 131.15H233.199L233.24 131.046L278.038 14.1006L233.443 131.081L233.386 130.933L313.035 165.193L313.62 165.446L313.465 165.515C329.908 122.146 345.133 81.9954 357.5 49.3443L357.549 49.4748L278.038 14.1006Z" fill="#E6E6E6"/>
<path d="M272.185 2.93848L227.492 119.875L307.726 154.405L351.736 38.2257L272.185 2.93848Z" fill="#FAFAFA"/>
<path d="M272.192 2.93848L351.768 38.13H351.857V38.2257L307.831 154.449L307.79 154.571L307.685 154.519L307.1 154.266L227.451 119.988L227.354 119.945L227.394 119.832L272.192 2.93848L227.589 119.91L227.532 119.762L307.181 154.031L307.766 154.275L307.62 154.345C324.055 110.975 339.288 70.8246 351.646 38.1735L351.695 38.3127L272.192 2.93848Z" fill="#EBEBEB"/>
<path d="M332.58 55.9994C332.507 56.1995 318.597 50.5706 301.513 43.4279C284.428 36.2852 270.657 30.3779 270.697 30.1604C270.738 29.9429 284.68 35.5892 301.764 42.7319C318.849 49.8746 332.653 55.808 332.58 55.9994Z" fill="#E0E0E0"/>
<path d="M329.512 66.7009C329.438 66.8923 315.529 61.2634 298.444 54.1294C281.36 46.9954 267.588 41.0794 267.629 40.8532C267.67 40.627 281.612 46.2907 298.696 53.4334C315.781 60.5761 329.576 66.5095 329.512 66.7009Z" fill="#E0E0E0"/>
<path d="M319.134 99.1169C319.069 99.3083 305.152 93.6794 288.067 86.5454C270.983 79.4114 257.211 73.4954 257.26 73.2692C257.309 73.043 271.234 78.7067 288.327 85.8407C305.42 92.9747 319.207 98.9255 319.134 99.1169Z" fill="#E0E0E0"/>
<path d="M314.238 110.07C314.173 110.261 300.255 104.633 283.171 97.4986C266.086 90.3646 252.315 84.4486 252.363 84.2224C252.412 83.9962 266.338 89.6512 283.431 96.7939C300.523 103.937 314.311 109.87 314.238 110.07Z" fill="#E0E0E0"/>
<path d="M310.169 121.128C310.096 121.319 296.187 115.69 279.102 108.556C262.018 101.422 248.246 95.5062 248.295 95.28C248.344 95.0538 262.27 100.717 279.362 107.851C296.455 114.985 310.243 120.936 310.169 121.128Z" fill="#E0E0E0"/>
<path d="M306.101 132.185C306.028 132.377 292.118 126.748 275.034 119.614C257.949 112.48 244.178 106.564 244.227 106.338C244.275 106.111 258.201 111.775 275.294 118.909C292.386 126.043 306.174 131.994 306.101 132.185Z" fill="#E0E0E0"/>
<path d="M281.449 44.5938C281.246 45.0461 280.418 47.0993 280.418 47.0993L314.27 61.8111L315.301 58.6964L281.449 44.5938Z" fill="#EBEBEB"/>
<path d="M264.405 49.1445C264.194 49.5969 262.951 52.3809 262.951 52.3809L326.409 78.2721L327.968 74.7225L264.405 49.1445Z" fill="#EBEBEB"/>
<path d="M260.719 60.1582L259.273 63.3598L322.723 89.251L324.282 85.7014L260.719 60.1582Z" fill="#EBEBEB"/>
<path d="M257.527 71.7119C257.462 71.8772 256.391 75.1919 256.391 75.1919L288.148 88.2419L289.934 84.2486L257.527 71.7119Z" fill="#EBEBEB"/>
<path d="M340.497 332.747C340.497 332.877 265.111 332.973 172.153 332.973C79.1956 332.973 3.78516 332.877 3.78516 332.747C3.78516 332.616 79.155 332.521 172.153 332.521C265.152 332.521 340.497 332.625 340.497 332.747Z" fill="#263238"/>
<path d="M55.3392 10.1076C54.2511 49.4403 51.0599 197.288 50.2154 236.734C50.1586 239.321 51.0591 241.826 52.7204 243.704C54.3816 245.582 56.6688 246.679 59.0825 246.756L210.309 251.707C211.516 251.746 212.718 251.529 213.846 251.069C214.974 250.608 216.006 249.913 216.882 249.024C217.758 248.134 218.462 247.068 218.952 245.886C219.441 244.704 219.708 243.43 219.737 242.137L222.091 127.871L234.897 127.645C236.411 127.618 237.856 126.959 238.925 125.809C239.994 124.659 240.602 123.108 240.621 121.485L241.604 29.4303C241.619 27.7834 241.026 26.1968 239.953 25.0167C238.881 23.8367 237.416 23.159 235.879 23.1315L224.284 22.8879L224.373 13.9878C224.399 11.4146 223.475 8.93456 221.802 7.0882C220.129 5.24184 217.843 4.1788 215.441 4.13074L64.5797 0.650742C62.1883 0.608455 59.8775 1.57725 58.148 3.34729C56.4184 5.11733 55.4093 7.54613 55.3392 10.1076Z" fill="#DA693F"/>
<path opacity="0.4" d="M55.3392 10.1076C54.2511 49.4403 51.0599 197.288 50.2154 236.734C50.1586 239.321 51.0591 241.826 52.7204 243.704C54.3816 245.582 56.6688 246.679 59.0825 246.756L210.309 251.707C211.516 251.746 212.718 251.529 213.846 251.069C214.974 250.608 216.006 249.913 216.882 249.024C217.758 248.134 218.462 247.068 218.952 245.886C219.441 244.704 219.708 243.43 219.737 242.137L222.091 127.871L234.897 127.645C236.411 127.618 237.856 126.959 238.925 125.809C239.994 124.659 240.602 123.108 240.621 121.485L241.604 29.4303C241.619 27.7834 241.026 26.1968 239.953 25.0167C238.881 23.8367 237.416 23.159 235.879 23.1315L224.284 22.8879L224.373 13.9878C224.399 11.4146 223.475 8.93456 221.802 7.0882C220.129 5.24184 217.843 4.1788 215.441 4.13074L64.5797 0.650742C62.1883 0.608455 59.8775 1.57725 58.148 3.34729C56.4184 5.11733 55.4093 7.54613 55.3392 10.1076Z" fill="black"/>
<path d="M66.8294 11.7959L53.4883 239.449L209.319 248.801L221.897 22.8623L66.8294 11.7959Z" fill="#E0E0E0"/>
<path d="M48.0957 6.85369L49.1351 234.959L205.201 233.01L203.512 6.67969L48.0957 6.85369Z" fill="#EBEBEB"/>
<path d="M27.666 22.549L57.1254 248.462L211.552 224.206L181.67 0.146484L27.666 22.549Z" fill="#FAFAFA"/>
<path d="M27.666 22.5487L181.646 -0.0712891H181.816V0.11141C190.22 63.0559 200.565 140.512 211.73 224.163V224.389H211.519L210.398 224.563L57.1497 248.67H56.9549V248.462C39.643 114.804 27.9259 24.3235 27.7229 22.5226L57.369 248.409L57.1497 248.227L210.447 224.136L211.576 223.954L211.397 224.215C200.257 140.556 189.936 63.0994 181.556 0.146211L181.751 0.302811L27.666 22.5487Z" fill="#263238"/>
<path d="M171.966 74.8964C172.023 75.2705 145.552 80.0294 112.844 85.5365C80.137 91.0436 53.5684 95.1935 53.5684 94.8281C53.5684 94.4627 79.9827 89.6951 112.69 84.188C145.397 78.6809 171.909 74.531 171.966 74.8964Z" fill="#263238"/>
<path d="M183.279 135.57C183.327 135.936 156.856 140.703 124.157 146.202C91.4576 151.7 64.8809 155.867 64.8809 155.493C64.8809 155.119 91.2871 150.36 124.003 144.862C156.718 139.363 183.222 135.187 183.279 135.57Z" fill="#263238"/>
<path d="M184.927 157.407C184.976 157.781 158.505 162.54 125.805 168.039C93.1061 173.537 66.5293 177.704 66.5293 177.33C66.5293 176.956 92.9355 172.197 125.651 166.699C158.367 161.2 184.87 157.033 184.927 157.407Z" fill="#263238"/>
<path d="M165.958 26.9682C165.958 27.3075 148.191 30.2742 126.251 33.5976C104.311 36.921 86.4629 39.3396 86.4629 39.0003C86.4629 38.661 104.229 35.6856 126.178 32.3709C148.126 29.0562 165.941 26.6289 165.958 26.9682Z" fill="#263238"/>
<path d="M168.467 39.061C168.467 39.4003 150.701 42.3758 128.761 45.6905C106.82 49.0052 88.9727 51.4325 88.9727 51.0932C88.9727 50.7539 106.731 47.7871 128.679 44.4637C150.628 41.1403 168.459 38.7217 168.467 39.061Z" fill="#263238"/>
<path d="M171.503 51.8238C171.503 52.1718 153.736 55.1385 131.788 58.4619C109.84 61.7853 92.0488 64.1952 92.0001 63.8559C91.9514 63.5166 109.791 60.5499 131.715 57.27C153.639 53.9901 171.503 51.4845 171.503 51.8238Z" fill="#263238"/>
<path d="M187.954 178.618C188.011 178.983 161.54 183.751 128.833 189.249C96.1253 194.748 69.5566 198.915 69.5566 198.541C69.5566 198.167 95.971 193.408 128.678 187.91C161.386 182.411 187.898 178.244 187.954 178.618Z" fill="#263238"/>
<path d="M190.991 199.829C191.048 200.194 164.577 204.962 131.878 210.46C99.1783 215.959 72.6015 220.126 72.5528 219.752C72.5041 219.378 98.9672 214.619 131.683 209.121C164.398 203.622 190.934 199.455 190.991 199.829Z" fill="#263238"/>
<path d="M78.2539 87.1984C78.3189 88.0684 78.7655 92.1226 78.7655 92.1226L144.042 82.1002L143.027 76.2451L78.2539 87.1984Z" fill="#DA693F"/>
<path d="M55.5176 110.897C55.5907 111.767 56.0048 117.361 56.0048 117.361L176.936 95.9679L176.359 88.9209L55.5176 110.897Z" fill="#DA693F"/>
<path d="M59.1152 131.656C59.1883 132.526 59.6024 138.129 59.6024 138.129L180.534 116.735L179.957 109.68L59.1152 131.656Z" fill="#DA693F"/>
<path d="M63.9453 152.788C63.9453 153.11 65.1308 159.356 65.1308 159.356L125.73 148.794L125.13 140.816L63.9453 152.788Z" fill="#DA693F"/>
<path d="M46.3418 37.7649L51.766 79.6989L87.4046 74.3484L82.5489 32.5449L46.3418 37.7649Z" fill="#263238"/>
<path d="M46.3418 37.7649L51.766 79.6989L87.4046 74.3484L82.5489 32.5449L46.3418 37.7649Z" fill="#DA693F"/>
<mask id="mask0_2574_19174" style="mask-type:luminance" maskUnits="userSpaceOnUse" x="46" y="32" width="42" height="48">
<path d="M46.3418 37.7649L51.766 79.6989L87.4046 74.3484L82.5489 32.5449L46.3418 37.7649Z" fill="white"/>
</mask>
<g mask="url(#mask0_2574_19174)">
<path d="M64.1087 72.495L74.8758 69.3804C74.7053 67.9971 73.6903 62.7423 73.6903 62.7423C73.6903 62.7423 78.0994 61.0806 77.3037 56.2086C76.5079 51.3366 73.7877 40.3398 73.7877 40.3398C71.008 39.6762 68.1134 39.818 65.4017 40.7508C62.6901 41.6835 60.2594 43.3735 58.3597 45.6468L57.7832 46.3341L64.1087 72.495Z" fill="#FFBE9D"/>
<path d="M74.1692 48.9006C74.0857 48.8563 74.0118 48.7937 73.9523 48.7168C73.8928 48.64 73.849 48.5506 73.8237 48.4545C73.7985 48.3584 73.7923 48.2576 73.8057 48.1588C73.8191 48.06 73.8517 47.9653 73.9014 47.8808C73.9511 47.7963 74.0168 47.724 74.0943 47.6684C74.1717 47.6129 74.2592 47.5754 74.351 47.5583C74.4429 47.5413 74.537 47.5451 74.6274 47.5695C74.7178 47.5939 74.8023 47.6383 74.8757 47.7C74.9513 47.7481 75.0171 47.8121 75.0692 47.888C75.1213 47.9639 75.1587 48.0502 75.1792 48.1419C75.1996 48.2335 75.2027 48.3287 75.1882 48.4216C75.1737 48.5146 75.142 48.6035 75.0949 48.6831C74.9984 48.8426 74.8471 48.9549 74.6738 48.9956C74.5005 49.0363 74.3192 49.0022 74.1692 48.9006Z" fill="#263238"/>
<path d="M75.0794 47.5702C75.0225 47.6746 74.511 47.3962 73.8857 47.518C73.2605 47.6398 72.8707 48.0748 72.7895 48.0052C72.7083 47.9356 72.7895 47.8051 72.96 47.605C73.1873 47.3415 73.4903 47.167 73.8208 47.1091C74.1494 47.0511 74.4867 47.1027 74.787 47.257C75.0144 47.3875 75.1037 47.5267 75.0794 47.5702Z" fill="#263238"/>
<path d="M67.9812 49.5966C68.0635 49.6294 68.1389 49.6794 68.2031 49.7436C68.2673 49.8079 68.319 49.8851 68.3552 49.9708C68.3914 50.0565 68.4115 50.149 68.4142 50.2431C68.4169 50.3371 68.4022 50.4308 68.371 50.5188C68.3395 50.6067 68.2922 50.6872 68.2317 50.7556C68.1712 50.824 68.0988 50.8789 68.0185 50.9173C67.9382 50.9557 67.8516 50.9767 67.7637 50.9792C67.6758 50.9818 67.5883 50.9657 67.5062 50.932C67.4241 50.8983 67.349 50.8476 67.2851 50.7828C67.2213 50.718 67.1701 50.6404 67.1342 50.5543C67.0984 50.4683 67.0788 50.3755 67.0764 50.2814C67.0741 50.1872 67.089 50.0934 67.1205 50.0055C67.184 49.829 67.3104 49.6867 67.4718 49.6101C67.6332 49.5334 67.8165 49.5285 67.9812 49.5966Z" fill="#263238"/>
<path d="M68.3801 49.5187C68.3233 49.6144 67.8117 49.336 67.1946 49.4578C66.5775 49.5796 66.1715 50.0234 66.0903 49.9451C66.0091 49.8668 66.0903 49.7537 66.2608 49.5449C66.4973 49.2935 66.8002 49.1261 67.1285 49.0654C67.4567 49.0047 67.7945 49.0536 68.0959 49.2056C68.3314 49.3361 68.4289 49.4404 68.3801 49.5187Z" fill="#263238"/>
<path d="M71.8628 54.5389C72.1601 54.3372 72.4867 54.1902 72.8291 54.1039C72.9915 54.0517 73.1133 53.9908 73.1133 53.8951C73.0847 53.718 73.0117 53.5526 72.9022 53.4166L72.1714 52.1551C71.5086 51.0967 70.9429 49.972 70.4824 48.7969C71.2504 49.7711 71.9199 50.8297 72.4799 51.955L73.1864 53.2339C73.332 53.4353 73.4093 53.6838 73.4056 53.9386C73.3951 54.0114 73.3682 54.0804 73.3272 54.1395C73.2861 54.1986 73.2322 54.2461 73.1701 54.2779C73.0849 54.3215 72.9948 54.3536 72.9022 54.3736C72.5669 54.4911 72.2155 54.547 71.8628 54.5389Z" fill="#263238"/>
<path d="M70.0039 55.6867C69.2812 55.3996 71.977 56.3479 73.2519 56.026C73.101 56.4193 72.8302 56.7461 72.4836 56.9531C72.137 57.1601 71.7352 57.235 71.3437 57.1657C69.8333 56.9047 70.0039 55.6867 70.0039 55.6867Z" fill="white"/>
<path d="M73.6655 62.6734C71.5784 63.1365 69.4098 62.9214 67.4375 62.0557C67.4375 62.0557 69.4431 65.2747 73.9335 63.9262L73.6655 62.6734Z" fill="#EB996E"/>
<path d="M58.5305 51.0322C58.425 51.0322 55.1039 51.4411 56.3625 55.3822C57.6211 59.3233 60.9584 56.6872 60.934 56.5741C60.9097 56.461 58.5305 51.0322 58.5305 51.0322Z" fill="#FFBE9D"/>
<path d="M59.3508 55.6344C59.3508 55.6344 59.3021 55.704 59.2047 55.7997C59.0725 55.9237 58.9012 55.989 58.7256 55.9824C58.2871 55.9824 57.7431 55.4256 57.4995 54.7122C57.383 54.3731 57.3386 54.0105 57.3696 53.6508C57.3661 53.5135 57.3929 53.3773 57.448 53.2533C57.503 53.1293 57.5847 53.0211 57.6862 52.9374C57.7533 52.889 57.8341 52.8677 57.9144 52.8773C57.9947 52.8868 58.0692 52.9266 58.1247 52.9896C58.214 53.0853 58.214 53.1723 58.2384 53.1723C58.2628 53.1723 58.2952 53.0766 58.2384 52.92C58.185 52.8305 58.1048 52.763 58.011 52.7286C57.9493 52.7008 57.8831 52.6865 57.8162 52.6865C57.7492 52.6865 57.683 52.7008 57.6213 52.7286C57.4787 52.8177 57.3598 52.9444 57.276 53.0967C57.1921 53.249 57.1461 53.4218 57.1422 53.5986C57.0912 54.0006 57.133 54.4098 57.264 54.7905C57.3576 55.1534 57.5494 55.4785 57.8154 55.7247C58.0813 55.9709 58.4093 56.1272 58.7581 56.1738C58.8669 56.1688 58.9733 56.1372 59.069 56.0814C59.1647 56.0256 59.2472 55.9471 59.3102 55.8519C59.3752 55.7301 59.3671 55.6344 59.3508 55.6344Z" fill="#EB996E"/>
<path d="M73.7232 40.201C73.1305 43.7767 68.8512 45.9952 65.5545 46.8565C66.8456 45.1165 65.9443 45.595 66.7238 44.3857C64.5743 47.2753 61.5238 49.2369 58.1328 49.9102C57.733 49.1378 57.4822 48.2871 57.3954 47.4087C57.3087 46.5303 57.3878 45.6422 57.6279 44.7972C57.8681 43.9522 58.2644 43.1676 58.7934 42.4901C59.3223 41.8126 59.9731 41.256 60.7069 40.8535C61.6732 40.3228 62.745 40.0705 63.7437 39.6094C64.5557 39.2179 65.3677 38.6698 66.2285 38.3479C68.8269 37.3909 73.0249 35.7379 73.7232 40.201Z" fill="#263238"/>
<path d="M59.8536 47.7002C59.7643 48.2048 59.7724 53.912 59.7724 53.912L57.6855 48.8225L59.8536 47.7002Z" fill="#263238"/>
<path d="M42.7695 92.8102L51.7909 78.5683C53.5056 75.7441 55.8173 73.3924 58.5386 71.704C59.9792 70.798 61.5438 70.1404 63.1751 69.7552C67.1817 70.2783 71.2415 69.4672 74.8029 67.4323C78.05 67.1649 81.3157 67.4975 84.4576 68.4154L102.322 72.313L99.7395 89.104L90.304 87.7207L92.3503 102.615L97.9693 124.365L63.573 131.638L60.5199 111.48L58.0189 96.9601L53.9589 103.137L42.7695 92.8102Z" fill="#455A64"/>
</g>
<path d="M237.836 329.719L237.796 321.715L251.778 321.541L251.957 333.242L251.088 333.312C247.231 333.591 231.462 334.443 228.872 333.634C225.989 332.738 237.836 329.719 237.836 329.719Z" fill="#DA693F"/>
<path d="M246.891 333.19C247.084 331.924 247.705 330.778 248.636 329.971C249.548 329.171 250.708 328.768 251.884 328.84L251.933 333.025L246.891 333.19Z" fill="#DA693F"/>
<path d="M232.047 331.416C232.047 331.416 227.898 332.756 228.425 333.487C228.953 334.217 244.925 334 251.973 333.243V332.904L233.346 333.33C233.346 333.33 232.867 331.442 232.047 331.416Z" fill="#DA693F"/>
<path d="M252.153 332.895H251.909L251.219 332.955L248.685 333.103C246.534 333.216 243.57 333.33 240.289 333.373C237.009 333.417 234.045 333.373 231.893 333.373L229.352 333.295H228.662H228.418H229.352H231.901C234.045 333.295 237.009 333.295 240.289 333.295C243.57 333.295 246.534 333.147 248.677 333.069L251.219 332.982H251.909L252.153 332.895Z" fill="#263238"/>
<path d="M233.313 333.565C233.199 333.114 233.035 332.679 232.826 332.269C232.572 331.891 232.278 331.547 231.949 331.242C232.39 331.409 232.755 331.747 232.972 332.19C233.237 332.59 233.358 333.078 233.313 333.565Z" fill="#263238"/>
<path d="M237.415 331.259C237.375 331.259 237.18 331.033 236.969 330.693C236.82 330.498 236.714 330.269 236.66 330.023C236.701 330.023 236.904 330.25 237.107 330.598C237.31 330.946 237.456 331.233 237.415 331.259Z" fill="#263238"/>
<path d="M238.543 330.607C238.543 330.607 238.284 330.485 238.04 330.259C237.796 330.033 237.626 329.815 237.658 329.78C237.691 329.746 237.91 329.894 238.154 330.128C238.397 330.363 238.568 330.572 238.543 330.607Z" fill="#263238"/>
<path d="M239.241 329.18C239.009 329.279 238.759 329.318 238.51 329.293C238.265 329.324 238.016 329.3 237.779 329.224C238.011 329.124 238.262 329.086 238.51 329.11C238.756 329.08 239.004 329.104 239.241 329.18Z" fill="#263238"/>
<path d="M239.478 328.18C239.239 328.356 238.955 328.45 238.666 328.449C238.39 328.501 238.107 328.461 237.854 328.336C238.122 328.287 238.393 328.264 238.666 328.267C238.934 328.214 239.205 328.185 239.478 328.18Z" fill="#263238"/>
<path d="M236.927 329.962C236.629 330.016 236.324 330.016 236.026 329.962C235.701 329.919 235.381 329.846 235.068 329.745C234.876 329.69 234.69 329.611 234.516 329.51C234.408 329.445 234.327 329.34 234.288 329.214C234.275 329.143 234.281 329.069 234.305 329.001C234.33 328.934 234.372 328.875 234.426 328.831C234.765 328.643 235.155 328.588 235.528 328.677C235.901 328.767 236.232 328.994 236.464 329.319C236.606 329.505 236.709 329.721 236.765 329.954C236.783 330.04 236.783 330.129 236.765 330.215C236.667 329.919 236.524 329.643 236.343 329.397C236.134 329.151 235.868 328.971 235.571 328.875C235.395 328.815 235.21 328.792 235.026 328.809C234.842 328.825 234.663 328.88 234.499 328.971C234.353 329.084 234.418 329.266 234.572 329.362C234.736 329.455 234.907 329.531 235.084 329.588C235.386 329.697 235.695 329.779 236.01 329.832C236.586 329.936 236.927 329.936 236.927 329.962Z" fill="#263238"/>
<path d="M236.692 330.015C236.584 329.812 236.544 329.576 236.579 329.345C236.607 329.093 236.69 328.851 236.822 328.64C236.896 328.496 237.002 328.375 237.131 328.286C237.26 328.198 237.408 328.146 237.561 328.136C237.654 328.155 237.735 328.212 237.788 328.295C237.842 328.378 237.862 328.48 237.845 328.579C237.825 328.734 237.776 328.882 237.699 329.014C237.583 329.228 237.441 329.424 237.277 329.597C237.143 329.777 236.966 329.915 236.765 329.998C236.765 329.998 236.944 329.824 237.188 329.51C237.334 329.333 237.459 329.137 237.561 328.927C237.683 328.727 237.764 328.362 237.561 328.318C237.358 328.275 237.107 328.545 236.968 328.736C236.846 328.924 236.763 329.137 236.725 329.362C236.697 329.579 236.686 329.797 236.692 330.015Z" fill="#263238"/>
<path d="M251.819 328.797C251.819 328.797 251.413 328.797 250.788 328.849C249.965 328.958 249.188 329.314 248.546 329.876C247.904 330.438 247.423 331.183 247.158 332.024C246.955 332.677 246.939 333.103 246.907 333.103C246.893 333.002 246.893 332.9 246.907 332.799C246.933 332.525 246.981 332.254 247.053 331.99C247.293 331.105 247.777 330.318 248.443 329.734C249.108 329.15 249.923 328.796 250.78 328.718C251.036 328.69 251.295 328.69 251.551 328.718C251.644 328.731 251.734 328.758 251.819 328.797Z" fill="#263238"/>
<path d="M250.269 322.62C250.437 324.665 250.485 326.719 250.415 328.771C250.258 326.725 250.209 324.672 250.269 322.62Z" fill="#263238"/>
<path d="M245.113 331.755C243.775 332.044 242.401 332.076 241.053 331.851C241.053 331.799 241.97 331.851 243.099 331.851C244.228 331.851 245.105 331.703 245.113 331.755Z" fill="#263238"/>
<path d="M247.833 331.712C247.833 331.712 247.76 331.92 247.67 332.147C247.581 332.373 247.532 332.573 247.484 332.564C247.435 332.555 247.411 332.329 247.484 332.068C247.557 331.807 247.833 331.677 247.833 331.712Z" fill="#263238"/>
<path d="M248.864 330.319C248.905 330.319 248.816 330.511 248.669 330.667C248.523 330.824 248.385 330.928 248.353 330.893C248.32 330.859 248.402 330.702 248.548 330.545C248.694 330.389 248.832 330.284 248.864 330.319Z" fill="#263238"/>
<path d="M250.334 329.667C250.334 329.719 250.14 329.719 249.937 329.797C249.734 329.876 249.587 329.997 249.547 329.963C249.506 329.928 249.628 329.728 249.88 329.632C250.131 329.536 250.351 329.623 250.334 329.667Z" fill="#263238"/>
<path d="M251.389 329.353C251.389 329.406 251.324 329.484 251.211 329.527C251.097 329.571 250.983 329.588 250.967 329.527C250.951 329.466 251.032 329.406 251.146 329.353C251.259 329.301 251.365 329.31 251.389 329.353Z" fill="#263238"/>
<path d="M309.308 325.587L307.027 317.966L293.686 322.446L296.934 333.626L297.746 333.408C301.497 332.39 316.73 327.953 318.963 326.327C321.448 324.517 309.308 325.587 309.308 325.587Z" fill="#DA693F"/>
<path d="M301.708 331.895C301.162 330.752 300.239 329.868 299.118 329.415C298.016 328.954 296.793 328.954 295.691 329.415L296.861 333.408L301.708 331.895Z" fill="#DA693F"/>
<path d="M315.302 325.273C315.302 325.273 319.638 325.169 319.362 326.039C319.086 326.909 303.829 332.007 296.918 333.625L296.854 333.304L314.677 327.509C314.677 327.509 314.539 325.569 315.302 325.273Z" fill="#DA693F"/>
<path d="M296.617 333.365L296.861 333.313L297.527 333.13L299.963 332.434C302.033 331.825 304.891 330.946 308.018 329.902C311.144 328.858 313.962 327.84 315.992 327.084L318.387 326.161L319.037 325.9C319.113 325.875 319.187 325.84 319.256 325.796L319.02 325.866L318.363 326.092L315.927 326.962C313.888 327.692 311.055 328.702 307.945 329.728C304.835 330.755 301.968 331.668 299.906 332.338L297.47 333.095L296.812 333.304C296.746 333.319 296.681 333.339 296.617 333.365Z" fill="#263238"/>
<path d="M314.716 327.735C314.703 327.269 314.735 326.802 314.814 326.343C314.946 325.899 315.125 325.473 315.35 325.073C314.978 325.372 314.726 325.81 314.643 326.3C314.509 326.773 314.535 327.281 314.716 327.735Z" fill="#263238"/>
<path d="M310.154 326.909C310.202 326.909 310.316 326.613 310.421 326.222C310.527 325.83 310.56 325.5 310.511 325.482C310.38 325.693 310.292 325.93 310.251 326.178C310.168 326.411 310.135 326.661 310.154 326.909Z" fill="#263238"/>
<path d="M308.894 326.666C308.935 326.666 309.105 326.466 309.267 326.17C309.43 325.874 309.535 325.604 309.495 325.578C309.454 325.552 309.292 325.778 309.121 326.074C308.951 326.37 308.853 326.64 308.894 326.666Z" fill="#263238"/>
<path d="M307.823 325.543C308.07 325.551 308.316 325.503 308.546 325.404C308.788 325.35 309.017 325.244 309.22 325.091C308.972 325.072 308.723 325.12 308.497 325.23C308.107 325.352 307.807 325.491 307.823 325.543Z" fill="#263238"/>
<path d="M307.311 324.664C307.574 324.756 307.859 324.756 308.123 324.664C308.41 324.622 308.678 324.489 308.894 324.281C308.618 324.324 308.346 324.394 308.082 324.49C307.821 324.525 307.563 324.583 307.311 324.664Z" fill="#263238"/>
<path d="M310.242 325.509C310.544 325.473 310.836 325.375 311.103 325.222C311.401 325.074 311.686 324.9 311.956 324.7C312.121 324.582 312.273 324.445 312.41 324.291C312.492 324.192 312.538 324.066 312.54 323.934C312.533 323.861 312.506 323.792 312.463 323.735C312.419 323.678 312.362 323.635 312.297 323.612C311.919 323.544 311.531 323.621 311.201 323.829C310.871 324.038 310.621 324.365 310.494 324.752C310.418 324.98 310.385 325.223 310.397 325.465C310.393 325.552 310.41 325.639 310.445 325.718C310.448 325.405 310.503 325.096 310.608 324.804C310.731 324.497 310.934 324.234 311.192 324.047C311.342 323.931 311.511 323.847 311.691 323.8C311.871 323.754 312.057 323.746 312.24 323.777C312.402 323.847 312.402 324.03 312.28 324.178C312.153 324.321 312.012 324.45 311.858 324.56C311.601 324.764 311.329 324.948 311.046 325.109C310.567 325.378 310.234 325.483 310.242 325.509Z" fill="#263238"/>
<path d="M310.478 325.482C310.527 325.256 310.498 325.017 310.396 324.812C310.302 324.579 310.154 324.376 309.966 324.22C309.859 324.114 309.729 324.036 309.587 323.995C309.446 323.954 309.297 323.951 309.154 323.986C309.113 324.009 309.077 324.041 309.048 324.08C309.019 324.119 308.997 324.163 308.984 324.211C308.972 324.259 308.968 324.309 308.973 324.358C308.979 324.408 308.993 324.456 309.016 324.499C309.075 324.64 309.164 324.765 309.276 324.864C309.449 325.027 309.64 325.167 309.844 325.282C310.024 325.407 310.231 325.479 310.445 325.491C310.445 325.491 310.226 325.386 309.901 325.169C309.715 325.045 309.541 324.903 309.381 324.742C309.211 324.586 309.024 324.264 309.227 324.151C309.347 324.127 309.471 324.133 309.589 324.167C309.708 324.202 309.817 324.265 309.909 324.351C310.08 324.488 310.222 324.663 310.323 324.864C310.397 325.063 310.449 325.27 310.478 325.482Z" fill="#263238"/>
<path d="M295.74 329.354C295.74 329.354 296.114 329.189 296.739 329.067C297.552 328.894 298.395 328.973 299.168 329.293C299.942 329.613 300.614 330.162 301.108 330.876C301.489 331.425 301.627 331.833 301.66 331.816C301.646 331.717 301.618 331.62 301.579 331.529C301.478 331.275 301.352 331.033 301.205 330.807C300.72 330.046 300.031 329.461 299.23 329.127C298.429 328.793 297.552 328.727 296.715 328.936C296.464 329.002 296.219 329.092 295.984 329.206C295.896 329.241 295.814 329.291 295.74 329.354Z" fill="#263238"/>
<path d="M295.398 322.941C295.826 324.941 296.368 326.911 297.022 328.84C296.824 327.834 296.574 326.841 296.275 325.865C296.038 324.872 295.745 323.896 295.398 322.941Z" fill="#263238"/>
<path d="M302.984 329.937C303.67 329.878 304.347 329.729 304.998 329.493C305.662 329.305 306.3 329.028 306.898 328.667C306.898 328.623 306.021 328.971 304.949 329.319C303.878 329.667 302.976 329.885 302.984 329.937Z" fill="#263238"/>
<path d="M300.369 330.807C300.369 330.807 300.499 330.981 300.645 331.164C300.791 331.347 300.905 331.52 300.946 331.503C300.986 331.486 300.946 331.259 300.775 331.042C300.605 330.824 300.385 330.764 300.369 330.807Z" fill="#263238"/>
<path d="M298.988 329.823C298.988 329.867 299.094 329.989 299.281 330.093C299.467 330.197 299.63 330.241 299.646 330.197C299.662 330.154 299.54 330.032 299.362 329.928C299.183 329.823 298.988 329.78 298.988 329.823Z" fill="#263238"/>
<path d="M297.414 329.693C297.414 329.737 297.608 329.693 297.828 329.693C298.047 329.693 298.226 329.772 298.25 329.693C298.274 329.615 298.104 329.493 297.836 329.485C297.568 329.476 297.365 329.65 297.414 329.693Z" fill="#263238"/>
<path d="M296.324 329.745C296.324 329.797 296.422 329.841 296.543 329.849C296.665 329.858 296.771 329.849 296.771 329.78C296.771 329.71 296.681 329.684 296.552 329.675C296.422 329.667 296.324 329.693 296.324 329.745Z" fill="#263238"/>
<path d="M228.32 170.849L234.849 326.274L256.627 326.761L253.013 196.644L292.476 328.31L310.275 323.09L270.561 170.849" fill="#263238"/>
<path d="M291.543 327.431L292.558 329.519L311.421 323.629L310.276 320.236L291.543 327.431Z" fill="#455A64"/>
<path d="M308.099 319.462C308.213 319.462 308.383 319.679 308.481 320.019C308.578 320.358 308.562 320.68 308.481 320.715C308.399 320.75 308.205 320.497 308.107 320.149C308.01 319.801 307.985 319.497 308.099 319.462Z" fill="#455A64"/>
<path d="M306.687 314.416C306.8 314.416 307.052 314.912 307.247 315.608C307.442 316.304 307.507 316.904 307.393 316.939C307.279 316.974 307.036 316.443 306.841 315.738C306.646 315.034 306.573 314.451 306.687 314.416Z" fill="#455A64"/>
<path d="M305.273 309.37C305.386 309.37 305.638 309.866 305.833 310.562C306.028 311.258 306.093 311.858 305.979 311.893C305.865 311.928 305.622 311.389 305.427 310.693C305.232 309.997 305.159 309.405 305.273 309.37Z" fill="#455A64"/>
<path d="M303.861 304.35C303.974 304.35 304.226 304.846 304.421 305.542C304.616 306.238 304.681 306.838 304.567 306.873C304.453 306.907 304.21 306.368 304.015 305.672C303.82 304.976 303.747 304.35 303.861 304.35Z" fill="#455A64"/>
<path d="M302.447 299.278C302.56 299.278 302.812 299.774 303.007 300.47C303.202 301.166 303.267 301.767 303.153 301.801C303.04 301.836 302.796 301.297 302.601 300.601C302.406 299.905 302.341 299.313 302.447 299.278Z" fill="#455A64"/>
<path d="M301.035 294.232C301.148 294.188 301.4 294.728 301.595 295.424C301.79 296.12 301.855 296.711 301.741 296.755C301.627 296.798 301.384 296.25 301.189 295.554C300.994 294.858 300.929 294.267 301.035 294.232Z" fill="#455A64"/>
<path d="M299.623 289.177C299.736 289.177 299.988 289.681 300.183 290.377C300.378 291.073 300.443 291.665 300.329 291.708C300.215 291.752 299.972 291.204 299.777 290.508C299.582 289.812 299.517 289.22 299.623 289.177Z" fill="#455A64"/>
<path d="M298.176 284.131C298.29 284.131 298.542 284.635 298.737 285.331C298.932 286.027 298.997 286.619 298.883 286.654C298.769 286.689 298.526 286.158 298.331 285.462C298.136 284.766 298.103 284.174 298.176 284.131Z" fill="#455A64"/>
<path d="M296.796 279.12C296.91 279.12 297.162 279.625 297.357 280.321C297.552 281.017 297.617 281.608 297.503 281.643C297.389 281.678 297.146 281.147 296.951 280.451C296.756 279.755 296.691 279.12 296.796 279.12Z" fill="#455A64"/>
<path d="M295.382 274.039C295.496 274.039 295.748 274.544 295.943 275.24C296.137 275.936 296.202 276.527 296.089 276.562C295.975 276.597 295.731 276.066 295.537 275.37C295.342 274.674 295.277 274.074 295.382 274.039Z" fill="#455A64"/>
<path d="M293.978 268.993C294.083 268.993 294.335 269.498 294.53 270.194C294.725 270.89 294.79 271.481 294.684 271.516C294.579 271.551 294.319 271.02 294.124 270.324C293.929 269.628 293.864 269.028 293.978 268.993Z" fill="#455A64"/>
<path d="M292.565 263.947C292.671 263.947 292.923 264.443 293.117 265.148C293.312 265.853 293.377 266.435 293.272 266.47C293.166 266.505 292.906 265.974 292.711 265.278C292.517 264.582 292.492 263.982 292.565 263.947Z" fill="#455A64"/>
<path d="M291.154 258.901C291.259 258.901 291.511 259.397 291.706 260.093C291.901 260.789 291.966 261.39 291.86 261.424C291.754 261.459 291.495 260.928 291.3 260.224C291.105 259.519 291.04 258.936 291.154 258.901Z" fill="#455A64"/>
<path d="M289.74 253.89C289.845 253.89 290.097 254.386 290.292 255.082C290.487 255.778 290.552 256.378 290.446 256.413C290.34 256.447 290.081 255.908 289.886 255.212C289.691 254.516 289.626 253.89 289.74 253.89Z" fill="#455A64"/>
<path d="M288.327 248.81C288.433 248.81 288.685 249.305 288.88 250.001C289.074 250.697 289.139 251.298 289.034 251.333C288.928 251.367 288.668 250.828 288.474 250.132C288.279 249.436 288.214 248.844 288.327 248.81Z" fill="#455A64"/>
<path d="M286.914 243.763C287.027 243.763 287.271 244.259 287.466 244.955C287.661 245.651 287.734 246.251 287.62 246.286C287.506 246.321 287.255 245.781 287.06 245.085C286.865 244.389 286.808 243.797 286.914 243.763Z" fill="#455A64"/>
<path d="M285.501 238.717C285.615 238.674 285.859 239.213 286.053 239.909C286.248 240.605 286.321 241.197 286.208 241.24C286.094 241.284 285.842 240.736 285.647 240.04C285.453 239.344 285.388 238.752 285.501 238.717Z" fill="#455A64"/>
<path d="M284.089 233.662C284.203 233.662 284.446 234.167 284.641 234.863C284.836 235.559 284.909 236.15 284.796 236.194C284.682 236.237 284.43 235.689 284.235 234.993C284.04 234.297 283.975 233.706 284.089 233.662Z" fill="#455A64"/>
<path d="M282.675 228.66C282.789 228.66 283.032 229.165 283.227 229.861C283.422 230.557 283.495 231.148 283.382 231.183C283.268 231.218 283.016 230.687 282.821 229.991C282.626 229.295 282.561 228.66 282.675 228.66Z" fill="#455A64"/>
<path d="M281.262 223.57C281.376 223.57 281.619 224.075 281.814 224.771C282.009 225.467 282.082 226.059 281.969 226.093C281.855 226.128 281.603 225.597 281.408 224.901C281.213 224.205 281.124 223.605 281.262 223.57Z" fill="#455A64"/>
<path d="M279.849 218.524C279.962 218.524 280.206 219.029 280.401 219.725C280.596 220.421 280.669 221.013 280.555 221.047C280.442 221.082 280.198 220.552 279.995 219.856C279.792 219.16 279.735 218.559 279.849 218.524Z" fill="#455A64"/>
<path d="M278.437 213.479C278.55 213.479 278.794 213.983 278.989 214.679C279.184 215.375 279.257 215.967 279.143 216.002C279.029 216.036 278.786 215.506 278.591 214.81C278.396 214.114 278.323 213.513 278.437 213.479Z" fill="#455A64"/>
<path d="M277.064 208.433C277.178 208.433 277.421 208.929 277.616 209.633C277.811 210.338 277.884 210.921 277.771 210.956C277.657 210.99 277.413 210.46 277.218 209.764C277.024 209.068 276.91 208.467 277.064 208.433Z" fill="#455A64"/>
<path d="M275.611 203.43C275.724 203.43 275.968 203.926 276.171 204.622C276.374 205.318 276.431 205.918 276.317 205.953C276.203 205.987 275.96 205.457 275.765 204.752C275.57 204.047 275.497 203.43 275.611 203.43Z" fill="#455A64"/>
<path d="M274.198 198.341C274.312 198.341 274.564 198.837 274.759 199.533C274.954 200.229 275.019 200.829 274.905 200.864C274.791 200.899 274.548 200.359 274.353 199.663C274.158 198.967 274.085 198.376 274.198 198.341Z" fill="#455A64"/>
<path d="M272.784 193.295C272.898 193.295 273.15 193.791 273.345 194.487C273.54 195.183 273.604 195.783 273.491 195.818C273.377 195.853 273.134 195.313 272.939 194.617C272.744 193.921 272.671 193.33 272.784 193.295Z" fill="#455A64"/>
<path d="M271.38 188.248C271.493 188.248 271.745 188.744 271.94 189.44C272.135 190.136 272.2 190.736 272.086 190.771C271.973 190.806 271.729 190.266 271.534 189.57C271.339 188.874 271.258 188.283 271.38 188.248Z" fill="#455A64"/>
<path d="M269.96 183.203C270.074 183.159 270.326 183.699 270.52 184.395C270.715 185.091 270.78 185.682 270.667 185.726C270.553 185.769 270.309 185.221 270.114 184.525C269.92 183.829 269.846 183.237 269.96 183.203Z" fill="#455A64"/>
<path d="M268.546 178.147C268.66 178.147 268.912 178.652 269.107 179.348C269.302 180.044 269.366 180.636 269.253 180.679C269.139 180.723 268.896 180.175 268.701 179.479C268.506 178.783 268.441 178.2 268.546 178.147Z" fill="#455A64"/>
<path d="M267.492 174.381C267.605 174.381 267.776 174.59 267.873 174.938C267.971 175.286 267.954 175.59 267.873 175.625C267.792 175.66 267.597 175.416 267.5 175.068C267.402 174.72 267.378 174.416 267.492 174.381Z" fill="#455A64"/>
<path d="M252.874 325.491C252.988 325.491 253.094 325.77 253.118 326.126C253.142 326.483 253.053 326.788 252.931 326.796C252.809 326.805 252.712 326.518 252.696 326.152C252.679 325.787 252.752 325.5 252.874 325.491Z" fill="#455A64"/>
<path d="M252.704 320.314C252.818 320.314 252.94 320.88 252.964 321.602C252.988 322.324 252.915 322.898 252.793 322.898C252.672 322.898 252.566 322.333 252.542 321.619C252.517 320.906 252.558 320.314 252.704 320.314Z" fill="#455A64"/>
<path d="M252.527 315.138C252.64 315.138 252.754 315.703 252.77 316.425C252.786 317.147 252.713 317.722 252.592 317.722C252.47 317.722 252.364 317.147 252.348 316.434C252.332 315.721 252.405 315.138 252.527 315.138Z" fill="#455A64"/>
<path d="M252.404 309.953C252.517 309.953 252.623 310.527 252.639 311.241C252.655 311.954 252.574 312.537 252.461 312.546C252.347 312.554 252.233 311.972 252.217 311.258C252.201 310.545 252.282 309.953 252.404 309.953Z" fill="#455A64"/>
<path d="M252.282 304.768C252.404 304.768 252.51 305.342 252.526 306.064C252.542 306.786 252.461 307.36 252.347 307.36C252.234 307.36 252.12 306.786 252.104 306.073C252.087 305.359 252.169 304.776 252.282 304.768Z" fill="#455A64"/>
<path d="M252.161 299.582C252.275 299.582 252.389 300.156 252.405 300.878C252.421 301.6 252.34 302.175 252.226 302.175C252.112 302.175 251.999 301.6 251.983 300.887C251.966 300.174 252.047 299.591 252.161 299.582Z" fill="#455A64"/>
<path d="M251.999 294.406C252.12 294.406 252.234 294.972 252.258 295.694C252.283 296.416 252.202 296.99 252.088 296.999C251.974 297.008 251.852 296.425 251.836 295.711C251.82 294.998 251.893 294.406 251.999 294.406Z" fill="#455A64"/>
<path d="M251.795 289.229C251.916 289.229 252.03 289.795 252.063 290.508C252.095 291.222 252.014 291.813 251.9 291.813C251.787 291.813 251.665 291.248 251.632 290.526C251.6 289.804 251.681 289.229 251.795 289.229Z" fill="#455A64"/>
<path d="M251.608 284.044C251.722 284.044 251.844 284.618 251.868 285.332C251.893 286.045 251.82 286.628 251.698 286.637C251.576 286.645 251.47 286.062 251.446 285.349C251.422 284.636 251.495 284.053 251.608 284.044Z" fill="#455A64"/>
<path d="M251.439 278.868C251.56 278.868 251.674 279.442 251.69 280.156C251.706 280.869 251.642 281.452 251.52 281.461C251.398 281.469 251.292 280.887 251.268 280.173C251.244 279.46 251.325 278.877 251.439 278.868Z" fill="#455A64"/>
<path d="M251.292 273.683C251.406 273.683 251.519 274.257 251.536 274.97C251.552 275.684 251.479 276.267 251.365 276.275C251.251 276.284 251.138 275.701 251.113 274.988C251.089 274.274 251.178 273.691 251.292 273.683Z" fill="#455A64"/>
<path d="M251.163 268.506C251.284 268.506 251.39 269.08 251.406 269.793C251.422 270.507 251.341 271.09 251.228 271.09C251.114 271.09 251 270.516 250.984 269.802C250.968 269.089 251.081 268.506 251.163 268.506Z" fill="#455A64"/>
<path d="M251.08 263.32C251.194 263.32 251.299 263.895 251.316 264.617C251.332 265.339 251.243 265.913 251.129 265.913C251.015 265.913 250.901 265.339 250.893 264.625C250.885 263.912 250.942 263.32 251.08 263.32Z" fill="#455A64"/>
<path d="M250.983 258.145C251.096 258.145 251.202 258.719 251.21 259.432C251.218 260.146 251.137 260.728 251.015 260.728C250.893 260.728 250.796 260.154 250.788 259.441C250.78 258.727 250.861 258.145 250.983 258.145Z" fill="#455A64"/>
<path d="M250.918 252.959C251.04 252.959 251.137 253.533 251.145 254.255C251.154 254.977 251.064 255.552 250.951 255.552C250.837 255.552 250.731 254.969 250.723 254.255C250.715 253.542 250.804 252.959 250.918 252.959Z" fill="#455A64"/>
<path d="M250.885 247.8C251.007 247.8 251.104 248.383 251.104 249.096C251.104 249.809 251.015 250.392 250.901 250.392C250.788 250.392 250.69 249.818 250.682 249.096C250.674 248.374 250.771 247.8 250.885 247.8Z" fill="#455A64"/>
<path d="M250.877 242.58C250.991 242.58 251.088 243.154 251.088 243.876C251.088 244.598 250.999 245.164 250.877 245.173C250.755 245.181 250.666 244.59 250.666 243.876C250.666 243.163 250.763 242.58 250.877 242.58Z" fill="#455A64"/>
<path d="M250.893 237.412C251.007 237.412 251.096 237.995 251.096 238.708C251.096 239.422 250.999 240.005 250.877 240.005C250.755 240.005 250.674 239.422 250.674 238.708C250.674 237.995 250.771 237.412 250.893 237.412Z" fill="#455A64"/>
<path d="M250.927 232.227C251.049 232.227 251.138 232.809 251.13 233.523C251.122 234.236 251.024 234.819 250.911 234.819C250.797 234.819 250.699 234.236 250.708 233.523C250.716 232.809 250.813 232.227 250.927 232.227Z" fill="#455A64"/>
<path d="M250.992 227.051C251.105 227.051 251.195 227.634 251.186 228.347C251.178 229.06 251.073 229.643 250.959 229.643C250.845 229.643 250.756 229.06 250.764 228.338C250.772 227.616 250.878 227.051 250.992 227.051Z" fill="#455A64"/>
<path d="M251.081 221.865C251.195 221.865 251.276 222.457 251.268 223.17C251.26 223.884 251.146 224.458 251.032 224.458C250.919 224.458 250.829 223.875 250.846 223.162C250.862 222.448 250.959 221.865 251.081 221.865Z" fill="#455A64"/>
<path d="M251.187 216.68C251.301 216.68 251.382 217.271 251.366 217.985C251.349 218.698 251.244 219.281 251.13 219.272C251.016 219.264 250.927 218.689 250.943 217.976C250.96 217.263 251.081 216.68 251.187 216.68Z" fill="#455A64"/>
<path d="M251.357 211.495C251.47 211.495 251.543 212.087 251.519 212.8C251.495 213.514 251.381 214.096 251.259 214.088C251.137 214.079 251.073 213.505 251.097 212.783C251.121 212.061 251.243 211.495 251.357 211.495Z" fill="#455A64"/>
<path d="M251.64 206.327C251.754 206.327 251.811 206.918 251.77 207.632C251.73 208.345 251.6 208.919 251.478 208.91C251.356 208.902 251.307 208.319 251.348 207.597C251.389 206.875 251.519 206.309 251.64 206.327Z" fill="#455A64"/>
<path d="M252.079 201.159C252.201 201.159 252.233 201.76 252.168 202.473C252.103 203.186 251.949 203.752 251.835 203.743C251.721 203.734 251.681 203.143 251.746 202.429C251.811 201.716 251.965 201.151 252.079 201.159Z" fill="#455A64"/>
<path d="M252.55 197.34C252.664 197.34 252.72 197.662 252.672 198.01C252.623 198.358 252.493 198.645 252.379 198.627C252.266 198.61 252.209 198.306 252.249 197.949C252.29 197.592 252.436 197.288 252.55 197.34Z" fill="#455A64"/>
<path d="M234.279 327.031L257.308 327.432L257.129 323.316L234.279 323.447V327.031Z" fill="#455A64"/>
<path d="M249.383 172.814C249.465 173.124 249.511 173.442 249.521 173.763C249.578 174.38 249.659 175.268 249.741 176.373C249.903 178.574 250.106 181.593 250.293 184.968C250.39 186.639 250.471 188.24 250.553 189.701C250.539 190.977 250.681 192.249 250.975 193.486C251.215 194.293 251.743 194.966 252.445 195.356C252.708 195.467 252.98 195.554 253.257 195.617C253.179 195.637 253.099 195.637 253.021 195.617C252.794 195.617 252.568 195.573 252.355 195.487C251.966 195.307 251.615 195.044 251.324 194.713C251.034 194.383 250.81 193.991 250.666 193.564C250.323 192.306 250.145 191.003 250.139 189.692C250.049 188.231 249.952 186.63 249.854 184.96C249.659 181.601 249.505 178.565 249.416 176.364C249.367 175.259 249.343 174.372 249.335 173.754C249.311 173.44 249.327 173.124 249.383 172.814Z" fill="#455A64"/>
<path d="M251.616 174.877C251.616 174.937 251.438 175.094 251.413 175.46C251.407 175.556 251.419 175.652 251.448 175.743C251.478 175.834 251.524 175.918 251.584 175.99C251.661 176.061 251.756 176.107 251.856 176.122C251.957 176.138 252.059 176.122 252.152 176.077C252.249 176.041 252.334 175.976 252.397 175.89C252.461 175.803 252.5 175.699 252.509 175.59C252.506 175.494 252.484 175.399 252.445 175.312C252.405 175.226 252.35 175.148 252.282 175.085C252.03 174.833 251.771 174.885 251.762 174.816C251.754 174.746 252.03 174.555 252.461 174.816C252.583 174.897 252.686 175.008 252.762 175.139C252.838 175.271 252.885 175.419 252.899 175.573C252.899 175.774 252.843 175.971 252.737 176.138C252.632 176.305 252.482 176.435 252.307 176.51C252.132 176.585 251.941 176.602 251.757 176.559C251.573 176.516 251.405 176.415 251.275 176.269C251.183 176.149 251.119 176.008 251.088 175.857C251.057 175.705 251.06 175.548 251.097 175.399C251.259 174.894 251.616 174.824 251.616 174.877Z" fill="#455A64"/>
<path d="M272.111 178.565C271.57 178.96 270.95 179.213 270.301 179.305C268.738 179.642 267.116 179.448 265.66 178.751C264.205 178.054 262.989 176.888 262.181 175.416C261.809 174.837 261.569 174.172 261.482 173.476C261.556 173.476 261.775 174.206 262.432 175.216C263.265 176.574 264.443 177.649 265.827 178.313C267.211 178.977 268.744 179.204 270.244 178.965C271.381 178.817 272.087 178.495 272.111 178.565Z" fill="#455A64"/>
<path d="M235.895 172.814C236.002 173.375 235.974 173.956 235.814 174.502C235.52 175.852 234.839 177.069 233.865 177.982C232.887 178.897 231.666 179.463 230.374 179.6C229.849 179.698 229.309 179.65 228.807 179.461C228.807 179.383 229.416 179.461 230.341 179.279C231.544 179.064 232.668 178.498 233.589 177.643C234.496 176.771 235.167 175.653 235.53 174.407C235.806 173.458 235.822 172.814 235.895 172.814Z" fill="#455A64"/>
<path d="M232.657 105.242C232.657 105.242 210.96 115.073 210.27 114.699C209.58 114.325 209.093 95.6025 209.093 95.6025H198.301C198.301 95.6025 196.255 123.373 202.759 127.793C211.651 133.883 233.177 121.215 233.177 121.215L232.657 105.242Z" fill="#FFBE9D"/>
<path d="M160.201 71.7037L157.977 82.0915L168.386 84.745C168.386 84.745 172.666 85.7629 176.921 92.2618C181.175 98.7607 182.824 101.64 182.824 101.64L190.034 63.4648L182.207 69.4504C180.655 70.6194 178.931 71.5016 177.107 72.0604C174.874 72.7564 171.894 73.5481 170.23 73.4611C166.854 73.1132 163.504 72.5261 160.201 71.7037Z" fill="#263238"/>
<path d="M277.008 116.013L182.824 101.64L190.035 63.4648L281.612 87.1289C282.598 87.3826 283.458 88.0271 284.018 88.9327C284.579 89.8382 284.798 90.9376 284.633 92.0095L281.539 112.437C281.361 113.545 280.79 114.536 279.946 115.202C279.101 115.869 278.048 116.159 277.008 116.013Z" fill="#DA693F"/>
<path d="M151.797 72.1907C151.732 72.1779 151.665 72.1825 151.602 72.2039C151.539 72.2253 151.481 72.263 151.435 72.3136C151.388 72.3643 151.354 72.4263 151.335 72.4943C151.316 72.5624 151.313 72.6344 151.326 72.704C151.72 74.9618 152.238 77.1929 152.877 79.3856C153.096 79.9859 158.309 80.5253 158.309 80.5253L159.747 73.8176L151.797 72.1907Z" fill="#DA693F"/>
<path d="M269.447 102.867L270.884 96.6986L210.041 83.4746L208.799 89.6777L269.447 102.867Z" fill="#263238"/>
<path d="M257.625 102.658L244.178 101.501C244.089 99.8218 244.178 93.3142 244.178 93.3142C244.178 93.3142 238.583 92.3833 238.494 86.3542C238.405 80.3251 239.395 66.6052 239.395 66.6052C242.573 65.1381 246.058 64.6066 249.491 65.0654C252.924 65.5242 256.18 66.9568 258.924 69.2152L259.736 69.9025L257.625 102.658Z" fill="#FFBE9D"/>
<path d="M240.727 76.9324C240.872 76.774 240.955 76.5623 240.959 76.3405C240.964 76.1187 240.888 75.9036 240.749 75.7392C240.611 75.5748 240.418 75.4734 240.212 75.4559C240.005 75.4383 239.801 75.5059 239.639 75.6448C239.559 75.7216 239.494 75.8146 239.448 75.9184C239.402 76.0222 239.375 76.1349 239.37 76.2498C239.365 76.3647 239.381 76.4795 239.417 76.5877C239.454 76.696 239.51 76.7953 239.582 76.8802C239.728 77.0493 239.93 77.1498 240.145 77.1596C240.359 77.1694 240.569 77.0877 240.727 76.9324Z" fill="#263238"/>
<path d="M239.371 75.5401C239.461 75.6445 240.013 75.1921 240.776 75.1921C241.539 75.1921 242.108 75.6097 242.197 75.5053C242.286 75.4009 242.148 75.2704 241.905 75.0703C241.575 74.8199 241.18 74.686 240.776 74.6875C240.37 74.6919 239.976 74.8385 239.656 75.1051C239.412 75.3313 239.331 75.5401 239.371 75.5401Z" fill="#263238"/>
<path d="M248.246 76.2883C248.15 76.3456 248.066 76.4231 247.999 76.5161C247.932 76.609 247.884 76.7156 247.856 76.8292C247.829 76.9429 247.823 77.0613 247.839 77.1774C247.856 77.2935 247.894 77.4049 247.951 77.5048C248.009 77.6047 248.085 77.6911 248.174 77.7587C248.264 77.8264 248.365 77.8739 248.472 77.8984C248.58 77.923 248.69 77.924 248.798 77.9015C248.905 77.8789 249.008 77.8333 249.098 77.7673C249.281 77.6468 249.411 77.4538 249.462 77.2305C249.512 77.0073 249.477 76.7718 249.366 76.5754C249.311 76.4775 249.237 76.3923 249.151 76.3247C249.064 76.2572 248.966 76.2087 248.862 76.1821C248.758 76.1554 248.65 76.151 248.544 76.1693C248.438 76.1875 248.337 76.228 248.246 76.2883Z" fill="#263238"/>
<path d="M247.743 76.2973C247.825 76.4017 248.377 75.9493 249.148 75.9406C249.919 75.9319 250.48 76.3669 250.561 76.2625C250.642 76.1581 250.52 76.0276 250.277 75.8275C249.947 75.5709 249.548 75.4365 249.14 75.4447C248.735 75.4503 248.343 75.5935 248.019 75.8536C247.784 76.0624 247.695 76.2538 247.743 76.2973Z" fill="#263238"/>
<path d="M244.649 83.1004C244.253 82.9343 243.833 82.8402 243.407 82.822C243.204 82.822 243.05 82.7524 243.034 82.6306C243.025 82.415 243.073 82.2012 243.172 82.0129C243.375 81.4735 243.578 80.9167 243.789 80.3338C244.363 78.9171 244.804 77.4423 245.104 75.9316C244.396 77.2779 243.816 78.6974 243.375 80.1685C243.18 80.7514 242.985 81.3082 242.798 81.9085C242.675 82.1783 242.635 82.483 242.684 82.7785C242.715 82.8599 242.762 82.9327 242.822 82.9915C242.883 83.0503 242.955 83.0935 243.034 83.1178C243.145 83.1488 243.26 83.1663 243.375 83.17C243.8 83.2281 244.232 83.2045 244.649 83.1004Z" fill="#263238"/>
<path d="M247.151 84.0143C247.963 83.501 244.942 85.2757 243.375 85.1887C243.641 85.6169 244.035 85.9358 244.492 86.0938C244.949 86.2518 245.443 86.2394 245.892 86.0587C247.565 85.441 247.151 84.0143 247.151 84.0143Z" fill="white"/>
<path d="M244.195 93.2273C246.783 93.2843 249.328 92.5118 251.503 91.0088C251.503 91.0088 249.782 95.3588 244.195 94.7846V93.2273Z" fill="#EB996E"/>
<path d="M259.818 75.7487C259.94 75.7052 263.984 75.4181 263.318 80.4641C262.652 85.5101 258.105 83.1263 258.113 82.9784C258.121 82.8305 259.818 75.7487 259.818 75.7487Z" fill="#FFBE9D"/>
<path d="M259.793 81.4214C259.793 81.4214 259.866 81.4997 259.996 81.5867C260.087 81.6469 260.189 81.6871 260.295 81.705C260.401 81.7229 260.509 81.7182 260.613 81.6911C260.946 81.5325 261.232 81.2807 261.442 80.9622C261.652 80.6437 261.778 80.2703 261.807 79.8815C261.874 79.45 261.855 79.008 261.75 78.5852C261.726 78.4214 261.666 78.2662 261.574 78.1329C261.482 77.9996 261.361 77.8921 261.222 77.8196C261.131 77.7791 261.03 77.7735 260.935 77.8035C260.84 77.8336 260.758 77.8977 260.702 77.9849C260.621 78.1154 260.637 78.2198 260.613 78.2285C260.589 78.2372 260.524 78.1328 260.613 77.924C260.654 77.8017 260.734 77.6996 260.84 77.6369C260.985 77.5537 261.153 77.5319 261.311 77.576C261.494 77.6441 261.658 77.7589 261.79 77.9106C261.921 78.0622 262.016 78.246 262.067 78.446C262.206 78.9151 262.24 79.4132 262.164 79.8989C262.128 80.3534 261.966 80.7861 261.7 81.1423C261.434 81.4985 261.076 81.7621 260.67 81.8999C260.538 81.9206 260.404 81.9087 260.277 81.8649C260.15 81.8212 260.035 81.7468 259.939 81.6476C259.785 81.5519 259.777 81.4301 259.793 81.4214Z" fill="#EB996E"/>
<path d="M239.452 66.4572C240.906 70.5723 246.476 72.1992 250.568 72.4428C248.676 70.6593 249.846 71.0334 248.676 69.7806C251.834 72.7068 255.87 74.316 260.045 74.3133C260.358 73.297 260.478 72.2237 260.397 71.157C260.317 70.0902 260.037 69.0515 259.575 68.1025C259.113 67.1534 258.479 66.3133 257.708 65.6317C256.938 64.9501 256.048 64.4409 255.091 64.1343C253.833 63.7254 252.493 63.6906 251.21 63.3687C250.13 63.099 249.091 62.6379 247.962 62.4987C244.665 61.9767 239.314 61.0197 239.403 66.492" fill="#263238"/>
<path d="M257.576 72.0596C257.787 72.6425 258.965 79.4459 258.965 79.4459L260.394 72.8861L257.576 72.0596Z" fill="#263238"/>
<path d="M297.568 156.198C299.73 153.534 300.916 150.119 300.904 146.588C300.892 143.058 299.683 139.653 297.503 137.005L275.79 110.627L269.977 128.027C270.374 128.305 286.882 147.271 286.882 147.271L272.697 166.22C271.62 167.656 270.9 169.361 270.604 171.176C270.309 172.991 270.448 174.857 271.008 176.599L274.8 186.543L285.185 181.558L284.373 180.262H276.586L276.123 178.261L297.568 156.198Z" fill="#FFBE9D"/>
<path d="M287.279 121.78L273.565 106.99C270.922 104.031 267.672 101.773 264.072 100.396C262.164 99.6654 260.162 99.2546 258.137 99.1777C253.474 100.761 248.468 100.761 243.805 99.1777C239.879 99.637 236.056 100.814 232.502 102.658L212.031 111.558L218.6 130.959L229.587 127L230.236 145.27L228.06 172.562L270.568 172.98L270.016 148.22V130.315L276.155 136.71L287.279 121.78Z" fill="#455A64"/>
</g>
<defs>
<clipPath id="clip0_2574_19174">
<rect width="358" height="334" fill="white"/>
</clipPath>
</defs>
</svg>
