<svg width="588" height="588" viewBox="0 0 588 588" fill="none" xmlns="http://www.w3.org/2000/svg">
<path d="M530.682 111.367H268.928V479.89H530.682V111.367Z" fill="#EBEBEB"/>
<path d="M496.695 70.56C499.352 68.9559 502.211 67.7141 505.197 66.8674L506.949 58.4472L521.179 58.1885L523.225 66.5498C526.245 67.2913 529.152 68.4343 531.869 69.9485L539.054 65.2445L549.297 75.1229L544.84 82.4729C546.444 85.134 547.686 87.9974 548.533 90.9871L556.953 92.7394L557.2 106.969L548.85 109.015C548.105 112.031 546.963 114.933 545.452 117.647L550.156 124.844L540.265 135.075L532.915 130.618C530.259 132.226 527.399 133.472 524.413 134.323L522.661 142.743L508.431 142.99L506.385 134.64C503.369 133.896 500.467 132.753 497.753 131.242L490.556 135.946L480.325 126.055L484.782 118.705C483.167 116.048 481.921 113.184 481.077 110.191L472.657 108.439L472.41 94.2094L480.76 92.1631C481.509 89.149 482.651 86.2468 484.158 83.5313L479.454 76.3459L489.345 66.103L496.695 70.56ZM504.28 89.5171C502.174 91.6901 500.76 94.4391 500.218 97.4161C499.676 100.393 500.029 103.464 501.233 106.24C502.437 109.016 504.438 111.372 506.982 113.01C509.526 114.649 512.499 115.495 515.525 115.442C518.55 115.389 521.492 114.44 523.978 112.714C526.463 110.988 528.381 108.564 529.487 105.747C530.594 102.931 530.84 99.8495 530.194 96.8933C529.548 93.9371 528.04 91.239 525.859 89.1408C522.941 86.3387 519.032 84.8073 514.987 84.8823C510.942 84.9572 507.092 86.6323 504.28 89.5406V89.5171Z" fill="#E0E0E0"/>
<path d="M504.281 89.5407C505.083 88.5491 506.044 87.6985 507.127 87.024C510.069 85.1089 513.587 84.2774 517.076 84.672C519.488 84.9106 521.809 85.7166 523.849 87.024C526.194 88.5563 528.086 90.688 529.33 93.198C530.727 96.0183 531.24 99.1953 530.8 102.312C530.365 105.632 528.872 108.724 526.542 111.128C524.212 113.532 521.168 115.121 517.864 115.66C516.309 115.936 514.721 115.959 513.16 115.73C511.665 115.566 510.204 115.169 508.832 114.554C506.281 113.405 504.087 111.589 502.481 109.297C500.776 106.87 499.808 104.002 499.693 101.037C499.578 98.073 500.322 95.1385 501.835 92.5865C502.455 91.4895 503.249 90.5005 504.187 89.6583C504.269 89.7288 503.269 90.6579 502.093 92.7512C500.453 95.7279 499.856 99.1685 500.4 102.524C500.767 104.82 501.665 106.998 503.022 108.886C504.582 111.04 506.684 112.744 509.114 113.825C511.804 115.004 514.781 115.368 517.675 114.872C520.785 114.339 523.643 112.828 525.835 110.559C528.026 108.289 529.436 105.38 529.859 102.253C530.244 99.344 529.774 96.3856 528.506 93.739C527.342 91.3565 525.564 89.3269 523.355 87.859C521.423 86.5777 519.215 85.7718 516.911 85.507C513.54 85.0805 510.124 85.7969 507.209 87.5415C505.245 88.5881 504.351 89.623 504.281 89.5407Z" fill="#E0E0E0"/>
<path d="M496.696 70.5598C496.532 70.4922 496.374 70.4095 496.225 70.3128L494.814 69.5014L489.216 66.2439H489.393L479.573 76.5456V76.2634L484.277 83.437L484.512 83.4958L484.442 83.6369C482.95 86.3324 481.827 89.2158 481.102 92.21V92.3746H480.937L472.588 94.4444L472.823 94.1386C472.917 98.6231 473.011 103.366 473.105 108.368L472.752 108.192L481.173 109.921H481.396L481.455 110.132C482.294 113.087 483.528 115.915 485.124 118.541L485.241 118.741L485.124 118.94L480.679 126.29L480.62 125.808L490.863 135.687H490.357L497.542 130.983L497.754 130.842L497.978 130.971C500.661 132.457 503.527 133.583 506.504 134.323H506.751L506.821 134.569C507.456 137.18 508.162 140.038 508.867 142.919L508.444 142.602L522.674 142.343L522.25 142.684L524.002 134.264L524.061 134.005L524.32 133.934C527.265 133.097 530.084 131.871 532.705 130.289L532.94 130.159L533.163 130.289L540.513 134.758H539.973L549.851 124.526V125.067L545.147 117.87L544.994 117.659L545.123 117.423C546.618 114.748 547.75 111.884 548.487 108.909L548.546 108.65H548.793L557.154 106.616L556.836 107.028C556.758 102.167 556.68 97.4236 556.601 92.798L556.919 93.186L548.499 91.422H548.263L548.205 91.1868C547.366 88.2316 546.14 85.4002 544.559 82.7667L544.441 82.5668L544.488 82.3198L548.957 74.9698L549.016 75.4284L538.797 65.5148H539.22L532.011 70.2188L531.858 70.3246L531.693 70.2305C529.008 68.725 526.132 67.5859 523.144 66.8436H522.968V66.679C522.227 63.6332 521.568 60.9048 520.945 58.3176L521.204 58.5176L506.974 58.694L507.162 58.5411C506.433 61.9044 505.845 64.6563 505.351 66.9495V67.0318H505.269C503.023 67.6589 500.841 68.4976 498.754 69.5367L497.225 70.3364C497.064 70.4361 496.894 70.5226 496.719 70.5951C496.871 70.4812 497.028 70.3753 497.19 70.2776C497.519 70.0776 498.013 69.7719 498.695 69.4073C500.763 68.307 502.938 67.4204 505.186 66.7613L505.092 66.8672C505.551 64.5152 506.104 61.8104 506.786 58.4352V58.2824H506.939L521.168 57.9648H521.368V58.1648C522.003 60.752 522.685 63.4803 523.438 66.5144L523.226 66.3027C526.273 67.0419 529.208 68.1848 531.952 69.7013H531.623L538.797 64.9973L539.02 64.8562L539.22 65.0326L549.475 74.8992L549.686 75.0992L549.533 75.3461C548.087 77.6981 546.617 80.1912 545.088 82.7079V82.3198C546.714 85.0067 547.975 87.8974 548.84 90.9164L548.546 90.6341L556.966 92.3864H557.283V92.7156C557.377 97.3334 557.467 102.073 557.554 106.933V107.275L557.236 107.345L548.887 109.403L549.192 109.097C548.439 112.149 547.284 115.087 545.758 117.835V117.388L550.462 124.585L550.651 124.867L550.404 125.114L540.525 135.357L540.29 135.604L539.984 135.428L532.728 131.006H533.175C530.486 132.633 527.591 133.891 524.567 134.746L524.873 134.417L523.12 142.837L523.05 143.178H522.697L508.467 143.413H508.126L508.044 143.084C507.339 140.191 506.645 137.345 506.01 134.722L506.315 135.04C503.265 134.277 500.328 133.118 497.578 131.594H498.013L490.816 136.298L490.545 136.475L490.31 136.251C486.782 132.805 483.254 129.454 480.079 126.349L479.855 126.126L480.02 125.867L484.489 118.517V118.917C482.876 116.224 481.626 113.329 480.773 110.309L480.984 110.544L472.564 108.78H472.294V108.509C472.207 103.515 472.133 98.772 472.07 94.2797V94.0328L472.305 93.974L480.667 91.9512L480.467 92.1512C481.236 89.1237 482.407 86.2127 483.948 83.4958V83.7545L479.244 76.5456L479.15 76.3928L479.279 76.2752L489.216 66.0322L489.299 65.9499L489.393 66.0087L494.802 69.3838L496.202 70.2658C496.371 70.3552 496.536 70.4533 496.696 70.5598Z" fill="#E0E0E0"/>
<path d="M434.602 41.7838C436.199 40.8269 437.915 40.0836 439.706 39.5729L440.752 34.5396L449.266 34.3867L450.442 39.3847C452.251 39.8269 453.991 40.5113 455.617 41.4192L459.921 38.5968L466.048 44.4768L463.378 48.875C464.383 50.4696 465.162 52.195 465.695 54.0024L470.74 55.0608L470.893 63.575L465.883 64.751C465.441 66.5595 464.757 68.3001 463.849 69.9254L466.671 74.2296L460.791 80.3566L456.287 77.7341C454.7 78.7008 452.992 79.4522 451.207 79.9685L450.16 85.0135L441.634 85.1546L440.458 80.1566C438.653 79.7144 436.917 79.03 435.296 78.1222L430.991 80.9446L424.864 75.0646L427.475 70.5605C426.52 68.9662 425.777 67.2545 425.264 65.4684L420.231 64.4218L420.078 55.8958L425.076 54.7198C425.522 52.916 426.206 51.1798 427.111 49.5571L424.288 45.253L430.168 39.1142L434.566 41.7838H434.602ZM439.153 53.1322C437.899 54.4328 437.06 56.0757 436.739 57.8534C436.419 59.6311 436.633 61.4638 437.354 63.12C438.075 64.7762 439.271 66.1815 440.79 67.1585C442.309 68.1355 444.084 68.6403 445.89 68.6091C447.696 68.5779 449.452 68.0121 450.937 66.9832C452.422 65.9544 453.568 64.5086 454.231 62.8285C454.895 61.1484 455.045 59.3094 454.664 57.5438C454.283 55.7782 453.386 54.1653 452.089 52.9087C451.226 52.0713 450.207 51.4125 449.089 50.9703C447.971 50.528 446.776 50.3111 445.574 50.3318C444.372 50.3526 443.186 50.6107 442.084 51.0913C440.982 51.5718 439.986 52.2654 439.153 53.1322Z" fill="#F5F5F5"/>
<path d="M439.154 53.1315C439.632 52.5432 440.204 52.0385 440.847 51.638C442.612 50.4927 444.719 49.994 446.81 50.2268C448.365 50.3951 449.853 50.9547 451.134 51.8533C452.415 52.752 453.448 53.9604 454.136 55.3659C454.55 56.1701 454.832 57.0357 454.971 57.9296C455.124 58.8602 455.124 59.8096 454.971 60.7402C454.716 62.7234 453.829 64.5718 452.442 66.0119C451.054 67.4521 449.241 68.4075 447.268 68.737C446.333 68.8838 445.381 68.8838 444.446 68.737C443.169 68.5641 441.941 68.1291 440.84 67.4593C439.739 66.7894 438.789 65.8992 438.048 64.8445C437.214 63.6555 436.673 62.285 436.473 60.8461C436.156 58.7672 436.572 56.6429 437.649 54.8367C438.029 54.1792 438.514 53.5875 439.083 53.0845C439.083 53.0845 438.531 53.6842 437.825 54.9426C437.212 56.0333 436.833 57.2402 436.714 58.4858C436.595 59.7314 436.738 60.9882 437.133 62.1754C437.528 63.3626 438.168 64.454 439.01 65.3795C439.852 66.3049 440.879 67.044 442.023 67.5493C442.806 67.9041 443.639 68.1343 444.493 68.2313C445.376 68.3643 446.275 68.3444 447.151 68.1726C449.014 67.8611 450.729 66.9594 452.042 65.6002C453.354 64.241 454.196 62.4961 454.442 60.6226C454.589 59.7428 454.589 58.8447 454.442 57.9649C454.307 57.1206 454.049 56.3005 453.677 55.5306C452.975 54.1026 451.908 52.8856 450.585 52.0026C449.444 51.2341 448.139 50.7428 446.774 50.5678C444.738 50.2891 442.667 50.7033 440.894 51.7438C439.73 52.567 439.189 53.1786 439.154 53.1315Z" fill="#F5F5F5"/>
<path d="M434.602 41.7833L434.32 41.6422L433.485 41.1482L430.169 39.1961H430.263L424.383 45.3583V45.1937L427.217 49.4861V49.5684V49.6507C426.331 51.2702 425.659 52.9976 425.218 54.7898V54.8839H425.124L420.126 56.1305L420.267 55.9423C420.267 58.6236 420.373 61.4695 420.432 64.4566L420.267 64.2566L425.312 65.3033H425.441V65.4326C425.949 67.2002 426.688 68.8927 427.64 70.4659L427.711 70.5835L427.64 70.7011L424.983 75.0994V74.8171L431.121 80.6971H430.816L435.12 77.8747L435.249 77.7924L435.379 77.863C436.984 78.7527 438.7 79.425 440.482 79.8622H440.635V80.015C441.023 81.5791 441.447 83.2843 441.87 85.013L441.611 84.8249L450.126 84.672L449.879 84.8719C450.208 83.2843 450.572 81.5674 450.925 79.8386V79.674H451.078C452.84 79.1664 454.528 78.4311 456.1 77.4866L456.241 77.4043L456.382 77.4866L460.78 80.1562H460.451C462.45 78.0864 464.426 76.0519 466.331 74.0292V74.3585L463.508 70.0543L463.426 69.9132L463.497 69.7838C464.392 68.1799 465.068 66.4633 465.508 64.68V64.5271H465.649L470.647 63.3511L470.459 63.5981C470.412 60.6973 470.365 57.8592 470.318 55.0838L470.517 55.319L465.472 54.2606H465.331V54.1195C464.832 52.3491 464.1 50.6527 463.156 49.0745L463.073 48.9569L463.156 48.8393L465.825 44.4528V44.7115C463.673 42.63 461.639 40.6661 459.71 38.8315H459.957L455.641 41.6422L455.547 41.7127H455.453C453.875 40.7708 452.178 40.0431 450.408 39.5489H450.302V39.4548C449.867 37.632 449.467 35.9974 449.126 34.445L449.279 34.5626L440.765 34.6685L440.882 34.5862C440.447 36.5971 440.094 38.2435 439.8 39.6194C438.429 40.0051 437.098 40.521 435.825 41.16L434.908 41.6422C434.815 41.7088 434.712 41.7604 434.602 41.795L434.896 41.6069C435.085 41.4893 435.379 41.3011 435.79 41.0894C437.03 40.4283 438.334 39.8963 439.683 39.5018L439.624 39.5724C439.894 38.1965 440.224 36.5383 440.635 34.5156V34.4333H440.729L449.244 34.2451H449.361V34.3745C449.749 35.915 450.149 37.5497 450.537 39.3725L450.42 39.2431C452.24 39.6841 453.992 40.3684 455.629 41.2776H455.441L459.816 38.4317L459.957 38.3376L460.075 38.4552L466.213 44.3352L466.331 44.4528L466.249 44.6057L463.579 49.0039V48.7687C464.557 50.3765 465.312 52.1091 465.825 53.9196L465.649 53.755L470.694 54.8016H470.882V54.9898C470.941 57.7651 470.988 60.5993 471.047 63.5158V63.7039L470.858 63.7627L465.849 64.9387L466.037 64.7506C465.593 66.5789 464.905 68.3392 463.991 69.9838V69.725L466.872 74.088L466.978 74.2526L466.837 74.4055L460.957 80.5325L460.815 80.6854L460.639 80.5795L456.229 77.91H456.5C454.89 78.8821 453.158 79.6336 451.349 80.1444L451.537 79.9562C451.172 81.685 450.819 83.4019 450.478 84.9895V85.2012H450.267L441.752 85.3423H441.541V85.1424C441.117 83.4137 440.706 81.7085 440.365 80.1326L440.553 80.3208C438.66 79.9015 436.833 79.229 435.12 78.3216H435.379L431.074 81.144L430.91 81.2498L430.769 81.144C428.652 79.086 426.57 77.0868 424.653 75.264L424.512 75.1346L424.618 74.9818L427.288 70.5835V70.8187C426.322 69.208 425.574 67.4758 425.065 65.6678L425.23 65.8207L420.185 64.68H420.02V64.5154C420.02 61.5283 419.938 58.6354 419.891 56.0011V55.8482H420.032L425.042 54.6722L424.912 54.8016C425.365 52.9798 426.061 51.2275 426.982 49.5919V49.7566L424.183 45.4406L424.124 45.3466L424.195 45.276C426.617 42.7946 428.617 40.7366 430.145 39.1843H430.204L433.45 41.207L434.273 41.7362L434.602 41.7833Z" fill="#F5F5F5"/>
<path d="M206.458 60.5518H52.5078V315.391H206.458V60.5518Z" fill="#E0E0E0"/>
<path d="M201.343 60.5518H47.3926V315.391H201.343V60.5518Z" fill="#EBEBEB"/>
<path d="M194.793 65.7148H53.9434V310.217H194.793V65.7148Z" fill="#FAFAFA"/>
<path d="M167.368 97.4902H80.7559V278.453H167.368V97.4902Z" fill="#EBEBEB"/>
<path d="M80.7559 214.408C80.5559 197.509 95.7616 181.01 112.508 178.646C120.493 177.47 128.972 179.104 136.428 176.047C149.74 170.59 153.974 152.903 167.38 147.658L167.992 278.453H80.7559V214.408Z" fill="#E0E0E0"/>
<path d="M418.503 493.473C420.251 492.413 422.134 491.594 424.101 491.039L425.277 485.5L434.626 485.335L435.979 490.827C437.962 491.318 439.872 492.07 441.659 493.061L446.363 489.968L453.09 496.46L450.161 501.293C451.217 503.043 452.035 504.926 452.596 506.891L458.135 508.067L458.299 517.475L452.76 518.757C452.267 520.74 451.516 522.649 450.526 524.437L453.619 529.141L447.127 535.868L442.282 532.939C440.534 533.999 438.651 534.818 436.684 535.374L435.508 540.913L426.159 541.077L424.807 535.574C422.824 535.086 420.914 534.339 419.127 533.351L414.423 536.444L407.696 529.941L410.624 525.107C409.565 523.359 408.746 521.476 408.19 519.51L402.651 518.334L402.486 508.984L408.072 507.679C408.564 505.695 409.315 503.786 410.307 501.999L407.214 497.295L413.705 490.556L418.55 493.496L418.503 493.473ZM423.49 505.938C422.109 507.367 421.183 509.173 420.828 511.128C420.474 513.082 420.708 515.099 421.499 516.921C422.291 518.743 423.605 520.289 425.276 521.364C426.947 522.439 428.899 522.995 430.885 522.96C432.872 522.926 434.803 522.303 436.435 521.17C438.068 520.038 439.327 518.446 440.055 516.598C440.783 514.749 440.946 512.726 440.524 510.785C440.102 508.844 439.114 507.071 437.684 505.692C436.736 504.775 435.617 504.054 434.39 503.57C433.164 503.087 431.854 502.849 430.536 502.872C429.217 502.895 427.916 503.178 426.707 503.704C425.498 504.23 424.405 504.989 423.49 505.938Z" fill="#F5F5F5"/>
<path d="M553.66 549.086C553.66 549.086 554.213 549.086 555.342 549.086H560.457V549.192C533.997 549.322 426.24 549.427 297.41 549.427L106.568 549.333L48.7443 549.192H33.0212L48.7443 549.133L106.568 549.039L297.41 548.945C426.24 548.945 533.997 549.051 560.457 549.18V549.192H555.342C554.213 549.11 553.66 549.086 553.66 549.086Z" fill="#263238"/>
<path d="M509.667 92.1631H246.09V464.073H509.667V92.1631Z" fill="white"/>
<path d="M509.666 464.073C509.666 461.592 509.548 311.864 509.384 92.1632L509.666 92.4337H246.112L246.418 92.1279C246.418 231.496 246.418 360.374 246.359 464.038L246.112 463.791L509.689 464.038L246.112 464.285H245.783V464.038C245.783 360.374 245.783 231.496 245.783 92.1279V91.8457H246.112H509.666H509.948V92.1279C509.783 311.864 509.666 461.592 509.666 464.073Z" fill="#263238"/>
<path d="M368.486 339.088H271.701C267.356 339.088 263.834 342.61 263.834 346.955V357.022C263.834 361.367 267.356 364.889 271.701 364.889H368.486C372.831 364.889 376.354 361.367 376.354 357.022V346.955C376.354 342.61 372.831 339.088 368.486 339.088Z" fill="#F5F5F5"/>
<path d="M485.899 339.088H391.608C387.263 339.088 383.74 342.61 383.74 346.955V357.022C383.74 361.367 387.263 364.889 391.608 364.889H485.899C490.244 364.889 493.767 361.367 493.767 357.022V346.955C493.767 342.61 490.244 339.088 485.899 339.088Z" fill="#F5F5F5"/>
<path d="M487.45 391.961H271.172C266.827 391.961 263.305 395.483 263.305 399.828V409.895C263.305 414.24 266.827 417.762 271.172 417.762H487.45C491.795 417.762 495.318 414.24 495.318 409.895V399.828C495.318 395.483 491.795 391.961 487.45 391.961Z" fill="#F5F5F5"/>
<path d="M315.497 328.704C315.497 328.869 304.63 329.01 291.212 329.01C277.794 329.01 266.928 328.869 266.928 328.704C266.928 328.54 277.794 328.398 291.212 328.398C304.63 328.398 315.497 328.54 315.497 328.704Z" fill="#263238"/>
<path d="M430.415 328.704C430.415 328.869 421.854 329.01 411.294 329.01C400.733 329.01 392.16 328.869 392.16 328.704C392.16 328.54 400.721 328.398 411.294 328.398C421.866 328.398 430.415 328.54 430.415 328.704Z" fill="#263238"/>
<path d="M346.331 381.318C346.331 381.483 328.691 381.624 306.935 381.624C285.179 381.624 267.539 381.483 267.539 381.318C267.539 381.154 285.179 381.013 306.935 381.013C328.691 381.013 346.331 381.154 346.331 381.318Z" fill="#263238"/>
<path d="M487.663 280.512H266.822C262.594 280.512 259.166 283.939 259.166 288.167V301.056C259.166 305.285 262.594 308.712 266.822 308.712H487.663C491.891 308.712 495.319 305.285 495.319 301.056V288.167C495.319 283.939 491.891 280.512 487.663 280.512Z" fill="#E0E0E0"/>
<path d="M427.545 294.611C427.545 294.788 406.589 294.917 380.752 294.917C354.915 294.917 333.947 294.788 333.947 294.611C333.947 294.435 354.904 294.306 380.752 294.306C406.601 294.306 427.545 294.447 427.545 294.611Z" fill="#263238"/>
<path d="M487.663 109.051H266.822C262.594 109.051 259.166 112.478 259.166 116.707V129.595C259.166 133.824 262.594 137.251 266.822 137.251H487.663C491.891 137.251 495.319 133.824 495.319 129.595V116.707C495.319 112.478 491.891 109.051 487.663 109.051Z" fill="#E0E0E0"/>
<path d="M427.545 123.15C427.545 123.315 406.589 123.456 380.752 123.456C354.915 123.456 333.947 123.315 333.947 123.15C333.947 122.986 354.904 122.845 380.752 122.845C406.601 122.845 427.545 122.974 427.545 123.15Z" fill="#263238"/>
<path d="M509.666 144.071C509.666 144.248 450.607 144.389 377.766 144.389C304.924 144.389 245.842 144.248 245.842 144.071C245.842 143.895 304.901 143.766 377.766 143.766C450.63 143.766 509.666 143.907 509.666 144.071Z" fill="#EBEBEB"/>
<path d="M509.666 268.834C509.666 269.01 450.607 269.14 377.766 269.14C304.924 269.14 245.842 269.01 245.842 268.834C245.842 268.658 304.901 268.528 377.766 268.528C450.63 268.528 509.666 268.669 509.666 268.834Z" fill="#EBEBEB"/>
<path d="M368.486 172.354H271.701C267.356 172.354 263.834 175.877 263.834 180.222V190.288C263.834 194.634 267.356 198.156 271.701 198.156H368.486C372.831 198.156 376.354 194.634 376.354 190.288V180.222C376.354 175.877 372.831 172.354 368.486 172.354Z" fill="#F5F5F5"/>
<path d="M485.899 172.354H391.608C387.263 172.354 383.74 175.877 383.74 180.222V190.288C383.74 194.634 387.263 198.156 391.608 198.156H485.899C490.244 198.156 493.767 194.634 493.767 190.288V180.222C493.767 175.877 490.244 172.354 485.899 172.354Z" fill="#F5F5F5"/>
<path d="M487.45 225.228H271.172C266.827 225.228 263.305 228.75 263.305 233.095V243.162C263.305 247.507 266.827 251.029 271.172 251.029H487.45C491.795 251.029 495.318 247.507 495.318 243.162V233.095C495.318 228.75 491.795 225.228 487.45 225.228Z" fill="#F5F5F5"/>
<path d="M315.497 161.971C315.497 162.135 304.63 162.277 291.212 162.277C277.794 162.277 266.928 162.135 266.928 161.971C266.928 161.806 277.794 161.665 291.212 161.665C304.63 161.665 315.497 161.806 315.497 161.971Z" fill="#263238"/>
<path d="M430.415 161.971C430.415 162.135 421.854 162.277 411.294 162.277C400.733 162.277 392.16 162.135 392.16 161.971C392.16 161.806 400.721 161.665 411.294 161.665C421.866 161.665 430.415 161.806 430.415 161.971Z" fill="#263238"/>
<path d="M346.331 214.585C346.331 214.75 328.691 214.891 306.935 214.891C285.179 214.891 267.539 214.75 267.539 214.585C267.539 214.42 285.179 214.279 306.935 214.279C328.691 214.279 346.331 214.42 346.331 214.585Z" fill="#263238"/>
<path d="M487.182 433.439C487.182 433.615 469.977 433.744 448.75 433.744C427.523 433.744 410.33 433.615 410.33 433.439C410.33 433.262 427.523 433.133 448.75 433.133C469.977 433.133 487.182 433.274 487.182 433.439Z" fill="#263238"/>
<path d="M359.079 187.96C358.483 188.156 357.874 188.309 357.257 188.419C352.638 189.268 347.869 188.587 343.674 186.478C342.893 186.073 342.189 185.536 341.592 184.891C340.937 184.196 340.5 183.326 340.334 182.386C340.226 181.885 340.224 181.366 340.327 180.864C340.43 180.362 340.637 179.887 340.934 179.469C341.282 179.037 341.75 178.718 342.279 178.55C342.809 178.383 343.375 178.375 343.909 178.528C344.19 178.61 344.452 178.75 344.676 178.938C344.901 179.126 345.084 179.359 345.214 179.622C345.474 180.155 345.553 180.758 345.438 181.339C345.193 182.479 344.63 183.527 343.815 184.361C342.21 186.162 340.192 187.546 337.935 188.395C335.504 189.313 332.869 189.549 330.314 189.077C328.957 188.846 327.676 188.285 326.586 187.443C325.999 187.012 325.526 186.444 325.21 185.788C324.894 185.131 324.745 184.407 324.775 183.679C324.852 182.932 325.133 182.22 325.587 181.621C326.032 180.983 326.691 180.524 327.445 180.328C327.843 180.249 328.255 180.275 328.641 180.403C329.026 180.531 329.372 180.756 329.644 181.057C330.16 181.663 330.44 182.436 330.432 183.232C330.446 184.011 330.26 184.781 329.891 185.467C329.494 186.143 328.947 186.719 328.292 187.149C326.987 187.93 325.565 188.497 324.082 188.83C321.224 189.642 318.108 190.524 314.932 189.806C313.341 189.461 311.88 188.67 310.722 187.525C310.122 186.942 309.649 186.24 309.333 185.465C309.017 184.69 308.866 183.858 308.888 183.021C308.9 182.483 309.02 181.953 309.24 181.462C309.46 180.972 309.776 180.53 310.17 180.163C310.603 179.821 311.125 179.608 311.674 179.55C312.224 179.492 312.778 179.59 313.274 179.834C313.785 180.063 314.198 180.468 314.437 180.975C314.676 181.481 314.727 182.057 314.58 182.597C314.263 183.594 313.616 184.453 312.745 185.032C309.588 187.197 305.959 188.576 302.161 189.054C300.312 189.372 298.411 189.206 296.646 188.572C295.776 188.22 295.009 187.653 294.417 186.925C293.825 186.198 293.426 185.332 293.259 184.408C293.119 183.483 293.328 182.539 293.845 181.758C294.362 180.978 295.151 180.418 296.058 180.187C296.519 180.098 296.995 180.134 297.437 180.291C297.88 180.448 298.272 180.721 298.574 181.08C299.128 181.777 299.438 182.637 299.456 183.526C299.496 184.387 299.31 185.242 298.915 186.008C298.496 186.729 297.927 187.35 297.245 187.831C295.929 188.692 294.466 189.305 292.929 189.642C290.048 190.406 287.049 190.947 284.321 189.947C283.034 189.483 281.902 188.668 281.052 187.595C280.229 186.568 279.811 185.276 279.876 183.962C280 182.744 280.56 181.612 281.452 180.775C281.856 180.369 282.354 180.071 282.903 179.907C283.451 179.743 284.031 179.718 284.592 179.834H284.709V179.951C284.746 182.259 283.905 184.495 282.357 186.208C281.257 187.496 279.832 188.467 278.229 189.018C277.24 189.36 276.192 189.496 275.148 189.418C274.443 189.312 274.09 189.218 274.09 189.218C275.46 189.442 276.864 189.312 278.171 188.842C279.722 188.275 281.097 187.31 282.157 186.043C283.611 184.361 284.383 182.197 284.321 179.975L284.45 180.128C283.946 180.035 283.426 180.067 282.936 180.22C282.446 180.374 282.001 180.645 281.64 181.01C280.827 181.791 280.322 182.839 280.217 183.962C280.04 186.314 281.934 188.666 284.403 189.512C286.873 190.359 289.872 189.924 292.729 189.148C294.204 188.819 295.606 188.225 296.869 187.396C297.482 186.96 297.995 186.398 298.374 185.749C298.725 185.067 298.887 184.304 298.845 183.538C298.829 182.774 298.564 182.035 298.092 181.433C297.854 181.145 297.543 180.927 297.191 180.8C296.839 180.674 296.46 180.645 296.093 180.716C295.326 180.923 294.662 181.406 294.228 182.072C293.794 182.738 293.621 183.54 293.741 184.326C293.898 185.148 294.259 185.917 294.792 186.562C295.324 187.207 296.01 187.708 296.787 188.019C298.46 188.613 300.259 188.763 302.008 188.454C305.702 187.985 309.231 186.638 312.298 184.526C313.05 184.029 313.617 183.297 313.909 182.445C314.021 182.038 313.982 181.606 313.801 181.226C313.619 180.845 313.307 180.543 312.921 180.375C312.532 180.189 312.099 180.113 311.67 180.157C311.24 180.2 310.831 180.361 310.487 180.622C310.156 180.934 309.891 181.309 309.707 181.725C309.523 182.141 309.425 182.59 309.417 183.044C309.4 183.795 309.539 184.54 309.824 185.234C310.11 185.929 310.536 186.556 311.075 187.078C312.15 188.139 313.504 188.873 314.979 189.195C317.943 189.877 320.989 189.054 323.835 188.242C325.254 187.921 326.615 187.382 327.868 186.643C328.45 186.269 328.937 185.766 329.291 185.173C329.609 184.576 329.771 183.909 329.762 183.232C329.773 182.576 329.548 181.937 329.127 181.433C328.925 181.205 328.666 181.034 328.377 180.937C328.088 180.84 327.779 180.82 327.48 180.88C326.874 181.088 326.34 181.468 325.946 181.973C325.551 182.478 325.312 183.088 325.258 183.726C325.247 184.365 325.395 184.996 325.686 185.564C325.977 186.132 326.403 186.619 326.928 186.984C327.961 187.776 329.172 188.305 330.456 188.524C332.915 188.978 335.452 188.754 337.794 187.878C339.992 187.078 341.959 185.749 343.521 184.009C344.279 183.244 344.809 182.283 345.05 181.233C345.188 180.765 345.143 180.262 344.925 179.826C344.706 179.389 344.331 179.052 343.874 178.881C343.423 178.746 342.943 178.749 342.495 178.889C342.046 179.03 341.65 179.301 341.357 179.669C341.092 180.039 340.907 180.46 340.812 180.905C340.716 181.35 340.714 181.81 340.804 182.256C340.995 183.096 341.377 183.88 341.919 184.549C342.462 185.218 343.15 185.753 343.932 186.114C346.437 187.42 349.174 188.219 351.988 188.466C353.769 188.609 355.561 188.546 357.327 188.278L358.703 188.019C358.827 187.992 358.953 187.972 359.079 187.96Z" fill="#DA693F"/>
<path d="M474.127 186.561C473.66 186.855 473.164 187.099 472.645 187.29C471.172 187.892 469.603 188.222 468.012 188.266C465.482 188.357 462.974 187.772 460.744 186.573C459.314 185.864 458.096 184.789 457.216 183.456C456.731 182.698 456.507 181.802 456.581 180.904C456.633 180.429 456.78 179.969 457.015 179.553C457.249 179.137 457.566 178.772 457.945 178.482C458.355 178.163 458.862 177.997 459.38 178.011C459.912 178.029 460.419 178.243 460.803 178.611C461.17 178.993 461.446 179.452 461.61 179.955C461.775 180.458 461.825 180.991 461.756 181.516C461.566 182.577 461.048 183.552 460.274 184.303C459.512 185.07 458.65 185.731 457.71 186.267C455.746 187.424 453.548 188.127 451.278 188.325C448.848 188.604 446.39 188.15 444.222 187.019C443.087 186.41 442.142 185.498 441.493 184.385C441.169 183.803 440.958 183.164 440.87 182.504C440.805 181.477 441.07 180.456 441.626 179.591C442.183 178.725 443.002 178.061 443.963 177.694C444.312 177.585 444.679 177.547 445.043 177.584C445.407 177.62 445.759 177.73 446.08 177.905C446.711 178.261 447.207 178.815 447.491 179.481C447.769 180.139 447.899 180.849 447.873 181.562C447.846 182.275 447.664 182.974 447.338 183.609C446.672 184.85 445.711 185.908 444.539 186.69C442.206 188.305 439.474 189.249 436.642 189.419C433.809 189.589 430.985 188.978 428.475 187.655C427.237 187.026 426.116 186.191 425.159 185.185C424.15 184.182 423.561 182.832 423.512 181.41C423.527 180.693 423.747 179.996 424.148 179.402C424.548 178.807 425.111 178.341 425.77 178.058C426.116 177.922 426.49 177.873 426.86 177.916C427.229 177.959 427.582 178.093 427.887 178.305C428.468 178.723 428.884 179.33 429.063 180.022C429.228 180.676 429.243 181.358 429.107 182.018C428.97 182.678 428.686 183.298 428.275 183.833C427.514 184.842 426.597 185.723 425.558 186.443C423.679 187.834 421.526 188.811 419.242 189.309C416.957 189.808 414.593 189.817 412.305 189.336C410.178 188.952 408.263 187.806 406.919 186.114C406.295 185.289 405.946 184.29 405.919 183.256C405.891 182.269 406.135 181.292 406.625 180.434C406.852 180.013 407.161 179.643 407.535 179.346C407.909 179.049 408.34 178.831 408.8 178.705C409.244 178.605 409.704 178.605 410.147 178.705C410.59 178.805 411.006 179.002 411.364 179.281C412.004 179.788 412.5 180.452 412.805 181.209C413.111 181.966 413.214 182.789 413.105 183.597C412.863 184.987 412.123 186.242 411.023 187.125C410.131 187.869 409.081 188.399 407.954 188.678C406.411 189.024 404.823 189.124 403.25 188.972L402.074 188.866C401.937 188.883 401.799 188.883 401.662 188.866C401.799 188.85 401.937 188.85 402.074 188.866H403.309C404.888 188.967 406.473 188.833 408.013 188.466C409.095 188.172 410.099 187.642 410.953 186.914C411.964 186.024 412.612 184.793 412.775 183.456C412.864 182.714 412.761 181.961 412.477 181.27C412.193 180.578 411.737 179.971 411.152 179.505C410.836 179.266 410.471 179.099 410.083 179.016C409.695 178.933 409.293 178.935 408.906 179.023C408.504 179.144 408.13 179.343 407.805 179.61C407.48 179.876 407.211 180.204 407.013 180.575C406.55 181.371 406.331 182.286 406.383 183.206C406.435 184.126 406.757 185.01 407.307 185.749C408.596 187.334 410.411 188.403 412.423 188.76C414.639 189.227 416.93 189.219 419.143 188.736C421.357 188.254 423.443 187.308 425.264 185.961C426.245 185.266 427.11 184.42 427.828 183.456C428.189 182.993 428.438 182.453 428.559 181.878C428.679 181.304 428.666 180.709 428.522 180.14C428.385 179.583 428.056 179.091 427.593 178.752C427.366 178.593 427.104 178.492 426.829 178.459C426.554 178.426 426.275 178.462 426.017 178.564C425.47 178.806 425.004 179.199 424.672 179.697C424.341 180.195 424.159 180.777 424.147 181.375C424.207 182.64 424.74 183.836 425.641 184.726C426.557 185.681 427.626 186.476 428.804 187.078C431.221 188.332 433.93 188.913 436.648 188.76C439.366 188.602 441.988 187.695 444.222 186.137C445.324 185.437 446.237 184.476 446.879 183.339C447.164 182.784 447.325 182.173 447.352 181.55C447.378 180.927 447.269 180.305 447.032 179.728C446.831 179.174 446.43 178.716 445.907 178.443C445.385 178.171 444.779 178.105 444.21 178.258C443.38 178.586 442.674 179.166 442.192 179.918C441.711 180.67 441.479 181.554 441.529 182.445C441.605 183.028 441.793 183.591 442.081 184.103C442.674 185.128 443.542 185.967 444.586 186.526C446.641 187.604 448.97 188.046 451.278 187.796C453.461 187.599 455.574 186.92 457.463 185.808C458.366 185.303 459.197 184.678 459.933 183.95C460.638 183.273 461.115 182.394 461.297 181.433C461.36 180.981 461.321 180.52 461.183 180.084C461.045 179.649 460.81 179.25 460.497 178.917C460.193 178.624 459.793 178.452 459.371 178.432C458.949 178.413 458.534 178.547 458.204 178.811C457.879 179.069 457.607 179.389 457.406 179.752C457.204 180.116 457.076 180.515 457.028 180.928C456.962 181.752 457.16 182.576 457.593 183.28C458.439 184.555 459.602 185.588 460.968 186.279C463.123 187.478 465.558 188.086 468.024 188.043C469.589 188.014 471.138 187.728 472.61 187.196C473.622 186.82 474.104 186.526 474.127 186.561Z" fill="#DA693F"/>
<path d="M364.795 238.505C364.654 238.595 364.504 238.67 364.348 238.728L362.995 239.339C361.819 239.869 360.044 240.645 357.727 241.515C354.909 242.603 351.984 243.391 349.001 243.867C347.132 244.14 345.244 244.255 343.356 244.208C341.225 244.249 339.102 243.931 337.076 243.267C335.94 242.881 334.914 242.228 334.083 241.362C333.252 240.496 332.641 239.444 332.302 238.293C332.128 237.668 332.08 237.014 332.161 236.37C332.242 235.726 332.449 235.104 332.772 234.541C333.097 233.943 333.562 233.431 334.127 233.05C334.692 232.669 335.341 232.431 336.018 232.354C336.733 232.342 337.435 232.542 338.036 232.929C338.637 233.317 339.109 233.874 339.393 234.53C340.035 235.833 340.141 237.336 339.687 238.716C339.195 240.089 338.347 241.307 337.229 242.244C336.111 243.193 334.869 243.984 333.537 244.596C330.789 246.024 327.614 246.397 324.611 245.643C323.057 245.164 321.661 244.275 320.569 243.071C319.476 241.867 318.728 240.391 318.402 238.799C318.26 237.977 318.26 237.138 318.402 236.317C318.515 235.455 318.865 234.641 319.413 233.965C319.674 233.598 320.01 233.292 320.4 233.067C320.789 232.842 321.223 232.703 321.671 232.66C322.147 232.651 322.614 232.793 323.005 233.065C323.396 233.338 323.69 233.727 323.846 234.177C324.071 235.023 324.11 235.908 323.96 236.771C323.81 237.634 323.474 238.454 322.976 239.175C322.107 240.653 320.994 241.973 319.683 243.079C317.105 245.286 313.809 246.475 310.416 246.423C307.023 246.371 303.765 245.082 301.255 242.797C300.049 241.675 299.226 240.202 298.903 238.587C298.742 237.772 298.795 236.929 299.056 236.141C299.342 235.367 299.815 234.677 300.432 234.13C301.043 233.571 301.81 233.213 302.631 233.107C303.052 233.046 303.481 233.079 303.887 233.203C304.294 233.327 304.668 233.539 304.983 233.824C305.534 234.4 305.921 235.112 306.105 235.887C306.289 236.662 306.263 237.472 306.03 238.234C305.571 239.664 304.729 240.941 303.596 241.927C302.551 242.899 301.404 243.755 300.174 244.479C297.821 245.869 295.207 246.758 292.494 247.089C289.959 247.424 287.381 247.195 284.944 246.419C283.785 246.031 282.725 245.392 281.84 244.549C280.983 243.733 280.396 242.674 280.158 241.515C279.903 240.409 280.01 239.251 280.464 238.211C280.681 237.709 281.021 237.27 281.453 236.935C281.884 236.6 282.394 236.379 282.933 236.294C283.44 236.217 283.958 236.247 284.452 236.383C284.946 236.518 285.406 236.756 285.803 237.082C286.177 237.394 286.458 237.801 286.618 238.261C286.777 238.721 286.809 239.216 286.708 239.692C286.512 240.561 286.037 241.341 285.356 241.915C284.755 242.441 284.087 242.883 283.368 243.232C282.128 243.846 280.833 244.342 279.499 244.714C277.663 245.24 275.765 245.521 273.855 245.549C273.191 245.572 272.527 245.545 271.867 245.466H272.373C272.714 245.466 273.208 245.466 273.855 245.466C275.744 245.381 277.616 245.065 279.429 244.526C280.741 244.132 282.016 243.624 283.239 243.009C283.93 242.666 284.571 242.23 285.144 241.715C285.744 241.175 286.155 240.458 286.32 239.669C286.405 239.251 286.374 238.817 286.231 238.416C286.088 238.014 285.838 237.658 285.509 237.387C285.149 237.104 284.734 236.898 284.291 236.78C283.849 236.663 283.386 236.638 282.933 236.705C282.459 236.786 282.012 236.986 281.636 237.286C281.26 237.586 280.965 237.977 280.781 238.422C280.371 239.379 280.28 240.443 280.523 241.456C280.809 242.545 281.378 243.538 282.171 244.337C282.963 245.136 283.952 245.712 285.038 246.007C287.405 246.753 289.908 246.961 292.365 246.619C296.403 246.113 300.178 244.343 303.149 241.562C304.212 240.645 305.001 239.453 305.43 238.116C305.633 237.455 305.657 236.752 305.5 236.079C305.343 235.406 305.011 234.786 304.536 234.283C303.984 233.862 303.295 233.662 302.603 233.723C301.911 233.784 301.267 234.101 300.797 234.612C300.269 235.093 299.866 235.694 299.621 236.364C299.395 237.059 299.35 237.8 299.491 238.516C299.809 240.01 300.586 241.367 301.714 242.397C304.12 244.579 307.24 245.809 310.487 245.854C313.735 245.9 316.888 244.758 319.354 242.644C320.619 241.587 321.689 240.317 322.518 238.893C322.947 238.219 323.254 237.474 323.423 236.693C323.613 235.945 323.588 235.159 323.352 234.424C323.244 234.086 323.033 233.791 322.748 233.58C322.463 233.369 322.119 233.253 321.765 233.248C321.404 233.292 321.057 233.41 320.745 233.597C320.433 233.783 320.163 234.033 319.954 234.33C319.513 234.949 319.206 235.655 319.054 236.4C318.902 237.146 318.908 237.914 319.072 238.657C319.379 240.141 320.077 241.516 321.095 242.639C322.112 243.762 323.411 244.592 324.858 245.043C327.721 245.763 330.749 245.411 333.372 244.055C335.936 242.82 338.394 241.033 339.252 238.481C339.664 237.234 339.572 235.874 338.993 234.694C338.759 234.127 338.361 233.643 337.85 233.303C337.338 232.964 336.737 232.785 336.124 232.789C335.528 232.859 334.958 233.07 334.46 233.406C333.963 233.741 333.554 234.191 333.266 234.718C332.971 235.225 332.78 235.785 332.705 236.367C332.631 236.949 332.673 237.54 332.831 238.105C333.145 239.189 333.715 240.182 334.493 241.001C335.27 241.819 336.233 242.439 337.3 242.809C339.277 243.474 341.353 243.8 343.439 243.773C345.306 243.834 347.174 243.736 349.025 243.479C351.989 243.046 354.901 242.309 357.715 241.28C360.067 240.445 361.808 239.704 363.019 239.222L364.395 238.657L364.795 238.505Z" fill="#DA693F"/>
<path d="M476.28 497.248C476.28 497.248 449.232 466.107 439 434.92C428.769 403.732 433.65 407.354 433.65 407.354C433.65 407.354 447.432 437.601 457.899 452.219C468.365 466.836 487.005 488.275 487.005 488.275L476.28 497.248Z" fill="#455A64"/>
<path d="M481.713 412.235C481.531 411.917 481.244 411.673 480.902 411.544C480.559 411.415 480.183 411.409 479.836 411.527C479.49 411.645 479.196 411.88 479.004 412.192C478.812 412.503 478.734 412.872 478.784 413.234C480.431 424.183 483.994 449.855 483.865 466.507C483.677 488.134 483.865 496.495 483.865 496.495H495.096C495.096 496.495 493.096 451.807 490.544 438.142C488.804 428.593 485.017 417.974 481.713 412.235Z" fill="#455A64"/>
<path d="M487.863 492.861C492.58 482.167 495.702 470.84 497.13 459.239C498.059 451.266 496.401 440.506 493.943 426.147C492.985 420.897 492.509 415.572 492.52 410.235C492.522 409.639 492.723 409.059 493.091 408.589C493.459 408.119 493.973 407.786 494.553 407.641C495.132 407.497 495.743 407.55 496.288 407.792C496.834 408.034 497.283 408.451 497.565 408.977C498.918 411.4 502.857 419.679 503.857 424.877C506.585 439.059 509.666 446.151 507.314 459.592C504.962 473.034 496.272 493.767 496.272 493.767L487.863 492.861Z" fill="#455A64"/>
<path d="M498 493.767C498 493.767 527.718 429.922 529.752 420.444C531.787 410.965 538.807 389.15 539.631 390.385C540.454 391.62 541.7 403.145 536.338 416.328C530.975 429.511 508.114 495.72 508.114 495.72H497.965" fill="#455A64"/>
<path d="M484.605 490.91C484.311 490.746 484.032 490.557 483.77 490.345C483.241 489.945 482.441 489.381 481.418 488.581C478.64 486.364 475.975 484.009 473.433 481.525C465.071 473.282 457.824 463.979 451.877 453.854C445.957 443.73 441.03 433.057 437.165 421.984C435.672 417.739 434.59 414.27 433.873 411.859C433.52 410.683 433.261 409.719 433.085 409.072C432.983 408.753 432.909 408.427 432.861 408.096C433.008 408.398 433.126 408.713 433.214 409.037L434.108 411.788C434.896 414.14 436.048 417.668 437.636 421.831C441.61 432.844 446.577 443.471 452.477 453.583C458.401 463.661 465.564 472.957 473.798 481.255C476.985 484.418 479.678 486.817 481.63 488.428C482.571 489.251 483.347 489.839 483.853 490.275C484.118 490.468 484.37 490.681 484.605 490.91Z" fill="#263238"/>
<path d="M487.851 460.286C487.719 459.666 487.632 459.037 487.592 458.405L487.039 453.289C486.569 448.973 485.863 443.011 484.782 436.472C483.7 429.934 482.559 424.03 481.653 419.785L480.571 414.752C480.401 414.145 480.29 413.522 480.242 412.894C480.474 413.479 480.663 414.08 480.807 414.693C481.148 415.869 481.583 417.574 482.089 419.691C483.112 423.924 484.358 429.804 485.417 436.367C486.475 442.929 487.134 448.914 487.486 453.242C487.663 455.418 487.78 457.17 487.839 458.393C487.899 459.023 487.903 459.656 487.851 460.286Z" fill="#263238"/>
<path d="M494.813 408.472C494.959 408.729 495.078 409.001 495.166 409.283C495.389 409.883 495.683 410.671 496.06 411.635C496.436 412.599 496.906 413.928 497.33 415.434C497.753 416.939 498.341 418.621 498.776 420.549L499.517 423.548C499.764 424.595 499.941 425.7 500.164 426.829C500.646 429.099 500.952 431.533 501.34 434.144C502.698 445.387 502.301 456.773 500.164 467.895C499.611 470.435 499.141 472.869 498.494 475.092C498.188 476.209 497.93 477.303 497.612 478.326C497.295 479.349 496.965 480.337 496.659 481.266C496.095 483.159 495.401 484.794 494.848 486.264C494.296 487.734 493.778 488.969 493.308 489.968L492.249 492.321C492.142 492.594 492.004 492.854 491.838 493.097C491.916 492.812 492.015 492.533 492.132 492.262C492.379 491.674 492.685 490.886 493.084 489.91C493.484 488.934 494.013 487.652 494.519 486.182C495.025 484.712 495.695 483.054 496.236 481.172C496.518 480.231 496.824 479.243 497.142 478.232C497.459 477.221 497.694 476.115 497.988 474.998C498.612 472.775 499.059 470.353 499.588 467.824C501.655 456.75 502.052 445.429 500.764 434.238C500.423 431.674 500.14 429.228 499.682 426.97C499.47 425.794 499.305 424.736 499.07 423.689C498.835 422.642 498.6 421.643 498.376 420.69C497.977 418.762 497.436 417.068 497.024 415.575C496.612 414.081 496.213 412.788 495.848 411.741L495.072 409.389C494.95 409.094 494.863 408.787 494.813 408.472Z" fill="#263238"/>
<path d="M539.325 391.667C539.33 391.761 539.33 391.855 539.325 391.949C539.325 392.173 539.243 392.443 539.184 392.784C539.055 393.502 538.89 394.584 538.596 395.959C538.031 398.711 537.067 402.663 535.585 407.449C534.104 412.235 532.057 417.88 529.705 424.054C527.353 430.228 524.519 436.99 521.885 444.14C519.251 451.29 517.181 458.252 515.205 464.626C513.23 471 511.454 476.657 509.702 481.361C508.334 485.085 506.764 488.732 504.998 492.286C504.386 493.544 503.822 494.485 503.481 495.143L503.069 495.872C503.025 495.958 502.969 496.037 502.904 496.108L503.01 495.837C503.116 495.637 503.234 495.378 503.375 495.073C503.692 494.414 504.198 493.45 504.774 492.168C505.95 489.64 507.573 485.923 509.266 481.208C510.96 476.492 512.794 470.8 514.629 464.45C516.464 458.099 518.592 451.102 521.273 443.917C523.955 436.731 526.718 430.005 529.153 423.842C531.587 417.68 533.657 412.082 535.185 407.32C536.714 402.557 537.737 398.629 538.384 395.901C538.713 394.548 538.913 393.478 539.09 392.761C539.16 392.431 539.231 392.161 539.278 391.937C539.279 391.845 539.295 391.754 539.325 391.667Z" fill="#263238"/>
<path d="M447.703 377.555C447.292 377.168 446.764 376.927 446.202 376.871C445.64 376.815 445.075 376.946 444.595 377.243C444.115 377.541 443.747 377.989 443.548 378.517C443.349 379.046 443.329 379.625 443.493 380.165C444.506 383.453 445.751 386.663 447.221 389.773C451.302 398.452 463.309 429.593 468.918 446.704C474.528 463.814 482.454 495.719 482.454 495.719L494.449 493.767C494.449 493.767 483.477 441.341 472.752 422.443C464.132 407.272 455.523 385.328 447.703 377.555Z" fill="#455A64"/>
<path d="M472.199 457.394C472.463 457.849 472.672 458.335 472.822 458.84C473.175 459.781 473.657 461.192 474.21 462.862C475.316 466.284 476.656 471.094 478.02 476.374C479.385 481.654 480.514 486.511 481.301 490.016C481.666 491.674 481.96 493.062 482.207 494.167C482.347 494.674 482.43 495.194 482.454 495.719C482.236 495.241 482.07 494.74 481.96 494.226C481.678 493.132 481.301 491.756 480.866 490.122C479.949 486.511 478.738 481.772 477.409 476.527C476.08 471.282 474.763 466.437 473.775 462.991L472.599 458.911C472.418 458.419 472.284 457.911 472.199 457.394Z" fill="#263238"/>
<path d="M488.476 494.743C488.438 494.641 488.414 494.534 488.405 494.425C488.405 494.178 488.335 493.861 488.276 493.473C488.146 492.65 488.041 491.415 487.782 489.851C487.347 486.699 486.606 482.16 485.265 476.621C483.734 470.137 481.862 463.738 479.656 457.452C477.198 450.396 474.105 442.67 470.612 434.732C463.556 418.856 456.5 404.779 451.879 394.359C449.527 389.173 447.727 384.951 446.528 381.976C445.916 380.506 445.481 379.354 445.175 378.566C445.046 378.201 444.94 377.907 444.846 377.672C444.8 377.571 444.768 377.464 444.752 377.354C444.814 377.446 444.865 377.545 444.905 377.648L445.293 378.519C445.646 379.33 446.14 380.459 446.751 381.882C448.021 384.81 449.891 389.009 452.278 394.183C456.982 404.532 464.121 418.573 471.188 434.473C474.716 442.434 477.774 450.125 480.208 457.264C482.387 463.575 484.216 470.002 485.689 476.515C486.695 480.906 487.48 485.345 488.041 489.815C488.252 491.391 488.335 492.626 488.417 493.461C488.417 493.853 488.44 494.17 488.487 494.414C488.499 494.523 488.495 494.634 488.476 494.743Z" fill="#263238"/>
<path d="M494.448 493.767C494.253 493.11 494.115 492.437 494.037 491.756C493.802 490.344 493.484 488.486 493.108 486.24C492.285 481.536 491.014 475.198 489.203 468.224C487.392 461.25 485.381 455.053 483.829 450.584L481.948 445.315C481.687 444.682 481.474 444.029 481.312 443.363C481.658 443.959 481.949 444.585 482.183 445.233C482.7 446.409 483.418 448.22 484.252 450.431C486.42 456.208 488.276 462.096 489.815 468.071C491.366 474.037 492.614 480.078 493.555 486.17C493.896 488.522 494.154 490.403 494.284 491.72C494.384 492.398 494.439 493.082 494.448 493.767Z" fill="#263238"/>
<path d="M519.063 492.05H472.246V549.086H519.063V492.05Z" fill="#DA693F"/>
<g opacity="0.3">
<path d="M519.063 492.05H472.246V549.086H519.063V492.05Z" fill="black"/>
</g>
<path d="M504.128 492.05H462.592V549.086H504.128V492.05Z" fill="#DA693F"/>
<path d="M123.69 189.642L122.361 296.799C122.138 315.015 125.525 341.828 154.349 340.875C179.303 338.159 185.924 314.545 186.101 297.54C186.195 289.472 186.289 282.746 186.348 281.923C186.348 281.923 213.654 279.688 215.959 252.711C217.076 239.681 217.135 212.644 217.006 188.184C216.903 175.514 212.034 163.349 203.367 154.107C194.701 144.865 182.873 139.225 170.236 138.309L167.626 138.109C139.425 137.71 123.326 161.43 123.69 189.642Z" fill="#FAC7B5"/>
<path d="M186.359 281.923C186.359 281.923 169.272 281.676 151.973 268.987C151.973 268.987 159.099 289.332 186.218 288.862L186.359 281.923Z" fill="#EB996E"/>
<path d="M170.895 199.239C170.366 199.791 167.25 197.275 162.722 197.157C158.195 197.04 154.831 199.25 154.361 198.674C154.126 198.415 154.678 197.416 156.16 196.381C158.141 195.053 160.492 194.386 162.875 194.476C165.233 194.536 167.507 195.361 169.355 196.828C170.719 197.969 171.166 199.003 170.895 199.239Z" fill="#263238"/>
<path d="M170.766 208.588C170.702 209.538 170.272 210.427 169.565 211.065C168.858 211.704 167.931 212.043 166.979 212.01C166.043 212.01 165.146 211.638 164.484 210.977C163.823 210.315 163.451 209.418 163.451 208.482C163.512 207.533 163.94 206.644 164.645 206.005C165.349 205.366 166.275 205.027 167.226 205.06C167.69 205.058 168.15 205.148 168.58 205.325C169.009 205.502 169.4 205.761 169.728 206.089C170.057 206.417 170.318 206.806 170.496 207.235C170.674 207.664 170.766 208.123 170.766 208.588Z" fill="#263238"/>
<path d="M182.279 230.673C182.279 230.438 184.89 230.179 189.1 229.956C190.17 229.956 191.193 229.779 191.452 229.074C191.624 227.988 191.46 226.876 190.982 225.887L188.336 217.561C184.808 205.801 182.373 196.087 182.844 195.946C183.314 195.805 186.56 205.272 190.064 217.114C190.911 220.03 191.711 222.794 192.416 225.452C192.734 226.687 193.322 228.098 192.663 229.65C192.484 230.014 192.222 230.331 191.9 230.578C191.578 230.825 191.203 230.994 190.805 231.073C190.209 231.189 189.6 231.228 188.994 231.191C184.831 231.085 182.279 230.92 182.279 230.673Z" fill="#263238"/>
<path d="M168.978 182.28C168.543 183.292 164.921 182.527 160.593 182.751C156.265 182.974 152.69 183.927 152.196 182.974C151.973 182.504 152.643 181.587 154.113 180.693C156.052 179.587 158.233 178.973 160.464 178.905C162.68 178.788 164.891 179.225 166.896 180.175C168.425 180.905 169.166 181.775 168.978 182.28Z" fill="#263238"/>
<path d="M211.89 190.618C211.42 191.441 207.892 190.536 203.658 190.406C199.425 190.277 195.838 190.818 195.426 189.96C195.238 189.56 195.944 188.784 197.426 188.172C199.435 187.374 201.593 187.017 203.752 187.125C205.932 187.193 208.072 187.722 210.032 188.678C211.42 189.442 212.102 190.23 211.89 190.618Z" fill="#263238"/>
<path d="M124.444 209.799C123.997 209.564 106.286 202.955 105.534 221.453C104.781 239.952 123.48 236.906 123.562 236.377C123.644 235.847 124.444 209.799 124.444 209.799Z" fill="#FAC7B5"/>
<path d="M118.198 229.133C118.116 229.074 117.857 229.344 117.304 229.568C116.548 229.865 115.708 229.865 114.952 229.568C113.023 228.768 111.506 225.605 111.553 222.265C111.573 220.678 111.947 219.115 112.647 217.69C112.845 217.122 113.179 216.61 113.619 216.2C114.06 215.791 114.594 215.495 115.176 215.338C115.548 215.253 115.938 215.302 116.278 215.476C116.618 215.65 116.886 215.939 117.034 216.291C117.269 216.82 117.128 217.185 117.234 217.22C117.339 217.255 117.645 216.926 117.516 216.161C117.434 215.704 117.197 215.289 116.845 214.985C116.351 214.58 115.719 214.382 115.081 214.433C114.308 214.549 113.577 214.862 112.959 215.341C112.341 215.821 111.857 216.452 111.553 217.173C110.708 218.743 110.252 220.493 110.225 222.277C110.225 226.016 111.965 229.58 114.599 230.509C115.092 230.67 115.613 230.721 116.128 230.658C116.642 230.595 117.136 230.42 117.575 230.144C118.139 229.58 118.257 229.168 118.198 229.133Z" fill="#EB996E"/>
<path d="M177.858 243.491C178.058 243.021 174.436 241.939 171.884 238.528C170.823 237.04 169.961 235.419 169.32 233.707C168.779 232.354 168.368 231.519 168.144 231.578C167.921 231.637 167.992 232.542 168.297 234.012C168.681 235.964 169.484 237.81 170.649 239.422C171.858 241.033 173.485 242.282 175.353 243.032C176.847 243.609 177.799 243.644 177.858 243.491Z" fill="#263238"/>
<path d="M212.102 200.944C211.561 201.485 208.445 198.98 203.87 198.862C199.295 198.745 195.979 200.955 195.497 200.379C195.262 200.121 195.826 199.121 197.296 198.086C199.277 196.758 201.628 196.091 204.011 196.181C206.373 196.241 208.651 197.066 210.503 198.533C211.914 199.674 212.361 200.697 212.102 200.944Z" fill="#263238"/>
<path d="M211.362 209.904C211.298 210.855 210.867 211.743 210.161 212.382C209.454 213.02 208.527 213.359 207.575 213.326C206.639 213.326 205.742 212.955 205.08 212.293C204.419 211.631 204.047 210.734 204.047 209.798C204.11 208.848 204.541 207.96 205.248 207.321C205.954 206.682 206.882 206.344 207.834 206.376C208.769 206.376 209.667 206.748 210.328 207.41C210.99 208.071 211.362 208.968 211.362 209.904Z" fill="#263238"/>
<path d="M235.835 152.363C233.997 149.378 231.147 147.153 227.805 146.095C224.462 145.037 220.851 145.217 217.63 146.601C218.457 142.319 217.862 137.884 215.934 133.973C214.007 130.061 210.853 126.887 206.954 124.934C203.055 122.981 198.624 122.356 194.337 123.156C190.05 123.955 186.142 126.134 183.209 129.36C182.975 128.216 182.499 127.136 181.811 126.192C181.123 125.249 180.24 124.464 179.222 123.892C177.182 122.755 174.919 122.077 172.589 121.905C167.069 121.292 161.485 122.138 156.394 124.359C151.304 126.579 146.884 130.096 143.578 134.558C138.199 133.92 132.745 134.555 127.656 136.412C122.568 138.269 117.987 141.295 114.283 145.248C105.593 154.88 103.946 177.188 113.472 196.463L115.706 208.54C118.693 208.54 121.422 208.752 123.268 210.399C125.773 212.645 126.89 216.878 131.041 215.279C133.158 214.456 135.087 210.022 135.745 207.87C140.442 193.512 141.998 178.312 140.308 163.3C143.274 160.141 146.819 157.581 150.751 155.762L150.434 156.056C157.972 153.433 166.498 150.858 173.648 154.397C179.199 157.138 182.468 162.9 186.584 167.486C190.414 171.728 195.063 175.151 200.251 177.548C205.439 179.945 211.059 181.267 216.772 181.434C217.172 189.031 216.537 199.768 216.936 207.306L223.44 195.216C223.945 194.347 224.404 193.452 224.816 192.535L224.957 192.253C226.133 191.3 227.003 189.56 228.979 187.302C230.866 185.083 232.108 182.389 232.571 179.513C233.033 176.637 232.698 173.689 231.601 170.991C234.428 168.913 236.412 165.887 237.189 162.466C237.967 159.045 237.486 155.458 235.835 152.363Z" fill="#263238"/>
<path d="M224.767 152.646C224.767 152.646 224.838 152.775 224.908 153.045C225.004 153.431 225.059 153.825 225.073 154.221C225.133 155.736 224.762 157.237 224.003 158.549C223.465 159.455 222.763 160.252 221.933 160.901C220.947 161.656 219.786 162.149 218.558 162.336C217.13 162.56 215.669 162.411 214.317 161.902C212.965 161.393 211.768 160.541 210.843 159.431L211.302 159.043C211.747 159.531 212.092 160.102 212.316 160.724C212.54 161.345 212.639 162.005 212.607 162.665C212.593 163.547 212.403 164.418 212.047 165.226C211.692 166.034 211.178 166.762 210.537 167.369C209.321 168.45 207.785 169.107 206.163 169.239C203.465 169.436 200.782 168.696 198.566 167.146C197.089 166.143 195.725 164.984 194.497 163.688C194.026 163.239 193.593 162.751 193.203 162.23C193.721 162.624 194.208 163.057 194.661 163.524C195.94 164.732 197.326 165.822 198.801 166.781C200.952 168.219 203.526 168.886 206.104 168.674C207.599 168.538 209.012 167.929 210.138 166.934C211.288 165.821 211.955 164.301 211.996 162.7C212.039 161.521 211.617 160.372 210.82 159.502L211.278 159.102C212.135 160.133 213.243 160.928 214.494 161.41C215.746 161.892 217.101 162.045 218.428 161.854C219.5 161.692 220.522 161.291 221.418 160.68C222.314 160.069 223.06 159.264 223.603 158.326C224.353 157.078 224.759 155.654 224.779 154.198C224.873 153.21 224.72 152.657 224.767 152.646Z" fill="#455A64"/>
<path d="M201.624 132.371C201.624 132.371 201.765 132.371 202.024 132.547C202.381 132.754 202.722 132.986 203.047 133.241C204.275 134.189 205.239 135.436 205.846 136.863C206.294 137.942 206.471 139.114 206.36 140.277C206.25 141.439 205.855 142.557 205.211 143.531C204.432 144.722 203.222 145.565 201.835 145.883C201.097 146.043 200.334 146.052 199.592 145.908C198.85 145.765 198.145 145.472 197.52 145.048C197.133 144.756 196.789 144.412 196.496 144.025L197.026 143.719C197.293 144.385 197.418 145.099 197.394 145.816C197.369 146.533 197.196 147.236 196.885 147.883C196.343 149.087 195.393 150.061 194.203 150.634C193.216 151.093 192.14 151.331 191.052 151.331C189.963 151.331 188.887 151.093 187.9 150.634C186.599 150.034 185.441 149.164 184.501 148.082C184.135 147.709 183.83 147.28 183.596 146.812C183.596 146.812 183.972 147.224 184.666 147.918C185.637 148.913 186.791 149.712 188.065 150.27C188.996 150.669 190.002 150.867 191.016 150.848C192.03 150.83 193.028 150.597 193.945 150.164C194.99 149.621 195.82 148.737 196.297 147.659C196.566 147.088 196.715 146.468 196.735 145.837C196.755 145.206 196.646 144.577 196.414 143.99L195.426 141.72L196.943 143.696C197.192 144.029 197.489 144.322 197.825 144.566C198.38 144.945 199.006 145.206 199.665 145.336C200.324 145.465 201.002 145.459 201.659 145.319C202.892 145.051 203.975 144.318 204.681 143.273C205.289 142.375 205.669 141.343 205.79 140.265C205.911 139.188 205.768 138.097 205.375 137.087C204.828 135.702 203.957 134.468 202.835 133.488C202.106 132.712 201.589 132.418 201.624 132.371Z" fill="#455A64"/>
<path d="M358.68 267.258L315.932 299.88C315.334 300.34 314.835 300.918 314.468 301.577C314.1 302.237 313.872 302.964 313.796 303.715C313.72 304.466 313.798 305.225 314.026 305.945C314.254 306.665 314.626 307.33 315.121 307.901C316.046 308.97 317.347 309.643 318.754 309.781C320.161 309.919 321.567 309.511 322.683 308.641L365.019 275.713L370.746 264.412L358.68 267.258Z" fill="#DA693F"/>
<path opacity="0.5" d="M365.265 265.694L368.287 269.222L365.018 275.714C364.624 275.755 364.227 275.707 363.855 275.571C363.484 275.436 363.148 275.218 362.874 274.933C362.599 274.649 362.393 274.305 362.272 273.929C362.15 273.553 362.116 273.154 362.172 272.762C361.785 272.816 361.391 272.772 361.026 272.635C360.66 272.499 360.334 272.273 360.078 271.979C359.821 271.685 359.642 271.332 359.555 270.951C359.469 270.571 359.479 270.174 359.584 269.799C359.584 269.799 357.362 269.599 358.62 267.258L365.265 265.694Z" fill="white"/>
<path d="M315.932 299.845L322.941 308.406L325.293 306.583L318.578 297.834L315.932 299.845Z" fill="#263238"/>
<path d="M312.816 381.565L311.275 381.283L342.722 326.317L337.735 310.464C337.735 310.464 331.973 287.897 336.771 282.135C336.771 282.135 347.273 269.763 350.683 269.939C354.094 270.116 356.81 270.786 357.492 273.35C357.492 273.35 363.29 272.668 364.819 274.526C365.841 275.811 366.754 277.18 367.547 278.618C367.547 278.618 373.85 278.101 375.556 283.557C375.556 283.557 381.518 286.627 382.035 291.049C382.553 295.47 380.859 316.097 378.966 321.378C377.073 326.658 370.099 337.736 368.064 354.094C366.03 370.452 358.809 381.071 352.4 404.968L335.007 411.847L312.816 381.565Z" fill="#FAC7B5"/>
<path d="M357.197 272.997C357.326 273.173 355.162 274.608 353.527 277.254C351.893 279.9 351.505 282.44 351.281 282.405C351.303 280.448 351.863 278.535 352.9 276.875C353.937 275.216 355.412 273.874 357.161 272.997H357.197Z" fill="#EB996E"/>
<path d="M367.205 278.618C367.322 278.806 365.252 280.053 363.618 282.428C361.983 284.804 361.466 287.132 361.266 287.132C361.066 287.132 361.266 284.557 363.041 282.052C364.004 280.472 365.47 279.263 367.205 278.618Z" fill="#EB996E"/>
<path d="M375.226 283.416C375.355 283.581 373.791 284.957 372.356 287.026C370.921 289.096 370.145 291.036 369.945 290.966C370.124 289.375 370.757 287.868 371.768 286.626C372.583 285.242 373.785 284.126 375.226 283.416Z" fill="#EB996E"/>
<path d="M345.742 285.204C344.602 284.833 343.413 284.631 342.214 284.605C341.038 284.788 339.896 285.149 338.827 285.675C338.769 285.675 338.992 285.228 339.568 284.805C340.334 284.274 341.23 283.96 342.16 283.898C343.09 283.836 344.019 284.027 344.849 284.452C345.46 284.793 345.742 285.134 345.742 285.204Z" fill="#EB996E"/>
<path d="M358.231 293.048C357.519 291.893 356.643 290.847 355.632 289.943C353.857 288.555 351.928 288.473 351.951 288.261C351.975 288.049 352.434 288.061 353.221 288.155C354.256 288.314 355.234 288.73 356.066 289.365C356.898 290 357.558 290.833 357.984 291.789C358.29 292.53 358.314 293.024 358.231 293.048Z" fill="#EB996E"/>
<path d="M370.685 295.705C370.532 295.858 369.156 294.306 366.816 293.694C365.383 293.419 363.918 293.347 362.465 293.483C362.465 293.4 362.876 293.118 363.711 292.918C364.801 292.689 365.93 292.72 367.005 293.01C368.08 293.301 369.071 293.841 369.897 294.588C370.509 295.176 370.744 295.658 370.685 295.705Z" fill="#EB996E"/>
<path d="M53.4012 355.67C53.4012 355.67 34.1031 465.132 35.0556 475.375C36.0082 485.618 41.112 501.894 52.6956 504.681C60.0529 506.325 67.6824 506.325 75.0396 504.681L61.1511 370.229L53.4012 355.67Z" fill="#DA693F"/>
<path d="M109.838 299.198C109.838 299.198 86.7645 315.662 81.6137 320.425C60.281 340.594 55.824 348.849 53.3897 355.705C50.9553 362.561 68.2073 520.969 68.2073 520.969L71.7353 548.663L233.635 549.075V407.614L209.327 308.042L194.357 303.785L191.334 291.919C191.334 291.919 172.742 278.183 142.072 277.807C132.664 277.678 119.281 281.394 111.825 287.215L109.838 299.198Z" fill="#DA693F"/>
<path d="M191.169 308.453C191.169 308.453 207.809 307.712 209.279 308.041C214.407 309.217 228.483 322.153 244.559 338.053C259.847 353.223 289.976 384.799 289.976 384.799C289.976 384.799 295.386 379.342 301.56 386.633L325.327 352.059C325.327 352.059 361.03 356.434 366.581 383.376C366.581 383.376 355.644 404.262 346.683 419.185C346.683 419.185 313.532 474.21 287.342 464.238C263.422 455.112 233.423 430.792 229.201 425.594L193.921 400.463C193.921 400.463 169.789 354.458 180.456 331.456L191.169 308.453Z" fill="#DA693F"/>
<path d="M194.31 303.785C194.022 303.759 193.738 303.7 193.463 303.608L191.111 302.973C189.03 302.444 185.995 301.715 182.209 300.998C172.331 299.171 162.352 297.942 152.327 297.317C142.307 296.605 132.248 296.637 122.233 297.411C118.387 297.74 115.306 298.222 113.189 298.587L110.755 299.069C110.476 299.15 110.187 299.189 109.896 299.187C110.161 299.071 110.437 298.985 110.72 298.928L113.13 298.316C116.12 297.671 119.143 297.196 122.186 296.893C132.224 295.974 142.32 295.875 152.374 296.599C162.419 297.219 172.411 298.524 182.279 300.504C186.066 301.292 189.088 302.091 191.17 302.715L193.522 303.479C193.795 303.55 194.06 303.653 194.31 303.785Z" fill="#263238"/>
<path d="M131.252 295.553C131.052 295.553 130.523 292.871 130.076 289.496C129.629 286.121 129.382 283.381 129.582 283.346C130.199 285.314 130.593 287.346 130.758 289.402C131.228 292.824 131.452 295.529 131.252 295.553Z" fill="#263238"/>
<path d="M137.297 295.035C135.69 291.151 135.392 286.849 136.45 282.781C136.662 282.781 136.345 285.557 136.58 288.932C136.815 292.307 137.497 294.976 137.297 295.035Z" fill="#263238"/>
<g opacity="0.3">
<path d="M110.367 299.069C135.698 303.55 161.382 299.069 188.195 302.28C162.323 296.917 135.345 294.377 110.367 299.069Z" fill="black"/>
</g>
<g opacity="0.3">
<path d="M65.8545 504.892C51.6014 471.506 53.2948 433.779 55.2705 397.547L65.8545 504.892Z" fill="black"/>
</g>
<path d="M53.4009 379.531C53.4395 379.669 53.4631 379.811 53.4715 379.955C53.4715 380.272 53.5656 380.684 53.6244 381.189C53.742 382.365 53.9184 383.929 54.13 385.976C54.5416 390.174 55.1414 396.172 55.8705 403.616C57.317 418.457 59.2927 438.978 61.6564 461.616C64.0202 484.254 66.3604 504.728 68.2656 519.522C69.1946 526.919 69.9943 532.905 70.6176 537.033C70.888 539.067 71.0997 540.667 71.2409 541.796C71.3114 542.313 71.3584 542.725 71.3937 543.042C71.4065 543.183 71.4065 543.325 71.3937 543.466C71.346 543.333 71.3144 543.195 71.2996 543.054L71.0762 541.819C70.8998 540.643 70.6411 539.103 70.3236 537.115C69.6768 532.988 68.7948 527.013 67.7952 519.628C65.7842 504.846 63.3381 484.348 60.9744 461.722C58.6106 439.096 56.7172 418.551 55.4001 403.698C54.7651 396.301 54.2241 390.292 53.8831 386.058C53.7302 384.012 53.6008 382.412 53.5185 381.272C53.5185 380.754 53.5185 380.343 53.4362 380.013C53.4046 379.855 53.3928 379.693 53.4009 379.531Z" fill="#263238"/>
<path d="M163.005 361.62C162.662 361.673 162.316 361.692 161.97 361.679H158.971C156.384 361.679 152.621 361.679 147.987 361.808C138.708 362.02 125.902 362.702 111.849 364.36C97.7954 366.018 85.177 368.417 76.11 370.44C71.5706 371.416 67.878 372.263 65.3966 372.886L62.4802 373.568C62.145 373.659 61.8027 373.722 61.457 373.756C61.7757 373.617 62.1063 373.507 62.4449 373.427L65.3261 372.616C67.831 371.91 71.4766 370.993 76.0042 369.946C99.6182 364.518 123.747 361.644 147.975 361.373C152.679 361.373 156.384 361.373 158.983 361.467L161.97 361.585C162.315 361.569 162.661 361.58 163.005 361.62Z" fill="#263238"/>
<path d="M100.841 397.065C100.641 397.065 101.017 381.906 101.664 363.219C102.311 344.533 103.016 329.374 103.216 329.386C103.416 329.398 103.04 344.544 102.381 363.243C101.723 381.941 101.029 397.076 100.841 397.065Z" fill="#263238"/>
<path d="M183.573 395.195C183.353 394.891 183.153 394.573 182.973 394.243C182.558 393.545 182.017 392.616 181.35 391.455L175.376 381.189C172.353 376.133 169.844 370.786 167.885 365.231C166.799 361.912 166.051 358.492 165.651 355.023C165.309 351.291 165.309 347.536 165.651 343.804C166.147 336.572 167.956 329.49 170.99 322.906C172.383 320.056 174.16 317.409 176.27 315.039C178.126 312.996 180.255 311.219 182.597 309.759C185.969 307.59 189.829 306.297 193.828 305.996C195.282 305.874 196.747 305.957 198.179 306.243C196.737 306.166 195.293 306.166 193.851 306.243C189.928 306.638 186.16 307.978 182.867 310.147C180.584 311.611 178.511 313.38 176.705 315.404C174.657 317.748 172.936 320.359 171.589 323.165C168.62 329.687 166.847 336.69 166.356 343.839C166.027 347.521 166.027 351.224 166.356 354.905C166.746 358.328 167.47 361.703 168.52 364.984C170.442 370.512 172.888 375.844 175.823 380.907L181.597 391.279L183.114 394.137C183.299 394.475 183.452 394.829 183.573 395.195Z" fill="#263238"/>
<g opacity="0.3">
<path d="M64.0801 373.627C74.3113 373.098 84.4843 371.757 94.5033 369.617C93.2671 374.044 92.6925 378.629 92.7981 383.224C95.9751 379.644 98.2884 375.384 99.5601 370.77C99.9242 373.28 100.792 375.691 102.112 377.858C103.432 380.024 105.176 381.901 107.239 383.377C108.247 378.826 108.478 374.139 107.921 369.511C123.06 367.693 138.098 365.203 153.033 362.044C122.803 361.311 92.6325 365.064 63.5039 373.181" fill="black"/>
</g>
<path d="M258.718 449.079C258.471 448.972 258.238 448.834 258.025 448.668L256.084 447.374C254.414 446.198 252.015 444.587 249.028 442.506C243.148 438.366 235.022 432.545 226.19 425.959C217.358 419.374 209.467 413.258 203.846 408.778C201.024 406.543 198.742 404.709 197.178 403.427L195.391 401.945C195.172 401.783 194.97 401.598 194.791 401.393C195.031 401.525 195.26 401.679 195.473 401.851L197.331 403.239L204.117 408.437C209.844 412.835 217.77 418.88 226.602 425.465C235.434 432.051 243.43 437.919 249.31 442.176L256.225 447.21L258.095 448.585C258.316 448.733 258.524 448.898 258.718 449.079Z" fill="#263238"/>
<path d="M298.22 412.999C298.115 412.999 298.22 411.212 297.973 408.378C297.44 400.948 295.203 393.741 291.435 387.316C289.988 384.858 288.93 383.435 289.012 383.364C289.331 383.64 289.612 383.956 289.847 384.305C290.546 385.2 291.198 386.13 291.799 387.092C295.83 393.477 298.11 400.81 298.409 408.354C298.472 409.486 298.472 410.621 298.409 411.753C298.401 412.175 298.338 412.594 298.22 412.999Z" fill="#263238"/>
<path d="M305.512 410.33C305.546 409.119 305.644 407.91 305.806 406.708C306.026 403.809 305.97 400.895 305.642 398.006C305.308 395.116 304.697 392.265 303.819 389.492C303.149 387.351 302.643 386.07 302.714 386.022C302.917 386.283 303.079 386.572 303.196 386.881C303.584 387.685 303.93 388.51 304.231 389.351C306.252 394.915 306.937 400.877 306.23 406.755C306.089 407.873 305.936 408.778 305.795 409.39C305.745 409.715 305.65 410.031 305.512 410.33Z" fill="#263238"/>
<path d="M360.737 395.195C360.737 395.195 360.737 394.972 360.467 394.748C360.264 394.62 360.098 394.442 359.984 394.231C359.855 393.984 359.761 393.69 359.596 393.407C359.279 392.808 358.491 392.361 357.926 391.491C357.316 390.525 356.841 389.481 356.515 388.386C355.712 385.592 354.334 382.996 352.47 380.765C351.351 379.469 350.136 378.258 348.836 377.143C347.455 375.923 345.989 374.803 344.449 373.792C342.958 372.704 341.386 371.733 339.745 370.887L335.041 368.606C333.56 367.9 332.172 367.171 330.82 366.595L327.056 364.983C326.497 364.77 325.951 364.522 325.422 364.243C324.916 363.949 324.505 363.619 324.081 363.384L322.905 362.737C322.529 362.537 322.211 362.267 321.929 362.091C321.353 361.726 320.847 361.526 320.518 361.35C320.189 361.173 320.024 361.079 320.036 361.056C320.219 361.097 320.397 361.16 320.565 361.244C321.078 361.423 321.577 361.639 322.058 361.891C322.772 362.34 323.519 362.733 324.293 363.067C324.751 363.29 325.187 363.619 325.657 363.878C326.127 364.137 326.715 364.325 327.28 364.572L331.067 366.101C332.419 366.653 333.83 367.383 335.335 368.076L340.039 370.323C341.702 371.176 343.294 372.159 344.802 373.263C346.37 374.283 347.856 375.424 349.248 376.673C350.567 377.809 351.793 379.048 352.917 380.377C354.805 382.673 356.176 385.348 356.939 388.221C357.234 389.291 357.664 390.319 358.22 391.279C358.714 392.102 359.479 392.584 359.808 393.266C359.984 393.596 360.055 393.901 360.161 394.125C360.256 394.324 360.392 394.5 360.561 394.642C360.855 394.948 360.749 395.218 360.737 395.195Z" fill="#263238"/>
<path d="M209.868 546.346C209.704 546.346 209.562 516.593 209.562 479.89C209.562 443.187 209.704 413.435 209.868 413.435C210.033 413.435 210.174 443.187 210.174 479.89C210.174 516.593 210.045 546.346 209.868 546.346Z" fill="#263238"/>
</svg>
