<svg width="124" height="157" viewBox="0 0 124 157" fill="none" xmlns="http://www.w3.org/2000/svg">
<path d="M55.5 82.5C55.3333 82.8333 55.1 83.6 55.5 84C55.9 84.4 62.6667 84.5 66 84.5C68.3333 84.1667 73 83.2 73 82C73 80.8 73 81.1667 73 81.5" stroke="#1A1B22"/>
<path d="M60 87.5C59.8333 88 60.1 89 62.5 89C65.5 89 67 88.5 67 88" stroke="#1A1B22"/>
<path d="M51.5 94.5C52.6667 100.5 56.1 112.7 60.5 113.5C66 114.5 70.5 114.5 73 109.5C75 105.5 77.8333 97.1667 79 93.5C76.5 96.3333 70.6 101.9 67 101.5C62.5 101 60 103.5 51.5 94.5Z" fill="#0F1014" stroke="#15161C"/>
<path d="M42.5 114C31.5 118.5 9.20002 130.1 8.00002 140.5C6.80002 150.9 6.83335 151.5 7.00002 150.5" stroke="#15161C"/>
<path d="M80 113C82.3333 115 87.8 119.2 91 120C95 121 113.5 130 115.5 143.5L116 149.5" stroke="#15161C"/>
<path d="M22.5 154.5C28.5 150.9 30.6667 129.667 31 119.5L34.5 117.5C41.5 126.5 51 126.5 62 128C70.8 129.2 82 121.833 86.5 118L89.5 119C92 114.333 95.6 107.9 90 119.5C84.4 131.1 91.3333 148.333 95.5 155.5L22.5 154.5Z" fill="#15161C" stroke="#15161C"/>
<path d="M79.5 67.5C79.9 65.1 83 64.5 84.5 64.5H85C86 64.8333 87.4 66.4 85 70C82.6 73.6 80.3333 72.5 79.5 71.5C79.3333 71.1667 79.1 69.9 79.5 67.5Z" fill="#CB7B79"/>
<path d="M45 69.5C44.6 67.9 46.5 66.5 47.5 66C48 65.7166 50.5 66 52 68.5C53.5 71 51 73.5 49 73.5C47 73.5 45.5 71.5 45 69.5Z" fill="#CB7B79"/>
<path d="M79.5 67.5C79.9 65.1 83 64.5 84.5 64.5H85C86 64.8333 87.4 66.4 85 70C82.6 73.6 80.3333 72.5 79.5 71.5C79.3333 71.1667 79.1 69.9 79.5 67.5Z" stroke="#CB7B79"/>
<path d="M45 69.5C44.6 67.9 46.5 66.5 47.5 66C48 65.7166 50.5 66 52 68.5C53.5 71 51 73.5 49 73.5C47 73.5 45.5 71.5 45 69.5Z" stroke="#CB7B79"/>
<path d="M7 94.5C6.6 98.5 2.83333 106.5 1 110C6.83333 113 20.9 118.3 30.5 115.5L43 113.5C45.6166 112.5 50.9797 108.9 51.5 102.5L51 93.2611C50.4149 92.6226 49.8661 92.0126 49.372 91.4636C48.1633 90.1202 47.2825 89.1412 47 89C46.2474 88.6237 43.0758 81.138 41.315 76.7831C41.245 76.9783 41.1426 77.2148 41 77.5C40 79.5 35.5 75 34.5 74C33.744 73.244 34.1311 69.9162 34.365 67.9051C34.4405 67.256 34.5 66.744 34.5 66.5C34.5 65.6573 37.6953 61.9744 39 60.8363C39.2436 60.6238 39.4213 60.5 39.5 60.5C40 60.5 45.5 55.5 48 45.5C49.7265 38.594 51.6915 35.9804 53.4008 33.7067C54.1667 32.688 54.8812 31.7376 55.5 30.5C57.5 26.5 66 23 71 22.5C76 22 81.5 32 81.5 33.5C81.5 34.451 84.9164 41.0289 87.4173 45.8442C88.8612 48.6244 90 50.817 90 51V66C90.1667 66.5 90.8 67.5 92 67.5C93.5 67.5 93.5 73.5 93.5 74.5C93.5 75.5 91.5 77 90 77.5C89.7195 77.5935 89.4914 77.4946 89.3092 77.2884C88.6557 79.2915 86.2549 82.5381 84.0552 85.5126C81.9341 88.3809 80 90.9963 80 92C80 94.5 78 105.5 80 112C82 118.5 113 119.5 115.5 119.5C118 119.5 122.5 114.5 120 110C117.5 105.5 122 92 122.5 84.5C123 77 113 63.5 110.5 62C108 60.5 108.5 48 108 43C107.5 38 100.5 18 98 14.5C95.5 11 90 6.5 84.5 3.5C80.1 1.10001 76 2.50001 74.5 3.5C69 -0.499995 62 2.5 55.5 3.5C49 4.5 35.5 29 35.5 31C35.5 33 24.5 41.5 18 51C11.5 60.5 23.5 65 12.5 77.5C1.5 90 7.5 89.5 7 94.5Z" fill="#1A1B22"/>
<path fill-rule="evenodd" clip-rule="evenodd" d="M41 76C41.0988 76.2469 41.2041 76.5088 41.315 76.7831C41.6379 75.8836 41.2739 75.863 41 76ZM89 75.5C88.5935 73.4676 88.5175 76.3921 89.3092 77.2884C89.5953 76.4118 89.5466 75.7733 89 75.5Z" fill="#1A1B22"/>
<path d="M80 92C80 94.5 78 105.5 80 112C82 118.5 113 119.5 115.5 119.5C118 119.5 122.5 114.5 120 110C117.5 105.5 122 92 122.5 84.5C123 77 113 63.5 110.5 62C108 60.5 108.5 48 108 43C107.5 38 100.5 18 98 14.5C95.5 11 90 6.5 84.5 3.5C80.1 1.10001 76 2.50001 74.5 3.5C69 -0.499995 62 2.5 55.5 3.5C49 4.5 35.5 29 35.5 31C35.5 33 24.5 41.5 18 51C11.5 60.5 23.5 65 12.5 77.5C1.5 90 7.5 89.5 7 94.5C6.6 98.5 2.83333 106.5 1 110C6.83333 113 20.9 118.3 30.5 115.5L43 113.5C45.6166 112.5 50.9797 108.9 51.5 102.5L51 93.2611M80 92C70.8239 102.553 65.4368 101.738 61.5209 101.146C61.1693 101.093 60.8295 101.041 60.5 101C58.0916 100.699 54.0518 96.5914 51 93.2611M80 92C80 90.9963 81.9341 88.3809 84.0552 85.5126C86.2549 82.5381 88.6557 79.2915 89.3092 77.2884M90 66C90.1667 66.5 90.8 67.5 92 67.5C93.5 67.5 93.5 73.5 93.5 74.5C93.5 75.5 91.5 77 90 77.5C89.7195 77.5935 89.4914 77.4946 89.3092 77.2884M90 66C90 61.1667 90 51.4 90 51M90 66V51M90 51C90 50.817 88.8612 48.6244 87.4173 45.8442C84.9164 41.0289 81.5 34.451 81.5 33.5C81.5 32 76 22 71 22.5C66 23 57.5 26.5 55.5 30.5C54.8812 31.7376 54.1667 32.688 53.4008 33.7067C51.6915 35.9804 49.7265 38.594 48 45.5C45.5 55.5 40 60.5 39.5 60.5C39.4213 60.5 39.2436 60.6238 39 60.8363M41 76C41.0988 76.2469 41.2041 76.5088 41.315 76.7831M41 76C41.2739 75.863 41.6379 75.8836 41.315 76.7831M41 76C40.7429 75.3693 40.5007 74.303 40.2786 73M51 93.2611C50.4149 92.6226 49.8661 92.0126 49.372 91.4636C48.1633 90.1202 47.2825 89.1412 47 89C46.2474 88.6237 43.0758 81.138 41.315 76.7831M89.3092 77.2884C89.5953 76.4118 89.5466 75.7733 89 75.5C88.5935 73.4676 88.5175 76.3921 89.3092 77.2884ZM41.315 76.7831C41.245 76.9783 41.1426 77.2148 41 77.5C40 79.5 35.5 75 34.5 74C33.744 73.244 34.1311 69.9162 34.365 67.9051C34.4405 67.256 34.5 66.744 34.5 66.5C34.5 65.6573 37.6953 61.9744 39 60.8363M39 60.8363C39.093 62.2929 39.2511 64.3503 39.4608 66.5M39.4608 66.5C38.1405 66.1034 35.4 65.8292 35 67.9051C34.6 69.981 35.8333 72.8333 36.5 74C37.4141 74.5 39.4495 75 40.2786 73M39.4608 66.5C39.6084 68.0133 39.7816 69.5724 39.9758 71M40.2786 73C40.1729 72.3798 40.0718 71.706 39.9758 71M39.9758 71C39.4838 70.3333 38.3 69 37.5 69" stroke="#15161C"/>
<path d="M105 82.5C105.5 84.5 112 111 110 115.5" stroke="#F5F5F5"/>
<path d="M78 57.5C77.3333 57.6667 76 58.4 76 60C76 61.6 77 62.3333 77.5 62.5C78.1667 62.5 79.5 62 79.5 60C79.5 57.5 78.1982 57.4398 78 57.5Z" fill="#1A1B22"/>
<path d="M54 58C53.5 58.3333 52.5 59.3 52.5 60.5C52.5 62 53 63 53.5 63C54 63 55 62 55.5 60C55.9 58.4 54.6667 58 54 58Z" fill="#1A1B22"/>
<path d="M50 51.5C51.5 51.5 54.5 51 55 51C55.5 51 58 52.5 58.5 52.5C59 52.5 62 53 61 51.5C60 50 56 48.5 55 48.5C54 48.5 49.0778 50.2504 49 50.5C48.8333 50.8333 48.8 51.5 50 51.5Z" fill="#1A1B22"/>
<path d="M75.5 50.5C75.6667 51 76.1 52 76.5 52L80.5 50.5C81.5 50.5 83.6 50.6 84 51C84.4 51.4 85.1667 50.8333 85.5 50.5C85.6667 49.8333 85.2 48.5 82 48.5C78 48.5 75.3994 50.2243 75.5 50.5Z" fill="#1A1B22"/>
<path d="M89 75L89.2667 74M89.2667 74L91 67.5C92 68 93.8 69.5 93 71.5C92 74 90.0333 74 89.2667 74ZM62.5 57.5C61.6667 61.5 60 69.7 60 70.5C60 71.5 60 76 61 76C61.8 76 65 76 66.5 76M49 50.5C48.8333 50.8333 48.8 51.5 50 51.5C51.5 51.5 54.5 51 55 51C55.5 51 58 52.5 58.5 52.5C59 52.5 62 53 61 51.5C60 50 56 48.5 55 48.5C54 48.5 49.0778 50.2504 49 50.5ZM75.5 50.5C75.6667 51 76.1 52 76.5 52L80.5 50.5C81.5 50.5 83.6 50.6 84 51C84.4 51.4 85.1667 50.8333 85.5 50.5C85.6667 49.8333 85.2 48.5 82 48.5C78 48.5 75.3994 50.2243 75.5 50.5ZM54 58C53.5 58.3333 52.5 59.3 52.5 60.5C52.5 62 53 63 53.5 63C54 63 55 62 55.5 60C55.9 58.4 54.6667 58 54 58ZM78 57.5C77.3333 57.6667 76 58.4 76 60C76 61.6 77 62.3333 77.5 62.5C78.1667 62.5 79.5 62 79.5 60C79.5 57.5 78.1982 57.4398 78 57.5Z" stroke="#1A1B22"/>
<path d="M71.5 22.5C72.3333 16.5 74.1 4.2 74.5 3" stroke="#F5F5F5"/>
<path d="M73.5 7C66 7.66667 50 11.5 46 21.5C41 34 32 56 29 56.5C26 57 20 89 16 91C12 93 7.5 111 6.5 112" stroke="#F5F5F5"/>
<path d="M71 16.5C65.3333 18.1667 53.6 22.5 52 26.5C50 31.5 46 45 44.5 46C43 47 35 58.5 32 65C29 71.5 36 86.5 26 97" stroke="#F5F5F5"/>
<path d="M75.5 15C80.1667 12.6667 90.6 12.4 95 30C99.4 47.6 102.833 64 104 70C107.667 74.6667 115.5 84.6 117.5 87C119.5 89.4 117 105.333 115.5 113" stroke="#F5F5F5"/>
<path d="M76 21.5C79.5 22.8333 87 28 89 38C91 48 92.8333 51.8333 93.5 52.5" stroke="#F5F5F5"/>
<path d="M75 10.5C76.8333 7.83333 82 3.8 88 9C94 14.2 100.167 26.1667 102.5 31.5L108.5 54.5" stroke="#F5F5F5"/>
<path d="M90 82C88.5 87.6667 86.4 100.3 90 105.5" stroke="#F5F5F5"/>
<path d="M96.5 77.5C98 85.6667 101.3 103.3 102.5 108.5" stroke="#F5F5F5"/>
<path d="M41.5 87.5C44 92.8333 47.8 104.5 43 108.5" stroke="#F5F5F5"/>
<path d="M36.5 85C36.1667 93.3333 34.5 110.5 30.5 112.5" stroke="#F5F5F5"/>
<path d="M21.5 91C19.5 93 15.6 99.1 16 107.5" stroke="#F5F5F5"/>
</svg>
