<svg width="100" height="16" viewBox="0 0 100 16" fill="none" xmlns="http://www.w3.org/2000/svg">
<path d="M75.7849 16C74.5873 16 73.5559 15.7555 72.6906 15.2665C71.8307 14.7725 71.1659 14.0794 70.6964 13.1871C70.2321 12.2899 70 11.2388 70 10.034C70 8.84436 70.2321 7.79584 70.6964 6.88847C71.1659 5.9811 71.8201 5.27284 72.659 4.7637C73.5031 4.25457 74.4897 4 75.6187 4C76.3046 4 76.9693 4.10838 77.6129 4.32514C78.2566 4.5419 78.8343 4.88217 79.346 5.34594C79.8578 5.8097 80.2614 6.4121 80.5568 7.15312C80.8523 7.8891 81 8.78387 81 9.83743V10.6389H71.3374V8.94518H78.6813C78.6813 8.35035 78.5547 7.82357 78.3014 7.36484C78.0482 6.90107 77.6921 6.5356 77.2331 6.26843C76.7794 6.00126 76.2465 5.86767 75.6345 5.86767C74.9698 5.86767 74.3894 6.02394 73.8935 6.33648C73.4029 6.64398 73.023 7.04726 72.754 7.54631C72.4902 8.04033 72.3583 8.57719 72.3583 9.1569V10.4802C72.3583 11.2565 72.5007 11.9168 72.7856 12.4612C73.0758 13.0057 73.4794 13.4216 73.9964 13.7089C74.5134 13.9912 75.1175 14.1323 75.8086 14.1323C76.2571 14.1323 76.6659 14.0718 77.0353 13.9509C77.4046 13.8248 77.7237 13.6383 77.9928 13.3913C78.2619 13.1443 78.4676 12.8393 78.6101 12.4764L80.8496 12.862C80.6703 13.4921 80.3484 14.0441 79.8842 14.518C79.4252 14.9868 78.8475 15.3522 78.1511 15.6144C77.46 15.8715 76.6712 16 75.7849 16Z" fill="#1A1B22"/>
<path d="M51 16V4.15424H53.1992V6.08226H53.3448C53.59 5.42931 53.9911 4.92031 54.5479 4.55527C55.1047 4.18509 55.7714 4 56.5479 4C57.3346 4 57.9936 4.18509 58.5249 4.55527C59.0613 4.92545 59.4572 5.43445 59.7126 6.08226H59.8352C60.1162 5.44987 60.5632 4.94601 61.1762 4.57069C61.7893 4.19023 62.5198 4 63.3678 4C64.4355 4 65.3065 4.33676 65.9808 5.01028C66.6603 5.6838 67 6.69923 67 8.05656V16H64.7088V8.27249C64.7088 7.47044 64.4917 6.88946 64.0575 6.52956C63.6232 6.16967 63.1047 5.98972 62.5019 5.98972C61.7561 5.98972 61.1762 6.22108 60.7625 6.6838C60.3487 7.14139 60.1418 7.73008 60.1418 8.44987V16H57.8582V8.12596C57.8582 7.48329 57.659 6.96658 57.2605 6.57584C56.8621 6.18509 56.3436 5.98972 55.705 5.98972C55.2708 5.98972 54.8697 6.1054 54.5019 6.33676C54.1392 6.56298 53.8455 6.87918 53.6207 7.28535C53.401 7.69152 53.2912 8.16195 53.2912 8.69666V16H51Z" fill="#1A1B22"/>
<path d="M45.6434 10.9332V4H48V15.8458H45.6905V13.7943H45.5648C45.2872 14.4267 44.8421 14.9537 44.2294 15.3753C43.6219 15.7918 42.8651 16 41.9592 16C41.1841 16 40.498 15.8329 39.901 15.4987C39.3092 15.1594 38.8432 14.6581 38.5027 13.9949C38.1676 13.3316 38 12.5116 38 11.5347V4H40.3488V11.2571C40.3488 12.0643 40.5766 12.7069 41.0322 13.1851C41.4878 13.6632 42.0796 13.9023 42.8075 13.9023C43.2474 13.9023 43.6847 13.7943 44.1194 13.5784C44.5593 13.3625 44.9233 13.036 45.2113 12.599C45.5046 12.162 45.6486 11.6067 45.6434 10.9332Z" fill="#1A1B22"/>
<path d="M35.7598 6.98677L33.5901 7.34972C33.4993 7.08759 33.3552 6.83806 33.1577 6.60113C32.9656 6.36421 32.704 6.17013 32.3731 6.0189C32.0422 5.86767 31.6285 5.79206 31.1321 5.79206C30.4542 5.79206 29.8884 5.93573 29.4347 6.22306C28.9811 6.50536 28.7542 6.87083 28.7542 7.31947C28.7542 7.70762 28.9063 8.02016 29.2106 8.25709C29.5148 8.49401 30.0059 8.68809 30.6837 8.83932L32.6373 9.26276C33.7689 9.50977 34.6122 9.89036 35.1673 10.4045C35.7224 10.9187 36 11.5866 36 12.4083C36 13.104 35.7865 13.724 35.3595 14.2684C34.9378 14.8078 34.348 15.2313 33.5901 15.5388C32.8375 15.8463 31.9648 16 30.972 16C29.5949 16 28.4713 15.7227 27.6013 15.1682C26.7313 14.6087 26.1975 13.8147 26 12.7864L28.3139 12.4537C28.458 13.0233 28.7542 13.4543 29.2026 13.7467C29.6509 14.034 30.2354 14.1777 30.956 14.1777C31.7406 14.1777 32.3678 14.0239 32.8375 13.7164C33.3072 13.4039 33.542 13.0233 33.542 12.5747C33.542 12.2117 33.3979 11.9067 33.1097 11.6597C32.8268 11.4127 32.3918 11.2262 31.8046 11.1002L29.723 10.6692C28.5754 10.4222 27.7267 10.029 27.1769 9.4896C26.6325 8.95022 26.3603 8.26717 26.3603 7.44045C26.3603 6.75488 26.5631 6.15501 26.9688 5.64083C27.3744 5.12665 27.9349 4.7259 28.6501 4.43856C29.3654 4.14619 30.1847 4 31.1081 4C32.4371 4 33.4833 4.27221 34.2466 4.81664C35.0099 5.35602 35.5143 6.0794 35.7598 6.98677Z" fill="#1A1B22"/>
<path d="M18.7849 16C17.5873 16 16.5559 15.7555 15.6906 15.2665C14.8307 14.7725 14.1659 14.0794 13.6964 13.1871C13.2321 12.2899 13 11.2388 13 10.034C13 8.84436 13.2321 7.79584 13.6964 6.88847C14.1659 5.9811 14.8201 5.27284 15.659 4.7637C16.5031 4.25457 17.4897 4 18.6187 4C19.3046 4 19.9693 4.10838 20.6129 4.32514C21.2566 4.5419 21.8343 4.88217 22.346 5.34594C22.8578 5.8097 23.2614 6.4121 23.5568 7.15312C23.8523 7.8891 24 8.78387 24 9.83743V10.6389H14.3374V8.94518H21.6813C21.6813 8.35035 21.5547 7.82357 21.3014 7.36484C21.0482 6.90107 20.6921 6.5356 20.2331 6.26843C19.7794 6.00126 19.2465 5.86767 18.6345 5.86767C17.9698 5.86767 17.3894 6.02394 16.8935 6.33648C16.4029 6.64398 16.023 7.04726 15.754 7.54631C15.4902 8.04033 15.3583 8.57719 15.3583 9.1569V10.4802C15.3583 11.2565 15.5007 11.9168 15.7856 12.4612C16.0758 13.0057 16.4794 13.4216 16.9964 13.7089C17.5134 13.9912 18.1175 14.1323 18.8086 14.1323C19.2571 14.1323 19.6659 14.0718 20.0353 13.9509C20.4046 13.8248 20.7237 13.6383 20.9928 13.3913C21.2619 13.1443 21.4676 12.8393 21.6101 12.4764L23.8496 12.862C23.6703 13.4921 23.3484 14.0441 22.8842 14.518C22.4252 14.9868 21.8475 15.3522 21.1511 15.6144C20.46 15.8715 19.6712 16 18.7849 16Z" fill="#1A1B22"/>
<path d="M0 16V0H5.77455C7.02966 0 8.07119 0.213542 8.89914 0.640625C9.73237 1.06771 10.3546 1.65885 10.766 2.41406C11.1773 3.16406 11.383 4.03125 11.383 5.01563C11.383 5.99479 11.1747 6.85677 10.7581 7.60156C10.3467 8.34115 9.72445 8.91667 8.89123 9.32812C8.06328 9.73958 7.02175 9.94531 5.76664 9.94531H1.39222V7.86719H5.54515C6.33619 7.86719 6.97956 7.75521 7.47528 7.53125C7.97627 7.30729 8.34278 6.98177 8.57482 6.55469C8.80685 6.1276 8.92287 5.61458 8.92287 5.01563C8.92287 4.41146 8.80422 3.88802 8.56691 3.44531C8.33487 3.0026 7.96836 2.66406 7.46737 2.42969C6.97165 2.1901 6.32037 2.07031 5.51351 2.07031H2.4443V16H0ZM7.99736 8.78125L12 16H9.21556L5.29202 8.78125H7.99736Z" fill="#1A1B22"/>
<path d="M91.6021 16V2H94.3876V16H91.6021ZM86 10.3876V7.60207H100V10.3876H86Z" fill="#DA693F"/>
</svg>
