<svg width="13" height="12" viewBox="0 0 13 12" fill="none" xmlns="http://www.w3.org/2000/svg">
<g id="evaArrowBackFill0">
<g id="evaArrowBackFill1">
<path id="evaArrowBackFill2" d="M0.8125 6.85653L10.4488 6.85653L7.49937 10.5933C7.36146 10.7684 7.29511 10.994 7.31492 11.2206C7.33473 11.4473 7.43907 11.6563 7.605 11.8018C7.77093 11.9473 7.98484 12.0173 8.19969 11.9964C8.41453 11.9755 8.61271 11.8654 8.75063 11.6904L12.8131 6.54799C12.8405 6.50708 12.8649 6.46411 12.8863 6.41943C12.8863 6.37657 12.8863 6.35086 12.9431 6.30801C12.98 6.20974 12.9992 6.10513 13 5.99946C12.9992 5.8938 12.98 5.78919 12.9431 5.69092C12.9431 5.64807 12.9431 5.62236 12.8863 5.5795C12.8649 5.53481 12.8405 5.49184 12.8131 5.45094L8.75063 0.308546C8.67423 0.211797 8.57857 0.133993 8.47044 0.0806652C8.36231 0.0273376 8.24437 -0.000203548 8.125 1.48116e-06C7.93516 -0.000390496 7.75118 0.0693536 7.605 0.197126C7.52273 0.269076 7.45472 0.35744 7.40487 0.457158C7.35502 0.556876 7.32431 0.665985 7.3145 0.778241C7.30469 0.890497 7.31597 1.00369 7.34769 1.11134C7.37942 1.21899 7.43096 1.31898 7.49938 1.40559L10.4488 5.1424L0.812501 5.1424C0.597012 5.1424 0.390349 5.23269 0.237976 5.39343C0.0856024 5.55416 5.44455e-07 5.77216 5.24584e-07 5.99946C5.04712e-07 6.22677 0.0856023 6.44477 0.237976 6.6055C0.390349 6.76623 0.597012 6.85653 0.8125 6.85653Z" fill="white"/>
</g>
</g>
</svg>
