<svg width="16" height="16" viewBox="0 0 16 16" fill="none" xmlns="http://www.w3.org/2000/svg">
<path fill-rule="evenodd" clip-rule="evenodd" d="M7.99956 8.94244L11.7709 12.7138C11.8966 12.8352 12.065 12.9024 12.2398 12.9009C12.4146 12.8994 12.5818 12.8293 12.7054 12.7057C12.829 12.582 12.8992 12.4148 12.9007 12.24C12.9022 12.0652 12.835 11.8968 12.7136 11.7711L8.94222 7.99977L12.7136 4.22844C12.835 4.10271 12.9022 3.9343 12.9007 3.75951C12.8992 3.58471 12.829 3.4175 12.7054 3.2939C12.5818 3.17029 12.4146 3.10018 12.2398 3.09866C12.065 3.09714 11.8966 3.16434 11.7709 3.28577L7.99956 7.05711L4.22822 3.28577C4.10192 3.16734 3.9345 3.10268 3.76138 3.1055C3.58825 3.10831 3.42302 3.17836 3.30063 3.30084C3.17824 3.42331 3.1083 3.5886 3.10561 3.76172C3.10293 3.93485 3.1677 4.10222 3.28622 4.22844L7.05689 7.99977L3.28556 11.7711C3.22188 11.8326 3.1711 11.9062 3.13616 11.9875C3.10122 12.0688 3.08283 12.1563 3.08206 12.2448C3.08129 12.3334 3.09815 12.4211 3.13168 12.5031C3.1652 12.585 3.2147 12.6594 3.27729 12.722C3.33989 12.7846 3.41432 12.8341 3.49625 12.8677C3.57818 12.9012 3.66597 12.918 3.75449 12.9173C3.84301 12.9165 3.93049 12.8981 4.01183 12.8632C4.09316 12.8282 4.16673 12.7774 4.22822 12.7138L7.99956 8.94244Z" fill="black"/>
</svg>
