<svg width="21" height="20" viewBox="0 0 21 20" fill="none" xmlns="http://www.w3.org/2000/svg">
<g id="Icon">
<path id="Vector" d="M17.6667 5.33333H14.3333V4.5C14.3333 3.83696 14.0699 3.20107 13.6011 2.73223C13.1323 2.26339 12.4964 2 11.8333 2H10.1667C9.50363 2 8.86774 2.26339 8.3989 2.73223C7.93006 3.20107 7.66667 3.83696 7.66667 4.5V5.33333H4.33333C4.11232 5.33333 3.90036 5.42113 3.74408 5.57741C3.5878 5.73369 3.5 5.94565 3.5 6.16667C3.5 6.38768 3.5878 6.59964 3.74408 6.75592C3.90036 6.9122 4.11232 7 4.33333 7H5.16667V16.1667C5.16667 16.8297 5.43006 17.4656 5.8989 17.9344C6.36774 18.4033 7.00363 18.6667 7.66667 18.6667H14.3333C14.9964 18.6667 15.6323 18.4033 16.1011 17.9344C16.5699 17.4656 16.8333 16.8297 16.8333 16.1667V7H17.6667C17.8877 7 18.0996 6.9122 18.2559 6.75592C18.4122 6.59964 18.5 6.38768 18.5 6.16667C18.5 5.94565 18.4122 5.73369 18.2559 5.57741C18.0996 5.42113 17.8877 5.33333 17.6667 5.33333ZM9.33333 4.5C9.33333 4.27899 9.42113 4.06702 9.57741 3.91074C9.73369 3.75446 9.94565 3.66667 10.1667 3.66667H11.8333C12.0543 3.66667 12.2663 3.75446 12.4226 3.91074C12.5789 4.06702 12.6667 4.27899 12.6667 4.5V5.33333H9.33333V4.5ZM15.1667 16.1667C15.1667 16.3877 15.0789 16.5996 14.9226 16.7559C14.7663 16.9122 14.5543 17 14.3333 17H7.66667C7.44565 17 7.23369 16.9122 7.07741 16.7559C6.92113 16.5996 6.83333 16.3877 6.83333 16.1667V7H15.1667V16.1667Z" fill="white"/>
</g>
</svg>
