<svg width="20" height="20" viewBox="0 0 20 20" fill="none" xmlns="http://www.w3.org/2000/svg">
<g id="trash icon">
<path id="Vector" d="M16.6667 5.00033H13.3333V4.16699C13.3333 3.50395 13.0699 2.86807 12.6011 2.39923C12.1323 1.93038 11.4964 1.66699 10.8333 1.66699H9.16667C8.50363 1.66699 7.86774 1.93038 7.3989 2.39923C6.93006 2.86807 6.66667 3.50395 6.66667 4.16699V5.00033H3.33333C3.11232 5.00033 2.90036 5.08812 2.74408 5.2444C2.5878 5.40068 2.5 5.61264 2.5 5.83366C2.5 6.05467 2.5878 6.26663 2.74408 6.42291C2.90036 6.57919 3.11232 6.66699 3.33333 6.66699H4.16667V15.8337C4.16667 16.4967 4.43006 17.1326 4.8989 17.6014C5.36774 18.0703 6.00363 18.3337 6.66667 18.3337H13.3333C13.9964 18.3337 14.6323 18.0703 15.1011 17.6014C15.5699 17.1326 15.8333 16.4967 15.8333 15.8337V6.66699H16.6667C16.8877 6.66699 17.0996 6.57919 17.2559 6.42291C17.4122 6.26663 17.5 6.05467 17.5 5.83366C17.5 5.61264 17.4122 5.40068 17.2559 5.2444C17.0996 5.08812 16.8877 5.00033 16.6667 5.00033ZM8.33333 4.16699C8.33333 3.94598 8.42113 3.73402 8.57741 3.57774C8.73369 3.42146 8.94565 3.33366 9.16667 3.33366H10.8333C11.0543 3.33366 11.2663 3.42146 11.4226 3.57774C11.5789 3.73402 11.6667 3.94598 11.6667 4.16699V5.00033H8.33333V4.16699ZM14.1667 15.8337C14.1667 16.0547 14.0789 16.2666 13.9226 16.4229C13.7663 16.5792 13.5543 16.667 13.3333 16.667H6.66667C6.44565 16.667 6.23369 16.5792 6.07741 16.4229C5.92113 16.2666 5.83333 16.0547 5.83333 15.8337V6.66699H14.1667V15.8337Z" fill="black"/>
</g>
</svg>
