<svg width="282" height="279" viewBox="0 0 282 279" fill="none" xmlns="http://www.w3.org/2000/svg">
<path d="M54.8181 145.421C6.61533 173.053 6.61533 217.855 54.8181 245.487C103.021 273.119 181.184 273.124 229.386 245.487C277.589 217.849 277.589 173.053 229.386 145.421C181.184 117.788 103.026 117.783 54.8181 145.421Z" fill="#263238"/>
<path d="M259.582 157.964C253.788 147.569 243.695 137.792 229.307 129.545C181.116 101.919 102.987 101.919 54.8009 129.545C30.6461 143.406 18.6081 161.541 18.6643 179.676C18.6643 182.265 18.6643 192.61 18.6643 195.205C18.6081 213.351 30.6461 231.475 54.7952 245.352C65.9004 251.714 78.5847 256.613 92.1345 260.045L136.926 251.552L152.802 234.226L211.009 222.608L223.311 185.691L255.075 180.619L259.582 173.75V157.964Z" fill="#455A64"/>
<path d="M210.975 198.921V222.608L223.282 185.691V162.769L210.975 198.921Z" fill="#37474F"/>
<path d="M152.774 211.136V234.226L136.932 251.563L139.118 242.613L136.904 236.804L136.887 229.075L152.774 211.136Z" fill="#263238"/>
<path d="M255.047 180.619V156.022L259.577 149.694V173.75L255.047 180.619Z" fill="#37474F"/>
<path d="M169.285 214.328L176.445 222.608L186.774 225.66L187.263 227.34L152.773 234.226V211.136L169.285 214.328Z" fill="#37474F"/>
<path d="M54.7952 129.545C30.6461 143.405 18.6081 161.54 18.6643 179.675C18.6643 182.265 18.6643 192.61 18.6643 195.205C18.6081 213.351 30.6461 231.475 54.7952 245.352C65.9004 251.713 78.5847 256.612 92.1345 260.044V114.853C78.6184 118.295 65.9004 123.178 54.7952 129.545Z" fill="#37474F"/>
<path d="M261.882 145.426C255.981 134.824 245.691 124.869 231.028 116.46C181.915 88.3089 102.291 88.3089 53.1833 116.46C28.6857 130.505 16.4117 148.897 16.3555 167.305V171.908C16.4173 190.322 28.6857 208.736 53.1833 222.753C64.502 229.237 77.4224 234.231 91.2363 237.73L136.882 229.076L153.028 211.404L212.375 199.563L224.914 161.943L257.285 156.77L261.899 149.773L261.882 145.426Z" fill="#DA693F"/>
<path d="M231.027 116.46C181.914 88.3089 102.29 88.3089 53.1822 116.46C4.07467 144.611 4.07467 190.278 53.1822 218.412C64.5009 224.874 77.4213 229.896 91.2352 233.383L136.881 224.729L153.027 207.057L212.374 195.222L224.913 157.596L257.284 152.429L261.898 145.426C255.98 134.835 245.69 124.869 231.027 116.46Z" fill="#DA693F"/>
<path opacity="0.45" d="M231.027 116.46C181.914 88.3089 102.29 88.3089 53.1822 116.46C4.07467 144.611 4.07467 190.278 53.1822 218.412C64.5009 224.874 77.4213 229.896 91.2352 233.383L136.881 224.729L153.027 207.057L212.374 195.222L224.913 157.596L257.284 152.429L261.898 145.426C255.98 134.835 245.69 124.869 231.027 116.46Z" fill="white"/>
<path d="M102.279 99.0449C84.3346 102.471 67.4689 108.274 53.1829 116.46C39.6443 124.222 29.8487 133.312 23.7734 142.993L147.02 213.641L153.033 207.057L212.375 195.222L221.626 167.45L102.279 99.0449Z" fill="#FAFAFA"/>
<path d="M257.109 38.6138C256.52 38.3995 255.899 38.2863 255.272 38.279C254.676 38.2344 254.485 38.1172 254.367 37.9888C253.797 37.1715 252.963 36.5721 252.004 36.29C251.044 36.0078 250.016 36.0599 249.09 36.4376C248.83 35.6375 248.276 34.9638 247.539 34.5502C246.802 34.1367 245.935 34.0137 245.111 34.2056C245.178 32.3642 242.806 30.3833 240.676 29.9313C238.636 29.5017 236.855 29.6802 235.692 31.0138C234.444 28.5977 229.555 27.9169 226.913 29.1948C225.39 29.9313 224.103 30.6846 223.468 32.0685C223.058 32.9262 222.865 33.8706 222.906 34.8194C221.878 33.921 219.815 33.7034 218.41 34.2056C216.926 34.7636 216.814 35.8796 216.724 36.9956C215.843 36.7419 214.91 36.7264 214.021 36.951C213.082 37.2244 212.543 37.9554 212.672 38.5413C211.936 38.5022 210.171 39.0993 210.373 39.8693C210.604 40.7398 212.621 40.6561 213.363 40.6282C214.073 40.5719 214.778 40.4619 215.471 40.299C215.822 40.4284 216.192 40.4982 216.567 40.5054C217.848 40.5054 218.388 39.9474 218.596 39.4787C219.219 40.7844 221.445 41.7777 223.024 42.1794C225.986 42.9327 230.178 42.4752 232.016 40.2766C232.23 40.6907 232.531 41.0542 232.898 41.3424C233.682 41.9745 234.636 42.3627 235.641 42.4584C236.855 42.57 240.137 42.7263 241.042 40.7844C241.694 42.0567 244.605 42.6426 246.814 42.3301C247.671 42.2001 248.505 41.9503 249.292 41.5879C249.782 41.3325 250.257 41.0493 250.714 40.7398C250.889 40.6177 251.095 40.5454 251.309 40.5306C251.523 40.5159 251.737 40.5592 251.928 40.6561C253.489 41.2087 255.194 41.2087 256.755 40.6561C258.014 40.1762 258.273 39.1383 257.109 38.6138Z" fill="#F0F0F0"/>
<path d="M87.4126 34.931C86.8222 34.7145 86.1986 34.6012 85.5692 34.5962C84.9735 34.546 84.7824 34.4288 84.67 34.3005C84.0989 33.485 83.2647 32.8873 82.3052 32.6063C81.3457 32.3252 80.3183 32.3776 79.3929 32.7548C79.1329 31.9535 78.5785 31.2789 77.8401 30.8652C77.1017 30.4516 76.2334 30.3293 75.4083 30.5228C75.4757 28.6814 73.1041 26.7005 70.9797 26.2541C68.8554 25.8077 67.1581 26.003 65.9892 27.3366C64.7471 24.9205 59.8577 24.2341 57.2107 25.5175C55.6933 26.2485 54.4007 27.0074 53.7713 28.3912C53.3576 29.2479 53.1645 30.1932 53.2093 31.1422C52.1752 30.2382 50.1127 29.9927 48.7133 30.5228C47.2296 31.0808 47.1172 32.1968 47.0273 33.3128C46.1481 33.0695 45.2203 33.0579 44.3353 33.2793C43.4024 33.5583 42.8629 34.2837 42.9921 34.8752C42.2503 34.8306 40.4856 35.4332 40.6879 36.2032C40.9183 37.0737 42.9359 36.9844 43.6834 36.9565C44.3918 36.903 45.0947 36.7929 45.7853 36.6273C46.1444 36.7626 46.5251 36.8326 46.9093 36.8338C48.1906 36.8338 48.7358 36.2758 48.9381 35.8071C49.5675 37.1184 51.793 38.1116 53.3666 38.5134C56.3284 39.2667 60.5209 38.8091 62.3586 36.605C62.5735 37.0198 62.8742 37.3849 63.241 37.6764C64.0243 38.3087 64.9785 38.697 65.9835 38.7924C67.2031 38.9095 70.4795 39.0602 71.39 37.1184C72.0419 38.3962 74.9474 38.9765 77.1561 38.664C78.0061 38.5458 78.8337 38.3033 79.612 37.9442C80.1007 37.6886 80.5753 37.4073 81.0339 37.1016C81.2097 36.9801 81.4155 36.9081 81.6292 36.8934C81.843 36.8787 82.0567 36.9217 82.2478 37.0179C83.8099 37.5646 85.5133 37.5646 87.0754 37.0179C88.3118 36.4822 88.5703 35.4555 87.4126 34.931Z" fill="#F0F0F0"/>
<path d="M264.191 72.3281C263.724 72.1562 263.232 72.0656 262.735 72.0602C262.263 72.0212 262.117 71.9319 262.021 71.8259C261.571 71.1806 260.911 70.7076 260.153 70.4853C259.395 70.2631 258.582 70.3049 257.851 70.6039C257.645 69.9714 257.207 69.4389 256.624 69.1114C256.042 68.7839 255.356 68.6853 254.704 68.835C254.755 67.3786 252.877 65.8162 251.197 65.487C249.517 65.1578 248.174 65.2861 247.263 66.3407C246.28 64.4324 242.413 63.8911 240.322 64.9011C239.12 65.4591 238.074 66.0841 237.602 67.1777C237.27 67.8541 237.114 68.6022 237.147 69.3539C236.641 68.9952 236.056 68.7633 235.44 68.6778C234.825 68.5923 234.198 68.6558 233.612 68.8629C232.438 69.3149 232.348 70.1909 232.291 71.0949C231.596 70.8917 230.858 70.8782 230.156 71.0558C229.414 71.2735 228.987 71.8482 229.088 72.3113C228.526 72.2834 227.11 72.7522 227.273 73.366C227.436 73.9798 229.043 73.9853 229.639 73.963C230.207 73.9197 230.771 73.832 231.325 73.7008C231.601 73.8072 231.894 73.8639 232.19 73.8682C233.202 73.8682 233.629 73.4273 233.792 73.0535C234.286 74.0858 236.04 74.8726 237.293 75.1906C239.637 75.7877 242.953 75.425 244.397 73.684C244.567 74.0105 244.804 74.2977 245.094 74.5266C245.715 75.0228 246.469 75.3274 247.263 75.4027C248.224 75.4919 250.809 75.6147 251.534 74.0914C252.051 75.1013 254.344 75.5645 256.098 75.319C256.774 75.2244 257.435 75.0366 258.059 74.761C258.447 74.5587 258.823 74.3332 259.183 74.0858C259.323 73.9909 259.486 73.9351 259.655 73.9243C259.824 73.9135 259.993 73.9481 260.144 74.0244C261.379 74.4566 262.725 74.4566 263.96 74.0244C264.904 73.5501 265.107 72.741 264.191 72.3281Z" fill="#F5F5F5"/>
<path d="M164.525 178.94C168.17 180.257 171.637 182.015 174.849 184.174C178.462 186.596 181.767 189.525 185.617 191.54C190.624 194.151 196.385 195.1 202.021 194.832C205.214 194.681 208.687 193.984 210.738 191.484C211.296 190.865 211.634 190.08 211.699 189.252C211.699 188.03 210.879 186.981 210.013 186.144C205.388 181.68 198.914 179.811 192.67 178.365C186.426 176.92 182.689 175.123 176.568 171.876C173.95 170.481 171.364 168.991 168.7 167.68L168.639 167.646C167.338 166.936 165.998 166.299 164.626 165.738C162.816 165.074 161.321 164.594 159.326 164.745C157.331 164.895 155.106 164.856 153.706 166.463C153.138 167.141 152.778 167.967 152.668 168.842C152.559 169.718 152.704 170.606 153.088 171.402C155.049 175.815 160.349 177.445 164.525 178.94Z" fill="#E0E0E0"/>
<path opacity="0.15" d="M56.239 204.15C71.1716 204.15 83.2768 197.21 83.2768 188.649C83.2768 180.088 71.1716 173.147 56.239 173.147C41.3064 173.147 29.2012 180.088 29.2012 188.649C29.2012 197.21 41.3064 204.15 56.239 204.15Z" fill="black"/>
<path d="M114.227 172.004C129.497 172.004 141.877 164.909 141.877 156.157C141.877 147.405 129.497 140.31 114.227 140.31C98.9557 140.31 86.5762 147.405 86.5762 156.157C86.5762 164.909 98.9557 172.004 114.227 172.004Z" fill="#E0E0E0"/>
<path d="M39.7267 58.634C39.7691 58.6848 39.8004 58.7437 39.8188 58.8071C39.8371 58.8705 39.8422 58.9369 39.8335 59.0023C39.8271 59.0685 39.8074 59.1327 39.7756 59.1911C39.7437 59.2496 39.7003 59.3011 39.6481 59.3427L37.7878 60.8214C37.7372 60.8643 37.6779 60.896 37.6139 60.9142C37.55 60.9325 37.4828 60.937 37.4169 60.9274C37.3497 60.9234 37.2842 60.9049 37.2249 60.8731C37.1657 60.8413 37.1142 60.7969 37.0741 60.7432L35.9051 59.259C35.8628 59.2082 35.8315 59.1492 35.8131 59.0859C35.7947 59.0225 35.7897 58.9561 35.7984 58.8907C35.8048 58.8245 35.8245 58.7603 35.8563 58.7018C35.8882 58.6433 35.9315 58.5918 35.9838 58.5503L37.844 57.0772C37.8947 57.0343 37.954 57.0026 38.0179 56.9843C38.0819 56.966 38.1491 56.9615 38.215 56.9712C38.2819 56.9762 38.3471 56.9952 38.4061 57.0269C38.4652 57.0587 38.5169 57.1024 38.5578 57.1553L39.7267 58.634ZM37.1921 55.4869C37.2754 55.5916 37.3138 55.7246 37.2991 55.8572C37.2844 55.9898 37.2177 56.1114 37.1134 56.1955L35.2532 57.6742C35.2016 57.7153 35.1421 57.7454 35.0783 57.7627C35.0145 57.7799 34.9478 57.784 34.8823 57.7747C34.8149 57.7715 34.7491 57.7533 34.6897 57.7214C34.6304 57.6895 34.579 57.6448 34.5395 57.5905L29.4815 51.2851C29.4397 51.233 29.4091 51.173 29.3917 51.1087C29.3743 51.0443 29.3705 50.9772 29.3803 50.9113C29.3844 50.8459 29.4026 50.7823 29.4336 50.7245C29.4647 50.6667 29.5078 50.6163 29.5602 50.5765L31.4091 49.1034C31.4613 49.0612 31.5217 49.03 31.5864 49.0118C31.6511 48.9936 31.719 48.9886 31.7857 48.9973C31.8516 49.0035 31.9155 49.023 31.9735 49.0546C32.0315 49.0863 32.0824 49.1295 32.1229 49.1815L37.1921 55.4869Z" fill="#DA693F"/>
<g opacity="0.5">
<path d="M39.7267 58.634C39.7691 58.6848 39.8004 58.7437 39.8188 58.8071C39.8371 58.8705 39.8422 58.9369 39.8335 59.0023C39.8271 59.0685 39.8074 59.1327 39.7756 59.1911C39.7437 59.2496 39.7003 59.3011 39.6481 59.3427L37.7878 60.8214C37.7372 60.8643 37.6779 60.896 37.6139 60.9142C37.55 60.9325 37.4828 60.937 37.4169 60.9274C37.3497 60.9234 37.2842 60.9049 37.2249 60.8731C37.1657 60.8413 37.1142 60.7969 37.0741 60.7432L35.9051 59.259C35.8628 59.2082 35.8315 59.1492 35.8131 59.0859C35.7947 59.0225 35.7897 58.9561 35.7984 58.8907C35.8048 58.8245 35.8245 58.7603 35.8563 58.7018C35.8882 58.6433 35.9315 58.5918 35.9838 58.5503L37.844 57.0772C37.8947 57.0343 37.954 57.0026 38.0179 56.9843C38.0819 56.966 38.1491 56.9615 38.215 56.9712C38.2819 56.9762 38.3471 56.9952 38.4061 57.0269C38.4652 57.0587 38.5169 57.1024 38.5578 57.1553L39.7267 58.634ZM37.1921 55.4869C37.2754 55.5916 37.3138 55.7246 37.2991 55.8572C37.2844 55.9898 37.2177 56.1114 37.1134 56.1955L35.2532 57.6742C35.2016 57.7153 35.1421 57.7454 35.0783 57.7627C35.0145 57.7799 34.9478 57.784 34.8823 57.7747C34.8149 57.7715 34.7491 57.7533 34.6897 57.7214C34.6304 57.6895 34.579 57.6448 34.5395 57.5905L29.4815 51.2851C29.4397 51.233 29.4091 51.173 29.3917 51.1087C29.3743 51.0443 29.3705 50.9772 29.3803 50.9113C29.3844 50.8459 29.4026 50.7823 29.4336 50.7245C29.4647 50.6667 29.5078 50.6163 29.5602 50.5765L31.4091 49.1034C31.4613 49.0612 31.5217 49.03 31.5864 49.0118C31.6511 48.9936 31.719 48.9886 31.7857 48.9973C31.8516 49.0035 31.9155 49.023 31.9735 49.0546C32.0315 49.0863 32.0824 49.1295 32.1229 49.1815L37.1921 55.4869Z" fill="white"/>
</g>
<path d="M36.6645 64.214C36.7199 64.2513 36.7673 64.2991 36.804 64.3546C36.8406 64.4102 36.8658 64.4724 36.8781 64.5377C36.8923 64.6029 36.8926 64.6703 36.879 64.7356C36.8655 64.801 36.8384 64.8628 36.7994 64.9171L35.4675 66.8757C35.4321 66.9314 35.3853 66.9791 35.3301 67.0156C35.2749 67.0521 35.2125 67.0767 35.1471 67.0877C35.0818 67.1016 35.0143 67.1023 34.9487 67.0899C34.883 67.0774 34.8206 67.052 34.765 67.0152L33.1801 65.955C33.071 65.8774 32.9962 65.7611 32.9711 65.6302C32.946 65.4994 32.9725 65.3639 33.0453 65.2519L34.3772 63.2933C34.414 63.2377 34.4619 63.1902 34.518 63.1537C34.5741 63.1172 34.6371 63.0926 34.7032 63.0813C34.7688 63.0672 34.8367 63.0669 34.9025 63.0804C34.9683 63.0938 35.0306 63.1207 35.0853 63.1594L36.6645 64.214ZM33.2925 61.982C33.4037 62.0579 33.4806 62.1738 33.5068 62.3052C33.5331 62.4365 33.5066 62.5729 33.433 62.6851L32.1011 64.6437C32.0646 64.6996 32.0167 64.7473 31.9606 64.7838C31.9045 64.8203 31.8413 64.8448 31.7751 64.8557C31.7098 64.8696 31.6423 64.8703 31.5767 64.8579C31.511 64.8454 31.4486 64.82 31.393 64.7832L24.6658 60.2634C24.6105 60.2261 24.5631 60.1784 24.5264 60.1228C24.4897 60.0673 24.4645 60.005 24.4523 59.9398C24.4381 59.8746 24.4378 59.8071 24.4513 59.7418C24.4649 59.6765 24.492 59.6147 24.531 59.5603L25.8629 57.6017C25.8977 57.5456 25.9444 57.4975 25.9997 57.4609C26.055 57.4243 26.1176 57.4 26.1832 57.3897C26.2489 57.3756 26.3168 57.3753 26.3826 57.3888C26.4484 57.4022 26.5107 57.4291 26.5654 57.4678L33.2925 61.982Z" fill="#DA693F"/>
<g opacity="0.2">
<path d="M36.6645 64.214C36.7199 64.2513 36.7673 64.2991 36.804 64.3546C36.8406 64.4102 36.8658 64.4724 36.8781 64.5377C36.8923 64.6029 36.8926 64.6703 36.879 64.7356C36.8655 64.801 36.8384 64.8628 36.7994 64.9171L35.4675 66.8757C35.4321 66.9314 35.3853 66.9791 35.3301 67.0156C35.2749 67.0521 35.2125 67.0767 35.1471 67.0877C35.0818 67.1016 35.0143 67.1023 34.9487 67.0899C34.883 67.0774 34.8206 67.052 34.765 67.0152L33.1801 65.955C33.071 65.8774 32.9962 65.7611 32.9711 65.6302C32.946 65.4994 32.9725 65.3639 33.0453 65.2519L34.3772 63.2933C34.414 63.2377 34.4619 63.1902 34.518 63.1537C34.5741 63.1172 34.6371 63.0926 34.7032 63.0813C34.7688 63.0672 34.8367 63.0669 34.9025 63.0804C34.9683 63.0938 35.0306 63.1207 35.0853 63.1594L36.6645 64.214ZM33.2925 61.982C33.4037 62.0579 33.4806 62.1738 33.5068 62.3052C33.5331 62.4365 33.5066 62.5729 33.433 62.6851L32.1011 64.6437C32.0646 64.6996 32.0167 64.7473 31.9606 64.7838C31.9045 64.8203 31.8413 64.8448 31.7751 64.8557C31.7098 64.8696 31.6423 64.8703 31.5767 64.8579C31.511 64.8454 31.4486 64.82 31.393 64.7832L24.6658 60.2634C24.6105 60.2261 24.5631 60.1784 24.5264 60.1228C24.4897 60.0673 24.4645 60.005 24.4523 59.9398C24.4381 59.8746 24.4378 59.8071 24.4513 59.7418C24.4649 59.6765 24.492 59.6147 24.531 59.5603L25.8629 57.6017C25.8977 57.5456 25.9444 57.4975 25.9997 57.4609C26.055 57.4243 26.1176 57.4 26.1832 57.3897C26.2489 57.3756 26.3168 57.3753 26.3826 57.3888C26.4484 57.4022 26.5107 57.4291 26.5654 57.4678L33.2925 61.982Z" fill="white"/>
</g>
<path d="M134.294 33.7531C134.336 33.7012 134.388 33.6582 134.447 33.6266C134.506 33.5949 134.571 33.5754 134.637 33.569C134.703 33.5604 134.77 33.5654 134.834 33.5837C134.898 33.6019 134.957 33.633 135.008 33.675L136.868 35.1537C136.973 35.2384 137.04 35.3608 137.054 35.4941C137.062 35.5603 137.057 35.6276 137.039 35.6918C137.02 35.7561 136.989 35.816 136.947 35.868L135.756 37.3467C135.714 37.3986 135.662 37.4416 135.603 37.4733C135.544 37.5049 135.479 37.5245 135.413 37.5308C135.347 37.5394 135.28 37.5344 135.216 37.5162C135.152 37.4979 135.093 37.4668 135.042 37.4248L133.182 35.9517C133.077 35.867 133.01 35.7446 132.996 35.6113C132.988 35.545 132.993 35.4778 133.011 35.4136C133.03 35.3493 133.061 35.2894 133.103 35.2374L134.294 33.7531ZM140.724 25.7793C140.764 25.7273 140.815 25.6842 140.873 25.6525C140.931 25.6208 140.995 25.6013 141.061 25.5952C141.128 25.5851 141.196 25.5893 141.261 25.6076C141.326 25.6259 141.386 25.6578 141.437 25.7012L143.298 27.1743C143.35 27.2158 143.393 27.2674 143.425 27.3258C143.457 27.3843 143.477 27.4485 143.483 27.5147C143.497 27.6466 143.459 27.7788 143.376 27.883L138.318 34.194C138.233 34.2975 138.111 34.3637 137.978 34.3783C137.844 34.3929 137.71 34.3548 137.605 34.2721L135.744 32.799C135.64 32.7143 135.573 32.5919 135.559 32.4586C135.55 32.3923 135.556 32.3251 135.574 32.2609C135.592 32.1966 135.623 32.1367 135.666 32.0847L140.724 25.7793Z" fill="#DA693F"/>
<g opacity="0.5">
<path d="M134.294 33.7531C134.336 33.7012 134.388 33.6582 134.447 33.6266C134.506 33.5949 134.571 33.5754 134.637 33.569C134.703 33.5604 134.77 33.5654 134.834 33.5837C134.898 33.6019 134.957 33.633 135.008 33.675L136.868 35.1537C136.973 35.2384 137.04 35.3608 137.054 35.4941C137.062 35.5603 137.057 35.6276 137.039 35.6918C137.02 35.7561 136.989 35.816 136.947 35.868L135.756 37.3467C135.714 37.3986 135.662 37.4416 135.603 37.4733C135.544 37.5049 135.479 37.5245 135.413 37.5308C135.347 37.5394 135.28 37.5344 135.216 37.5162C135.152 37.4979 135.093 37.4668 135.042 37.4248L133.182 35.9517C133.077 35.867 133.01 35.7446 132.996 35.6113C132.988 35.545 132.993 35.4778 133.011 35.4136C133.03 35.3493 133.061 35.2894 133.103 35.2374L134.294 33.7531ZM140.724 25.7793C140.764 25.7273 140.815 25.6842 140.873 25.6525C140.931 25.6208 140.995 25.6013 141.061 25.5952C141.128 25.5851 141.196 25.5893 141.261 25.6076C141.326 25.6259 141.386 25.6578 141.437 25.7012L143.298 27.1743C143.35 27.2158 143.393 27.2674 143.425 27.3258C143.457 27.3843 143.477 27.4485 143.483 27.5147C143.497 27.6466 143.459 27.7788 143.376 27.883L138.318 34.194C138.233 34.2975 138.111 34.3637 137.978 34.3783C137.844 34.3929 137.71 34.3548 137.605 34.2721L135.744 32.799C135.64 32.7143 135.573 32.5919 135.559 32.4586C135.55 32.3923 135.556 32.3251 135.574 32.2609C135.592 32.1966 135.623 32.1367 135.666 32.0847L140.724 25.7793Z" fill="white"/>
</g>
<path d="M137.745 39.7574C137.858 39.6852 137.994 39.6588 138.126 39.6837C138.258 39.7087 138.375 39.783 138.453 39.8913L139.785 41.8499C139.823 41.9047 139.849 41.9667 139.862 42.032C139.874 42.0973 139.873 42.1645 139.858 42.2293C139.848 42.2947 139.824 42.3572 139.789 42.413C139.753 42.4687 139.706 42.5164 139.65 42.553L138.065 43.6132C138.01 43.6512 137.948 43.6773 137.882 43.6898C137.816 43.7023 137.748 43.7009 137.683 43.6857C137.618 43.6757 137.556 43.6521 137.501 43.6165C137.446 43.5809 137.399 43.5342 137.363 43.4792L136.031 41.5207C135.992 41.4663 135.965 41.4045 135.951 41.3392C135.938 41.2738 135.938 41.2064 135.952 41.1412C135.965 41.0759 135.99 41.0137 136.026 40.9582C136.063 40.9026 136.11 40.8548 136.166 40.8176L137.745 39.7574ZM146.276 34.0379C146.389 33.9657 146.525 33.9393 146.657 33.9642C146.789 33.9892 146.906 34.0635 146.984 34.1718L148.305 36.136C148.344 36.1903 148.371 36.2521 148.385 36.3175C148.398 36.3828 148.398 36.4502 148.384 36.5154C148.371 36.5807 148.346 36.6429 148.31 36.6985C148.273 36.754 148.226 36.8018 148.17 36.839L141.426 41.3588C141.313 41.4311 141.177 41.4574 141.045 41.4325C140.913 41.4076 140.796 41.3332 140.718 41.2249L139.386 39.2663C139.349 39.211 139.324 39.149 139.311 39.0839C139.299 39.0188 139.299 38.9518 139.313 38.8869C139.324 38.8212 139.349 38.7585 139.386 38.7028C139.422 38.6471 139.47 38.5995 139.527 38.5633L146.276 34.0379Z" fill="#DA693F"/>
<g opacity="0.2">
<path d="M137.745 39.7574C137.858 39.6852 137.994 39.6588 138.126 39.6837C138.258 39.7087 138.375 39.783 138.453 39.8913L139.785 41.8499C139.823 41.9047 139.849 41.9667 139.862 42.032C139.874 42.0973 139.873 42.1645 139.858 42.2293C139.848 42.2947 139.824 42.3572 139.789 42.413C139.753 42.4687 139.706 42.5164 139.65 42.553L138.065 43.6132C138.01 43.6512 137.948 43.6773 137.882 43.6898C137.816 43.7023 137.748 43.7009 137.683 43.6857C137.618 43.6757 137.556 43.6521 137.501 43.6165C137.446 43.5809 137.399 43.5342 137.363 43.4792L136.031 41.5207C135.992 41.4663 135.965 41.4045 135.951 41.3392C135.938 41.2738 135.938 41.2064 135.952 41.1412C135.965 41.0759 135.99 41.0137 136.026 40.9582C136.063 40.9026 136.11 40.8548 136.166 40.8176L137.745 39.7574ZM146.276 34.0379C146.389 33.9657 146.525 33.9393 146.657 33.9642C146.789 33.9892 146.906 34.0635 146.984 34.1718L148.305 36.136C148.344 36.1903 148.371 36.2521 148.385 36.3175C148.398 36.3828 148.398 36.4502 148.384 36.5154C148.371 36.5807 148.346 36.6429 148.31 36.6985C148.273 36.754 148.226 36.8018 148.17 36.839L141.426 41.3588C141.313 41.4311 141.177 41.4574 141.045 41.4325C140.913 41.4076 140.796 41.3332 140.718 41.2249L139.386 39.2663C139.349 39.211 139.324 39.149 139.311 39.0839C139.299 39.0188 139.299 38.9518 139.313 38.8869C139.324 38.8212 139.349 38.7585 139.386 38.7028C139.422 38.6471 139.47 38.5995 139.527 38.5633L146.276 34.0379Z" fill="white"/>
</g>
<path d="M163.48 160.704C163.191 160.887 162.949 161.133 162.77 161.423C162.592 161.713 162.483 162.04 162.451 162.378C162.636 163.347 162.953 164.285 163.395 165.168C164.18 166.693 164.519 168.406 164.373 170.112C164.205 171.881 164.739 175.273 166.385 176.735C167.245 177.471 168.28 177.975 169.392 178.198C170.504 178.422 171.656 178.358 172.736 178.013C174.63 177.355 175.13 176.378 174.984 174.844L163.48 160.704Z" fill="#37474F"/>
<path d="M166.418 175.301C166.157 175.021 165.942 174.701 165.783 174.353C165.31 173.423 165.049 172.402 165.019 171.362C165.128 170.249 165.143 169.129 165.064 168.014C164.927 166.869 164.651 165.745 164.243 164.666C163.829 163.806 163.518 162.902 163.316 161.971C162.984 159.141 165.603 158.065 166.896 157.043L170.071 150.498L175.523 156.636C175.523 156.636 173.275 159.158 172.713 160.029C171.943 161.178 171.662 163.109 171.521 164.454C171.341 166.167 170.993 168.03 171.78 169.632C172.242 170.478 172.79 171.274 173.415 172.009C173.595 172.218 173.741 172.453 173.848 172.706C174.118 173.415 173.78 174.202 173.449 174.883C172.887 175.999 172.224 177.204 171.055 177.416C170.375 177.48 169.691 177.344 169.088 177.025C168.083 176.649 167.172 176.06 166.418 175.301Z" fill="#F28F8F"/>
<path d="M172.877 170.748C172.506 170.006 171.528 167.986 171.579 166.808C171.621 165.339 171.785 163.876 172.068 162.433C172.315 161.675 172.686 161.284 172.444 161.2C170.917 161.422 169.422 161.826 167.993 162.406C167.021 162.902 167.201 163.583 166.914 164.308C167.036 163.405 166.926 162.485 166.594 161.636C166.189 160.821 165.425 158.46 166.56 157.4L166.909 157.026C166.909 157.026 166.779 156.675 166.296 157.099C165.813 157.523 164.155 158.929 163.694 159.677C163.35 160.133 163.128 160.668 163.051 161.232C162.973 161.797 163.042 162.371 163.25 162.902C163.812 164.481 164.233 164.838 164.571 166.501C164.901 167.984 165.014 169.506 164.908 171.021C164.849 172.697 165.378 174.342 166.403 175.675L172.877 170.748Z" fill="#455A64"/>
<path d="M194.456 110.166C194.456 110.166 195.361 121.326 192.9 132.637C191.073 141.035 189.078 142.993 188.055 144.165C183.492 149.371 174.264 158.148 174.264 158.148C174.264 158.148 169.178 157.59 168.441 153.472C171.639 146.297 174.41 139.227 177.641 135.756L172.64 112.08L194.456 110.166Z" fill="#37474F"/>
<path d="M171.144 177.444C172.336 177.327 174.814 176.936 174.938 174.927C175.033 173.292 173.359 171.362 172.875 170.759C172.679 170.614 170.886 170.463 168.554 171.512C166.221 172.561 165.71 173.499 165.833 174.832C166.375 175.726 167.163 176.446 168.105 176.909C169.046 177.371 170.1 177.557 171.144 177.444Z" fill="#F0F0F0"/>
<path d="M197.374 173.488C196.772 173.522 196.902 172.673 196.531 170.765C196.16 168.857 195.002 160.609 195.002 160.609L185.65 164.108C185.65 164.108 188.05 170.988 188.803 172.975C189.646 175.179 190.821 178.209 190.995 179.916C191.169 181.624 191.192 186.389 193.243 187.276C195.294 188.163 197.205 187.22 198.576 186.316C199.948 185.412 201.566 182.204 203.072 180.591C204.579 178.979 205.882 178.092 207.063 176.423C208.243 174.755 208.22 170.564 206.664 169.671C205.107 168.779 202.859 169.733 201.538 170.536C200.217 171.34 198.492 173.427 197.374 173.488Z" fill="#F28F8F"/>
<path d="M168.351 112.264C168.014 115.428 168.655 121.516 171.448 127.157C174.241 132.799 174.916 133.853 181.115 146.615C181.086 149.466 181.115 152.306 183.031 157.68C185.419 164.376 188.044 171.552 188.044 171.552C188.928 170.261 190.168 169.25 191.615 168.64C193.061 168.029 194.655 167.845 196.204 168.109C195.957 164.828 194.299 149.215 193.45 144.589C192.388 138.836 188.235 119.144 188.235 119.144C189.929 118.263 191.381 116.984 192.465 115.42C193.549 113.855 194.233 112.052 194.456 110.166L168.351 112.264Z" fill="#455A64"/>
<path d="M191.686 185.926C191.176 184.257 190.889 182.529 190.832 180.786C190.658 178.281 190.23 177.517 190.23 177.517C190.23 177.517 190.5 175.843 192.979 173.878C195.457 171.914 196.986 172.863 196.986 172.863C196.986 172.863 197.548 173.884 199.11 172.054L201.92 175.926L191.686 185.926Z" fill="#455A64"/>
<path d="M206.905 169.465C206 168.544 204.539 168.533 202.589 169.509C201.278 170.132 200.097 170.995 199.11 172.054C199.11 172.054 198.059 173.973 199.588 175.307C201.116 176.64 206.905 169.465 206.905 169.465Z" fill="#F0F0F0"/>
<path d="M208.276 171.239C208.222 170.705 207.965 170.212 207.557 169.861C207.427 169.771 206.995 169.526 206.905 169.465C205.781 168.678 203.707 170.302 201.959 171.897C199.925 173.761 198.025 177.533 196.339 180.083C194.653 182.633 192.647 183.593 191.967 184.72C191.741 185.07 191.634 185.483 191.663 185.898C191.691 186.313 191.853 186.708 192.124 187.025C192.231 187.148 192.602 187.521 192.686 187.583C193.037 187.878 193.456 188.084 193.906 188.181C194.355 188.279 194.822 188.265 195.266 188.141C197.514 187.728 199.149 187.025 201.049 184.279C202.948 181.534 203.954 180.139 206.152 178.404C208.349 176.668 208.709 173.465 208.276 171.239Z" fill="#37474F"/>
<path d="M208.276 171.239C207.669 168.12 204.87 170.234 202.617 172.299C200.582 174.163 198.683 177.935 196.997 180.485C195.311 183.035 193.26 183.967 192.624 185.122C191.5 187.22 193.012 188.576 195.266 188.163C197.52 187.75 199.149 187.047 201.049 184.302C202.948 181.556 203.954 180.161 206.152 178.426C208.349 176.69 208.709 173.465 208.276 171.239Z" fill="#263238"/>
<path d="M197.931 173.047C197.245 173.349 196.987 172.863 196.987 172.863C194.817 175.095 194.564 176.524 194.564 176.524C194.564 176.524 196.683 173.896 197.931 173.047Z" fill="#37474F"/>
<path d="M185.656 119.909C187.067 123.505 188.251 127.183 189.202 130.924C190.18 134.663 191.096 138.424 191.709 142.263C192.322 146.102 192.771 149.924 193.255 153.763C193.738 157.602 194.182 161.447 194.575 165.291C193.878 161.489 193.234 157.68 192.642 153.863C192.041 150.047 191.479 146.224 190.956 142.402C190.686 140.494 190.276 138.619 189.883 136.727C189.489 134.836 189.062 132.966 188.629 131.086C188.196 129.205 187.736 127.336 187.252 125.472C186.769 123.609 186.235 121.751 185.656 119.909Z" fill="#37474F"/>
<path d="M224.107 89.7318L222.056 89.609L219.752 89.503L218.571 89.4583C218.433 89.4727 218.292 89.4555 218.161 89.4081C218.077 89.3336 218.005 89.2471 217.948 89.1514H215.475C215.015 89.8599 214.656 90.6278 214.407 91.4337C214.326 91.6777 214.224 91.9148 214.104 92.1423C213.618 92.9966 212.891 93.6911 212.013 94.14C210.625 94.9379 204.904 98.1297 204.904 98.1297C204.904 98.1297 204.235 97.0137 201.588 91.1826C199.705 87.0478 196.957 81.4678 192.989 81.4678C192.989 81.4678 192.669 88.32 192.506 93.1858C194.608 96.8295 197.969 102.728 199.683 104.937C201.689 107.526 203.116 108.525 205.252 107.459C209.001 105.59 212.232 102.019 214.542 99.999C215.329 99.2959 216.172 98.5705 216.925 97.8451C217.678 97.1197 218.774 96.9411 219.735 96.7291C220.375 96.6268 220.999 96.4391 221.589 96.1711C221.957 95.9842 222.257 95.6895 222.45 95.3272C222.644 94.9648 222.72 94.5523 222.668 94.1455C222.657 94.0922 222.657 94.0371 222.668 93.9837C222.668 93.9112 222.764 93.8721 222.826 93.8275C223.003 93.6968 223.132 93.5118 223.193 93.301C223.254 93.0903 223.243 92.8654 223.163 92.6613C223.444 92.6377 223.706 92.5149 223.903 92.3152C224.1 92.1155 224.219 91.8522 224.236 91.5732C225.327 91.5174 226.411 91.4337 227.502 91.3221C227.688 91.3277 227.874 91.2965 228.049 91.2305C228.224 91.1644 228.383 91.0647 228.519 90.937C228.596 90.8468 228.638 90.7319 228.637 90.6134C228.637 90.3121 228.288 90.1447 227.996 90.0554C227.563 89.9627 227.123 89.903 226.681 89.8768L224.107 89.7318Z" fill="#FFA8A7"/>
<path d="M210.49 94.888L212.373 93.7441C212.211 94.8901 212.434 96.057 213.008 97.0642C213.527 98.0846 214.349 98.9222 215.363 99.4636L213.868 100.797C213.868 100.797 210.226 99.4134 210.49 94.888Z" fill="#FAFAFA"/>
<path d="M193 81.3115C195.94 81.8695 196.934 82.3996 198.665 85.2175C200.396 88.0354 205.01 97.6721 205.01 97.6721L211.265 94.3241C210.983 95.747 211.21 97.2232 211.906 98.4979C213.075 100.378 214.3 100.607 214.3 100.607C214.3 100.607 208.68 106.472 205.511 107.649C202.341 108.827 201.335 107.448 199.891 105.629C198.446 103.81 192.506 94.6868 192.506 94.6868L193 81.3115Z" fill="#37474F"/>
<path d="M218.668 92.1199C218.735 91.8676 218.78 91.61 218.802 91.3499C218.847 91.1089 218.837 90.8613 218.774 90.6245C218.746 90.5463 218.611 90.4515 218.566 90.5687C218.504 90.7986 218.464 91.0341 218.448 91.2717C218.415 91.4894 218.37 91.7126 218.314 91.9302C218.186 92.3675 217.997 92.7846 217.752 93.1689C217.52 93.5371 217.228 93.8635 216.886 94.1343C216.558 94.3716 216.212 94.5843 215.852 94.7704C215.824 94.7704 215.807 94.8876 215.852 94.8876C216.302 94.8188 216.731 94.6527 217.108 94.4011C217.486 94.1494 217.804 93.8183 218.038 93.4312C218.322 93.0328 218.534 92.5894 218.668 92.1199Z" fill="#F28F8F"/>
<path d="M229.307 110.417L192.186 31.8057L191.152 32.3079L228.278 110.924C228.486 111.332 229.503 110.813 229.307 110.417Z" fill="#455A64"/>
<path d="M191.731 33.2514C190.279 32.9693 188.773 33.1898 187.465 33.8764C185.543 34.7469 184.335 36.6664 182.885 38.2232C181.11 40.0998 178.881 41.4948 176.41 42.2761C173.94 43.0573 171.309 43.1989 168.768 42.6872C169.889 43.982 171.374 44.9147 173.033 45.3656C174.674 45.8085 176.355 46.0852 178.052 46.1915C175.289 47.3758 172.269 47.8461 169.273 47.5586C170.375 48.4687 171.618 49.1943 172.954 49.7069C175.736 50.9512 178.473 51.8607 181.564 51.5817C184.497 51.3239 187.235 50.0124 189.264 47.8934C190.236 46.8611 191.023 45.6614 191.984 44.6179C193.022 43.476 194.4 42.6938 195.918 42.3859L191.731 33.2514Z" fill="#DA693F"/>
<path d="M190.68 32.8382C190.779 32.9705 190.904 33.0817 191.047 33.1654C191.19 33.2491 191.348 33.3034 191.513 33.3253C191.677 33.3471 191.845 33.336 192.005 33.2926C192.165 33.2492 192.315 33.1744 192.445 33.0725C192.71 32.8608 192.882 32.5553 192.925 32.2203C192.968 31.8852 192.879 31.5467 192.675 31.2758C192.576 31.1433 192.451 31.0319 192.307 30.9482C192.164 30.8644 192.005 30.81 191.84 30.7882C191.675 30.7664 191.507 30.7775 191.347 30.821C191.186 30.8645 191.036 30.9394 190.905 31.0414C190.64 31.2531 190.468 31.5591 190.426 31.8945C190.384 32.23 190.475 32.5684 190.68 32.8382Z" fill="#37474F"/>
<path d="M205.011 97.683C203.022 98.799 202.083 101.26 202.083 101.26C202.06 100.284 202.371 99.3303 202.966 98.5535C203.446 97.9261 203.996 97.3551 204.607 96.8516L205.011 97.683Z" fill="#263238"/>
<path d="M217.947 89.1513C217.915 88.9632 217.937 88.77 218.009 88.5933C218.171 88.0067 218.235 87.3981 218.2 86.791C218.195 86.5462 218.14 86.3051 218.037 86.0823C217.908 85.8201 217.526 85.4853 217.217 85.6806C216.908 85.8759 216.812 86.4897 216.694 86.7575C216.34 87.5914 215.932 88.4021 215.475 89.1848" fill="#FFA8A7"/>
<path d="M191.675 70.8221L193.479 77.825C192.83 78.2538 192.06 78.465 191.281 78.4276L191.579 83.6003C191.579 83.6003 189.005 84.0523 187.477 82.6461L189.932 70.4092L191.675 70.8221Z" fill="#DA693F"/>
<path opacity="0.1" d="M191.282 78.4274C190.868 78.4395 190.458 78.3392 190.097 78.1373L190.136 71.5361L189.613 78.4665C190.121 78.7777 190.703 78.9509 191.299 78.9687L191.282 78.4274Z" fill="black"/>
<path d="M195.981 92.1596C196.307 84.1914 194.121 81.9538 192.761 81.2842L185.989 79.5488C184.235 79.6214 177.497 81.3065 175.418 81.6692C174.086 81.898 173.102 84.4592 172.152 88.6108C171.314 92.3709 170.75 96.1865 170.466 100.027C170.084 104.324 169.719 106.802 168.303 112.895C177.115 116.243 186.725 118.86 193.767 114.223C193.688 113.107 195.015 103.833 195.262 101.088C195.509 98.3423 195.891 94.3024 195.981 92.1596Z" fill="#FAFAFA"/>
<path d="M188.507 77.5623C189.069 75.6874 191.255 73.9297 192.339 72.3673C193.424 70.8049 194.025 69.6777 194.138 68.1488C194.2 67.2449 193.784 65.9559 193.149 65.6155C193.372 65.093 193.487 64.531 193.486 63.9634C193.484 63.3957 193.367 62.8342 193.141 62.3127C192.916 61.7912 192.586 61.3206 192.172 60.9292C191.758 60.5378 191.268 60.2338 190.732 60.0355C190.121 59.8281 189.526 59.5782 188.951 59.2878C188.259 58.8916 188.169 58.289 187.647 57.7198C186.748 56.7433 185.05 56.5089 184.235 57.7198C183.673 56.7712 182.757 56.6763 181.667 56.8103C181.21 56.8539 180.787 57.0685 180.483 57.4104C180.18 57.7523 180.018 58.196 180.032 58.6517C179.806 58.4637 179.54 58.3302 179.254 58.2614C178.968 58.1927 178.67 58.1907 178.383 58.2556C178.096 58.3205 177.828 58.4504 177.601 58.6353C177.373 58.8202 177.191 59.055 177.07 59.3213C176.896 59.9127 176.957 60.4373 176.508 60.9339C176.058 61.4305 175.125 61.3691 174.934 60.8446C174.676 61.6872 174.934 62.3903 175.878 62.4572C175.686 62.6767 175.546 62.9355 175.466 63.2152C175.386 63.4949 175.37 63.7886 175.418 64.0754C175.487 64.4349 175.665 64.7648 175.928 65.0211C176.191 65.2774 176.527 65.4478 176.89 65.5095C176.864 65.9781 176.949 66.4463 177.137 66.8766C177.369 67.3209 177.704 67.7036 178.115 67.9926C179.453 68.8519 181.004 69.2704 182.499 69.7782L184.269 70.3864C184.376 70.4199 184.921 70.5259 184.972 70.6263L188.507 77.5623Z" fill="#263238"/>
<path d="M191.166 75.3693C189.704 75.9998 189.227 74.443 189.227 74.443L188.507 79.6212C188.507 79.8835 188.238 82.082 188.238 82.082C188.238 82.082 189.227 83.7113 188.564 88.4264C187.642 87.4165 185.877 86.6074 180.291 81.4235L180.521 78.4271C179.753 78.3408 178.991 78.2085 178.24 78.0309C177.478 77.8005 176.803 77.3518 176.298 76.7412C175.793 76.1305 175.481 75.3853 175.402 74.5992C175.196 72.4046 175.412 70.1911 176.037 68.0762C176.207 67.5698 176.304 67.0418 176.323 66.5082C176.357 65.3366 176.669 64.1894 177.234 63.1602C179.071 62.0442 183.815 62.3623 187.13 64.9849C186.124 66.7035 186.372 68.6174 187.822 69.6218C187.676 70.1798 187.417 71.6251 188.384 71.7199C189.069 71.7869 189.227 70.9387 190.025 70.2803C190.823 69.6218 192.486 69.6274 192.981 70.8383C193.282 71.6838 193.264 72.6089 192.93 73.4421C192.596 74.2752 191.969 74.96 191.166 75.3693Z" fill="#FFA8A7"/>
<path d="M180.522 78.4268C182.961 78.4268 184.815 78.4268 186.288 76.8532C186.984 76.0402 187.591 75.1554 188.097 74.2139C187.788 75.423 187.287 76.5757 186.614 77.6288C185.866 78.65 184.264 79.3809 180.432 79.2247L180.522 78.4268Z" fill="#F28F8F"/>
<path d="M177.003 66.4636L178.661 66.2293C178.651 66.1214 178.618 66.0167 178.566 65.9216C178.514 65.8264 178.443 65.7426 178.358 65.6754C178.272 65.6082 178.174 65.5588 178.068 65.5303C177.963 65.5018 177.853 65.4947 177.745 65.5095C177.521 65.5427 177.319 65.6606 177.181 65.8384C177.043 66.0163 176.979 66.2403 177.003 66.4636Z" fill="#263238"/>
<path d="M177.166 68.3716C177.157 68.5034 177.187 68.6349 177.252 68.7498C177.318 68.8648 177.416 68.9581 177.534 69.0182C177.653 69.0784 177.786 69.1027 177.919 69.0882C178.051 69.0738 178.176 69.0211 178.278 68.9368C178.381 68.8524 178.456 68.7401 178.495 68.6138C178.533 68.4874 178.534 68.3526 178.496 68.2259C178.459 68.0992 178.384 67.9863 178.283 67.9011C178.181 67.816 178.056 67.7623 177.924 67.7467C177.741 67.7311 177.558 67.7879 177.416 67.9048C177.274 68.0218 177.184 68.1894 177.166 68.3716Z" fill="#263238"/>
<path d="M182.398 69.0977C182.389 69.2295 182.419 69.361 182.485 69.4759C182.55 69.5908 182.648 69.6841 182.767 69.7443C182.885 69.8044 183.019 69.8288 183.151 69.8143C183.283 69.7998 183.408 69.7472 183.511 69.6628C183.613 69.5785 183.688 69.4662 183.727 69.3398C183.766 69.2135 183.766 69.0786 183.729 68.952C183.691 68.8253 183.617 68.7124 183.515 68.6272C183.413 68.542 183.289 68.4883 183.157 68.4727C183.066 68.4643 182.974 68.4737 182.886 68.5006C182.799 68.5274 182.717 68.5711 182.647 68.6291C182.577 68.6872 182.518 68.7584 182.476 68.8388C182.433 68.9192 182.406 69.0072 182.398 69.0977Z" fill="#263238"/>
<path d="M177.588 70.9607L179.808 72.2999L181.123 67.8359C180.285 67.3895 178.892 69.3536 177.588 70.9607Z" fill="#F28F8F"/>
<path d="M183.258 66.3631L184.618 67.3452C184.748 67.1579 184.8 66.9279 184.764 66.7033C184.727 66.4786 184.604 66.2768 184.421 66.1399C184.331 66.0764 184.228 66.0317 184.12 66.0086C184.012 65.9854 183.9 65.9842 183.792 66.005C183.683 66.0259 183.58 66.0684 183.488 66.1299C183.396 66.1914 183.318 66.2708 183.258 66.3631Z" fill="#263238"/>
<path d="M182.33 73.6562L179.43 73.8962C179.436 74.0871 179.481 74.2748 179.563 74.4478C179.644 74.6209 179.76 74.7758 179.903 74.903C180.047 75.0303 180.215 75.1274 180.397 75.1883C180.579 75.2493 180.772 75.2729 180.964 75.2577C181.356 75.2181 181.717 75.0291 181.972 74.7304C182.227 74.4318 182.355 74.0468 182.33 73.6562Z" fill="#B16668"/>
<path d="M181.931 74.0411C182.049 74.0438 182.166 74.0606 182.28 74.0914C182.203 74.3894 182.036 74.6567 181.8 74.8565C181.565 75.0563 181.273 75.1789 180.964 75.2074C180.808 75.2208 180.649 75.2057 180.498 75.1627C180.548 74.8298 180.724 74.5284 180.991 74.32C181.257 74.1116 181.593 74.0119 181.931 74.0411Z" fill="#F28F8F"/>
<path d="M176.317 66.6649C178.071 65.5489 179.852 67.2229 180.757 67.3457C181.842 67.4964 181.993 66.9328 184.747 67.3457C186.13 67.5522 190.446 70.0185 190.446 70.0185C189.923 70.3533 189.474 70.7899 189.125 71.3019C186.197 71.7037 184.196 72.111 182.522 71.4972C180.577 70.783 180.077 69.7228 178.661 69.6223L178.059 70.3756C177.186 70.3461 176.344 70.0477 175.648 69.5219C175.648 69.5219 175.727 67.6414 176.317 66.6649Z" fill="#DA693F"/>
<path opacity="0.1" d="M188.478 70.7159C187.815 70.7159 187.157 70.7159 186.5 70.7885C186.455 70.7885 186.443 70.9001 186.5 70.9001C187.18 70.9001 187.854 70.9001 188.534 70.9001C188.838 70.9001 189.147 70.9001 189.45 70.9391L189.624 70.7494H189.456L188.478 70.7159ZM189.653 70.2918C189.225 70.1288 188.785 69.9982 188.337 69.9012C188.287 69.9012 188.281 70.0017 188.337 70.0184C188.77 70.1747 189.197 70.3365 189.624 70.5095L189.782 70.5764L189.95 70.409L189.653 70.2918ZM178.058 70.3755L178.66 69.6222C179.135 69.0079 179.676 68.4466 180.273 67.9482C179.492 68.1938 177.895 69.7394 177.367 70.2695C177.593 70.3312 177.825 70.3668 178.058 70.3755Z" fill="black"/>
<path d="M188.903 89.0634C189.252 87.4843 190.207 87.0044 190.724 86.9988C191.086 86.9791 191.448 87.0418 191.782 87.182C192.116 87.3222 192.414 87.5363 192.652 87.8079C192.351 85.8392 191.645 83.9531 190.578 82.267C189.016 79.9401 188.504 79.6221 188.504 79.6221L188.234 82.0829C188.531 82.9096 188.692 83.778 188.712 84.6552C188.753 85.9402 188.708 87.2264 188.577 88.5054C188.749 88.647 188.865 88.8448 188.903 89.0634Z" fill="#E0E0E0"/>
<path d="M180.491 78.8125C179.766 79.0134 179.833 79.8839 177.754 80.7209C178.057 82.5173 178.746 84.228 179.774 85.7368C180.802 87.2455 182.144 88.5169 183.711 89.4647C184.385 88.7347 185.255 88.2102 186.218 87.9525C187.735 87.5675 188.87 88.9793 188.87 88.9793C188.751 88.5598 188.529 88.1763 188.224 87.8633C185.976 85.6313 184.554 84.2921 183.335 83.2877C180.109 80.6372 180.435 79.3426 180.435 79.3426L180.491 78.8125Z" fill="#E0E0E0"/>
<path d="M173.815 81.1891C175.145 81.0871 176.462 80.8611 177.749 80.5139C178.491 80.2493 179.178 79.8542 179.778 79.3477C179.637 80.0347 179.618 80.741 179.722 81.4346C179.874 82.7403 180.514 84.0516 180.981 85.6252C182.077 89.308 183.229 93.1135 182.667 100.875C182.256 106.902 181.183 116.231 180.627 120.628C177.923 120.567 168.886 118.078 167.459 116.851C167.791 110.155 169.016 108.447 169.522 100.797C169.966 94.6369 170.533 82.4278 173.815 81.1891Z" fill="#263238"/>
<path d="M177.71 81.7412C177.654 83.3706 177.592 84.9999 177.508 86.6237L177.384 89.0677L177.244 91.5062L177.188 91.3779C178.081 92.1535 178.986 92.9179 179.874 93.6991L179.975 93.7884L179.908 93.9056L177.935 97.4768V97.3596C178.323 98.6263 178.683 99.8929 179.059 101.16C179.436 102.426 179.79 103.699 180.144 104.971C179.705 103.726 179.284 102.471 178.868 101.221C178.452 99.9711 178.036 98.71 177.637 97.4489V97.3931L177.665 97.3373L179.61 93.7438L179.644 93.9558C178.75 93.1802 177.868 92.3934 176.974 91.6178L176.918 91.562V91.5118L177.087 89.0733L177.278 86.6405C177.407 84.9888 177.531 83.365 177.71 81.7412Z" fill="#37474F"/>
<path d="M189.332 80.5923C190.496 82.5063 192.957 86.8363 193.075 92.0704C193.165 95.8704 192.907 99.5532 192.715 103.052C192.187 112.538 191.743 119.401 191.743 119.401C193.094 119.205 194.348 118.592 195.329 117.649C195.329 111.511 196.076 103.208 196.217 100.837C196.357 98.4651 196.728 93.9787 196.841 91.0771C196.953 88.1755 196.003 83.5832 193.705 81.4516C191.316 80.782 188.832 79.9395 188.832 79.9395L189.332 80.5923Z" fill="#263238"/>
<path d="M191.479 81.0439C192.026 81.7872 192.517 82.5706 192.945 83.3875C193.377 84.2017 193.766 85.038 194.109 85.893C194.445 86.7462 194.738 87.616 194.985 88.4988C195.231 89.3604 195.432 90.2338 195.587 91.1158L194.081 93.186L194.024 93.2697L194.069 93.359L195.643 96.4726L194.974 98.6488L194.3 100.881C193.845 102.376 193.417 103.872 192.99 105.378C193.507 103.9 194.013 102.426 194.502 100.942L195.238 98.7102L195.958 96.4782V96.4224L195.93 96.361L194.401 93.2697L195.873 91.1995L195.913 91.1382V91.0768C195.733 90.1672 195.536 89.2577 195.266 88.3649C195.004 87.476 194.686 86.6039 194.317 85.7535C193.951 84.8997 193.531 84.0703 193.058 83.2704C192.598 82.484 192.069 81.739 191.479 81.0439Z" fill="#37474F"/>
<path d="M167.581 135.94L163.186 154.008C162.973 154.884 162.225 155.241 161.354 155.503L159.174 156.145C158.923 156.246 158.653 156.292 158.382 156.28C158.112 156.269 157.847 156.2 157.606 156.078C157.272 155.9 156.964 155.678 156.69 155.419L156.65 155.386L156.566 155.302L139.734 139.405C139.13 138.834 138.687 138.115 138.451 137.321C138.216 136.527 138.195 135.684 138.391 134.879L142.392 118.43C142.453 118.227 142.561 118.042 142.708 117.889C142.854 117.736 143.035 117.619 143.235 117.548L146.956 116.465C147.162 116.415 147.377 116.414 147.583 116.462C147.789 116.511 147.981 116.608 148.142 116.744L167.25 134.785C167.405 134.938 167.514 135.131 167.564 135.343C167.619 135.537 167.625 135.742 167.581 135.94Z" fill="#37474F"/>
<path d="M167.581 135.94L163.186 154.008C162.973 154.884 162.225 155.241 161.354 155.503L159.173 156.145C158.922 156.245 158.653 156.292 158.382 156.28C158.112 156.269 157.847 156.2 157.605 156.078C157.272 155.9 156.964 155.678 156.689 155.419C157.364 155.977 158.061 155.709 158.28 154.811L162.422 137.792C162.486 137.479 162.468 137.154 162.371 136.849L167.547 135.337C167.608 135.532 167.62 135.739 167.581 135.94Z" fill="#263238"/>
<path d="M162.423 137.775C162.48 137.462 162.463 137.14 162.372 136.835C162.282 136.529 162.12 136.249 161.9 136.018L143.854 118.965C143.14 118.295 142.371 118.519 142.14 119.467L138.392 134.868C138.195 135.673 138.215 136.515 138.451 137.31C138.687 138.104 139.13 138.823 139.735 139.393L156.567 155.296C157.275 155.972 158.05 155.748 158.281 154.794L162.423 137.775Z" fill="#455A64"/>
<path d="M145.749 116.812L164.857 135.002C165.126 135.26 165.322 135.583 165.426 135.939C165.531 136.296 165.54 136.673 165.453 137.033L160.957 155.626L160.569 155.743L165.138 136.955C165.212 136.653 165.205 136.337 165.117 136.038C165.029 135.739 164.864 135.469 164.638 135.253L145.4 116.923L145.749 116.812Z" fill="#DA693F"/>
<path opacity="0.2" d="M165.419 135.939C165.518 136.305 165.518 136.69 165.419 137.055L160.923 155.648L160.535 155.765L165.104 136.977C165.186 136.678 165.186 136.362 165.104 136.062L165.419 135.939Z" fill="black"/>
<path opacity="0.2" d="M165.08 136.04C164.995 135.74 164.83 135.468 164.603 135.253L145.365 116.923L145.747 116.812L164.855 135.002C165.121 135.262 165.314 135.585 165.417 135.94" fill="black"/>
<path d="M153.082 121.013L152.402 123.803L151.148 124.171L152.053 120.455C152.098 120.265 152.25 120.221 152.396 120.355L153.082 121.013Z" fill="#DA693F"/>
<path opacity="0.4" d="M153.082 121.013L152.402 123.803L151.148 124.171L152.053 120.455C152.098 120.265 152.25 120.221 152.396 120.355L153.082 121.013Z" fill="black"/>
<path d="M160.151 125.633L159.027 130.159L157.83 130.516L157.223 129.958L158.123 126.241C158.144 126.136 158.139 126.027 158.109 125.924C158.078 125.821 158.023 125.727 157.948 125.65L153.363 121.264L152.407 120.36C152.261 120.226 152.109 120.271 152.064 120.461L151.159 124.177L150.547 123.619L151.671 119.094V119.038C151.708 118.948 151.764 118.867 151.835 118.8C151.905 118.733 151.989 118.681 152.081 118.647L152.593 118.496C152.698 118.472 152.808 118.473 152.913 118.498C153.019 118.523 153.117 118.572 153.2 118.642L159.994 125.064C160.063 125.141 160.113 125.232 160.14 125.33C160.167 125.429 160.171 125.533 160.151 125.633Z" fill="#DA693F"/>
<path opacity="0.2" d="M158.983 125.985L157.859 130.516L157.252 129.958L158.151 126.242C158.172 126.137 158.167 126.028 158.137 125.925C158.107 125.822 158.052 125.728 157.977 125.65L153.363 121.265L152.407 120.361C152.261 120.227 152.109 120.271 152.064 120.461L151.159 124.177L150.547 123.619L151.671 119.094V119.038C151.733 118.899 151.873 118.876 151.997 118.994L158.797 125.416C158.869 125.491 158.923 125.581 158.955 125.68C158.987 125.778 158.996 125.883 158.983 125.985Z" fill="black"/>
<path d="M156.174 121.465L159.068 124.199C159.214 123.673 159.214 123.118 159.068 122.592C158.821 122.123 157.719 120.165 157.191 120.176C156.944 120.176 156.534 120.751 156.174 121.465Z" fill="#F28F8F"/>
<path d="M155.612 123.412C155.603 123.525 155.603 123.639 155.612 123.752C155.773 124.513 156.097 125.231 156.562 125.856C157.015 125.88 157.466 125.773 157.86 125.549L155.612 123.412Z" fill="#F28F8F"/>
<path d="M173.792 81.3223C170.982 81.6794 168.644 83.0409 166.176 86.6791C163.709 90.3172 160.731 94.6194 158.87 98.6147C157.01 102.61 153.88 111.17 152.93 113.826C152.501 114.885 152.146 115.972 151.868 117.079C151.615 118.349 151.451 119.636 151.379 120.929C151.339 121.227 151.375 121.531 151.484 121.812C151.593 122.092 151.772 122.342 152.003 122.536C152.141 122.62 152.271 122.717 152.391 122.826C152.599 123.055 152.621 123.384 152.773 123.663C152.959 123.968 153.254 124.191 153.599 124.288C153.753 124.33 153.905 124.38 154.054 124.439C154.616 124.684 154.858 125.298 155.341 125.633C155.51 125.775 155.706 125.883 155.917 125.95C156.129 126.017 156.351 126.042 156.572 126.024C156.81 125.985 157.044 125.921 157.269 125.834C157.392 125.789 157.746 125.6 157.859 125.544C157.512 125.434 157.206 125.224 156.981 124.939C156.757 124.654 156.624 124.309 156.6 123.948C156.485 123.179 156.531 122.394 156.735 121.643C156.771 121.462 156.85 121.292 156.965 121.147C156.989 121.108 157.025 121.077 157.067 121.058C157.109 121.039 157.156 121.033 157.201 121.041C157.297 121.041 157.336 121.18 157.364 121.281C157.488 121.959 157.74 122.609 158.106 123.195C158.249 123.452 158.48 123.65 158.758 123.753C158.896 123.796 159.045 123.785 159.175 123.721C159.305 123.658 159.405 123.547 159.455 123.412C159.477 123.3 159.477 123.184 159.455 123.072C159.319 122.171 159.265 121.259 159.292 120.349C159.355 119.506 159.308 118.658 159.151 117.827C158.955 116.956 158.275 115.656 158.634 114.819C159.247 113.413 165.345 102.8 165.345 102.8C165.345 102.8 171.583 93.7768 173.151 91.3663C175.05 88.3363 175.612 83.9225 173.792 81.3223Z" fill="#FFA8A7"/>
<path d="M160.191 111.929L159.208 113.905C158.171 114.055 157.116 113.796 156.268 113.185C154.672 112.136 154.11 111.17 153.992 110.445L154.779 108.447L160.191 111.929Z" fill="#FAFAFA"/>
<path d="M173.814 81.1885C170.139 81.5121 169.178 82.1036 167.205 84.7653C165.446 87.1479 161.113 93.8216 159.804 96.2656C157.455 100.64 154.279 109.379 154.279 109.379C154.279 109.379 154.369 110.796 156.527 112.04C158.685 113.285 159.86 112.849 159.86 112.849L165.84 102.314C165.84 102.314 172.69 94.1173 173.421 92.8953C174.916 90.4401 176.49 83.9115 173.814 81.1885Z" fill="#37474F"/>
<path d="M126.911 147.257C126.45 146.503 126.164 145.287 126.147 143.351C126.13 141.414 126.523 135.198 126.523 135.198H117.441C117.441 135.198 119.369 144.645 119.425 145.242C119.425 145.242 119.425 145.465 119.459 145.711C119.611 147.681 122.084 148.451 124.011 149.617C125.658 150.67 127.393 151.579 129.198 152.334C130.575 152.892 133.279 152.742 133.56 151.91C131.199 150.454 128.215 149.416 126.911 147.257Z" fill="#FFA8A7"/>
<path d="M137.5 153.757C137.634 154.035 137.685 154.344 137.648 154.649C137.612 154.955 137.488 155.243 137.292 155.481C136.617 156.118 134.583 157.222 131.779 157.077C128.974 156.932 127.406 156.229 126.232 155.403C125.057 154.577 123.422 153.467 122.129 153.294C121.118 153.186 120.137 152.884 119.24 152.407C118.841 152.089 118.785 150.565 118.785 150.565L137.5 153.757Z" fill="#263238"/>
<path d="M119.33 144.678C119.33 144.678 119.122 144.678 119.077 145.052C119.032 145.426 119.015 146.726 118.88 147.401C118.683 148.629 118.683 149.879 118.88 151.106C119.088 151.876 121.033 152.284 122.28 152.635C123.746 153.124 125.132 153.823 126.394 154.711C128.212 155.791 130.289 156.369 132.407 156.385C135.178 156.229 136.903 155.392 137.404 154.415C137.904 153.439 137.342 152.535 136.499 151.938C135.744 151.462 134.946 151.056 134.116 150.727C133.172 150.299 132.235 149.849 131.306 149.377C130.107 148.838 129.003 148.113 128.035 147.228C127.544 146.708 127.233 146.045 127.147 145.337C127.135 145.092 127.053 144.856 126.911 144.656C126.512 144.221 125.545 144.427 125.062 144.578C124.217 144.841 123.412 145.217 122.668 145.694C122.434 145.827 122.24 146.02 122.106 146.252C122.015 146.472 121.965 146.706 121.96 146.944C121.927 147.23 121.874 147.513 121.802 147.792C121.802 147.87 121.741 147.959 121.662 147.976C121.583 147.993 121.521 147.926 121.476 147.87C120.875 147.128 120.915 146.196 120.043 145.638C119.858 145.543 119.698 145.407 119.574 145.241C119.45 145.074 119.367 144.882 119.33 144.678Z" fill="#37474F"/>
<path d="M134.408 150.845C130.423 151.403 128.923 154.355 128.855 155.817C130.006 156.27 131.237 156.492 132.475 156.469C135.24 156.313 137.027 155.353 137.533 154.388C138.078 153.244 137.319 151.665 134.408 150.845Z" fill="#FAFAFA"/>
<path d="M129.283 151.542C129.237 151.542 129.193 151.53 129.153 151.508C129.113 151.479 129.085 151.435 129.077 151.386C129.069 151.337 129.08 151.287 129.109 151.246C129.553 150.752 130.095 150.355 130.702 150.08C131.308 149.804 131.965 149.656 132.632 149.645C132.683 149.645 132.732 149.665 132.767 149.7C132.803 149.736 132.823 149.784 132.823 149.834C132.819 149.885 132.795 149.932 132.756 149.966C132.717 149.999 132.667 150.016 132.615 150.013C132.013 150.03 131.421 150.168 130.874 150.417C130.326 150.666 129.835 151.022 129.429 151.464C129.411 151.486 129.389 151.504 129.364 151.517C129.339 151.531 129.311 151.539 129.283 151.542Z" fill="#F0F0F0"/>
<path d="M127.512 150.711C127.476 150.715 127.44 150.709 127.407 150.694C127.375 150.678 127.347 150.653 127.329 150.622C127.31 150.592 127.301 150.556 127.303 150.52C127.304 150.484 127.317 150.45 127.338 150.421C127.781 149.925 128.323 149.526 128.93 149.25C129.536 148.973 130.194 148.825 130.861 148.813C130.886 148.813 130.911 148.818 130.934 148.828C130.957 148.838 130.977 148.852 130.995 148.869C131.012 148.887 131.025 148.908 131.034 148.931C131.043 148.954 131.048 148.979 131.047 149.003C131.046 149.029 131.04 149.054 131.03 149.077C131.019 149.1 131.004 149.121 130.985 149.138C130.966 149.155 130.944 149.168 130.92 149.177C130.896 149.185 130.87 149.189 130.845 149.187C130.243 149.204 129.651 149.341 129.104 149.589C128.556 149.837 128.065 150.192 127.658 150.633C127.64 150.655 127.618 150.673 127.593 150.686C127.568 150.7 127.54 150.708 127.512 150.711Z" fill="#F0F0F0"/>
<path d="M125.826 149.74C125.781 149.74 125.736 149.729 125.697 149.706C125.676 149.693 125.658 149.675 125.645 149.654C125.631 149.633 125.622 149.609 125.618 149.585C125.614 149.56 125.615 149.535 125.62 149.511C125.626 149.487 125.637 149.464 125.652 149.444C126.097 148.951 126.639 148.554 127.246 148.279C127.852 148.003 128.509 147.855 129.176 147.843C129.2 147.843 129.225 147.848 129.248 147.857C129.271 147.867 129.291 147.881 129.309 147.899C129.326 147.916 129.34 147.937 129.349 147.96C129.357 147.983 129.362 148.008 129.361 148.032C129.36 148.057 129.353 148.082 129.342 148.104C129.331 148.127 129.316 148.147 129.297 148.163C129.278 148.18 129.256 148.193 129.233 148.201C129.209 148.209 129.184 148.213 129.159 148.211C128.557 148.228 127.965 148.365 127.418 148.613C126.87 148.861 126.379 149.216 125.972 149.656C125.955 149.68 125.933 149.699 125.908 149.713C125.883 149.728 125.855 149.737 125.826 149.74Z" fill="#F0F0F0"/>
<path d="M124.17 148.763C124.126 148.763 124.084 148.751 124.046 148.73C124.025 148.717 124.007 148.7 123.993 148.679C123.979 148.659 123.969 148.636 123.964 148.612C123.96 148.588 123.96 148.563 123.965 148.539C123.971 148.516 123.981 148.493 123.995 148.473C124.698 147.502 126.384 146.799 127.851 146.827C127.875 146.827 127.9 146.832 127.923 146.841C127.946 146.851 127.967 146.865 127.984 146.883C128.001 146.901 128.015 146.922 128.024 146.945C128.033 146.967 128.037 146.992 128.036 147.017C128.035 147.042 128.028 147.066 128.017 147.089C128.006 147.111 127.991 147.131 127.972 147.148C127.953 147.164 127.932 147.177 127.908 147.185C127.884 147.193 127.859 147.197 127.834 147.195C126.519 147.156 124.939 147.82 124.316 148.68C124.299 148.703 124.277 148.723 124.252 148.738C124.227 148.752 124.199 148.761 124.17 148.763Z" fill="#F0F0F0"/>
<path d="M97.9898 135.868C97.8943 141.214 98.2877 144.322 97.9449 148.54C97.8662 149.528 97.0569 156.157 97.2424 158.21C97.5234 161.296 101.924 161.246 102.345 159.455C102.767 157.664 103.778 149.829 103.885 149.031C104.206 145.879 105.942 141.906 107.257 135.868H97.9898Z" fill="#FFA8A7"/>
<path d="M103.729 160.85C103.611 162.641 103.296 163.824 102.605 164.873C101.913 165.922 100.548 166.251 99.1821 165.944C97.8164 165.637 96.0686 164.828 95.6808 163.277C95.2258 161.905 95.1196 160.442 95.3717 159.02L103.729 160.85Z" fill="#263238"/>
<path d="M97.9968 147.904C97.4348 147.943 97.2662 150.343 96.9403 152.748C96.5975 155.326 95.732 156.391 95.4173 158.501C95.0632 160.917 95.5128 161.994 96.4682 163.456C97.4236 164.918 100.784 166.346 102.448 164.254C103.797 162.552 103.853 160.66 103.729 158.25C103.661 156.213 103.722 154.174 103.915 152.145C104.021 150.337 104.477 148.513 103.982 148.312C103.948 148.579 103.909 148.914 103.87 149.177C103.849 149.504 103.789 149.828 103.69 150.142C103.634 150.276 103.504 150.415 103.454 150.198C103.429 150.048 103.429 149.895 103.454 149.746C103.538 149.082 103.162 149.026 102.959 148.976C102.515 148.864 100.773 148.674 100.352 148.646C99.9301 148.619 98.4408 148.563 98.2441 148.78C98.1208 148.992 98.0567 149.233 98.0587 149.478C98.0081 149.841 97.9125 150.108 97.9013 149.997C97.9013 149.735 97.935 149.059 97.9406 148.881C97.9463 148.702 97.9744 148.507 97.98 148.351C97.9778 148.202 97.9834 148.053 97.9968 147.904Z" fill="#37474F"/>
<path d="M95.2645 159.9C95.1627 161.208 95.5355 162.508 96.3155 163.566C97.2652 165.028 100.907 166.462 102.565 164.376C103.296 163.34 103.7 162.113 103.728 160.849C102.733 159.236 96.8325 158.528 95.2645 159.9Z" fill="#FAFAFA"/>
<path d="M102.498 158.227C102.476 158.229 102.453 158.229 102.431 158.227C100.777 157.657 99.006 157.503 97.2774 157.78C97.226 157.793 97.1719 157.785 97.126 157.759C97.0801 157.733 97.0458 157.691 97.0301 157.641C97.0244 157.616 97.0239 157.591 97.0285 157.566C97.0332 157.541 97.0429 157.517 97.0571 157.496C97.0714 157.475 97.0898 157.458 97.1112 157.444C97.1327 157.431 97.1567 157.422 97.1819 157.418C99.0026 157.113 100.872 157.277 102.611 157.892C102.634 157.9 102.656 157.914 102.674 157.931C102.693 157.948 102.707 157.969 102.716 157.992C102.726 158.015 102.73 158.04 102.73 158.065C102.729 158.09 102.723 158.115 102.712 158.137C102.688 158.171 102.656 158.197 102.618 158.212C102.58 158.228 102.539 158.233 102.498 158.227Z" fill="#F0F0F0"/>
<path d="M97.3996 155.967C97.3617 155.963 97.3255 155.949 97.2949 155.926C97.2642 155.903 97.2402 155.873 97.2254 155.838C97.2168 155.814 97.2134 155.789 97.2154 155.764C97.2174 155.739 97.2247 155.714 97.2369 155.692C97.2492 155.67 97.266 155.651 97.2863 155.635C97.3066 155.62 97.3299 155.609 97.3547 155.604C99.8724 154.845 102.671 155.983 102.778 156.034C102.802 156.043 102.823 156.057 102.84 156.075C102.858 156.094 102.871 156.116 102.879 156.14C102.887 156.163 102.89 156.189 102.887 156.214C102.884 156.239 102.876 156.263 102.862 156.285C102.832 156.329 102.788 156.361 102.736 156.375C102.685 156.389 102.63 156.385 102.581 156.363C102.581 156.363 99.8331 155.247 97.4895 155.955C97.4606 155.965 97.43 155.969 97.3996 155.967Z" fill="#F0F0F0"/>
<path d="M97.49 154.271C97.4529 154.267 97.4173 154.254 97.3868 154.232C97.3563 154.211 97.3319 154.182 97.3158 154.148C97.3071 154.125 97.3035 154.099 97.305 154.074C97.3066 154.049 97.3134 154.024 97.325 154.002C97.3366 153.979 97.3528 153.959 97.3725 153.943C97.3922 153.927 97.415 153.915 97.4395 153.908C99.2733 153.4 101.229 153.548 102.964 154.327C102.987 154.337 103.007 154.352 103.023 154.371C103.039 154.39 103.051 154.412 103.058 154.436C103.065 154.46 103.067 154.485 103.063 154.509C103.059 154.534 103.051 154.557 103.037 154.578C103.005 154.621 102.959 154.652 102.906 154.665C102.854 154.677 102.798 154.67 102.75 154.645C101.121 153.936 99.2973 153.8 97.58 154.26C97.551 154.27 97.5205 154.273 97.49 154.271Z" fill="#F0F0F0"/>
<path d="M97.6312 152.597C97.5941 152.595 97.5583 152.583 97.5276 152.562C97.4968 152.542 97.4724 152.513 97.457 152.479C97.4482 152.456 97.4443 152.431 97.4455 152.406C97.4468 152.381 97.4531 152.357 97.4641 152.334C97.4752 152.312 97.4907 152.292 97.5098 152.276C97.5288 152.259 97.551 152.247 97.575 152.24C100.171 151.38 103.032 152.652 103.139 152.708C103.162 152.718 103.183 152.733 103.2 152.751C103.217 152.77 103.229 152.792 103.236 152.816C103.243 152.84 103.245 152.866 103.24 152.891C103.236 152.915 103.226 152.939 103.212 152.959C103.182 153.003 103.137 153.035 103.085 153.047C103.032 153.06 102.978 153.052 102.931 153.026C102.931 153.026 100.121 151.788 97.7211 152.591C97.6918 152.599 97.6613 152.6 97.6312 152.597Z" fill="#EBEBEB"/>
<path d="M126.901 88.5215L100.571 88.8172C100.571 88.8172 99.0481 114.837 98.9975 116.209C98.9469 117.582 98.2894 119.97 97.7779 126.767C97.3283 132.665 97.7779 144.556 97.7779 144.556C98.7557 145.467 100.016 146.022 101.352 146.129C103.707 146.386 104.865 145.415 104.865 145.415C104.865 145.415 109.226 129.133 110.181 125.065C111.137 120.997 114.239 105.351 114.239 105.351L115.925 118.743C115.925 118.743 115.363 122.465 116.11 128.396C116.858 134.328 118.521 141.699 118.521 141.699C118.521 141.699 119.859 142.687 122.455 142.497C125.35 142.29 126.389 141.107 126.389 141.107C126.389 141.107 127.935 122.202 127.935 115.506C127.935 110.484 127.48 98.2084 126.901 88.5215Z" fill="#455A64"/>
<path d="M115.66 96.1211L114.238 105.35L115.924 118.742L115.671 105.663L117.093 97.4212C118.779 97.0362 121.926 95.8421 122.427 93.6045C119.785 96.2159 115.66 96.1211 115.66 96.1211Z" fill="#263238"/>
<path d="M121.23 55.6109C123.065 55.5793 124.873 56.0545 126.451 56.9835C128.565 58.0995 139.552 72.2114 139.552 72.2114C138.407 72.9333 137.033 73.2077 135.696 72.9814C133.313 72.6522 126.064 68.6011 126.064 68.6011L121.23 55.6109Z" fill="#455A64"/>
<path d="M109.844 54.5951C108.58 54.8792 107.334 55.2369 106.112 55.6665L101.431 56.9164L100.391 57.2456C100.391 57.2456 98.9245 61.04 99.8799 69.6779C100.054 71.2235 100.728 76.5301 100.712 79.7553C100.684 84.1077 100.571 88.8173 100.571 88.8173C100.571 88.8173 105.528 91.8695 116.212 91.239C124.602 90.7424 126.89 88.5215 126.89 88.5215C126.89 88.5215 126.434 76.7142 126.558 70.5762C126.76 60.3537 125.029 57.2233 123.248 55.7892L117.532 54.1934L109.844 54.5951Z" fill="#37474F"/>
<path d="M105.382 38.6639C105.726 37.9482 106.328 37.3866 107.068 37.0904C107.439 35.0704 110.075 33.5973 111.711 33.0449C113.959 32.2916 116.207 32.7659 118.353 33.6029C119.092 33.9407 119.903 34.0903 120.714 34.0381C121.068 33.9879 121.467 33.8093 121.518 33.4801C121.649 33.5631 121.762 33.6716 121.85 33.7992C121.938 33.9267 121.999 34.0707 122.029 34.2223C122.23 34.9255 122.166 35.6773 121.849 36.3371C122.006 36.3721 122.153 36.44 122.281 36.5363C122.409 36.6325 122.515 36.7549 122.591 36.8951C122.854 37.3069 123.012 37.7759 123.052 38.2619C123.092 38.7478 123.013 39.2362 122.821 39.6851C122.001 41.5823 119.944 41.6325 118.219 42.2017L113.099 43.8757L108.799 45.293L108.901 47.525L108.968 50.7781C108.455 50.6197 108.023 50.2722 107.76 49.8072C106.974 48.3875 106.384 46.8691 106.006 45.293C104.882 41.0745 104.955 39.4675 105.382 38.6639Z" fill="#263238"/>
<path d="M105.916 48.122C107.602 48.9478 108.377 47.6309 108.377 47.6309L108.574 54.2879C108.361 56.3413 113.57 57.0276 115.785 60.119C117.178 57.2564 117.471 55.9953 116.909 54.7175V52.3628C117.398 52.3548 117.886 52.3119 118.37 52.2344C119.859 52.0168 121.124 50.9957 121.573 49.0092C122.135 46.6042 121.955 42.0119 121.292 38.8536C121.039 37.6371 120.646 37.3023 119.932 36.9396C118.145 36.0468 112.902 35.8236 111.502 37.9998C111.693 39.3111 111.3 40.7564 110.086 41.1804C110.03 43.2506 109.726 44.255 108.906 44.5898C108.237 44.8632 107.922 43.8365 107.467 43.3566C107.246 43.17 106.984 43.0368 106.702 42.9674C106.42 42.8979 106.126 42.8941 105.843 42.9562C105.559 43.0184 105.294 43.1448 105.068 43.3255C104.842 43.5063 104.661 43.7366 104.539 43.9983C104.352 44.358 104.24 44.7511 104.208 45.1544C104.177 45.5578 104.227 45.9633 104.355 46.3474C104.483 46.7314 104.687 47.0861 104.955 47.3909C105.223 47.6956 105.55 47.9441 105.916 48.122Z" fill="#FFA8A7"/>
<path d="M116.909 52.3626C115.26 52.4021 113.618 52.1411 112.064 51.5925C110.94 51.0959 109.906 49.5391 109.58 47.999C109.58 49.2322 110.097 51.4363 111.828 52.3626C113.559 53.2889 115.605 53.3558 116.886 53.3893L116.909 52.3626Z" fill="#F28F8F"/>
<path d="M112.98 40.8964L114.256 39.6465C114.425 39.8202 114.52 40.0523 114.52 40.2938C114.52 40.5353 114.425 40.7673 114.256 40.941C114.172 41.0253 114.07 41.0913 113.959 41.135C113.848 41.1787 113.728 41.199 113.609 41.1949C113.489 41.1907 113.371 41.162 113.263 41.1106C113.155 41.0593 113.059 40.9864 112.98 40.8964Z" fill="#263238"/>
<path d="M119.466 39.958L121.051 40.8229C120.999 40.9283 120.926 41.0222 120.837 41.0987C120.747 41.1752 120.643 41.2327 120.531 41.2677C120.418 41.3028 120.299 41.3145 120.182 41.3023C120.064 41.2901 119.951 41.2542 119.848 41.1968C119.636 41.0788 119.478 40.8842 119.407 40.6535C119.335 40.4227 119.357 40.1736 119.466 39.958Z" fill="#263238"/>
<path d="M113.912 42.9268C113.915 43.0221 113.936 43.1159 113.976 43.2029C114.015 43.29 114.071 43.3685 114.14 43.434C114.21 43.4996 114.292 43.5509 114.382 43.585C114.471 43.619 114.567 43.6353 114.663 43.6327C114.759 43.6301 114.853 43.6088 114.941 43.57C115.028 43.5312 115.107 43.4756 115.173 43.4064C115.24 43.3373 115.291 43.2558 115.325 43.1669C115.36 43.0779 115.376 42.983 115.374 42.8878C115.368 42.6954 115.286 42.5129 115.146 42.3806C115.005 42.2482 114.817 42.1767 114.623 42.1819C114.43 42.1871 114.246 42.2685 114.112 42.4082C113.979 42.5479 113.907 42.7344 113.912 42.9268Z" fill="#263238"/>
<path d="M119.162 42.888C119.164 43.033 119.21 43.1741 119.293 43.2932C119.377 43.4124 119.494 43.5042 119.63 43.5571C119.766 43.61 119.915 43.6215 120.057 43.5902C120.2 43.5589 120.33 43.4862 120.431 43.3813C120.532 43.2764 120.599 43.1441 120.624 43.0012C120.649 42.8583 120.63 42.7113 120.571 42.5788C120.511 42.4463 120.413 42.3344 120.29 42.2573C120.166 42.1802 120.022 42.1414 119.876 42.1458C119.683 42.1517 119.499 42.2328 119.366 42.3717C119.232 42.5105 119.159 42.696 119.162 42.888Z" fill="#263238"/>
<path d="M116.605 41.3369L116.645 45.9962L119.191 45.3992C118.647 43.8698 117.763 42.4815 116.605 41.3369Z" fill="#F28F8F"/>
<path d="M115.783 60.164C115.783 60.164 114.755 59.1317 113.974 59.2991C113.541 59.3884 113.03 60.058 112.788 60.6439C112.546 61.2298 112.265 61.6037 111.456 61.0903C110.216 60.3746 109.047 59.5432 107.966 58.6072C107.073 57.8477 106.427 56.8415 106.111 55.7168C106.999 55.2871 107.983 53.189 108.534 53.083L108.573 54.3385C110.517 55.806 113.631 57.0057 114.08 57.4131C114.708 58.2921 115.277 59.211 115.783 60.164Z" fill="#455A64"/>
<path d="M119.807 59.8907C119.689 60.22 118.447 57.6587 117.93 57.7313C117.677 57.7313 116.458 59.104 115.783 60.1195C115.986 59.3272 116.429 58.3618 116.789 56.7715C116.922 55.8981 116.95 55.0122 116.873 54.1322L116.907 52.9102C117.469 52.9548 117.801 53.4682 118.357 54.4781C118.82 55.3226 119.166 56.2255 119.386 57.1621C119.602 58.0586 119.743 58.9712 119.807 59.8907Z" fill="#455A64"/>
<path d="M101.43 56.916C96.5634 58.2441 96.2543 59.5721 94.8493 63.785C94.1243 65.95 92.5113 71.2566 91.9943 72.9529C90.3926 78.2372 90.6118 81.0384 92.2472 82.0093C94.1187 83.1253 102.122 70.0904 102.122 70.0904C102.122 70.0904 105.595 59.9125 101.43 56.916Z" fill="#455A64"/>
<path d="M95.2436 79.4483C95.592 78.9852 95.9854 78.4383 96.3676 77.8524C98.3627 74.7499 102.094 70.0906 102.094 70.0906C102.412 69.1287 102.678 68.1508 102.892 67.1611C101.437 68.1879 95.5864 72.0548 93.9679 73.7065C92.1976 75.5032 92.1639 76.9261 91.8379 78.5946L95.2436 79.4483Z" fill="#263238"/>
<path d="M101.688 68.9519C103.459 67.7578 104.082 67.4062 105.279 65.8662C106.232 64.6951 107.307 63.6288 108.489 62.6856C109.371 61.8988 109.86 60.6823 110.326 60.1355C110.652 59.7561 111.197 60.2973 111.175 61.1901C111.066 61.9775 110.739 62.7193 110.231 63.3328C109.669 64.1085 110.006 63.9801 110.793 63.7737C112.235 63.4737 113.699 63.2871 115.171 63.2157C115.991 63.2157 116.806 63.4165 116.744 63.9411C116.744 63.9411 118.014 63.6565 118.172 64.3205C118.329 64.9845 117.413 65.5927 117.413 65.5927C117.413 65.5927 117.531 66.1507 116.581 66.6139C116.019 66.8761 114.378 67.3393 113.771 67.5736C113.103 67.8359 112.4 68.1986 112.4 68.1986C113.38 68.0218 114.369 67.8951 115.362 67.8192C116.188 67.8192 116.154 68.3772 115.261 68.9017C114.367 69.4262 111.647 69.7443 110.883 70.1739C109.936 70.6625 108.923 71.0121 107.876 71.2118C107.043 71.3905 106.313 71.885 105.841 72.5901C105.021 73.7061 101.233 77.7013 100.295 78.9736C99.3136 80.259 97.9841 81.2404 96.4617 81.8026C94.4441 82.6341 92.6008 82.316 92.168 81.9756C91.7353 81.6352 91.3475 80.363 91.9601 78.2426C92.7694 75.4526 93.2808 74.8946 95.023 73.4382C96.9619 71.8479 100.739 69.5936 101.688 68.9519Z" fill="#FFA8A7"/>
<path d="M110.231 63.3336C109.894 63.8023 109.882 63.9418 110.102 63.9306C109.793 63.9864 109.191 64.1761 109.09 63.9306C108.989 63.6851 109.551 63.2666 110.102 62.7756C110.577 62.3314 110.944 61.7856 111.175 61.1797C111.069 61.9709 110.742 62.7169 110.231 63.3336Z" fill="#F28F8F"/>
<path d="M116.739 63.9355C115.48 63.9936 114.227 64.1447 112.991 64.3875C112.478 64.4839 111.972 64.6182 111.479 64.7893C110.99 64.9511 110.501 65.1352 110.023 65.3473C110.535 65.2692 111.041 65.1743 111.541 65.0571C112.041 64.9399 112.541 64.8172 113.03 64.7391C113.519 64.6609 114.716 64.421 115.239 64.3038C115.761 64.1866 116.234 64.0583 116.739 63.9355Z" fill="#F28F8F"/>
<path d="M117.397 65.5872C117.393 65.5171 117.37 65.4494 117.329 65.3919C117.283 65.3334 117.221 65.2905 117.149 65.2691C117.011 65.2247 116.867 65.2021 116.722 65.2021C116.437 65.2092 116.154 65.2391 115.874 65.2914C115.312 65.3919 114.07 65.6262 113.519 65.7546C113.243 65.8271 112.957 65.8997 112.698 65.9889C112.44 66.0782 112.136 66.1954 111.9 66.3014C111.378 66.5079 110.855 66.7366 110.338 66.9766C110.892 66.8666 111.439 66.7288 111.979 66.5637C112.254 66.4855 112.541 66.3739 112.777 66.3126C113.013 66.2512 113.339 66.1675 113.586 66.1061C114.148 65.9722 115.373 65.7211 115.919 65.5481C116.183 65.4697 116.451 65.4064 116.722 65.3584C116.986 65.3361 117.312 65.2858 117.397 65.5872Z" fill="#F28F8F"/>
<path d="M110.787 68.4889C110.787 68.4889 111.675 68.1764 112.175 67.9811C112.675 67.7858 114.361 67.3896 114.361 67.3896C114.221 67.4343 113.901 67.5236 113.799 67.5682C113.131 67.8305 112.428 68.1932 112.428 68.1932C111.876 68.2616 111.328 68.3603 110.787 68.4889Z" fill="#F28F8F"/>
<path d="M115.575 48.5464C115.628 48.6102 115.693 48.6629 115.766 48.7014C115.84 48.7399 115.92 48.7635 116.003 48.7708C116.085 48.7781 116.169 48.7689 116.248 48.7438C116.327 48.7186 116.4 48.6781 116.463 48.6245C116.584 48.5069 116.662 48.3522 116.685 48.1853C116.707 48.0185 116.673 47.8489 116.587 47.7038C116.535 47.61 116.462 47.5297 116.373 47.4695C116.463 47.3751 116.581 47.3124 116.71 47.2909C116.439 47.2077 116.146 47.2296 115.89 47.3523C115.736 47.434 115.614 47.5633 115.541 47.7206C115.482 47.8513 115.454 47.9941 115.46 48.1375C115.466 48.2808 115.505 48.4209 115.575 48.5464Z" fill="#B16668"/>
<path d="M116.57 48.4788C116.521 48.5637 116.451 48.6351 116.367 48.6866C116.282 48.738 116.187 48.7678 116.088 48.7734C115.989 48.7789 115.891 48.76 115.801 48.7183C115.712 48.6766 115.634 48.6135 115.575 48.5346C115.481 48.3646 115.443 48.1691 115.469 47.9766C115.677 47.9838 115.881 48.0319 116.07 48.1181C116.259 48.2043 116.429 48.3269 116.57 48.4788Z" fill="#F28F8F"/>
<path d="M126.298 52.117C126.298 52.117 126.096 52.0221 126.034 51.6092C125.972 51.1963 125.995 50.9006 125.927 50.4374C125.86 49.9743 125.646 49.2042 125.214 49.1317C124.781 49.0592 124.584 50.0468 124.59 50.8392C124.658 51.6002 124.479 52.3628 124.078 53.0154C123.567 53.9249 123.145 55.0911 123.719 56.0844L126.298 52.117Z" fill="#F28F8F"/>
<path d="M129.143 50.4766C128.958 49.6994 128.841 48.9078 128.794 48.1106C128.688 47.5057 128.499 46.9181 128.232 46.3641C127.957 45.7559 127.743 44.9524 127.518 44.8798C127.294 44.8073 126.923 45.064 126.956 45.5494C126.956 45.5494 126.653 45.1979 126.394 44.8296C126.136 44.4613 125.956 44.0038 125.602 43.9312C125.248 43.8587 125.096 44.4167 125.231 44.8017C125.366 45.1867 125.467 45.3988 125.467 45.3988C125.467 45.3988 125.13 45.5662 125.467 46.2525C125.601 46.5283 125.771 46.7854 125.973 47.017C126.035 47.4486 126.182 47.8639 126.406 48.239C126.521 48.6992 126.688 49.1448 126.906 49.567C126.683 50.0203 126.555 50.5139 126.529 51.0178C126.529 51.6539 126.659 51.799 125.967 52.5802C125.301 53.1409 124.689 53.7631 124.141 54.4384C123.697 55.1582 123.399 55.9171 124.028 56.8154C124.658 57.7138 125.152 58.3611 125.714 59.3097C126.164 60.0239 126.619 60.9837 128.524 64.3763C129.986 67.0157 130.109 67.3505 130.806 68.2823C131.79 69.616 132.919 71.3402 135.341 72.1883C137.764 73.0365 140.495 72.6459 140.068 70.6762C139.562 68.3158 138.792 66.4744 137.674 65.2357C136.763 64.2252 135.768 63.2919 134.701 62.4457C133.498 61.4078 132.548 60.3141 131.065 58.8298C129.581 57.3455 128.552 55.9115 128.541 55.3925C128.596 54.4457 128.766 53.5089 129.047 52.6025C129.328 51.6149 129.485 51.6428 129.143 50.4766Z" fill="#FFA8A7"/>
<path d="M123.719 56.085C123.899 56.534 124.149 56.952 124.461 57.3237C124.736 57.7255 125.023 58.1328 125.27 58.5402C125.517 58.9475 125.798 59.3604 126.045 59.7789C126.293 60.1974 126.607 60.8001 126.821 61.2241C126.54 60.8224 126.259 60.2309 125.972 59.8236C125.686 59.4162 125.438 59.0145 125.169 58.6071L124.371 57.3851L123.972 56.7713C123.836 56.5646 123.749 56.3298 123.719 56.085Z" fill="#F28F8F"/>
<path d="M126.951 45.5498C126.998 45.7657 127.066 45.9768 127.153 46.1803C127.232 46.3812 127.327 46.5821 127.423 46.7718V46.7997V46.8723C127.414 46.9874 127.414 47.1031 127.423 47.2182C127.427 47.3381 127.44 47.4574 127.462 47.5753C127.504 47.8065 127.579 48.0302 127.687 48.2394L127.715 48.2896V48.3342C127.678 48.4173 127.648 48.5031 127.625 48.5909C127.598 48.6806 127.578 48.772 127.563 48.8643C127.563 48.9536 127.563 49.0485 127.529 49.1433C127.524 49.24 127.524 49.3368 127.529 49.4335C127.461 49.2549 127.423 49.0664 127.417 48.8755C127.409 48.7752 127.409 48.6744 127.417 48.5742C127.431 48.4739 127.454 48.375 127.484 48.2784V48.3733C127.338 48.1501 127.238 47.8994 127.192 47.6367C127.168 47.5079 127.155 47.3772 127.153 47.2461C127.152 47.1131 127.165 46.9803 127.192 46.8499V46.9225C127.1 46.7141 127.028 46.4973 126.979 46.2752C126.928 46.0368 126.918 45.7914 126.951 45.5498Z" fill="#F28F8F"/>
<path d="M125.455 45.3994C125.53 45.5022 125.613 45.5992 125.702 45.6896C125.793 45.7722 125.888 45.8486 125.989 45.9184V45.9518C126.066 46.2028 126.176 46.4429 126.315 46.6661C126.448 46.8827 126.622 47.0721 126.826 47.2241L126.888 47.2743V47.3524C126.862 47.4941 126.851 47.6381 126.854 47.7821C126.846 47.9308 126.846 48.0798 126.854 48.2285C126.883 48.3791 126.905 48.5298 126.944 48.6749C126.984 48.82 127.034 48.9706 127.079 49.1213C126.99 48.9919 126.911 48.8557 126.843 48.7139C126.773 48.5713 126.718 48.4217 126.68 48.2675C126.635 48.1128 126.607 47.9538 126.596 47.7932C126.574 47.6284 126.574 47.4614 126.596 47.2966L126.641 47.425C126.521 47.3413 126.413 47.2418 126.321 47.1292C126.225 47.0208 126.14 46.903 126.068 46.7777C126.002 46.6512 125.943 46.5207 125.893 46.3871C125.851 46.2498 125.817 46.11 125.792 45.9686L125.826 46.0188C125.728 45.9291 125.641 45.8279 125.567 45.7175C125.517 45.6165 125.479 45.5097 125.455 45.3994Z" fill="#F28F8F"/>
<path d="M127.087 50.415C127.088 50.6995 127.023 50.9804 126.895 51.2353C126.772 51.4914 126.609 51.7267 126.412 51.9328C126.465 51.8021 126.527 51.6753 126.598 51.5534L126.783 51.1851C126.899 50.9345 127 50.6773 127.087 50.415Z" fill="#F28F8F"/>
<path d="M124.741 53.6689C124.587 54.1517 124.539 54.6617 124.601 55.1644C124.64 55.4083 124.71 55.6464 124.809 55.873C124.917 56.1061 125.041 56.3316 125.18 56.5482C124.957 56.4009 124.766 56.2113 124.618 55.9902C124.471 55.758 124.375 55.4974 124.337 55.2258C124.294 54.9526 124.308 54.6737 124.378 54.406C124.447 54.1384 124.571 53.8876 124.741 53.6689Z" fill="#F28F8F"/>
<path d="M61.8262 183.522L63.4391 182.818L61.8936 182.333L61.8262 183.522Z" fill="#263238"/>
<path d="M77.4094 186.975C77.4094 186.975 59.0545 178.003 58.7735 179.225C58.7206 179.469 58.7206 179.722 58.7735 179.967C58.7566 179.946 58.7415 179.923 58.7285 179.9L58.9814 182.216C59.7902 182.913 60.7826 183.366 61.842 183.521C61.842 183.41 61.887 182.723 61.9094 182.333C62.476 182.587 63.0162 182.895 63.5224 183.253C64.6913 184.074 65.4051 185.485 66.6134 187.087C67.4957 188.275 69.1255 188.873 71.559 189.319C74.1779 189.788 76.5158 189.38 77.179 188.711C77.3627 188.465 77.4803 188.176 77.5206 187.873C77.5609 187.569 77.5227 187.26 77.4094 186.975Z" fill="#263238"/>
<path d="M76.9323 186.529C76.7581 186.339 76.1174 185.592 75.2463 184.777C74.4194 183.947 73.5489 183.161 72.6387 182.422C72.1776 182.086 71.7452 181.713 71.3461 181.306C71.0312 180.949 70.7348 180.577 70.4581 180.19C69.6066 178.986 68.894 177.691 68.3337 176.329C68.0139 175.695 67.7741 175.024 67.62 174.331C67.5106 173.605 67.4654 172.872 67.4851 172.138C67.5863 168.829 67.6818 168.31 67.7942 165.794L59.8925 165.749C60.1004 167.155 60.4208 169.097 60.4938 170.659C60.6062 173.081 60.6512 173.617 59.6003 175.983C59.2105 176.64 58.9332 177.356 58.7797 178.103C58.673 179.331 59.6171 180.436 60.6962 181.077C61.5954 181.635 62.6407 181.87 63.5062 182.433C64.3893 183.069 65.1507 183.857 65.7542 184.76C66.3555 185.575 66.822 186.523 67.6818 187.109C68.5965 187.684 69.6162 188.075 70.6829 188.259C72.0229 188.544 73.3934 188.664 74.763 188.616C76.6963 188.56 78.1687 187.924 76.9323 186.529Z" fill="#C8856A"/>
<path d="M75.8928 185.145C75.1172 184.448 74.0101 183.471 72.6782 182.355C72.2096 182.176 71.708 182.096 71.2064 182.122C70.7047 182.148 70.2142 182.279 69.767 182.506C66.957 183.828 66.395 185.854 66.395 185.854C66.8286 186.789 67.6133 187.517 68.5812 187.885C71.734 189.381 77.4889 189.163 77.6013 187.712C77.6687 186.752 76.8426 185.988 75.8928 185.145ZM59.7971 175.486C59.578 175.958 59.3341 176.418 59.0665 176.865C58.7877 177.274 58.6321 177.754 58.6182 178.248C58.6043 178.742 58.7325 179.23 58.9878 179.655C59.284 180.152 59.6796 180.584 60.1503 180.924C60.621 181.263 61.1569 181.504 61.7248 181.63C62.7195 178.924 60.8874 176.122 59.7971 175.486Z" fill="#37474F"/>
<path d="M46.5279 179.376C47.0225 180.235 46.6516 183.6 46.7078 185.854C46.7583 187.896 47.1967 190.876 46.5167 192.851C45.713 195.212 43.746 198.314 41.0091 195.976C39.3231 194.525 38.3621 192.695 38.1991 189.749C38.0867 187.701 38.9803 184.905 39.7446 182.428C40.6438 179.532 40.9922 177.964 40.9922 177.964L46.5279 179.376Z" fill="#263238"/>
<path d="M41.369 164.098C41.0363 167.532 40.9274 170.984 41.043 174.432C41.1407 176.152 41.0293 177.877 40.7115 179.571C40.2394 181.502 39.5875 183.99 39.2446 185.24C38.7838 186.992 38.4354 188.092 38.9974 190.089C39.0445 190.246 39.1086 190.398 39.1884 190.541C40.009 192.215 42.1895 193.499 42.9033 193.331C43.045 193.516 43.236 193.657 43.4546 193.739C43.6732 193.821 43.9106 193.84 44.1397 193.794L44.3813 193.744C44.4617 193.721 44.5405 193.693 44.6174 193.661C44.9134 193.515 45.1757 193.31 45.3875 193.058C45.5994 192.806 45.7563 192.514 45.8481 192.199C45.8987 192.065 46.2415 191.747 46.2809 191.596C46.6714 190.224 46.8607 188.803 46.8429 187.377C46.8429 186.055 46.9272 183.99 46.8991 182.199C46.8654 179.895 47.5622 176.87 48.2423 173.137C48.5851 171.234 49.1864 168.244 49.8889 165.761L41.369 164.098Z" fill="#C8856A"/>
<path d="M38.7167 187.523C40.4927 186.825 46.0227 186.898 46.7477 189.33C46.7926 191.422 46.0581 193.457 44.6852 195.044C42.6507 197.6 40.1892 194.743 39.2731 192.946C38.5226 191.24 38.3281 189.344 38.7167 187.523Z" fill="#37474F"/>
<path d="M47.8429 108.777C44.6114 112.354 43.9089 115.384 43.4874 125.439C43.0266 137.129 43.1839 141.443 43.0828 142.849C42.9816 144.255 41.9588 146.811 40.9528 153.724C39.9468 160.638 40.9022 174.621 40.9022 174.621C40.9022 174.621 41.2787 176.245 43.9932 176.585C45.3539 176.816 46.7532 176.599 47.9778 175.966C47.9778 175.966 52.1816 156.525 53.2943 152.379C54.4071 148.234 57.7229 134.59 57.7229 134.59L58.2512 147.726C58.2512 147.726 57.3351 151.531 57.8577 157.647C58.3804 163.763 59.9428 173.053 59.9428 173.053C59.9428 173.053 60.9768 174.169 64.2645 174.231C67.7602 174.275 68.3334 172.099 68.3334 172.099C68.3334 172.099 70.6208 150.856 70.8905 143.959C71.1603 137.062 71.239 120.562 68.9179 109.955L47.8429 108.777Z" fill="#455A64"/>
<path d="M60.4883 121.41L57.7233 134.59L58.2516 147.726L58.6731 134.479L61.1065 123.67C62.8319 123.336 66.794 121.489 67.9742 118.682C65.2372 121.26 60.4883 121.41 60.4883 121.41ZM52.817 113.342C53.1599 112.226 53.5195 111.143 53.941 110.044C53.2682 111.017 52.703 112.059 52.255 113.152C51.8162 114.236 51.4409 115.345 51.131 116.472C50.8163 117.588 50.569 118.732 50.3442 119.887C50.1276 121.036 50.0036 122.2 49.9733 123.369C50.2993 122.253 50.614 121.137 50.9231 120.021C51.2322 118.905 51.5301 117.789 51.856 116.673C52.182 115.557 52.4742 114.447 52.817 113.342ZM51.131 112.443C51.5469 111.774 51.9572 111.11 52.345 110.407C51.7278 110.919 51.163 111.491 50.659 112.114C50.1474 112.727 49.6816 113.376 49.2652 114.056C48.8482 114.735 48.4855 115.446 48.1805 116.182C47.8674 116.917 47.6521 117.69 47.5399 118.481L48.7088 116.433C49.1078 115.763 49.5012 115.094 49.9115 114.435C50.3218 113.777 50.7264 113.107 51.131 112.443ZM47.9726 156.693C47.1633 160.264 46.414 163.843 45.7246 167.429C46.7212 163.902 47.6691 160.368 48.5683 156.827C49.4788 153.283 50.3442 149.746 51.2041 146.174C52.064 142.603 52.6203 138.976 53.1205 135.355C53.6207 131.733 54.0478 128.101 54.4187 124.468C53.7612 128.067 53.1542 131.672 52.5417 135.271C51.9291 138.87 51.294 142.464 50.4679 146.013C49.6418 149.562 48.765 153.127 47.9726 156.693ZM67.2661 139.501C67.2661 141.085 67.311 142.681 67.2211 144.244C67.1312 145.806 67.1087 148.836 66.9626 150.421C66.9626 150.421 66.5748 159.745 66.7434 163.288C67.2492 160.147 67.7381 147.486 67.9742 144.288C68.0922 141.069 67.9348 137.899 67.7719 134.713C67.6089 131.527 67.3279 128.358 66.9457 125.194L67.1818 134.735C67.2099 136.315 67.2548 137.899 67.2661 139.501Z" fill="#37474F"/>
<path d="M46.5843 73.9971C46.6405 75.1577 47.1463 76.4077 46.5843 77.4344C46.0223 78.4611 44.4824 78.8015 43.5888 79.6999C43.283 79.9992 43.0524 80.3658 42.9158 80.7701C42.7791 81.1743 42.7401 81.6048 42.802 82.0267C42.9963 82.7646 43.3074 83.4671 43.7237 84.1081C44.1369 84.7564 44.295 85.5331 44.1677 86.2898C43.9956 86.7266 43.7908 87.15 43.5551 87.5565C43.2434 88.265 43.2252 89.0668 43.5045 89.7885C43.9991 91.0329 45.2804 91.7862 46.5562 92.2047C48.3832 92.769 50.3067 92.9588 52.2099 92.7627C54.132 92.5953 56.2226 92.0261 57.2679 90.419C57.8195 89.4415 58.1151 88.3421 58.1278 87.2217C58.4457 83.0117 57.8713 78.7823 56.4418 74.8062C55.8011 73.0373 55.0536 71.1067 53.6318 69.8177C52.5752 68.8747 51.3388 68.9807 50.0518 69.3601C49.0323 69.6324 48.1353 70.2384 47.506 71.0799C46.8766 71.9215 46.5519 72.9494 46.5843 73.9971Z" fill="#263238"/>
<path d="M51.2706 70.593C51.2706 70.7381 50.8098 71.0227 50.7086 71.151C50.4475 71.4158 50.2157 71.7076 50.0174 72.0215C49.626 72.7014 49.4188 73.4704 49.416 74.2535C49.4351 75.4539 49.7682 76.6288 50.3827 77.6629C50.9919 78.6915 51.6895 79.6661 52.4677 80.5756L54.4122 82.9806C54.5384 83.1682 54.7131 83.3185 54.918 83.4159C55.1133 83.4662 55.3184 83.4662 55.5137 83.4159C56.5253 83.2652 57.5369 83.0922 58.5429 82.9136C59.4776 82.7696 60.3961 82.536 61.2855 82.2161C62.7598 81.6263 64.0197 80.6069 64.8991 79.2922C65.3902 78.6567 65.7337 77.9211 65.9051 77.1384C65.9388 76.8091 65.7815 76.5245 65.8658 76.1897C66.0361 75.7742 66.2469 75.3761 66.4952 75.0012C66.9576 74.0643 67.1649 73.0236 67.0965 71.9824C66.8998 69.8509 65.5735 67.0888 61.6339 66.2908C58.3462 65.6435 52.0687 66.3578 51.2706 70.593Z" fill="#263238"/>
<path d="M63.4941 87.6069C65.4038 87.5753 67.2849 88.0698 68.9287 89.0354C71.1205 90.1514 82.5459 104.871 82.5459 104.871C81.3587 105.623 79.9325 105.909 78.5445 105.675C76.0605 105.329 69.4289 101.641 69.4289 101.641L63.4941 87.6069Z" fill="#AF6152"/>
<path d="M47.5178 110.897C46.2084 109.843 47.1694 108.721 47.2424 106.567C47.2986 104.893 44.1233 96.2722 44.1233 96.2722C44.1233 96.2722 43.2129 90.1788 48.5519 88.7224L53.3289 87.852C53.3289 87.852 57.1617 87.573 59.3479 87.5674C61.6634 87.5674 63.5011 87.5674 63.5011 87.5674C64.5296 88.4658 68.1826 91.1498 69.6831 93.3036C70.6993 94.7307 71.1971 96.4581 71.095 98.2029C70.9929 99.9476 70.2969 101.606 69.1211 102.907C69.0577 104.245 69.0971 105.586 69.2391 106.919C69.5145 108.738 69.9978 109.993 69.0705 111.115C66.8169 113.832 53.6998 114.915 47.5178 110.897Z" fill="#F0F0F0"/>
<path d="M52.2035 81.7085C51.7702 81.7748 51.3271 81.7284 50.9174 81.5739C50.5076 81.4194 50.1452 81.162 49.8655 80.8268C48.5842 79.4653 48.7415 78.0647 49.3035 77.1217C49.7756 76.3461 50.9895 75.8383 51.8044 76.3517C52.6193 76.865 52.7374 77.3505 53.0858 77.9699C53.4342 78.5893 54.2885 78.0926 53.9681 75.5761C55.6935 74.7391 54.7381 72.3787 55.6541 71.1902C56.8287 69.678 59.0711 70.4034 60.2906 70.9558C60.4651 71.0352 60.6592 71.0622 60.8489 71.0335C61.0387 71.0047 61.2158 70.9215 61.3584 70.794C61.7457 70.4387 62.2327 70.2089 62.7548 70.1351C63.2768 70.0613 63.8091 70.1471 64.2808 70.3811C65.343 70.9391 65.8601 71.7035 65.7027 74.2871C65.6659 74.8737 65.7056 75.4626 65.8207 76.0392C65.9592 76.6469 66.0643 77.2616 66.1354 77.8806C66.2872 80.2912 65.5734 83.1425 64.3146 84.3478C63.8189 84.7883 63.2407 85.1275 62.6129 85.3458C61.9851 85.5641 61.3201 85.6573 60.6559 85.6201V87.6121C60.6559 87.6121 64.7585 91.0661 60.0939 91.0661C54.7718 91.0661 53.423 87.6512 53.423 87.6512L53.1308 81.0054C53.1308 81.0054 53.0802 81.5299 52.2035 81.7085Z" fill="#C8856A"/>
<path d="M60.6343 85.5924C57.8243 85.5254 54.812 84.0411 53.9746 81.7422C54.2163 84.1416 55.9079 85.4194 57.5489 86.0165C58.5443 86.3614 59.5913 86.5369 60.6455 86.5354L60.6343 85.5924Z" fill="#AF6152"/>
<path d="M60.4375 74.918L61.0388 79.7223L63.5903 78.5394L60.4375 74.918Z" fill="#AF6152"/>
<path d="M59.1828 76.0333C59.1817 76.1736 59.139 76.3105 59.06 76.4268C58.981 76.5431 58.8692 76.6338 58.7387 76.6875C58.6081 76.7411 58.4645 76.7554 58.3258 76.7286C58.1871 76.7017 58.0595 76.6349 57.9588 76.5365C57.8581 76.438 57.7888 76.3123 57.7596 76.175C57.7305 76.0377 57.7427 75.895 57.7947 75.7645C57.8467 75.6341 57.9363 75.5217 58.0522 75.4415C58.1682 75.3613 58.3053 75.3168 58.4466 75.3135C58.5426 75.3128 58.6377 75.3308 58.7266 75.3666C58.8156 75.4024 58.8965 75.4552 58.9649 75.522C59.0332 75.5888 59.0877 75.6684 59.1251 75.7561C59.1625 75.8439 59.1821 75.9381 59.1828 76.0333Z" fill="#263238"/>
<path d="M64.4778 75.827C64.4633 75.9661 64.408 76.0979 64.3187 76.2061C64.2294 76.3143 64.11 76.394 63.9755 76.4355C63.841 76.4769 63.6971 76.4782 63.5619 76.4392C63.4266 76.4003 63.3058 76.3227 63.2145 76.2162C63.1232 76.1097 63.0654 75.9789 63.0483 75.8401C63.0312 75.7013 63.0555 75.5605 63.1182 75.4353C63.1809 75.3101 63.2793 75.2059 63.4011 75.1356C63.5229 75.0654 63.6628 75.0322 63.8034 75.0402C63.9968 75.0587 64.1753 75.1511 64.3012 75.298C64.4271 75.4448 64.4904 75.6346 64.4778 75.827Z" fill="#263238"/>
<path d="M57.1152 73.8857L58.4078 72.7139C58.5626 72.8917 58.6426 73.1219 58.631 73.3567C58.6195 73.5915 58.5175 73.8129 58.346 73.975C58.2604 74.0517 58.1601 74.1104 58.051 74.1475C57.9419 74.1847 57.8264 74.1996 57.7114 74.1912C57.5964 74.1829 57.4843 74.1515 57.3819 74.099C57.2794 74.0465 57.1887 73.9739 57.1152 73.8857Z" fill="#263238"/>
<path d="M62.8307 72.7139L64.4212 73.4616C64.3778 73.5648 64.314 73.6584 64.2335 73.7367C64.1531 73.815 64.0577 73.8766 63.9529 73.9177C63.8481 73.9587 63.7361 73.9786 63.6235 73.9759C63.5109 73.9733 63.3999 73.9483 63.2972 73.9024C63.0799 73.8024 62.91 73.6229 62.823 73.4013C62.7361 73.1798 62.7388 72.9334 62.8307 72.7139Z" fill="#263238"/>
<path d="M59.5086 81.7195C59.5624 81.7867 59.6294 81.8423 59.7055 81.8831C59.7816 81.9239 59.8653 81.9489 59.9514 81.9567C60.0375 81.9645 60.1243 81.955 60.2066 81.9286C60.2889 81.9022 60.365 81.8596 60.4302 81.8032C60.5561 81.6815 60.6376 81.5217 60.662 81.349C60.6864 81.1763 60.6523 81.0004 60.5651 80.849C60.5096 80.7515 60.4328 80.6676 60.3403 80.6035C60.436 80.5088 60.5569 80.443 60.6888 80.4138C60.4048 80.3324 60.1005 80.3583 59.8345 80.4863C59.676 80.5703 59.5497 80.7036 59.4748 80.8658C59.4128 81.0008 59.3835 81.1483 59.3894 81.2966C59.3953 81.4449 59.4361 81.5897 59.5086 81.7195Z" fill="#AF6152"/>
<path d="M60.5432 81.6643C60.51 81.7157 60.4704 81.7625 60.4252 81.8038C60.3599 81.8602 60.2839 81.9028 60.2016 81.9292C60.1193 81.9556 60.0324 81.9652 59.9463 81.9573C59.8602 81.9495 59.7766 81.9245 59.7005 81.8837C59.6244 81.8429 59.5573 81.7873 59.5035 81.7201C59.4076 81.5506 59.3683 81.3552 59.3911 81.1621C59.826 81.1756 60.2388 81.3556 60.5432 81.6643Z" fill="#FFA8A7"/>
<path d="M48.5513 88.7227C46.2078 89.2807 44.1958 90.3018 43.4596 92.9746C42.7571 95.5191 42.8133 102.327 43.1337 106.021C43.454 109.715 43.7856 111.69 44.4038 112.159C45.022 112.627 50.0631 107.137 49.962 106.997C49.8608 106.858 50.9398 98.1026 50.9398 98.1026C50.9398 98.1026 51.4513 90.179 48.5513 88.7227Z" fill="#C8856A"/>
<path d="M50.9951 96.1943C49.9653 97.2119 49.0077 98.2988 48.1289 99.4475C46.0607 102.12 45.2008 103.733 45.0098 105.636L50.6298 100.748C50.804 99.2745 50.9445 98.125 50.9445 98.125C50.9445 98.125 51.0007 97.3271 50.9951 96.1943Z" fill="#AF6152"/>
<path d="M68.7662 83.9511C68.7662 83.9511 68.5638 83.8507 68.4908 83.421C68.4177 82.9913 68.4514 82.6844 68.384 82.2046C68.3166 81.7247 68.0918 80.9212 67.6365 80.843C67.1813 80.7649 66.9846 81.7972 66.9902 82.6231C67.0632 83.4149 66.878 84.2091 66.462 84.8885C65.9 85.8316 65.4897 87.0424 66.0854 88.0747L68.7662 83.9511Z" fill="#AF6152"/>
<path d="M71.7228 82.2444C71.5347 81.4354 71.4144 80.6123 71.3631 79.7836C71.2485 79.155 71.048 78.5449 70.7674 77.9701C70.4864 77.334 70.256 76.5025 70.0256 76.4244C69.7952 76.3463 69.4074 76.6141 69.4636 77.1219C69.4636 77.1219 69.1489 76.7592 68.9016 76.3742C68.6543 75.9892 68.4464 75.5149 68.0811 75.4368C67.7158 75.3586 67.5528 75.9445 67.6933 76.3407C67.8338 76.7369 67.9406 76.9657 67.9406 76.9657C67.9406 76.9657 67.5865 77.1387 67.9406 77.8529C68.0791 78.1399 68.2569 78.4065 68.4688 78.6453C68.5329 79.0946 68.6857 79.5269 68.9184 79.9175C69.0401 80.3959 69.2134 80.8599 69.4355 81.3013C69.2047 81.7722 69.0727 82.2848 69.0477 82.8079C69.0477 83.4664 69.177 83.617 68.4351 84.4317C67.7712 85.022 67.1619 85.67 66.6142 86.368C66.1478 87.1157 65.8387 87.9025 66.4962 88.8343C67.1538 89.7662 67.6596 90.447 68.2778 91.429C68.7442 92.1768 69.2163 93.1644 71.1721 96.7021C72.6895 99.4475 72.8131 99.7935 73.5437 100.781C74.5609 102.165 75.7355 103.962 78.2589 104.871C80.7823 105.781 83.6147 105.346 83.1764 103.298C82.6481 100.842 81.8501 98.9341 80.6867 97.6452C79.7371 96.5929 78.7013 95.6205 77.5901 94.738C76.3368 93.6555 75.3421 92.506 73.8078 90.9771C72.2736 89.4481 71.2002 87.9415 71.1833 87.4003C71.241 86.4064 71.4183 85.4228 71.7116 84.4708C71.9195 83.4273 72.0825 83.4608 71.7228 82.2444Z" fill="#C8856A"/>
<path d="M66.0859 88.0752C66.2709 88.5433 66.5309 88.9786 66.8559 89.3642C67.1425 89.7827 67.4179 90.2068 67.6989 90.6308C67.9799 91.0549 68.2609 91.4846 68.5082 91.9142C68.7554 92.3439 69.0702 92.98 69.3118 93.4208C69.0196 93.0079 68.7105 92.3885 68.4295 91.97C68.1485 91.5515 67.8675 91.1219 67.5921 90.6978L66.7603 89.4311L66.3445 88.795C66.2075 88.5762 66.1193 88.3307 66.0859 88.0752Z" fill="#AF6152"/>
<path d="M69.4402 77.1221C69.4891 77.3456 69.5587 77.5641 69.6482 77.7749C69.7311 77.9851 69.8269 78.1901 69.9348 78.3887V78.4222V78.4668C69.9262 78.5876 69.9262 78.7088 69.9348 78.8295C69.9377 78.9529 69.949 79.076 69.9685 79.1978C70.0125 79.4395 70.094 79.6729 70.2102 79.8897V79.9455V79.9902C70.1765 80.0683 70.1428 80.1632 70.1147 80.2525C70.0866 80.3417 70.0697 80.4422 70.0528 80.537C70.036 80.6319 70.0247 80.7323 70.0191 80.8272C70.0135 80.9276 70.0135 81.0281 70.0191 81.1285C69.9446 80.9362 69.9065 80.7319 69.9067 80.5259C69.8985 80.4219 69.8985 80.3174 69.9067 80.2134C69.9237 80.1095 69.9482 80.0069 69.9798 79.9065V80.0069C69.8276 79.7751 69.7244 79.515 69.6763 79.2425C69.6493 79.1084 69.6361 78.9719 69.6369 78.8351C69.6361 78.6965 69.6493 78.5582 69.6763 78.4222V78.4947C69.5788 78.2777 69.5035 78.0515 69.4515 77.8196C69.4109 77.5891 69.4072 77.3537 69.4402 77.1221Z" fill="#AF6152"/>
<path d="M67.8945 76.9658C67.9681 77.0747 68.0528 77.1757 68.1474 77.2671C68.2414 77.3535 68.3409 77.4336 68.4453 77.5071V77.5461C68.5239 77.8073 68.6373 78.0569 68.7825 78.2883C68.9271 78.5215 69.1184 78.7228 69.3445 78.8798L69.4063 78.93V79.0137C69.3786 79.1609 69.3654 79.3104 69.367 79.4601C69.3698 79.6168 69.3811 79.7733 69.4007 79.9288C69.4007 80.0795 69.4513 80.2357 69.4962 80.3919C69.5412 80.5482 69.5862 80.6988 69.6311 80.8495C69.5368 80.7173 69.4541 80.5773 69.3838 80.431C69.3135 80.2801 69.2571 80.1233 69.2152 79.9623C69.1726 79.8014 69.1444 79.6371 69.1309 79.4712C69.1089 79.3008 69.1089 79.1283 69.1309 78.9579L69.1815 79.0918C69.0575 79.0029 68.9443 78.8999 68.8443 78.7849C68.7444 78.6722 68.6577 78.5487 68.5858 78.4166C68.5137 78.2857 68.4517 78.1495 68.4003 78.0093C68.3527 77.8677 68.3189 77.722 68.2992 77.574V77.6243C68.1989 77.5314 68.1085 77.4285 68.0294 77.3174C67.9704 77.206 67.9251 77.088 67.8945 76.9658Z" fill="#AF6152"/>
<path d="M69.5873 82.1826C69.5897 82.4785 69.5223 82.7709 69.3906 83.0364C69.2608 83.301 69.0901 83.5439 68.8848 83.7562C68.941 83.6223 69.014 83.4939 69.0758 83.3656C69.1377 83.2372 69.2107 83.1089 69.2669 82.9806C69.392 82.7222 69.499 82.4556 69.5873 82.1826Z" fill="#AF6152"/>
<path d="M67.1485 85.5693C66.9889 86.0682 66.9409 86.5958 67.008 87.115C67.0428 87.3713 67.1148 87.6213 67.2216 87.8571C67.3359 88.0965 67.4634 88.3293 67.6037 88.5546C67.3728 88.3907 67.1776 88.1822 67.0298 87.9415C66.8821 87.7008 66.7848 87.433 66.7439 87.1541C66.7024 86.8765 66.7167 86.5934 66.7862 86.3214C66.8557 86.0494 66.9788 85.7938 67.1485 85.5693Z" fill="#AF6152"/>
<path d="M58.7685 91.5124C58.5353 90.7869 58.1373 90.1244 57.6051 89.5761C56.7939 88.4047 56.0509 87.1881 55.3796 85.9324C55.1192 85.1189 54.9312 84.2842 54.8176 83.4381C54.649 82.6011 54.4748 82.032 53.6149 82.1826C53.6149 82.1324 53.6149 82.0096 53.6149 81.7251C53.5812 81.061 53.3789 80.8267 53.0867 80.7151C52.945 80.6713 52.7956 80.658 52.6483 80.676C52.6287 80.4362 52.5388 80.2073 52.3898 80.0176C52.1144 79.6828 51.8278 79.6605 51.6704 79.7944C51.5131 79.9283 51.5018 80.3524 51.4007 81.3456C51.2956 82.0849 51.2468 82.831 51.2545 83.5776C51.0826 83.8534 50.9983 84.1743 51.0129 84.4983C51.2226 85.774 51.5519 87.0275 51.9964 88.2425C52.2099 88.8005 53.6824 91.4231 53.9971 92.3773C54.4186 93.4375 53.5306 94.7823 52.2156 96.3893C50.9005 97.9963 49.4899 99.7931 48.2085 101.249C47.1502 102.451 46.1952 103.739 45.3535 105.1C44.4487 106.539 43.9879 108.861 44.1171 111.238C44.2352 113.286 46.8597 113.23 49.1358 111.924C50.9337 110.995 52.4199 109.566 53.4126 107.812C54.4583 105.939 55.3456 103.983 56.0653 101.964C57.5883 97.8847 58.0323 96.6348 58.3133 95.8257C58.7179 94.2298 59.1169 92.8014 58.7685 91.5124Z" fill="#C8856A"/>
<path d="M51.9578 88.2314C52.2219 88.7894 52.5198 89.3474 52.8401 89.9445C53.1605 90.5416 53.4415 91.0884 53.7169 91.6743C53.8636 91.9651 53.9858 92.2674 54.0822 92.5783C54.1452 92.9052 54.1259 93.2426 54.026 93.5603C53.814 94.176 53.5048 94.7542 53.1099 95.2734C52.7334 95.8035 52.3175 96.3001 51.9128 96.7967L50.6877 98.2978C49.8672 99.291 49.0354 100.284 48.1699 101.238C49.0017 100.251 49.7997 99.2408 50.609 98.2308L51.8173 96.7242C52.2219 96.222 52.6322 95.7254 53.0031 95.2009C53.3913 94.6934 53.6966 94.1285 53.9079 93.5269C54.0067 93.2282 54.0279 92.9096 53.9698 92.6006C53.8762 92.2974 53.7616 92.0009 53.6269 91.7134C53.093 90.5416 52.4748 89.4088 51.9578 88.2314Z" fill="#AF6152"/>
<path d="M53.5929 82.166C53.5197 82.2658 53.4876 82.3895 53.503 82.512C53.503 82.6403 53.503 82.7631 53.5479 82.8858L53.6379 83.6447C53.6997 84.1469 53.7446 84.6491 53.784 85.1513C53.784 85.3968 53.784 85.6647 53.8402 85.8935C53.8953 86.1348 53.9628 86.3732 54.0425 86.6077L54.5202 88.0529C54.2652 87.6106 54.0399 87.1521 53.8458 86.6802C53.7458 86.4409 53.6631 86.1947 53.5985 85.9437C53.5731 85.8168 53.5581 85.688 53.5536 85.5587L53.5198 85.1792C53.4861 84.6714 53.4524 84.1637 53.4355 83.6559C53.4355 83.4048 53.4355 83.1481 53.4355 82.897C53.4355 82.7687 53.4355 82.6403 53.4355 82.512C53.4364 82.4467 53.4508 82.3822 53.4778 82.3227C53.5049 82.2631 53.5441 82.2098 53.5929 82.166Z" fill="#AF6152"/>
<path d="M52.609 80.6592C52.446 80.7038 52.4179 80.8712 52.4235 81.0163C52.4291 81.1614 52.4235 81.312 52.4235 81.4627C52.4235 81.764 52.4235 82.0709 52.4572 82.3722C52.4572 82.9805 52.4572 83.5831 52.4572 84.1802C52.5017 84.7775 52.6245 85.3665 52.8225 85.9323C52.9855 86.4903 53.1878 87.0818 53.3845 87.6621C53.1085 87.1194 52.8664 86.5603 52.6595 85.9881C52.4136 85.4201 52.2691 84.814 52.2324 84.1969C52.2324 83.5887 52.2324 82.9805 52.2886 82.3778C52.2886 82.0765 52.3223 81.7808 52.3336 81.4794C52.3362 81.3264 52.3475 81.1737 52.3673 81.0219C52.3739 80.9426 52.3949 80.8651 52.4291 80.7931C52.4476 80.7592 52.4733 80.7298 52.5043 80.7067C52.5354 80.6835 52.571 80.6673 52.609 80.6592Z" fill="#AF6152"/>
<path d="M51.2146 83.5664C51.2764 83.89 51.3326 84.2081 51.4 84.515C51.4643 84.8241 51.545 85.1295 51.6417 85.4301C51.86 86.0361 52.0476 86.6525 52.2037 87.2771C52.0332 86.9989 51.8811 86.71 51.7485 86.4122C51.6066 86.1186 51.4827 85.8167 51.3775 85.5083C51.272 85.1968 51.2004 84.8751 51.164 84.5485C51.1414 84.2203 51.1584 83.8906 51.2146 83.5664Z" fill="#AF6152"/>
<path d="M56.026 101.959C56.6498 100.245 57.2736 98.5324 57.8749 96.8082C58.1766 95.9495 58.4336 95.076 58.6449 94.1912C58.888 93.3175 58.913 92.3982 58.7179 91.5128L58.7741 91.5463H58.7292V91.5016C58.6073 91.0606 58.4033 90.6461 58.1278 90.2796C57.8637 89.9002 57.5321 89.5709 57.268 89.1636C56.7453 88.3935 56.2845 87.5845 55.8236 86.7754L55.4808 86.1727C55.4246 86.0667 55.3684 85.9774 55.3122 85.8658C55.2636 85.7551 55.2223 85.6414 55.1886 85.5254C55.0649 85.0735 54.9863 84.6159 54.902 84.1639C54.8336 83.7085 54.7379 83.2576 54.6153 82.8136C54.567 82.5921 54.4416 82.3945 54.2613 82.2556C54.068 82.1482 53.8401 82.1202 53.6262 82.1774H53.5644V82.1161C53.5722 81.7697 53.5305 81.4241 53.4408 81.0893C53.384 80.9326 53.2696 80.8029 53.1204 80.7266C52.9686 80.6539 52.7975 80.6305 52.6315 80.6597H52.5809V80.6039C52.5643 80.3887 52.4885 80.1821 52.3617 80.0068C52.3067 79.9177 52.2311 79.8429 52.1412 79.7886C52.0513 79.7342 51.9497 79.7019 51.8447 79.6943C51.796 79.6959 51.7487 79.7108 51.7081 79.7374C51.6674 79.764 51.635 79.8012 51.6143 79.845C51.5692 79.9439 51.5408 80.0495 51.53 80.1575C51.5019 80.3807 51.4906 80.6039 51.4681 80.8271L51.3333 82.1719C51.2792 82.6161 51.2585 83.0638 51.2714 83.5111C51.0695 83.8463 50.9919 84.2411 51.0523 84.6271C51.1197 85.0232 51.2096 85.4194 51.3052 85.81C51.4898 86.5953 51.7168 87.3702 51.9852 88.1313C51.6999 87.411 51.4505 86.6773 51.2377 85.9328C51.1422 85.5422 51.041 85.1516 50.9736 84.7498C50.8915 84.3429 50.9678 83.9202 51.1871 83.5669C51.172 83.116 51.1907 82.6646 51.2433 82.2165L51.367 80.8717C51.367 80.6485 51.4007 80.4253 51.4288 80.1965C51.4405 80.0791 51.4708 79.9642 51.5187 79.8562C51.5467 79.7988 51.5896 79.75 51.6429 79.7147C51.6963 79.6794 51.7582 79.6589 51.8222 79.6553C51.9429 79.6612 52.0605 79.6957 52.1651 79.7559C52.2697 79.816 52.3583 79.9002 52.4235 80.0012C52.5628 80.1928 52.6464 80.4186 52.6652 80.6541L52.609 80.6095C52.7994 80.577 52.9953 80.6023 53.171 80.682C53.3426 80.771 53.4748 80.9202 53.5419 81.1005C53.6049 81.2803 53.6408 81.4683 53.6487 81.6585V82.1886L53.5813 82.1384C53.8239 82.0783 54.0803 82.1102 54.3006 82.2277C54.4987 82.3753 54.6396 82.5861 54.6996 82.8247C54.8236 83.2748 54.923 83.7311 54.9975 84.1918C55.0874 84.6438 55.1661 85.1014 55.2954 85.5422C55.3226 85.6497 55.3602 85.7543 55.4078 85.8547C55.4527 85.9495 55.5202 86.0555 55.5764 86.156L55.9136 86.7642C56.3688 87.5733 56.824 88.3824 57.341 89.1469C57.5939 89.5319 57.903 89.8611 58.1897 90.2629C58.4713 90.6396 58.6791 91.0654 58.8022 91.5184L58.746 91.4849H58.791V91.5295C58.9825 92.4327 58.9536 93.3683 58.7067 94.2581C58.4875 95.1454 58.2234 96.0158 57.9199 96.8807C57.3354 98.5547 56.7004 100.251 56.026 101.959Z" fill="#AF6152"/>
</svg>
