<svg width="373" height="260" viewBox="0 0 373 260" fill="none" xmlns="http://www.w3.org/2000/svg">
<g clip-path="url(#clip0_2535_11535)">
<path d="M427.189 248.785C427.189 248.888 321.358 248.976 190.84 248.976C60.3219 248.976 -45.5234 248.888 -45.5234 248.785C-45.5234 248.681 60.2795 248.593 190.84 248.593C321.4 248.593 427.189 248.689 427.189 248.785Z" fill="#263238"/>
<path d="M341.785 245.002H44.415C39.6942 245.002 35.1668 243.044 31.8287 239.558C28.4906 236.073 26.6152 231.346 26.6152 226.416V13.3572C26.6152 9.76207 27.983 6.31419 30.4177 3.77205C32.8524 1.22991 36.1546 -0.198242 39.5978 -0.198242H347.316C348.927 -0.198242 350.522 0.133112 352.011 0.776902C353.499 1.42069 354.852 2.36431 355.991 3.55388C357.13 4.74345 358.034 6.15568 358.651 7.70992C359.267 9.26417 359.585 10.93 359.585 12.6123V226.431C359.581 231.358 357.704 236.081 354.366 239.563C351.029 243.046 346.503 245.002 341.785 245.002Z" fill="#E0E0E0"/>
<path d="M341.785 245.001L342.491 244.949L343.388 244.898C343.742 244.898 344.151 244.787 344.617 244.721L345.366 244.603L346.178 244.381L347.068 244.138L348.015 243.769C348.725 243.497 349.416 243.174 350.084 242.803C350.445 242.619 350.791 242.368 351.165 242.139L351.73 241.778L352.274 241.35C355.993 238.526 358.497 234.287 359.246 229.55C359.295 229.196 359.345 228.85 359.401 228.496C359.458 228.142 359.443 227.758 359.465 227.411C359.514 226.674 359.521 225.936 359.514 225.199C359.514 223.684 359.514 222.114 359.514 220.486C359.514 217.241 359.514 213.785 359.514 210.117C359.514 180.808 359.514 138.394 359.451 85.9865C359.451 72.8883 359.451 59.178 359.451 44.8555C359.451 37.7115 359.451 30.42 359.451 22.981V14.5365C359.451 13.5999 359.451 12.6411 359.401 11.7192C359.275 9.83088 358.745 7.99618 357.849 6.35071C356.952 4.70525 355.714 3.29108 354.224 2.21272C352.714 1.1207 350.983 0.406514 349.166 0.125567C348.94 0.125567 348.714 0.0444411 348.46 0.0223158H347.754C347.294 0.0223158 346.828 0.0223158 346.341 0.0223158H260.52H44.6199H41.0317C40.4384 0.0223158 39.8309 0.0223158 39.2447 0.0223158L38.3688 0.0665646C38.0721 0.10344 37.7825 0.155066 37.4929 0.199317C37.2012 0.235176 36.9129 0.296857 36.6312 0.383694C36.3416 0.46482 36.0591 0.531196 35.7765 0.619697C35.2186 0.809949 34.6735 1.03909 34.1449 1.30558C33.081 1.82461 32.0939 2.50015 31.2136 3.31161C30.3395 4.10901 29.5763 5.02996 28.9462 6.04777C28.3122 7.07415 27.8088 8.18235 27.4488 9.34444C27.1094 10.5129 26.9194 11.7231 26.8837 12.9435C26.8484 14.1678 26.8837 15.4142 26.8837 16.631V103.606C26.8837 141.314 26.8837 177.688 26.8837 212.337V225.25C26.8837 226.32 26.919 227.374 26.9896 228.429L27.2157 229.993C27.3146 230.509 27.4629 231.01 27.583 231.527C28.1438 233.543 29.0275 235.446 30.1964 237.154C32.5329 240.564 35.9186 243.034 39.7886 244.153C40.2689 244.271 40.7351 244.44 41.2012 244.514L42.6634 244.743C43.6452 244.802 44.627 244.868 45.6159 244.846H97.2777H179.376L298.246 244.905L330.554 245.001L298.232 245.038L179.362 245.097H97.2636H45.5664C44.5846 245.097 43.5816 245.053 42.5786 244.994L41.0953 244.758C40.5938 244.684 40.1205 244.514 39.6261 244.396C35.6849 243.255 32.2372 240.738 29.8574 237.265C28.6655 235.524 27.7629 233.587 27.1874 231.534C27.0673 231.01 26.919 230.494 26.8201 229.971L26.587 228.378C26.5164 227.308 26.4599 226.224 26.4811 225.162C26.4811 220.884 26.4811 216.58 26.4811 212.248C26.4811 177.585 26.4811 141.226 26.4811 103.517C26.4811 84.6614 26.4811 65.4862 26.4811 45.9913V16.6679C26.4811 15.4289 26.4811 14.2046 26.4811 12.9804C26.5187 11.73 26.7134 10.4902 27.0603 9.29281C27.4329 8.09572 27.9504 6.95318 28.6001 5.89289C29.2624 4.83918 30.0584 3.88403 30.9663 3.05348C31.8732 2.21979 32.8887 1.52452 33.9824 0.988452C34.5273 0.705804 35.0888 0.459474 35.6635 0.250942C35.9531 0.162441 36.2498 0.0960653 36.5464 0.0149392C36.8352 -0.0743558 37.1305 -0.138495 37.4294 -0.176815C37.7331 -0.221066 38.0298 -0.280063 38.3264 -0.316938L39.2376 -0.361192C39.8451 -0.405443 40.4313 -0.361192 41.0317 -0.361192H44.6199H260.52H346.39C346.856 -0.361192 347.323 -0.361192 347.803 -0.361192L348.509 -0.324315C348.742 -0.324315 348.975 -0.257939 349.216 -0.221064C351.078 0.0651825 352.85 0.79995 354.393 1.92509C355.921 3.0294 357.192 4.47836 358.112 6.16475C359.031 7.85114 359.576 9.7318 359.705 11.6676C359.768 12.6264 359.705 13.563 359.747 14.507V22.9294C359.747 30.3635 359.747 37.655 359.747 44.8039C359.747 59.1116 359.747 72.8219 359.747 85.9348C359.747 138.342 359.705 180.757 359.691 210.065C359.691 213.728 359.691 217.185 359.691 220.435C359.691 222.064 359.691 223.635 359.691 225.147C359.691 225.885 359.691 226.622 359.641 227.36C359.641 227.728 359.641 228.097 359.571 228.451C359.5 228.805 359.465 229.189 359.415 229.506C358.648 234.276 356.11 238.537 352.352 241.365L351.808 241.793L351.243 242.154C350.861 242.383 350.536 242.634 350.148 242.825C349.475 243.188 348.781 243.508 348.071 243.784L347.118 244.145L346.221 244.381L345.409 244.595L344.66 244.713C344.251 244.792 343.838 244.848 343.424 244.883L342.527 244.927L341.785 245.001Z" fill="#263238"/>
<path d="M359.239 248.747H29.9288C27.6675 248.75 25.4277 248.287 23.3377 247.386C21.2477 246.484 19.3483 245.161 17.7483 243.493C16.1483 241.824 14.879 239.843 14.013 237.662C13.1469 235.48 12.7012 233.142 12.7012 230.781V227.986C12.7019 227.892 12.7211 227.799 12.7575 227.713C12.794 227.626 12.8468 227.549 12.9129 227.484C12.9791 227.42 13.057 227.371 13.142 227.339C13.2271 227.307 13.3174 227.294 13.4075 227.3H372.794C372.97 227.3 373.139 227.373 373.264 227.503C373.388 227.633 373.458 227.81 373.458 227.994V233.938C373.456 235.885 373.087 237.813 372.371 239.611C371.656 241.41 370.608 243.043 369.287 244.418C367.967 245.794 366.4 246.884 364.676 247.626C362.952 248.369 361.104 248.75 359.239 248.747Z" fill="#E0E0E0"/>
<path d="M359.239 248.747L359.719 248.71C360.193 248.699 360.665 248.655 361.132 248.577C363.01 248.322 364.815 247.656 366.43 246.623C367.628 245.887 368.712 244.964 369.644 243.887C370.776 242.588 371.68 241.089 372.313 239.462C373.035 237.559 373.386 235.526 373.345 233.48C373.345 232.381 373.345 231.268 373.345 230.088V228.31C373.345 228.008 373.345 227.706 373.154 227.521C372.963 227.337 372.667 227.359 372.37 227.352L292.165 227.411L27.5622 227.47H13.4071C13.3325 227.466 13.258 227.479 13.1882 227.507C13.1225 227.537 13.0642 227.583 13.0178 227.641C12.9713 227.698 12.9378 227.766 12.9198 227.838C12.9043 228.03 12.9043 228.222 12.9198 228.414V229.667C12.9198 230.501 12.9198 231.327 12.9904 232.153C13.1019 233.794 13.4422 235.409 14.0005 236.947C14.2731 237.704 14.5916 238.443 14.954 239.159C15.3363 239.904 15.7633 240.624 16.2325 241.313C18.092 243.934 20.6031 245.975 23.4937 247.213C24.9375 247.815 26.4499 248.219 27.9931 248.415C29.5258 248.57 31.0939 248.533 32.6549 248.533H130.66L249.615 248.577L329.848 248.688H351.653L329.848 248.725L249.65 248.791L130.66 248.924H60.4071H32.6549C31.101 248.924 29.5329 248.924 27.9507 248.798C26.3733 248.602 24.8274 248.19 23.3524 247.574C20.3857 246.297 17.8126 244.192 15.9146 241.49C15.439 240.816 15.0049 240.112 14.615 239.38C14.2484 238.636 13.9229 237.87 13.6402 237.087C13.0723 235.512 12.725 233.86 12.609 232.182C12.5595 231.342 12.5242 230.501 12.5383 229.667V228.414C12.5185 228.19 12.5185 227.966 12.5383 227.743C12.59 227.551 12.7012 227.382 12.8547 227.263C13.0081 227.144 13.195 227.082 13.3859 227.086H27.5552L292.158 227.145L372.363 227.204H372.808C372.973 227.217 373.127 227.29 373.246 227.411C373.364 227.525 373.442 227.679 373.465 227.846C373.465 228.023 373.465 228.156 373.465 228.31C373.465 228.908 373.465 229.505 373.465 230.088V233.48C373.501 235.543 373.14 237.591 372.405 239.506C371.764 241.138 370.848 242.637 369.7 243.931C367.454 246.489 364.419 248.141 361.125 248.599C360.657 248.673 360.185 248.713 359.712 248.717L359.239 248.747Z" fill="#263238"/>
<path d="M341.292 14.7725H43.9993C41.9513 14.7725 40.291 16.506 40.291 18.6444V211.769C40.291 213.907 41.9513 215.641 43.9993 215.641H341.292C343.34 215.641 345 213.907 345 211.769V18.6444C345 16.506 343.34 14.7725 341.292 14.7725Z" fill="#323232" fill-opacity="0.501961"/>
<path d="M341.298 215.64C341.298 215.64 341.517 215.64 341.934 215.566C342.561 215.445 343.149 215.161 343.643 214.74C344.045 214.392 344.371 213.959 344.6 213.47C344.829 212.98 344.956 212.445 344.971 211.901C344.971 210.598 344.971 209.086 344.971 207.365C344.971 200.491 344.971 190.365 344.971 177.311C344.971 151.218 344.936 113.458 344.908 66.7956C344.908 55.1281 344.908 42.9199 344.908 30.1708C344.908 26.9897 344.908 23.7741 344.908 20.5242V19.322C344.922 18.9232 344.908 18.5239 344.865 18.1273C344.761 17.3418 344.416 16.6125 343.884 16.0475C343.349 15.4837 342.656 15.1118 341.906 14.9855C341.521 14.9372 341.134 14.9224 340.747 14.9412H320.193H236.301H44.0697C43.5625 14.9395 43.0608 15.0519 42.5988 15.2708C42.1369 15.4897 41.7255 15.81 41.3927 16.2097C41.0621 16.609 40.8208 17.0801 40.6864 17.5889C40.5603 18.109 40.5126 18.6465 40.5451 19.1819V116.489C40.5451 133.275 40.5451 149.746 40.5451 165.902V210.389C40.4527 211.327 40.544 212.276 40.8135 213.177C41.1571 214.034 41.7978 214.724 42.6076 215.109C43.0079 215.3 43.4393 215.41 43.879 215.433C44.317 215.433 44.7902 215.433 45.2493 215.433H123.653H196.753L302.598 215.492L331.374 215.529L302.598 215.566L196.753 215.625H123.653H82.9327H45.1928C44.7266 215.625 44.2816 215.625 43.7801 215.625C43.2925 215.598 42.8136 215.478 42.3675 215.271C41.4843 214.844 40.7846 214.09 40.4038 213.154C40.2144 212.687 40.1137 212.186 40.1072 211.679V165.917C40.1072 149.765 40.1072 133.294 40.1072 116.504V65.2763C40.1072 56.6032 40.1072 47.871 40.1072 39.0799V19.204C40.0781 18.6308 40.1329 18.0564 40.2696 17.5004C40.42 16.9365 40.6932 16.4166 41.0678 15.9811C41.4342 15.5392 41.8877 15.1853 42.3973 14.9434C42.9069 14.7015 43.4605 14.5775 44.0203 14.5799H236.251H320.143H340.698C341.099 14.5606 341.501 14.5779 341.899 14.6315C342.703 14.775 343.443 15.1773 344.018 15.782C344.593 16.3938 344.964 17.1824 345.077 18.0314C345.123 18.4426 345.137 18.8569 345.12 19.2704V30.1339C345.12 42.8683 345.12 55.0765 345.12 66.7587C345.12 113.421 345.077 151.181 345.063 177.275C345.063 190.328 345.063 200.454 345.063 207.328C345.063 209.049 345.063 210.561 345.063 211.864C345.044 212.416 344.913 212.957 344.678 213.452C344.443 213.946 344.109 214.383 343.7 214.733C343.204 215.158 342.61 215.44 341.976 215.551C341.818 215.58 341.657 215.595 341.496 215.596L341.298 215.64Z" fill="#263238"/>
<path d="M160.291 226.881L164.769 234.809H227.754L231.914 226.881H160.291Z" fill="#263238"/>
<path d="M195.579 7.97211C195.579 8.48847 195.432 8.99324 195.158 9.42258C194.883 9.85193 194.492 10.1866 194.035 10.3842C193.579 10.5818 193.076 10.6335 192.591 10.5327C192.106 10.432 191.66 10.1833 191.311 9.81821C190.961 9.45309 190.723 8.98788 190.626 8.48144C190.53 7.975 190.579 7.45006 190.768 6.973C190.958 6.49594 191.278 6.08819 191.689 5.80132C192.101 5.51444 192.584 5.36133 193.079 5.36133C193.742 5.36133 194.378 5.63639 194.847 6.126C195.316 6.61562 195.579 7.27969 195.579 7.97211Z" fill="#263238"/>
<path d="M240.371 113.273H145.587C145.021 113.273 144.562 113.752 144.562 114.343V129.668C144.562 130.259 145.021 130.738 145.587 130.738H240.371C240.936 130.738 241.395 130.259 241.395 129.668V114.343C241.395 113.752 240.936 113.273 240.371 113.273Z" fill="#F5F5F5"/>
<path d="M240.461 137.265H145.677C145.111 137.265 144.652 137.743 144.652 138.334V153.659C144.652 154.25 145.111 154.729 145.677 154.729H240.461C241.026 154.729 241.485 154.25 241.485 153.659V138.334C241.485 137.743 241.026 137.265 240.461 137.265Z" fill="#F5F5F5"/>
<path d="M151.193 121.896V119.624H151.744V121.837C151.744 122.736 152.139 123.135 152.832 123.135C153.524 123.135 153.927 122.736 153.927 121.837V119.624H154.463V121.918C154.478 122.151 154.447 122.386 154.371 122.606C154.296 122.827 154.178 123.029 154.024 123.199C153.871 123.37 153.686 123.507 153.48 123.6C153.274 123.693 153.052 123.741 152.828 123.741C152.604 123.741 152.382 123.693 152.176 123.6C151.971 123.507 151.785 123.37 151.632 123.199C151.479 123.029 151.361 122.827 151.285 122.606C151.21 122.386 151.178 122.151 151.193 121.918V121.896Z" fill="#263238"/>
<path d="M155.148 123.313L155.367 122.871C155.675 123.078 156.033 123.188 156.399 123.188C156.886 123.188 157.105 123.033 157.105 122.775C157.105 122.089 155.254 122.686 155.254 121.469C155.254 120.924 155.728 120.555 156.476 120.555C156.848 120.549 157.216 120.643 157.543 120.828L157.317 121.263C157.062 121.101 156.768 121.019 156.469 121.027C156.01 121.027 155.763 121.204 155.763 121.447C155.763 122.185 157.614 121.58 157.614 122.767C157.614 123.321 157.126 123.667 156.349 123.667C155.924 123.678 155.506 123.554 155.148 123.313Z" fill="#263238"/>
<path d="M160.921 122.287H158.547C158.579 122.551 158.707 122.791 158.904 122.959C159.102 123.126 159.353 123.208 159.607 123.187C159.764 123.192 159.92 123.162 160.065 123.098C160.211 123.035 160.341 122.939 160.447 122.818L160.744 123.172C160.527 123.4 160.252 123.558 159.951 123.627C159.651 123.695 159.337 123.672 159.049 123.559C158.761 123.446 158.511 123.248 158.327 122.99C158.144 122.731 158.037 122.423 158.017 122.103C158.007 121.898 158.039 121.693 158.109 121.501C158.179 121.31 158.286 121.136 158.425 120.99C158.563 120.844 158.729 120.73 158.912 120.655C159.094 120.58 159.29 120.546 159.487 120.554C159.68 120.554 159.872 120.595 160.049 120.675C160.227 120.755 160.387 120.872 160.519 121.019C160.652 121.167 160.754 121.341 160.819 121.531C160.885 121.721 160.912 121.923 160.899 122.125C160.91 122.178 160.917 122.233 160.921 122.287ZM158.547 121.896H160.419C160.399 121.652 160.291 121.424 160.118 121.258C159.945 121.092 159.718 121 159.483 121C159.248 121 159.022 121.092 158.848 121.258C158.675 121.424 158.568 121.652 158.547 121.896Z" fill="#263238"/>
<path d="M163.238 120.553V121.099H163.153C163.024 121.091 162.896 121.113 162.776 121.164C162.657 121.214 162.549 121.291 162.461 121.39C162.374 121.488 162.308 121.606 162.269 121.734C162.23 121.862 162.218 121.998 162.235 122.132V123.658H161.705V120.598H162.214V121.114C162.318 120.931 162.47 120.782 162.65 120.683C162.831 120.584 163.034 120.539 163.238 120.553Z" fill="#263238"/>
<path d="M166.684 121.874V123.637H166.154V121.94C166.154 121.343 165.865 121.048 165.363 121.048C165.235 121.037 165.107 121.056 164.987 121.104C164.867 121.151 164.759 121.226 164.67 121.323C164.581 121.42 164.514 121.536 164.474 121.663C164.434 121.79 164.422 121.925 164.438 122.058V123.637H163.908V120.576H164.417V121.041C164.542 120.877 164.703 120.747 164.886 120.662C165.069 120.578 165.269 120.54 165.469 120.554C165.637 120.539 165.805 120.564 165.962 120.626C166.119 120.688 166.261 120.786 166.377 120.912C166.494 121.039 166.582 121.191 166.635 121.357C166.688 121.523 166.705 121.7 166.684 121.874Z" fill="#263238"/>
<path d="M169.967 121.793V123.637H169.465V123.231C169.353 123.382 169.206 123.5 169.038 123.576C168.87 123.652 168.687 123.683 168.505 123.666C167.848 123.666 167.424 123.297 167.424 122.766C167.424 122.235 167.728 121.874 168.603 121.874H169.437V121.763C169.437 121.299 169.183 121.026 168.653 121.026C168.317 121.025 167.991 121.142 167.728 121.358L167.509 120.945C167.857 120.676 168.283 120.538 168.716 120.554C169.508 120.554 169.967 120.952 169.967 121.793ZM169.437 122.7V122.272H168.625C168.102 122.272 167.918 122.486 167.918 122.744C167.918 123.002 168.166 123.238 168.568 123.238C168.749 123.26 168.933 123.22 169.09 123.122C169.246 123.025 169.369 122.877 169.437 122.7Z" fill="#263238"/>
<path d="M175.81 121.874V123.636H175.28V121.94C175.28 121.343 175.004 121.048 174.524 121.048C174.4 121.042 174.275 121.065 174.16 121.115C174.045 121.165 173.942 121.241 173.859 121.338C173.775 121.434 173.713 121.549 173.676 121.673C173.64 121.798 173.63 121.929 173.648 122.058V123.636H173.118V121.94C173.118 121.343 172.843 121.048 172.363 121.048C172.238 121.042 172.114 121.065 171.999 121.115C171.884 121.165 171.781 121.241 171.697 121.338C171.614 121.434 171.551 121.549 171.515 121.673C171.479 121.798 171.469 121.929 171.487 122.058V123.636H170.957V120.576H171.466V121.033C171.583 120.872 171.737 120.744 171.913 120.66C172.089 120.577 172.283 120.54 172.476 120.553C172.677 120.539 172.879 120.584 173.058 120.683C173.236 120.782 173.384 120.931 173.486 121.114C173.616 120.931 173.787 120.784 173.984 120.686C174.181 120.588 174.398 120.543 174.616 120.553C174.782 120.54 174.949 120.565 175.105 120.628C175.261 120.69 175.401 120.788 175.515 120.915C175.63 121.042 175.716 121.194 175.767 121.359C175.818 121.525 175.832 121.701 175.81 121.874Z" fill="#263238"/>
<path d="M179.44 122.287H177.067C177.1 122.55 177.229 122.789 177.426 122.957C177.622 123.124 177.873 123.206 178.126 123.187C178.285 123.192 178.442 123.161 178.588 123.098C178.734 123.034 178.866 122.939 178.974 122.818L179.263 123.172C179.047 123.4 178.771 123.558 178.471 123.627C178.17 123.695 177.857 123.672 177.569 123.559C177.281 123.446 177.03 123.248 176.847 122.99C176.664 122.731 176.556 122.423 176.537 122.103C176.527 121.898 176.558 121.693 176.628 121.501C176.698 121.31 176.806 121.136 176.944 120.99C177.082 120.844 177.248 120.73 177.431 120.655C177.614 120.58 177.81 120.546 178.006 120.554C178.203 120.548 178.398 120.586 178.58 120.663C178.762 120.741 178.926 120.858 179.062 121.006C179.199 121.153 179.304 121.329 179.371 121.522C179.439 121.715 179.467 121.92 179.454 122.125C179.453 122.179 179.448 122.233 179.44 122.287ZM177.067 121.896H178.946C178.917 121.657 178.806 121.436 178.633 121.277C178.46 121.117 178.237 121.029 178.006 121.029C177.775 121.029 177.552 121.117 177.379 121.277C177.206 121.436 177.095 121.657 177.067 121.896Z" fill="#263238"/>
<path d="M240.617 164.317H145.833C145.267 164.317 144.809 164.796 144.809 165.387V180.712C144.809 181.303 145.267 181.782 145.833 181.782H240.617C241.182 181.782 241.641 181.303 241.641 180.712V165.387C241.641 164.796 241.182 164.317 240.617 164.317Z" fill="#DA693F"/>
<path d="M184.477 171.161H185.571V174.296H187.422V175.203H184.477V171.161Z" fill="white"/>
<path d="M187.598 173.632C187.569 173.277 187.644 172.922 187.812 172.612C187.98 172.302 188.234 172.053 188.54 171.896C188.846 171.739 189.191 171.682 189.528 171.733C189.866 171.784 190.181 171.939 190.433 172.18C190.684 172.421 190.86 172.735 190.938 173.082C191.015 173.428 190.991 173.792 190.868 174.124C190.745 174.456 190.529 174.741 190.248 174.943C189.967 175.145 189.634 175.254 189.293 175.255C189.078 175.273 188.861 175.245 188.657 175.172C188.453 175.099 188.265 174.982 188.106 174.83C187.947 174.678 187.82 174.493 187.732 174.287C187.645 174.08 187.599 173.858 187.598 173.632ZM189.922 173.632C189.933 173.54 189.925 173.445 189.898 173.356C189.871 173.267 189.827 173.185 189.767 173.115C189.708 173.045 189.635 172.989 189.553 172.951C189.471 172.913 189.382 172.894 189.293 172.895C189.106 172.895 188.926 172.973 188.793 173.111C188.661 173.249 188.587 173.437 188.587 173.632C188.587 173.828 188.661 174.016 188.793 174.154C188.926 174.292 189.106 174.37 189.293 174.37C189.382 174.371 189.471 174.351 189.553 174.313C189.635 174.275 189.708 174.22 189.767 174.15C189.827 174.08 189.871 173.998 189.898 173.909C189.925 173.819 189.933 173.725 189.922 173.632Z" fill="white"/>
<path d="M194.689 172.068V174.627C194.689 175.814 194.046 176.367 192.93 176.367C192.408 176.391 191.891 176.249 191.447 175.962L191.829 175.224C192.124 175.442 192.477 175.558 192.839 175.556C193.404 175.556 193.637 175.291 193.637 174.819V174.715C193.524 174.842 193.385 174.94 193.231 175.004C193.077 175.068 192.912 175.095 192.747 175.084C192.363 175.084 191.994 174.925 191.723 174.641C191.451 174.358 191.299 173.973 191.299 173.572C191.299 173.171 191.451 172.787 191.723 172.503C191.994 172.22 192.363 172.06 192.747 172.06C192.926 172.045 193.106 172.077 193.27 172.153C193.434 172.229 193.577 172.347 193.686 172.495V172.112L194.689 172.068ZM193.651 173.543C193.651 173.456 193.634 173.369 193.601 173.289C193.568 173.209 193.519 173.137 193.458 173.078C193.397 173.018 193.325 172.973 193.247 172.943C193.168 172.914 193.084 172.902 193.001 172.908C192.915 172.899 192.829 172.908 192.747 172.936C192.664 172.964 192.589 173.009 192.525 173.069C192.461 173.129 192.409 173.203 192.374 173.285C192.339 173.367 192.321 173.456 192.321 173.546C192.321 173.636 192.339 173.726 192.374 173.808C192.409 173.89 192.461 173.964 192.525 174.024C192.589 174.084 192.664 174.129 192.747 174.157C192.829 174.185 192.915 174.194 193.001 174.184C193.087 174.191 193.173 174.178 193.253 174.147C193.334 174.116 193.408 174.068 193.469 174.005C193.53 173.942 193.578 173.867 193.61 173.783C193.641 173.7 193.655 173.61 193.651 173.521V173.543Z" fill="white"/>
<path d="M197.055 171.161H198.15V175.203H197.055V171.161Z" fill="white"/>
<path d="M202.036 173.411V175.204H200.984V173.588C200.984 173.139 200.793 172.947 200.49 172.947C200.186 172.947 199.896 173.168 199.896 173.684V175.204H198.844V172.069H199.882V172.408C200.006 172.279 200.154 172.178 200.316 172.11C200.479 172.043 200.654 172.012 200.829 172.018C201 172.01 201.171 172.043 201.329 172.112C201.488 172.182 201.63 172.287 201.745 172.419C201.86 172.552 201.946 172.71 201.996 172.882C202.047 173.053 202.06 173.234 202.036 173.411Z" fill="white"/>
<path d="M152.195 146.1C152.195 146.401 152.11 146.695 151.95 146.944C151.79 147.194 151.563 147.389 151.297 147.504C151.031 147.619 150.739 147.649 150.456 147.59C150.174 147.532 149.915 147.387 149.711 147.175C149.508 146.962 149.369 146.691 149.313 146.397C149.257 146.102 149.286 145.797 149.396 145.519C149.506 145.241 149.693 145.004 149.932 144.837C150.171 144.67 150.452 144.581 150.74 144.581C151.126 144.581 151.496 144.741 151.769 145.026C152.042 145.311 152.195 145.697 152.195 146.1Z" fill="#263238"/>
<path d="M156.795 146.1C156.795 146.401 156.71 146.695 156.55 146.944C156.39 147.194 156.163 147.389 155.897 147.504C155.631 147.619 155.338 147.649 155.056 147.59C154.774 147.532 154.514 147.387 154.311 147.175C154.107 146.962 153.969 146.691 153.913 146.397C153.857 146.102 153.885 145.797 153.996 145.519C154.106 145.241 154.292 145.004 154.531 144.837C154.771 144.67 155.052 144.581 155.34 144.581C155.726 144.581 156.096 144.741 156.369 145.026C156.642 145.311 156.795 145.697 156.795 146.1Z" fill="#263238"/>
<path d="M161.35 146.1C161.35 146.401 161.264 146.695 161.104 146.944C160.944 147.194 160.717 147.389 160.451 147.504C160.185 147.619 159.893 147.649 159.611 147.59C159.328 147.532 159.069 147.387 158.866 147.175C158.662 146.962 158.524 146.691 158.467 146.397C158.411 146.102 158.44 145.797 158.55 145.519C158.66 145.241 158.847 145.004 159.086 144.837C159.325 144.67 159.607 144.581 159.895 144.581C160.28 144.581 160.651 144.741 160.923 145.026C161.196 145.311 161.35 145.697 161.35 146.1Z" fill="#263238"/>
<path d="M165.928 146.1C165.928 146.401 165.842 146.695 165.682 146.944C165.523 147.194 165.295 147.389 165.029 147.504C164.764 147.619 164.471 147.649 164.189 147.59C163.907 147.532 163.647 147.387 163.444 147.175C163.24 146.962 163.102 146.691 163.046 146.397C162.989 146.102 163.018 145.797 163.128 145.519C163.238 145.241 163.425 145.004 163.664 144.837C163.904 144.67 164.185 144.581 164.473 144.581C164.859 144.581 165.229 144.741 165.502 145.026C165.774 145.311 165.928 145.697 165.928 146.1Z" fill="#263238"/>
<path d="M170.512 146.1C170.514 146.403 170.429 146.698 170.269 146.95C170.109 147.203 169.881 147.399 169.614 147.516C169.347 147.633 169.053 147.664 168.769 147.606C168.485 147.548 168.224 147.403 168.019 147.19C167.813 146.977 167.673 146.705 167.617 146.408C167.56 146.112 167.588 145.805 167.699 145.525C167.809 145.246 167.996 145.007 168.237 144.839C168.478 144.671 168.761 144.581 169.05 144.581C169.437 144.581 169.807 144.741 170.081 145.026C170.355 145.31 170.51 145.697 170.512 146.1Z" fill="#263238"/>
<path d="M175.088 146.1C175.09 146.403 175.005 146.699 174.845 146.951C174.685 147.203 174.456 147.4 174.189 147.517C173.922 147.633 173.627 147.664 173.343 147.605C173.058 147.547 172.797 147.401 172.592 147.187C172.387 146.973 172.248 146.701 172.192 146.404C172.136 146.107 172.165 145.799 172.277 145.52C172.388 145.241 172.577 145.002 172.818 144.835C173.06 144.668 173.343 144.58 173.633 144.581C174.019 144.581 174.389 144.741 174.662 145.026C174.935 145.311 175.088 145.697 175.088 146.1Z" fill="#263238"/>
<path d="M179.666 146.1C179.666 146.401 179.581 146.695 179.421 146.944C179.261 147.194 179.034 147.389 178.768 147.504C178.502 147.619 178.209 147.649 177.927 147.59C177.645 147.532 177.386 147.387 177.182 147.175C176.979 146.962 176.84 146.691 176.784 146.397C176.728 146.102 176.756 145.797 176.867 145.519C176.977 145.241 177.163 145.004 177.403 144.837C177.642 144.67 177.923 144.581 178.211 144.581C178.597 144.581 178.967 144.741 179.24 145.026C179.513 145.311 179.666 145.697 179.666 146.1Z" fill="#263238"/>
<path d="M184.242 146.1C184.242 146.401 184.157 146.695 183.997 146.944C183.837 147.194 183.61 147.389 183.344 147.504C183.078 147.619 182.785 147.649 182.503 147.59C182.221 147.532 181.962 147.387 181.758 147.175C181.555 146.962 181.416 146.691 181.36 146.397C181.304 146.102 181.333 145.797 181.443 145.519C181.553 145.241 181.739 145.004 181.979 144.837C182.218 144.67 182.499 144.581 182.787 144.581C183.173 144.581 183.543 144.741 183.816 145.026C184.089 145.311 184.242 145.697 184.242 146.1Z" fill="#263238"/>
<path d="M233.941 144.996H233.559V144.435C233.531 143.956 233.328 143.506 232.993 143.177C232.657 142.848 232.215 142.665 231.755 142.665C231.295 142.665 230.852 142.848 230.517 143.177C230.181 143.506 229.979 143.956 229.95 144.435V144.996H229.406C229.23 144.996 229.061 145.069 228.937 145.199C228.812 145.329 228.742 145.505 228.742 145.689V148.75C228.742 148.933 228.812 149.11 228.937 149.24C229.061 149.37 229.23 149.443 229.406 149.443H233.941C234.117 149.443 234.286 149.37 234.41 149.24C234.535 149.11 234.605 148.933 234.605 148.75V145.689C234.605 145.505 234.535 145.329 234.41 145.199C234.286 145.069 234.117 144.996 233.941 144.996ZM232.373 148.447H230.96L231.313 147.511C231.16 147.434 231.037 147.305 230.964 147.145C230.89 146.986 230.87 146.805 230.908 146.632C230.946 146.46 231.039 146.305 231.171 146.195C231.304 146.085 231.469 146.024 231.638 146.024C231.808 146.024 231.972 146.085 232.105 146.195C232.238 146.305 232.33 146.46 232.368 146.632C232.406 146.805 232.386 146.986 232.313 147.145C232.239 147.305 232.116 147.434 231.963 147.511L232.373 148.447ZM233.023 144.996H230.515V144.435C230.539 144.105 230.681 143.796 230.914 143.571C231.146 143.346 231.452 143.221 231.769 143.221C232.086 143.221 232.391 143.346 232.624 143.571C232.856 143.796 232.999 144.105 233.023 144.435V144.996Z" fill="#E0E0E0"/>
<path d="M217.702 70.3978C219.912 56.0244 210.544 42.5019 196.778 40.1945C183.012 37.8871 170.061 47.6686 167.851 62.042C165.641 76.4154 175.009 89.9379 188.775 92.2453C202.541 94.5527 215.492 84.7712 217.702 70.3978Z" fill="#FAFAFA"/>
<path d="M218.005 66.1989C218.005 66.1989 218.005 66.0588 217.963 65.7785C217.921 65.4983 217.921 65.041 217.885 64.5247C217.885 64.2519 217.85 63.9421 217.836 63.6029C217.822 63.2636 217.73 62.9022 217.673 62.504C217.563 61.5842 217.386 60.6744 217.144 59.7826C216.548 57.318 215.595 54.9629 214.318 52.7983C212.487 49.6091 210.03 46.8611 207.108 44.7356C204.186 42.6101 200.866 41.1554 197.366 40.4672C196.319 40.2634 195.259 40.1352 194.195 40.0837C193.658 40.0837 193.114 40.0099 192.563 40.0173L190.903 40.1058C190.621 40.1058 190.345 40.1058 190.063 40.1648L189.229 40.2976C188.671 40.3934 188.099 40.4672 187.541 40.5852C186.405 40.8533 185.287 41.1956 184.193 41.6103C183.074 42.0225 181.983 42.5154 180.93 43.0853C180.4 43.3803 179.891 43.7343 179.369 44.0588C178.838 44.3818 178.331 44.7441 177.85 45.143C175.808 46.6854 174.019 48.5634 172.552 50.7038C170.994 52.8883 169.785 55.3215 168.971 57.9093C167.248 63.269 167.248 69.0698 168.971 74.4295L169.678 76.3692L170.525 78.2129C170.662 78.5204 170.818 78.8184 170.991 79.1053L171.5 79.9756L172.001 80.8311L172.581 81.6424C173.333 82.7102 174.154 83.7229 175.039 84.6735C175.927 85.5775 176.871 86.4201 177.864 87.1958C178.343 87.5953 178.848 87.96 179.376 88.2873C179.905 88.6118 180.414 88.9658 180.937 89.2608C181.993 89.8296 183.086 90.3224 184.207 90.7359C185.301 91.1505 186.42 91.4929 187.555 91.761C188.113 91.879 188.685 91.9454 189.243 92.0486L190.077 92.1814C190.359 92.1814 190.635 92.1814 190.917 92.2404L192.577 92.3289C193.128 92.3289 193.672 92.2772 194.209 92.2625C195.275 92.2105 196.337 92.0824 197.387 91.879C200.887 91.1904 204.207 89.7354 207.129 87.61C210.051 85.4845 212.508 82.7368 214.34 79.5478C215.614 77.3821 216.566 75.0273 217.165 72.5636C217.407 71.6717 217.584 70.762 217.695 69.8422C217.751 69.4439 217.822 69.1047 217.857 68.7433C217.892 68.3819 217.892 68.0943 217.907 67.8214C217.942 67.283 217.97 66.8627 217.984 66.5677C217.998 66.2726 218.027 66.1399 218.027 66.1399C218.027 66.1399 218.027 66.2874 218.027 66.5677C218.027 66.8479 218.027 67.3052 217.984 67.8288C217.984 68.1017 217.984 68.4114 217.949 68.7507C217.914 69.0899 217.85 69.4882 217.801 69.857C217.704 70.7809 217.538 71.6957 217.306 72.5931C216.739 75.0824 215.807 77.4656 214.544 79.6585C212.715 82.8944 210.246 85.6863 207.302 87.8482C204.358 90.01 201.007 91.4922 197.472 92.1961C196.411 92.4081 195.337 92.5412 194.258 92.5944C193.707 92.5944 193.156 92.6755 192.605 92.6681L190.924 92.5796C190.642 92.5796 190.352 92.5796 190.07 92.528L189.222 92.3953C188.657 92.292 188.085 92.2256 187.513 92.1076C185.18 91.563 182.924 90.7052 180.802 89.5558C180.266 89.2535 179.75 88.8995 179.22 88.5749C178.684 88.2462 178.171 87.8764 177.687 87.4687C176.67 86.6879 175.705 85.8353 174.798 84.9169C173.902 83.9516 173.069 82.9241 172.305 81.8415L171.719 81.0229L171.203 80.1526L170.695 79.2749C170.516 78.9848 170.358 78.6816 170.221 78.3678L169.353 76.4945C169.127 75.8382 168.893 75.1818 168.646 74.5254C166.899 69.0889 166.899 63.2056 168.646 57.7692C169.472 55.1433 170.7 52.6749 172.284 50.4604C173.05 49.3796 173.883 48.3523 174.777 47.385C175.685 46.4664 176.65 45.6114 177.666 44.8259C178.152 44.423 178.664 44.0558 179.199 43.727C179.729 43.4025 180.244 43.0485 180.781 42.7461C182.903 41.5967 185.159 40.739 187.491 40.1943C188.064 40.0763 188.636 40.0099 189.201 39.9067L190.048 39.7739C190.331 39.737 190.621 39.737 190.896 39.7223L192.577 39.6338C193.135 39.6338 193.686 39.6854 194.237 39.7075C195.313 39.7615 196.385 39.8921 197.444 40.0984C200.978 40.8072 204.328 42.2913 207.273 44.4526C210.217 46.614 212.688 49.4033 214.523 52.6361C215.782 54.8286 216.713 57.2086 217.285 59.6941C217.517 60.5939 217.682 61.5112 217.779 62.4376C217.829 62.8359 217.892 63.1751 217.928 63.5439C217.963 63.9126 217.928 64.1929 217.963 64.4658C217.963 65.0115 217.963 65.4245 218.005 65.7269C218.048 66.0293 218.005 66.1989 218.005 66.1989Z" fill="#263238"/>
<path d="M195.268 66.5896C196.519 66.0745 197.559 65.1195 198.209 63.8894C198.858 62.6592 199.076 61.231 198.825 59.8511C198.574 58.4712 197.87 57.226 196.833 56.3302C195.797 55.4345 194.494 54.9443 193.149 54.9443C191.803 54.9443 190.5 55.4345 189.464 56.3302C188.428 57.226 187.723 58.4712 187.472 59.8511C187.221 61.231 187.439 62.6592 188.089 63.8894C188.738 65.1195 189.778 66.0745 191.03 66.5896C182.151 67.9024 182.554 77.3646 182.554 77.3646L203.553 77.4605C203.553 77.4605 204.069 67.895 195.268 66.5896Z" fill="#E0E0E0"/>
<path d="M148.247 193.567H145.216C144.986 193.567 144.765 193.471 144.602 193.301C144.439 193.131 144.348 192.901 144.348 192.66V189.496C144.348 189.255 144.439 189.025 144.602 188.855C144.765 188.684 144.986 188.589 145.216 188.589H148.247C148.477 188.591 148.696 188.687 148.859 188.857C149.021 189.026 149.114 189.256 149.115 189.496V192.638C149.117 192.759 149.096 192.878 149.054 192.991C149.011 193.103 148.947 193.205 148.866 193.291C148.786 193.378 148.689 193.447 148.583 193.494C148.477 193.541 148.362 193.566 148.247 193.567ZM145.216 188.95C145.08 188.95 144.949 189.007 144.852 189.108C144.755 189.209 144.701 189.346 144.701 189.489V192.638C144.701 192.781 144.755 192.918 144.852 193.018C144.949 193.119 145.08 193.176 145.216 193.176H148.247C148.314 193.176 148.381 193.162 148.444 193.135C148.507 193.108 148.563 193.068 148.611 193.018C148.659 192.968 148.697 192.909 148.723 192.844C148.749 192.778 148.762 192.708 148.762 192.638V189.474C148.762 189.403 148.749 189.333 148.723 189.268C148.697 189.203 148.659 189.143 148.611 189.093C148.563 189.043 148.507 189.004 148.444 188.976C148.381 188.949 148.314 188.935 148.247 188.935L145.216 188.95Z" fill="#263238"/>
<path d="M154.046 192.888L153.417 191.952H152.612V192.881H152.047V189.688H153.297C154.102 189.688 154.604 190.115 154.604 190.823C154.613 191.042 154.555 191.258 154.438 191.44C154.321 191.622 154.151 191.76 153.954 191.834L154.66 192.881L154.046 192.888ZM153.262 190.196H152.598V191.472H153.262C153.756 191.472 154.018 191.236 154.018 190.831C154.018 190.425 153.77 190.196 153.262 190.196Z" fill="#263238"/>
<path d="M157.367 191.856H155.537C155.573 192.033 155.67 192.191 155.809 192.298C155.948 192.405 156.121 192.456 156.293 192.439C156.41 192.444 156.526 192.423 156.635 192.377C156.743 192.331 156.841 192.262 156.922 192.174L157.218 192.52C157.09 192.693 156.922 192.828 156.73 192.915C156.538 193.001 156.328 193.036 156.12 193.015C155.912 192.995 155.712 192.919 155.539 192.797C155.366 192.674 155.225 192.508 155.13 192.313C155.035 192.119 154.988 191.902 154.995 191.684C155.001 191.466 155.06 191.253 155.166 191.065C155.272 190.876 155.422 190.719 155.602 190.607C155.781 190.496 155.985 190.433 156.194 190.426C156.353 190.419 156.512 190.448 156.659 190.509C156.807 190.571 156.941 190.664 157.052 190.783C157.164 190.901 157.25 191.043 157.305 191.199C157.36 191.355 157.384 191.521 157.374 191.687C157.374 191.731 157.367 191.797 157.367 191.856ZM155.53 191.473H156.858C156.809 191.331 156.718 191.208 156.6 191.121C156.481 191.034 156.339 190.987 156.194 190.987C156.049 190.987 155.907 191.034 155.789 191.121C155.67 191.208 155.58 191.331 155.53 191.473Z" fill="#263238"/>
<path d="M161.795 191.495V192.889H161.252V191.569C161.252 191.134 161.061 190.927 160.729 190.927C160.397 190.927 160.121 191.171 160.121 191.665V192.904H159.578V191.584C159.578 191.149 159.38 190.942 159.048 190.942C158.716 190.942 158.447 191.186 158.447 191.68V192.919H157.896V190.426H158.419V190.736C158.514 190.623 158.632 190.534 158.764 190.476C158.896 190.417 159.039 190.39 159.182 190.396C159.335 190.386 159.488 190.419 159.626 190.49C159.764 190.561 159.881 190.669 159.966 190.802C160.073 190.67 160.207 190.564 160.359 190.494C160.511 190.424 160.676 190.39 160.842 190.396C160.979 190.385 161.116 190.407 161.244 190.46C161.371 190.513 161.485 190.595 161.577 190.701C161.669 190.807 161.737 190.934 161.775 191.072C161.813 191.21 161.82 191.354 161.795 191.495Z" fill="#263238"/>
<path d="M164.698 191.856H162.869C162.904 192.033 163.001 192.191 163.14 192.298C163.28 192.405 163.452 192.456 163.624 192.439C163.742 192.443 163.859 192.421 163.969 192.376C164.078 192.33 164.177 192.261 164.26 192.174L164.55 192.52C164.432 192.656 164.286 192.763 164.124 192.832C163.961 192.901 163.786 192.93 163.61 192.919C163.446 192.933 163.28 192.911 163.124 192.855C162.968 192.799 162.825 192.709 162.704 192.592C162.583 192.474 162.487 192.332 162.421 192.174C162.356 192.015 162.323 191.845 162.325 191.672C162.32 191.506 162.348 191.341 162.406 191.187C162.465 191.033 162.553 190.894 162.666 190.777C162.779 190.66 162.913 190.568 163.061 190.508C163.209 190.448 163.367 190.42 163.526 190.426C163.685 190.419 163.843 190.448 163.991 190.509C164.139 190.571 164.273 190.664 164.384 190.783C164.495 190.901 164.581 191.043 164.636 191.199C164.692 191.355 164.715 191.521 164.705 191.687C164.706 191.743 164.704 191.8 164.698 191.856ZM162.862 191.473H164.19C164.172 191.305 164.093 191.15 163.97 191.04C163.846 190.931 163.687 190.874 163.526 190.883C163.365 190.878 163.207 190.935 163.085 191.044C162.962 191.153 162.883 191.306 162.862 191.473Z" fill="#263238"/>
<path d="M169.128 191.495V192.889H168.584V191.569C168.584 191.134 168.393 190.927 168.061 190.927C167.729 190.927 167.453 191.171 167.453 191.665V192.904H166.91V191.584C166.91 191.149 166.719 190.942 166.387 190.942C166.055 190.942 165.779 191.186 165.779 191.68V192.919H165.229V190.426H165.751V190.736C165.846 190.623 165.964 190.534 166.096 190.476C166.228 190.417 166.371 190.39 166.514 190.396C166.667 190.386 166.821 190.417 166.959 190.489C167.096 190.56 167.213 190.668 167.298 190.802C167.405 190.67 167.54 190.564 167.691 190.494C167.843 190.424 168.008 190.39 168.174 190.396C168.311 190.385 168.448 190.407 168.576 190.46C168.703 190.513 168.817 190.595 168.909 190.701C169.001 190.807 169.069 190.934 169.107 191.072C169.145 191.21 169.152 191.354 169.128 191.495Z" fill="#263238"/>
<path d="M172.335 191.671C172.343 191.836 172.318 192.002 172.261 192.156C172.204 192.311 172.117 192.451 172.005 192.569C171.894 192.686 171.76 192.778 171.612 192.838C171.464 192.898 171.306 192.925 171.148 192.918C171.003 192.925 170.858 192.898 170.724 192.838C170.591 192.778 170.472 192.687 170.378 192.571V192.888H169.855V189.503H170.406V190.749C170.496 190.646 170.605 190.564 170.726 190.508C170.848 190.453 170.98 190.424 171.113 190.425C171.274 190.411 171.437 190.433 171.589 190.49C171.742 190.548 171.88 190.638 171.996 190.757C172.112 190.875 172.202 191.018 172.261 191.175C172.319 191.333 172.344 191.502 172.335 191.671ZM171.777 191.671C171.777 191.476 171.702 191.288 171.57 191.15C171.437 191.011 171.258 190.934 171.07 190.934C170.877 190.934 170.692 191.014 170.556 191.156C170.42 191.299 170.343 191.492 170.343 191.693C170.343 191.895 170.42 192.088 170.556 192.23C170.692 192.373 170.877 192.453 171.07 192.453C171.164 192.449 171.257 192.426 171.342 192.384C171.427 192.343 171.504 192.284 171.567 192.211C171.63 192.138 171.679 192.053 171.71 191.96C171.741 191.868 171.754 191.769 171.748 191.671H171.777Z" fill="#263238"/>
<path d="M175.003 191.857H173.173C173.209 192.034 173.306 192.191 173.445 192.298C173.584 192.406 173.757 192.456 173.929 192.439C174.047 192.443 174.164 192.422 174.274 192.376C174.383 192.33 174.482 192.261 174.565 192.174L174.854 192.52C174.737 192.657 174.591 192.764 174.429 192.833C174.266 192.902 174.09 192.931 173.915 192.919C173.75 192.933 173.585 192.911 173.429 192.855C173.273 192.799 173.13 192.709 173.009 192.592C172.888 192.475 172.791 192.332 172.726 192.174C172.661 192.016 172.628 191.845 172.629 191.672C172.624 191.506 172.652 191.34 172.711 191.186C172.771 191.031 172.86 190.891 172.973 190.774C173.086 190.657 173.222 190.566 173.37 190.506C173.519 190.446 173.678 190.419 173.837 190.426C173.996 190.42 174.154 190.45 174.3 190.512C174.447 190.574 174.58 190.667 174.691 190.786C174.801 190.904 174.887 191.046 174.942 191.201C174.997 191.356 175.02 191.522 175.01 191.687C175.011 191.744 175.008 191.8 175.003 191.857ZM173.173 191.473H174.494C174.466 191.311 174.385 191.165 174.264 191.06C174.144 190.954 173.991 190.897 173.834 190.897C173.676 190.897 173.524 190.954 173.403 191.06C173.283 191.165 173.201 191.311 173.173 191.473Z" fill="#263238"/>
<path d="M176.889 190.425V190.971C176.847 190.965 176.804 190.965 176.762 190.971C176.666 190.959 176.57 190.97 176.479 191.003C176.388 191.036 176.305 191.09 176.237 191.161C176.169 191.232 176.118 191.318 176.086 191.413C176.055 191.508 176.044 191.609 176.056 191.709V192.889H175.512V190.425H176.027V190.779C176.128 190.646 176.261 190.543 176.412 190.481C176.564 190.418 176.728 190.399 176.889 190.425Z" fill="#263238"/>
<path d="M182.477 191.495V192.889H181.926V191.568C181.926 191.133 181.735 190.927 181.403 190.927C181.072 190.927 180.796 191.17 180.796 191.664V192.903H180.252V191.583C180.252 191.148 180.061 190.942 179.729 190.942C179.397 190.942 179.122 191.185 179.122 191.679V192.918H178.578V190.425H179.094V190.735C179.189 190.623 179.306 190.534 179.438 190.475C179.57 190.416 179.713 190.389 179.857 190.396C180.011 190.384 180.166 190.416 180.305 190.487C180.444 190.558 180.562 190.667 180.648 190.801C180.756 190.674 180.89 190.575 181.041 190.51C181.191 190.444 181.354 190.416 181.517 190.425C181.651 190.414 181.786 190.434 181.912 190.485C182.038 190.536 182.152 190.615 182.244 190.718C182.336 190.821 182.405 190.944 182.446 191.079C182.486 191.213 182.497 191.355 182.477 191.495Z" fill="#263238"/>
<path d="M185.381 191.857H183.551C183.587 192.034 183.684 192.191 183.823 192.299C183.962 192.406 184.135 192.457 184.307 192.44C184.424 192.445 184.54 192.423 184.649 192.378C184.757 192.332 184.855 192.263 184.936 192.174L185.232 192.521C185.115 192.657 184.969 192.764 184.806 192.833C184.644 192.901 184.468 192.931 184.293 192.919C184.128 192.935 183.961 192.914 183.805 192.858C183.648 192.802 183.504 192.713 183.382 192.596C183.26 192.478 183.163 192.335 183.098 192.176C183.032 192.018 182.999 191.846 183 191.673C182.996 191.507 183.025 191.342 183.085 191.188C183.144 191.034 183.233 190.894 183.346 190.777C183.459 190.66 183.594 190.569 183.742 190.509C183.891 190.448 184.049 190.421 184.208 190.427C184.367 190.421 184.525 190.45 184.672 190.512C184.82 190.574 184.953 190.667 185.064 190.786C185.175 190.905 185.261 191.046 185.317 191.201C185.373 191.357 185.397 191.522 185.388 191.688C185.388 191.732 185.381 191.798 185.381 191.857ZM183.544 191.474H184.865C184.849 191.306 184.772 191.152 184.65 191.042C184.527 190.932 184.369 190.875 184.208 190.884C184.047 190.877 183.889 190.934 183.766 191.043C183.643 191.153 183.564 191.306 183.544 191.474Z" fill="#263238"/>
<path d="M202.001 190.196V191.163H203.477V191.664H202.001V192.888H201.436V189.688H203.668V190.189L202.001 190.196Z" fill="#DA693F"/>
<path d="M203.886 191.672C203.876 191.413 203.94 191.157 204.071 190.936C204.202 190.716 204.393 190.542 204.62 190.436C204.846 190.33 205.098 190.297 205.342 190.342C205.587 190.386 205.813 190.507 205.991 190.687C206.17 190.867 206.293 191.098 206.344 191.352C206.396 191.606 206.373 191.869 206.279 192.109C206.186 192.35 206.026 192.555 205.819 192.699C205.613 192.843 205.37 192.92 205.122 192.918C204.961 192.927 204.8 192.902 204.649 192.843C204.497 192.784 204.36 192.693 204.244 192.576C204.128 192.46 204.036 192.319 203.974 192.163C203.913 192.007 203.883 191.84 203.886 191.672ZM205.814 191.672C205.814 191.526 205.773 191.383 205.695 191.262C205.617 191.141 205.507 191.046 205.378 190.991C205.249 190.935 205.107 190.92 204.97 190.949C204.833 190.977 204.707 191.047 204.608 191.15C204.509 191.254 204.442 191.385 204.415 191.528C204.388 191.671 204.402 191.819 204.455 191.954C204.509 192.089 204.599 192.204 204.715 192.285C204.831 192.366 204.968 192.409 205.108 192.409C205.295 192.409 205.475 192.332 205.607 192.193C205.74 192.055 205.814 191.868 205.814 191.672Z" fill="#DA693F"/>
<path d="M208.238 190.427V190.972H208.111C208.018 190.966 207.925 190.982 207.839 191.017C207.752 191.053 207.674 191.107 207.61 191.178C207.546 191.248 207.498 191.332 207.468 191.424C207.439 191.516 207.429 191.614 207.44 191.71V192.89H206.889V190.427H207.411V190.781C207.509 190.653 207.636 190.554 207.781 190.492C207.925 190.43 208.083 190.407 208.238 190.427Z" fill="#DA693F"/>
<path d="M210.993 190.426V192.491C211.016 192.668 210.999 192.848 210.944 193.016C210.888 193.185 210.796 193.338 210.673 193.463C210.551 193.587 210.403 193.68 210.24 193.735C210.077 193.789 209.904 193.802 209.736 193.774C209.333 193.791 208.935 193.669 208.605 193.427L208.846 193C209.094 193.194 209.397 193.298 209.707 193.295C210.223 193.295 210.414 193.044 210.414 192.557V192.424C210.313 192.534 210.191 192.62 210.055 192.676C209.92 192.732 209.775 192.757 209.63 192.749C209.474 192.762 209.318 192.741 209.17 192.688C209.023 192.634 208.888 192.55 208.773 192.439C208.659 192.329 208.567 192.195 208.505 192.046C208.442 191.896 208.41 191.735 208.41 191.573C208.41 191.41 208.442 191.249 208.505 191.1C208.567 190.95 208.659 190.816 208.773 190.706C208.888 190.595 209.023 190.511 209.17 190.458C209.318 190.404 209.474 190.383 209.63 190.396C209.782 190.387 209.934 190.415 210.075 190.476C210.215 190.537 210.341 190.631 210.442 190.75V190.426H210.993ZM210.456 191.569C210.456 191.373 210.382 191.186 210.249 191.047C210.117 190.909 209.937 190.831 209.75 190.831C209.562 190.831 209.383 190.909 209.25 191.047C209.118 191.186 209.043 191.373 209.043 191.569C209.043 191.765 209.118 191.952 209.25 192.09C209.383 192.229 209.562 192.306 209.75 192.306C209.937 192.306 210.117 192.229 210.249 192.09C210.382 191.952 210.456 191.765 210.456 191.569Z" fill="#DA693F"/>
<path d="M211.515 191.672C211.505 191.413 211.569 191.157 211.7 190.937C211.83 190.717 212.021 190.543 212.247 190.437C212.473 190.33 212.724 190.297 212.969 190.341C213.213 190.385 213.439 190.505 213.618 190.684C213.797 190.863 213.92 191.094 213.972 191.347C214.024 191.601 214.003 191.864 213.91 192.104C213.818 192.345 213.659 192.55 213.453 192.695C213.248 192.84 213.006 192.918 212.758 192.918C212.596 192.927 212.435 192.902 212.284 192.843C212.132 192.784 211.994 192.694 211.877 192.577C211.761 192.46 211.668 192.319 211.606 192.164C211.544 192.008 211.512 191.841 211.515 191.672ZM213.45 191.672C213.45 191.526 213.409 191.383 213.331 191.262C213.253 191.141 213.143 191.046 213.014 190.991C212.885 190.935 212.743 190.92 212.606 190.949C212.469 190.977 212.343 191.047 212.244 191.15C212.145 191.254 212.078 191.385 212.051 191.528C212.024 191.671 212.038 191.819 212.091 191.954C212.145 192.089 212.235 192.204 212.351 192.285C212.467 192.366 212.604 192.409 212.744 192.409C212.931 192.409 213.111 192.332 213.243 192.193C213.376 192.055 213.45 191.868 213.45 191.672Z" fill="#DA693F"/>
<path d="M215.929 192.755C215.774 192.868 215.588 192.925 215.4 192.918C215.292 192.933 215.183 192.923 215.081 192.887C214.978 192.852 214.885 192.792 214.808 192.713C214.731 192.634 214.672 192.538 214.636 192.431C214.6 192.325 214.588 192.211 214.601 192.099V190.926H214.213V190.469H214.601V189.916H215.145V190.469H215.767V190.926H215.145V192.084C215.145 192.32 215.258 192.453 215.47 192.453C215.579 192.454 215.686 192.418 215.774 192.35L215.929 192.755Z" fill="#DA693F"/>
<path d="M220.189 190.831C220.189 191.531 219.695 191.966 218.89 191.966H218.183V192.888H217.611V189.688H218.869C219.695 189.688 220.189 190.123 220.189 190.831ZM219.617 190.831C219.617 190.432 219.363 190.196 218.869 190.196H218.205V191.465H218.869C219.363 191.465 219.617 191.236 219.617 190.831Z" fill="#DA693F"/>
<path d="M222.64 191.458V192.889H222.124V192.594C222.04 192.703 221.931 192.789 221.809 192.846C221.686 192.902 221.552 192.927 221.418 192.918C220.881 192.918 220.549 192.616 220.549 192.181C220.549 191.745 220.81 191.443 221.517 191.443H222.117V191.406C222.117 191.074 221.926 190.883 221.538 190.883C221.284 190.879 221.036 190.962 220.831 191.119L220.619 190.706C220.907 190.497 221.251 190.391 221.601 190.403C222.251 190.425 222.64 190.757 222.64 191.458ZM222.089 192.129V191.841H221.531C221.156 191.841 221.057 191.989 221.057 192.166C221.057 192.343 221.22 192.505 221.502 192.505C221.626 192.515 221.749 192.484 221.854 192.416C221.959 192.349 222.041 192.248 222.089 192.129Z" fill="#DA693F"/>
<path d="M223.07 192.638L223.275 192.202C223.519 192.362 223.8 192.446 224.087 192.446C224.434 192.446 224.582 192.35 224.582 192.18C224.582 191.716 223.169 192.18 223.169 191.177C223.169 190.72 223.565 190.44 224.193 190.44C224.496 190.434 224.794 190.508 225.062 190.654L224.857 191.081C224.653 190.961 224.421 190.9 224.186 190.904C223.854 190.904 223.699 191.015 223.699 191.177C223.699 191.664 225.112 191.229 225.112 192.18C225.112 192.638 224.709 192.918 224.052 192.918C223.706 192.924 223.365 192.826 223.07 192.638Z" fill="#DA693F"/>
<path d="M225.309 192.637L225.52 192.202C225.763 192.363 226.045 192.447 226.333 192.446C226.672 192.446 226.82 192.35 226.82 192.18C226.82 191.716 225.407 192.18 225.407 191.177C225.407 190.72 225.803 190.44 226.432 190.44C226.736 190.435 227.037 190.509 227.308 190.654L227.096 191.081C226.891 190.961 226.659 190.9 226.425 190.904C226.1 190.904 225.937 191.015 225.937 191.177C225.937 191.664 227.35 191.229 227.35 192.18C227.35 192.637 226.947 192.918 226.297 192.918C225.949 192.923 225.607 192.825 225.309 192.637Z" fill="#DA693F"/>
<path d="M231.428 190.426L230.566 192.86H230.043L229.436 191.185L228.828 192.86H228.306L227.43 190.426H227.945L228.56 192.218L229.203 190.426H229.655L230.283 192.233L230.961 190.426H231.428Z" fill="#DA693F"/>
<path d="M231.54 191.672C231.53 191.413 231.595 191.157 231.725 190.937C231.856 190.717 232.046 190.543 232.272 190.437C232.498 190.33 232.75 190.297 232.994 190.341C233.238 190.385 233.464 190.505 233.643 190.684C233.822 190.863 233.945 191.094 233.998 191.347C234.05 191.601 234.028 191.864 233.936 192.104C233.843 192.345 233.684 192.55 233.479 192.695C233.273 192.84 233.031 192.918 232.783 192.918C232.622 192.929 232.46 192.904 232.308 192.845C232.156 192.787 232.017 192.696 231.9 192.579C231.783 192.462 231.691 192.321 231.629 192.165C231.567 192.009 231.537 191.841 231.54 191.672ZM233.475 191.672C233.475 191.526 233.434 191.383 233.356 191.262C233.279 191.141 233.168 191.046 233.039 190.991C232.91 190.935 232.768 190.92 232.631 190.949C232.494 190.977 232.368 191.047 232.27 191.15C232.171 191.254 232.104 191.385 232.076 191.528C232.049 191.671 232.063 191.819 232.116 191.954C232.17 192.089 232.26 192.204 232.377 192.285C232.493 192.366 232.629 192.409 232.769 192.409C232.956 192.409 233.136 192.332 233.269 192.193C233.401 192.055 233.475 191.868 233.475 191.672Z" fill="#DA693F"/>
<path d="M235.905 190.424V190.97H235.778C235.682 190.958 235.585 190.969 235.494 191.002C235.404 191.035 235.321 191.089 235.253 191.16C235.185 191.231 235.133 191.317 235.102 191.412C235.07 191.507 235.06 191.608 235.071 191.708V192.888H234.527V190.424H235.05V190.778C235.15 190.646 235.282 190.544 235.432 190.482C235.582 190.419 235.745 190.4 235.905 190.424Z" fill="#DA693F"/>
<path d="M238.622 189.503V192.888H238.1V192.571C238.004 192.687 237.884 192.778 237.75 192.838C237.615 192.898 237.469 192.925 237.323 192.918C237.006 192.918 236.702 192.786 236.479 192.553C236.255 192.319 236.129 192.002 236.129 191.671C236.129 191.341 236.255 191.024 236.479 190.79C236.702 190.556 237.006 190.425 237.323 190.425C237.463 190.417 237.604 190.443 237.734 190.5C237.864 190.558 237.979 190.645 238.071 190.757V189.503H238.622ZM238.085 191.671C238.085 191.525 238.044 191.383 237.966 191.261C237.889 191.14 237.779 191.046 237.649 190.99C237.52 190.934 237.378 190.919 237.241 190.948C237.104 190.976 236.978 191.047 236.88 191.15C236.781 191.253 236.714 191.384 236.686 191.527C236.659 191.67 236.673 191.819 236.727 191.953C236.78 192.088 236.871 192.203 236.987 192.284C237.103 192.365 237.239 192.409 237.379 192.409C237.566 192.409 237.746 192.331 237.879 192.193C238.011 192.054 238.085 191.867 238.085 191.671Z" fill="#DA693F"/>
<path d="M240.68 190.572C240.68 190.314 240.468 190.144 240.136 190.144C239.999 190.136 239.863 190.165 239.739 190.227C239.616 190.288 239.509 190.382 239.43 190.498L239.006 190.211C239.145 190.026 239.325 189.878 239.53 189.781C239.736 189.683 239.96 189.639 240.185 189.65C240.828 189.65 241.259 189.96 241.259 190.484C241.259 191.221 240.51 191.295 240.51 191.833H239.959C239.952 191.162 240.68 191.029 240.68 190.572ZM239.882 192.563C239.882 192.466 239.919 192.372 239.985 192.303C240.051 192.233 240.141 192.195 240.235 192.195C240.329 192.195 240.418 192.233 240.485 192.303C240.551 192.372 240.588 192.466 240.588 192.563C240.588 192.661 240.551 192.755 240.485 192.824C240.418 192.893 240.329 192.932 240.235 192.932C240.141 192.932 240.051 192.893 239.985 192.824C239.919 192.755 239.882 192.661 239.882 192.563Z" fill="#DA693F"/>
<path d="M146.502 192.122C146.44 192.122 146.379 192.098 146.333 192.055L145.626 191.465C145.578 191.414 145.551 191.345 145.551 191.273C145.551 191.202 145.578 191.133 145.626 191.082C145.648 191.053 145.674 191.028 145.705 191.01C145.736 190.992 145.769 190.98 145.804 190.976C145.839 190.972 145.875 190.975 145.908 190.986C145.942 190.996 145.973 191.014 146.001 191.037L146.495 191.465L147.675 190.13C147.699 190.104 147.728 190.083 147.76 190.069C147.792 190.055 147.827 190.048 147.862 190.048C147.897 190.048 147.931 190.055 147.963 190.069C147.995 190.083 148.025 190.104 148.049 190.13C148.098 190.183 148.125 190.253 148.125 190.326C148.125 190.399 148.098 190.469 148.049 190.521L146.7 192.055C146.673 192.08 146.642 192.099 146.608 192.11C146.574 192.122 146.538 192.126 146.502 192.122Z" fill="#263238"/>
<path d="M233.144 122.146C233.505 121.977 233.812 121.701 234.026 121.353C234.241 121.004 234.354 120.599 234.352 120.185C234.368 119.913 234.33 119.642 234.242 119.386C234.153 119.131 234.015 118.897 233.837 118.699C233.659 118.501 233.444 118.343 233.205 118.236C232.966 118.128 232.708 118.072 232.448 118.072C232.188 118.072 231.93 118.128 231.692 118.236C231.453 118.343 231.237 118.501 231.059 118.699C230.881 118.897 230.743 119.131 230.655 119.386C230.566 119.642 230.529 119.913 230.545 120.185C230.537 120.603 230.648 121.014 230.864 121.366C231.08 121.718 231.392 121.995 231.759 122.161C228.828 122.618 228.934 125.945 228.934 125.945L235.856 125.982C235.856 125.982 236.047 122.574 233.144 122.146Z" fill="#E0E0E0"/>
<path d="M180.238 99.1289H181.863V103.783H184.603V105.125H180.238V99.1289Z" fill="#263238"/>
<path d="M184.872 102.794C184.83 102.265 184.941 101.735 185.191 101.274C185.442 100.813 185.82 100.441 186.276 100.208C186.732 99.9744 187.245 99.8905 187.748 99.9669C188.251 100.043 188.72 100.276 189.093 100.636C189.467 100.995 189.728 101.464 189.842 101.981C189.956 102.498 189.918 103.038 189.733 103.532C189.548 104.026 189.224 104.45 188.804 104.749C188.384 105.047 187.888 105.206 187.38 105.205C187.061 105.232 186.74 105.189 186.437 105.08C186.135 104.971 185.857 104.798 185.622 104.571C185.386 104.345 185.198 104.07 185.069 103.764C184.94 103.458 184.873 103.128 184.872 102.794ZM188.319 102.794C188.33 102.658 188.315 102.522 188.273 102.393C188.231 102.264 188.164 102.146 188.076 102.046C187.988 101.946 187.881 101.866 187.761 101.811C187.642 101.756 187.513 101.728 187.383 101.728C187.253 101.728 187.124 101.756 187.005 101.811C186.886 101.866 186.779 101.946 186.691 102.046C186.603 102.146 186.536 102.264 186.494 102.393C186.452 102.522 186.436 102.658 186.447 102.794C186.427 102.934 186.436 103.078 186.474 103.215C186.511 103.351 186.577 103.478 186.666 103.586C186.755 103.693 186.865 103.78 186.989 103.839C187.112 103.899 187.247 103.929 187.383 103.929C187.519 103.929 187.654 103.899 187.778 103.839C187.902 103.78 188.012 103.693 188.101 103.586C188.19 103.478 188.255 103.351 188.293 103.215C188.33 103.078 188.339 102.934 188.319 102.794Z" fill="#263238"/>
<path d="M195.396 100.486V104.276C195.396 106.032 194.443 106.865 192.79 106.865C192.012 106.895 191.243 106.685 190.579 106.26L191.144 105.117C191.584 105.441 192.11 105.614 192.649 105.611C193.482 105.611 193.835 105.22 193.835 104.49V104.335C193.668 104.524 193.463 104.672 193.235 104.767C193.006 104.863 192.76 104.904 192.514 104.889C191.945 104.889 191.399 104.652 190.996 104.232C190.593 103.811 190.367 103.241 190.367 102.647C190.367 102.052 190.593 101.482 190.996 101.061C191.399 100.641 191.945 100.405 192.514 100.405C192.783 100.381 193.053 100.427 193.3 100.541C193.547 100.654 193.763 100.831 193.927 101.054V100.486H195.396ZM193.857 102.661C193.857 102.391 193.754 102.133 193.571 101.942C193.388 101.751 193.14 101.644 192.882 101.644C192.623 101.644 192.375 101.751 192.193 101.942C192.01 102.133 191.907 102.391 191.907 102.661C191.907 102.931 192.01 103.19 192.193 103.381C192.375 103.572 192.623 103.679 192.882 103.679C193.14 103.679 193.388 103.572 193.571 103.381C193.754 103.19 193.857 102.931 193.857 102.661Z" fill="#263238"/>
<path d="M198.857 99.1289H200.482V105.125H198.857V99.1289Z" fill="#263238"/>
<path d="M206.295 102.47V105.125H204.734V102.736C204.734 102.072 204.459 101.784 204.028 101.784C203.597 101.784 203.145 102.116 203.145 102.883V105.096H201.584V100.457H203.067V100.958C203.252 100.766 203.473 100.615 203.716 100.515C203.959 100.415 204.219 100.367 204.48 100.376C204.739 100.361 204.997 100.408 205.237 100.511C205.476 100.614 205.69 100.772 205.864 100.972C206.038 101.173 206.167 101.411 206.242 101.67C206.316 101.93 206.334 102.203 206.295 102.47Z" fill="#263238"/>
<path d="M327.835 32.6573H316.16C315.939 32.6573 315.727 32.5657 315.57 32.4025C315.414 32.2393 315.326 32.0179 315.326 31.7871V25.7247C315.326 25.4952 315.413 25.275 315.568 25.112C315.723 24.949 315.933 24.8564 316.153 24.8545H327.835C327.863 24.8545 327.891 24.8604 327.916 24.8718C327.942 24.8832 327.965 24.8999 327.984 24.9209C328.005 24.9403 328.021 24.9642 328.032 24.9909C328.043 25.0177 328.048 25.0466 328.047 25.0757V27.0744H329.298C329.354 27.0744 329.408 27.0977 329.447 27.1392C329.487 27.1807 329.51 27.237 329.51 27.2956V30.2457C329.51 30.3044 329.487 30.3606 329.447 30.4021C329.408 30.4436 329.354 30.4669 329.298 30.4669H328.047V32.4656C328.041 32.519 328.015 32.568 327.976 32.6033C327.937 32.6386 327.887 32.6578 327.835 32.6573ZM327.617 25.2822H316.153C316.099 25.2822 316.046 25.2934 315.997 25.3149C315.948 25.3365 315.903 25.3682 315.865 25.408C315.828 25.4478 315.798 25.495 315.779 25.5469C315.759 25.5987 315.749 25.6542 315.75 25.71V31.7723C315.75 31.8285 315.761 31.8841 315.781 31.936C315.802 31.9879 315.832 32.0351 315.87 32.0748C315.908 32.1145 315.953 32.146 316.003 32.1675C316.053 32.189 316.106 32.2001 316.16 32.2001H327.617V30.2014C327.617 30.1718 327.622 30.1424 327.633 30.115C327.644 30.0877 327.661 30.063 327.681 30.0423C327.702 30.0217 327.726 30.0055 327.752 29.9949C327.779 29.9842 327.807 29.9792 327.835 29.9802H329.079V27.5022H327.835C327.807 27.5031 327.779 27.4982 327.752 27.4875C327.726 27.4768 327.702 27.4607 327.681 27.44C327.661 27.4194 327.644 27.3946 327.633 27.3673C327.622 27.34 327.617 27.3106 327.617 27.2809V25.2822Z" fill="#263238"/>
<path d="M316.703 30.4741V27.0373C316.703 26.8417 316.778 26.6541 316.91 26.5158C317.042 26.3775 317.222 26.2998 317.409 26.2998H322.898C323.085 26.2998 323.265 26.3775 323.397 26.5158C323.53 26.6541 323.604 26.8417 323.604 27.0373V30.4741C323.604 30.6697 323.53 30.8573 323.397 30.9956C323.265 31.1339 323.085 31.2116 322.898 31.2116H317.417C317.323 31.2126 317.231 31.1942 317.144 31.1576C317.058 31.121 316.979 31.0668 316.912 30.9982C316.846 30.9297 316.793 30.848 316.758 30.7581C316.722 30.6681 316.703 30.5716 316.703 30.4741Z" fill="#263238"/>
<path d="M326.684 214.174H265.783V219.617H326.684V214.174Z" fill="#DA693F"/>
<path d="M323.152 214.174H322.113V219.617H323.152V214.174Z" fill="white"/>
<path d="M320.97 214.174H319.932V219.617H320.97V214.174Z" fill="white"/>
<path d="M272.464 214.174H271.426V219.617H272.464V214.174Z" fill="white"/>
<path d="M270.282 214.174H269.244V219.617H270.282V214.174Z" fill="white"/>
<path d="M314.308 218.391C314.308 218.391 314.379 218.391 314.513 218.391C314.706 218.347 314.881 218.241 315.014 218.089C315.115 217.98 315.189 217.849 315.233 217.705C315.273 217.526 315.273 217.339 315.233 217.16C315.206 216.947 315.112 216.75 314.965 216.599C314.799 216.43 314.582 216.325 314.351 216.304H305.966H278.151C277.907 216.306 277.673 216.406 277.498 216.583C277.323 216.76 277.22 217.001 277.211 217.256C277.199 217.426 277.223 217.597 277.282 217.757C277.344 217.907 277.442 218.039 277.565 218.141C277.688 218.243 277.833 218.311 277.988 218.34C278.153 218.351 278.318 218.351 278.482 218.34H302.795L290.293 218.45H278.504C278.334 218.465 278.164 218.465 277.995 218.45C277.822 218.424 277.659 218.353 277.52 218.241C277.381 218.13 277.273 217.984 277.204 217.816C277.138 217.645 277.109 217.462 277.119 217.278C277.128 216.998 277.241 216.733 277.433 216.537C277.625 216.342 277.882 216.232 278.151 216.23H305.966H314.4C314.64 216.255 314.864 216.364 315.036 216.54C315.181 216.7 315.275 216.904 315.304 217.123C315.33 217.308 315.316 217.497 315.262 217.676C315.217 217.823 315.14 217.957 315.036 218.067C314.898 218.22 314.718 218.323 314.52 218.362H314.365L314.308 218.391Z" fill="white"/>
<path d="M325.306 219.558H268.764V227.353H325.306V219.558Z" fill="black" fill-opacity="0.501961"/>
<path d="M325.306 220.515H268.764V226.046H325.306V220.515Z" fill="#EBEBEB"/>
<path d="M324.82 220.663C324.82 220.663 312.353 220.714 296.99 220.714C281.627 220.714 269.16 220.714 269.16 220.663C269.16 220.611 281.62 220.619 296.99 220.619C312.36 220.619 324.82 220.663 324.82 220.663Z" fill="#263238"/>
<path d="M324.82 222.322C324.82 222.322 312.353 222.374 296.99 222.374C281.627 222.374 269.16 222.374 269.16 222.322C269.16 222.27 281.62 222.278 296.99 222.278C312.36 222.278 324.82 222.3 324.82 222.322Z" fill="#263238"/>
<path d="M324.82 223.975C324.82 223.975 312.353 224.027 296.99 224.027C281.627 224.027 269.16 224.027 269.16 223.975C269.16 223.924 281.62 223.931 296.99 223.931C312.36 223.931 324.82 223.946 324.82 223.975Z" fill="#263238"/>
<path d="M324.82 225.627C324.82 225.627 312.353 225.672 296.99 225.672C281.627 225.672 269.16 225.672 269.16 225.627C269.16 225.583 281.62 225.583 296.99 225.583C312.36 225.583 324.82 225.598 324.82 225.627Z" fill="#263238"/>
<path d="M271.455 213.51H279.203V198.177H271.455V213.51Z" fill="#FAFAFA"/>
<path d="M279.204 214.263H320.793V197.632H279.204V214.263Z" fill="#263238"/>
<path d="M270.84 214.261H280.199V213.185H270.84C270.703 213.185 270.572 213.241 270.475 213.342C270.379 213.443 270.324 213.58 270.324 213.723C270.324 213.866 270.379 214.003 270.475 214.104C270.572 214.205 270.703 214.261 270.84 214.261Z" fill="#263238"/>
<path d="M270.84 198.714H280.199V197.638H270.84C270.703 197.638 270.572 197.694 270.475 197.795C270.379 197.896 270.324 198.033 270.324 198.176C270.324 198.319 270.379 198.456 270.475 198.557C270.572 198.658 270.703 198.714 270.84 198.714Z" fill="#263238"/>
<path d="M271.447 200.235C271.447 200.235 273.185 200.279 275.325 200.279C277.465 200.279 279.203 200.279 279.203 200.235C279.203 200.191 277.465 200.184 275.325 200.184C273.185 200.184 271.447 200.206 271.447 200.235Z" fill="#E0E0E0"/>
<path d="M271.447 202.226C271.447 202.226 273.185 202.278 275.325 202.278C277.465 202.278 279.203 202.278 279.203 202.226C279.203 202.175 277.465 202.182 275.325 202.182C273.185 202.182 271.447 202.175 271.447 202.226Z" fill="#E0E0E0"/>
<path d="M271.447 204.165C271.447 204.165 273.185 204.21 275.325 204.21C277.465 204.21 279.203 204.21 279.203 204.165C279.203 204.121 277.465 204.121 275.325 204.121C273.185 204.121 271.447 204.143 271.447 204.165Z" fill="#E0E0E0"/>
<path d="M271.447 206.133C271.447 206.133 273.185 206.177 275.325 206.177C277.465 206.177 279.203 206.177 279.203 206.133C279.203 206.089 277.465 206.089 275.325 206.089C273.185 206.089 271.447 206.104 271.447 206.133Z" fill="#E0E0E0"/>
<path d="M271.447 208.125C271.447 208.125 273.185 208.169 275.325 208.169C277.465 208.169 279.203 208.169 279.203 208.125C279.203 208.081 277.465 208.073 275.325 208.073C273.185 208.073 271.447 208.073 271.447 208.125Z" fill="#E0E0E0"/>
<path d="M271.447 210.065C271.447 210.065 273.185 210.109 275.325 210.109C277.465 210.109 279.203 210.109 279.203 210.065C279.203 210.021 277.465 210.021 275.325 210.021C273.185 210.021 271.447 210.043 271.447 210.065Z" fill="#E0E0E0"/>
<path d="M271.447 212.034C271.447 212.034 273.185 212.079 275.325 212.079C277.465 212.079 279.203 212.079 279.203 212.034C279.203 211.99 277.465 211.99 275.325 211.99C273.185 211.99 271.447 212.005 271.447 212.034Z" fill="#E0E0E0"/>
<path d="M315.622 204.541H285.186V207.351H315.622V204.541Z" fill="white"/>
<path d="M40.0429 75.8528L35.3104 74.3778C29.582 72.2907 24.8424 73.8984 21.7416 77.94C18.6407 81.9815 17.44 87.3432 17.6165 92.5206C17.7296 95.8541 18.3229 99.3647 17.0585 102.418C16.2437 104.074 15.1828 105.585 13.9153 106.895C12.6449 108.208 11.6576 109.79 11.0193 111.534C10.4896 113.311 10.7509 115.464 12.1071 116.696C12.7433 117.119 13.3331 117.614 13.8659 118.171C14.5016 119.027 14.4451 120.221 14.5086 121.306C14.6511 123.879 15.6223 126.326 17.2646 128.251C18.907 130.175 21.124 131.464 23.5559 131.907C25.9878 132.35 28.4918 131.922 30.6614 130.693C32.8311 129.463 34.5391 127.504 35.5082 125.133C36.9209 121.748 36.6383 117.92 36.4971 114.248C36.0019 101.341 37.1949 88.4233 40.0429 75.8528Z" fill="#263238"/>
<path d="M50.3124 69.8272C46.2157 68.5587 42.352 69.783 38.5448 71.7964C34.7379 73.8888 31.6348 77.1468 29.652 81.1332C27.4715 85.2865 26.6482 90.069 27.3069 94.7551C27.6563 97.0763 28.4514 99.2999 29.6446 101.292C30.8378 103.285 32.4044 105.005 34.2502 106.349C39.3571 109.911 46.4205 109.778 51.7251 106.548C57.0298 103.318 60.5403 97.3142 61.508 90.9864C62.2324 86.5981 61.6171 82.0831 59.7492 78.0799C58.8043 76.0984 57.4788 74.3411 55.8553 72.9175C54.2318 71.4939 52.345 70.4344 50.3124 69.8051" fill="#263238"/>
<path d="M36.7168 83.1775C37.515 81.5844 37.4938 79.6891 37.9388 77.9485C38.9206 74.1209 42.2828 71.3773 45.9345 70.2932C49.3321 69.2828 53.2452 70.0867 56.9959 71.8862C59.602 73.0842 61.8287 75.0306 63.4165 77.4986C64.4154 79.1652 65.0175 81.0573 65.1723 83.0166C65.3272 84.9759 65.0303 86.9455 64.3065 88.7604L45.5602 83.4872C43.5966 84.8074 41.5835 86.1496 39.3161 86.7396C38.6586 86.9502 37.9599 86.9782 37.2889 86.8208C36.9521 86.7377 36.6458 86.554 36.4074 86.292C36.1691 86.0301 36.009 85.7012 35.9469 85.3458C35.8621 84.5566 36.3707 83.8707 36.7168 83.1775Z" fill="#263238"/>
<path d="M56.775 77.4385L39.6886 79.061C38.9036 79.0128 38.1302 79.2765 37.5236 79.7991C36.917 80.3216 36.5221 81.0644 36.4183 81.8783L32.2932 119.565C32.0172 122.132 32.5557 124.723 33.826 126.94L35.168 129.278C38.2336 134.61 45.636 135.038 49.0265 129.927C49.2298 129.639 49.396 129.324 49.5209 128.99C49.6251 128.72 49.7101 128.441 49.7752 128.157L50.4815 124.528C51.0325 121.195 51.4422 117.788 51.4422 117.817C51.4422 117.847 58.3643 117.773 61.1685 108.812C62.5812 104.387 63.4853 96.8276 64.0504 90.6473C64.5942 85.0791 62.1432 77.7335 56.775 77.4385Z" fill="#FAC7B5"/>
<path d="M60.8587 98.1099C60.8149 98.4177 60.6572 98.6952 60.4194 98.8828C60.1816 99.0704 59.8828 99.153 59.5873 99.1129C59.4417 99.1019 59.2997 99.0604 59.1698 98.9909C59.0398 98.9213 58.9246 98.8252 58.8311 98.7082C58.7375 98.5912 58.6674 98.4558 58.625 98.3099C58.5826 98.164 58.5688 98.0107 58.5843 97.8592C58.6282 97.5509 58.7856 97.2727 59.0232 97.0839C59.2607 96.8951 59.5594 96.8108 59.8557 96.8488C60.0009 96.8626 60.1421 96.9063 60.2712 96.9772C60.4002 97.0482 60.5146 97.145 60.6078 97.2621C60.7009 97.3793 60.7711 97.5144 60.8141 97.6599C60.8572 97.8054 60.8723 97.9583 60.8587 98.1099Z" fill="#263238"/>
<path d="M61.9327 94.2902C61.7702 94.423 61.0144 93.6191 59.8136 93.42C58.6128 93.2208 57.6098 93.7076 57.5039 93.5306C57.3979 93.3536 57.631 93.1987 58.069 92.9627C58.653 92.6705 59.3096 92.5751 59.9478 92.6898C60.5807 92.7884 61.1657 93.099 61.6148 93.5748C61.9256 93.9362 62.0103 94.2312 61.9327 94.2902Z" fill="#263238"/>
<path d="M50.0236 96.7618C49.9798 97.0701 49.8223 97.3483 49.5848 97.5371C49.3472 97.7258 49.0485 97.8102 48.7522 97.7722C48.6072 97.7603 48.466 97.7181 48.3368 97.6481C48.2077 97.5782 48.0934 97.4819 48.0005 97.365C47.9076 97.2481 47.8382 97.113 47.7962 96.9676C47.7543 96.8222 47.7407 96.6694 47.7562 96.5184C47.8001 96.2116 47.9566 95.9346 48.1925 95.746C48.4285 95.5574 48.7254 95.4721 49.0206 95.5081C49.1662 95.5191 49.3082 95.5606 49.4381 95.6301C49.5681 95.6996 49.6833 95.7957 49.7769 95.9127C49.8705 96.0297 49.9405 96.1652 49.9829 96.3111C50.0253 96.457 50.0391 96.6102 50.0236 96.7618Z" fill="#263238"/>
<path d="M50.376 92.5274C50.2135 92.6601 49.4577 91.8562 48.257 91.6571C47.0562 91.458 46.0603 91.9447 45.9472 91.7677C45.8342 91.5907 46.0814 91.4359 46.5123 91.2072C47.0947 90.9096 47.7522 90.8115 48.3912 90.927C49.024 91.0256 49.609 91.3362 50.0581 91.812C50.376 92.1734 50.4608 92.4684 50.376 92.5274Z" fill="#263238"/>
<path d="M52.9609 102.66C53.6366 102.576 54.3195 102.576 54.9952 102.66C55.306 102.66 55.6097 102.66 55.7015 102.447C55.7823 102.117 55.7626 101.769 55.645 101.451C55.4685 100.617 55.2919 99.7472 55.1012 98.8327C54.3948 95.1083 53.8862 92.0698 54.0275 92.0403C54.1688 92.0108 54.8893 94.9903 55.6238 98.7295C55.8004 99.644 55.9629 100.522 56.1253 101.355C56.2729 101.774 56.2729 102.234 56.1253 102.653C56.0637 102.76 55.9795 102.851 55.8791 102.919C55.7787 102.986 55.6648 103.029 55.5462 103.044C55.3655 103.067 55.1829 103.067 55.0023 103.044C54.3085 103.012 53.6219 102.883 52.9609 102.66Z" fill="#263238"/>
<path d="M51.4772 117.824C47.3165 117.207 43.4028 115.391 40.1758 112.58C40.1758 112.58 42.1677 119.439 51.11 120.044L51.4772 117.824Z" fill="#FF9A6C"/>
<path d="M51.9459 105.648C51.7619 105.306 51.4973 105.018 51.1771 104.813C50.8569 104.608 50.4918 104.491 50.1164 104.475C49.8444 104.455 49.5713 104.493 49.3138 104.587C49.0564 104.681 48.82 104.828 48.619 105.021C48.4274 105.203 48.2935 105.442 48.2355 105.705C48.1774 105.969 48.1979 106.245 48.2941 106.496C48.4524 106.757 48.6829 106.963 48.9552 107.085C49.2275 107.208 49.5289 107.241 49.8198 107.182C50.4286 107.057 51.0074 106.806 51.5221 106.444C51.6746 106.367 51.8113 106.259 51.9247 106.127C51.9809 106.065 52.0178 105.987 52.0304 105.902C52.0431 105.818 52.0308 105.732 51.9953 105.655" fill="#FF9A6C"/>
<path d="M49.2172 102.963C49.415 102.963 49.2172 104.357 50.192 105.522C51.1667 106.687 52.5936 106.769 52.5794 106.997C52.5653 107.226 52.2263 107.211 51.6259 107.13C50.8514 107.01 50.1416 106.611 49.6199 106.002C49.1306 105.412 48.8776 104.649 48.9135 103.87C48.9276 103.258 49.1325 102.941 49.2172 102.963Z" fill="#263238"/>
<path d="M51.3636 88.0523C51.1871 88.3768 50.0004 88.008 48.5383 87.9564C47.0762 87.9048 45.8754 88.1113 45.7129 87.772C45.6493 87.6097 45.8966 87.3147 46.4193 87.0345C47.1018 86.7244 47.8445 86.5855 48.5877 86.6289C49.3319 86.6578 50.0586 86.8728 50.7067 87.2557C51.2153 87.5803 51.4343 87.9121 51.3636 88.0523Z" fill="#263238"/>
<path d="M62.9832 88.7449C62.7289 88.9956 61.9378 88.5531 60.9348 88.3761C59.9318 88.1991 59.0418 88.2581 58.8935 87.9262C58.8299 87.764 59.0065 87.4985 59.4232 87.2846C59.9729 87.0408 60.5797 86.9738 61.166 87.092C61.7524 87.2103 62.2916 87.5084 62.7148 87.9483C63.0256 88.3023 63.1033 88.649 62.9832 88.7449Z" fill="#263238"/>
<path d="M33.9749 80.1077C36.3129 75.0262 44.6831 68.7427 49.9665 69.9153L57.7716 76.4939C57.289 77.9708 56.434 79.2845 55.2966 80.2969C54.1593 81.3092 52.7816 81.9827 51.3085 82.2465C49.7405 82.5046 47.911 82.3718 46.8303 83.5961C45.7496 84.8204 45.9969 86.9296 44.9515 88.2277C43.5388 90.0346 40.2967 89.4667 39.1242 91.4727C38.6156 92.3504 38.665 93.4935 38.1423 94.3564C37.436 95.5143 34.2363 96.6427 33.0567 96.0526C31.8771 95.4626 32.1667 93.2575 31.9195 92.048C31.583 90.6731 31.7128 89.219 32.2868 87.9327C33.1838 85.4104 32.8589 82.5341 33.9749 80.1077Z" fill="#263238"/>
<path d="M36.5594 97.6753C36.6583 96.9894 36.7925 96.0085 36.1992 95.6988C34.4263 94.7695 30.6968 94.091 29.9693 98.6488C28.9733 104.91 35.1962 104.66 35.2315 104.483C35.2668 104.306 36.2063 100.035 36.5594 97.6753Z" fill="#FAC7B5"/>
<path d="M33.7781 101.814C33.7781 101.814 33.6651 101.873 33.4744 101.932C33.2081 101.995 32.9287 101.953 32.6904 101.814C32.097 101.46 31.7297 100.339 31.8781 99.1807C31.9583 98.6547 32.1436 98.1521 32.422 97.7057C32.5111 97.5214 32.6407 97.3618 32.8004 97.24C32.96 97.1183 33.145 97.0377 33.3402 97.0051C33.4656 96.9943 33.5907 97.0287 33.6948 97.1025C33.7989 97.1763 33.8757 97.285 33.9123 97.4107C33.9618 97.6025 33.9123 97.7205 33.9123 97.7352C33.9123 97.75 34.0607 97.6541 34.0536 97.3886C34.042 97.2272 33.98 97.0743 33.877 96.9534C33.7324 96.796 33.5348 96.7035 33.3261 96.6953C33.0722 96.7042 32.8248 96.7807 32.6072 96.9175C32.3896 97.0544 32.2092 97.247 32.0829 97.4771C31.7397 97.974 31.519 98.5515 31.4401 99.1586C31.2777 100.427 31.7085 101.71 32.535 102.109C32.6878 102.187 32.8557 102.227 33.0259 102.227C33.196 102.227 33.364 102.187 33.5168 102.109C33.7499 101.969 33.7993 101.828 33.7781 101.814Z" fill="#FF9A6C"/>
<path d="M56.2384 74.3766C56.4998 77.0022 59.8479 80.7561 61.2605 82.9539C63.9446 87.1577 64.4179 88.4926 63.3796 97.0034C65.1949 94.2451 66.6499 91.509 66.9113 88.1533C67.2252 84.7951 66.3535 81.4328 64.4603 78.6984C63.5034 77.3525 62.2585 76.2588 60.8248 75.5045C59.3912 74.7503 57.8085 74.3565 56.2031 74.3545" fill="#263238"/>
<path d="M31.8984 78.4866C35.3242 73.324 39.6682 70.5878 43.5884 69.7471L31.8984 78.4866Z" fill="#263238"/>
<path d="M30.5708 102.727C30.4779 102.642 30.3949 102.545 30.3235 102.439C30.0931 102.146 29.8808 101.839 29.6878 101.517C28.9757 100.338 28.4398 99.0524 28.0986 97.7046C27.61 95.7038 27.3585 93.648 27.3498 91.5832C27.2761 89.0448 27.7091 86.5181 28.6213 84.1639C29.4828 81.7836 30.6726 79.5475 32.153 77.5263C33.3466 75.8708 34.7402 74.3835 36.2992 73.1012C37.3572 72.2551 38.507 71.5421 39.7249 70.9772C40.1558 70.7854 40.4949 70.6453 40.735 70.5642C40.8497 70.5119 40.9711 70.4772 41.0953 70.4609C41.0953 70.4609 40.622 70.6896 39.7885 71.1173C38.6069 71.7283 37.4915 72.4701 36.4617 73.3299C34.9449 74.6248 33.5878 76.1112 32.4214 77.7549C30.9701 79.7513 29.7999 81.9542 28.9462 84.2966C28.0475 86.6061 27.6124 89.0837 27.6677 91.5759C27.6615 93.6168 27.8844 95.6514 28.3317 97.6382C28.6447 98.9712 29.1345 100.252 29.7867 101.444C30.2741 102.285 30.6061 102.705 30.5708 102.727Z" fill="#455A64"/>
<path d="M60.8797 183.095C60.8797 183.095 95.3421 179.016 100.993 178.02C111.772 176.11 122.55 177.932 127.127 187.608C129.211 192.033 126.569 200.507 120.255 206.783C115.536 211.489 92.1353 236.203 92.1353 236.203L72.0823 218.716L96.9031 198.56L48.7871 205.618L60.8797 183.095Z" fill="#263238"/>
<path d="M96.6346 224.159L83.7298 238.364C83.7298 238.364 93.4843 257.052 91.3512 259.928L63.5566 234.388L82.7762 211.349L96.6346 224.159Z" fill="#263238"/>
<path d="M76.1793 229.24C75.8462 229.075 75.4665 229.046 75.114 229.158C74.7614 229.269 74.4613 229.514 74.2722 229.844C74.1112 230.192 74.0829 230.59 74.1931 230.959C74.3033 231.327 74.5437 231.638 74.8655 231.828C75.2189 232.001 75.6216 232.03 75.9942 231.909C76.3669 231.787 76.6824 231.524 76.8786 231.172C77.0122 230.792 77.0001 230.372 76.8448 230.001C76.6895 229.63 76.403 229.336 76.0451 229.181" fill="#E0E0E0"/>
<path d="M63.5566 234.387L65.4991 232.057L91.5702 257.589C91.794 258.377 91.7181 259.225 91.3583 259.957L63.5566 234.387Z" fill="#455A64"/>
<path d="M84.3084 238.651C84.1812 238.784 83.4537 238.223 82.4083 238.061C81.3629 237.899 80.5082 238.149 80.4305 237.98C80.3528 237.81 81.2358 237.191 82.5001 237.419C83.7645 237.648 84.4426 238.548 84.3084 238.651Z" fill="white"/>
<path d="M86.1586 242.574C86.0738 242.736 85.2827 242.427 84.3292 242.574C83.3756 242.722 82.7116 243.238 82.5774 243.105C82.4432 242.972 83.0295 242.11 84.2232 241.933C85.4169 241.756 86.2857 242.434 86.1586 242.574Z" fill="white"/>
<path d="M84.8173 247.678C84.669 247.59 85.0645 246.719 86.0534 246.277C87.0423 245.834 87.9394 246.115 87.897 246.277C87.8546 246.439 87.12 246.498 86.3148 246.874C85.5095 247.25 84.9586 247.789 84.8173 247.678Z" fill="white"/>
<path d="M86.8663 235.066C86.7039 235.14 86.2447 234.373 85.4536 233.717C84.6625 233.06 83.829 232.765 83.8644 232.581C83.8997 232.397 84.8886 232.426 85.8351 233.208C86.7816 233.99 87.057 235.015 86.8663 235.066Z" fill="white"/>
<path d="M105.938 221.681C105.865 221.796 105.78 221.903 105.684 221.998L104.928 222.876L102.053 225.988L92.2633 236.387L92.1432 236.512L92.016 236.402L89.5156 234.189L77.1334 223.326L73.4463 219.999L72.4433 219.078C72.3229 218.975 72.2118 218.862 72.1113 218.738C72.2471 218.818 72.3749 218.912 72.4927 219.019L73.5381 219.881L77.3383 223.119L89.784 233.894L92.2844 236.107H92.0372L101.926 225.781L104.879 222.758L105.691 221.954C105.763 221.853 105.846 221.762 105.938 221.681Z" fill="#455A64"/>
<path d="M135.284 220.536L152.237 236.127L169.033 244.439C169.32 244.58 169.575 244.781 169.784 245.029C169.993 245.278 170.15 245.568 170.247 245.883C170.344 246.198 170.377 246.53 170.346 246.858C170.315 247.187 170.219 247.506 170.065 247.795C169.886 248.131 169.632 248.418 169.325 248.631C169.017 248.844 168.666 248.977 168.299 249.019C163.552 249.55 146.077 251.401 144.898 250.184C143.535 248.783 125.996 234.969 125.996 234.969L135.284 220.536Z" fill="#263238"/>
<path d="M170.045 247.795L143.713 249.159L144.878 250.184C145.134 250.393 145.43 250.543 145.745 250.626C146.06 250.709 146.388 250.721 146.708 250.664C148.919 250.664 155.028 250.479 168.237 249.078C168.616 249.035 168.979 248.895 169.294 248.672C169.609 248.448 169.867 248.147 170.045 247.795Z" fill="#455A64"/>
<g opacity="0.6">
<path d="M143.705 242.434C144.041 242.352 144.393 242.402 144.696 242.573C145 242.744 145.232 243.025 145.351 243.363C145.443 243.708 145.405 244.077 145.245 244.394C145.085 244.711 144.814 244.952 144.489 245.067C144.134 245.158 143.76 245.108 143.439 244.927C143.118 244.745 142.873 244.445 142.751 244.086C142.692 243.713 142.772 243.331 142.974 243.019C143.177 242.706 143.486 242.486 143.839 242.404" fill="white"/>
</g>
<path d="M159.174 245.28C159.301 245.221 158.729 244.019 159.103 242.522C159.478 241.025 160.516 240.228 160.403 240.11C160.29 239.992 160.05 240.17 159.654 240.538C159.148 241.043 158.79 241.687 158.623 242.397C158.455 243.106 158.485 243.851 158.708 244.543C158.913 245.067 159.125 245.317 159.174 245.28Z" fill="white"/>
<path d="M162.523 246.033C162.664 246.033 162.573 244.942 163.067 243.821C163.561 242.699 164.36 241.991 164.275 241.866C164.19 241.741 163.159 242.286 162.615 243.614C162.071 244.942 162.403 246.085 162.523 246.033Z" fill="white"/>
<path d="M154.279 245.067C154.434 245.067 154.279 243.408 154.9 241.534C155.522 239.661 156.575 238.444 156.462 238.334C156.348 238.223 155.049 239.351 154.427 241.372C153.806 243.393 154.166 245.111 154.279 245.067Z" fill="white"/>
<path d="M148.755 240.775C148.896 240.819 149.299 239.47 150.302 238.135C151.305 236.8 152.421 236.033 152.357 235.922C152.294 235.812 150.944 236.394 149.913 237.84C148.882 239.285 148.628 240.76 148.755 240.775Z" fill="white"/>
<path d="M144.976 238.01C145.125 238.01 145.358 236.534 146.523 235.214C147.689 233.894 149.073 233.481 149.024 233.334C148.974 233.186 148.635 233.275 148.07 233.489C147.338 233.787 146.682 234.26 146.155 234.869C145.627 235.479 145.243 236.208 145.033 236.999C144.885 237.626 144.92 238.002 144.976 238.01Z" fill="white"/>
<path d="M5.86914 199.098C6.21525 199.997 4.68955 228.93 30.9866 229.107C54.5926 229.269 86.3426 206.679 89.9662 208.125C92.3324 209.076 133.053 246.033 133.053 246.033L147.787 228.038C147.787 228.038 110.083 190.425 106.374 187.733C98.4352 181.936 92.8551 181.98 79.7949 184.451C68.1049 186.663 39.4769 196.583 39.4769 196.583L36.7151 194.112L5.86914 199.098Z" fill="#263238"/>
<path d="M71.3263 187.364C71.3263 187.364 71.4747 187.29 71.7713 187.172L73.0851 186.656C74.2506 186.221 75.9741 185.601 78.2414 184.937C80.9936 184.126 83.7946 183.508 86.6257 183.086C88.3982 182.814 90.1883 182.685 91.9798 182.703C93.9911 182.735 95.9927 183 97.9484 183.492C102.462 184.629 106.647 186.885 110.147 190.07C113.785 193.61 117.578 197.482 121.625 201.509L147.929 227.868L148.049 227.993L147.936 228.133C147.3 228.922 146.608 229.771 145.909 230.619C143.733 233.296 141.473 236.017 139.234 238.525C136.995 241.032 134.996 243.555 132.919 246.047L132.976 246.18L109.886 225.331C106.389 222.16 103.076 219.173 99.9967 216.385L95.5468 212.365C94.8404 211.716 94.1341 211.089 93.4278 210.477C93.0887 210.168 92.7567 209.85 92.4106 209.585C92.067 209.325 91.6975 209.105 91.3087 208.929C90.5719 208.596 89.7756 208.431 88.973 208.445C88.1703 208.459 87.3798 208.652 86.6539 209.01L82.762 211.001L76.5533 214.18L72.6543 216.164L71.6442 216.665L71.291 216.827C71.291 216.827 71.404 216.754 71.623 216.636L72.626 216.097L76.4968 214.062L82.6773 210.831L86.5621 208.811C87.5174 208.333 88.5785 208.135 89.633 208.236C90.6874 208.337 91.6961 208.735 92.5519 209.386C92.9192 209.666 93.2582 209.976 93.5902 210.278L95.7093 212.159L100.173 216.164L110.062 225.08L133.188 245.893L133.251 246.018C135.286 243.496 137.398 240.9 139.432 238.222C141.466 235.545 143.465 232.994 145.633 230.338L147.632 227.883V228.148L121.349 201.76C117.309 197.726 113.516 193.839 109.907 190.306C106.452 187.163 102.328 184.928 97.8777 183.787C95.9383 183.295 93.9538 183.023 91.9586 182.976C90.1794 182.952 88.4011 183.073 86.6398 183.337C83.813 183.737 81.0146 184.33 78.2626 185.114C75.9953 185.756 74.2647 186.353 73.0992 186.766L71.7713 187.246C71.4676 187.32 71.3263 187.364 71.3263 187.364Z" fill="#455A64"/>
<path d="M56.8963 123.149C56.8963 123.149 65.6196 126.763 66.6509 134.463C67.5126 140.879 65.5984 157.975 65.6267 159.133C65.5937 160.143 65.9238 161.129 66.552 161.898C67.6216 163.1 68.2104 164.683 68.1978 166.323C68.2645 167.42 68.0805 168.517 67.661 169.524C66.665 171.279 57.0164 182.947 57.0164 182.947L48.4414 164.31C48.4414 164.31 54.0921 146.86 54.0921 146.41C54.0921 145.961 56.8963 123.149 56.8963 123.149Z" fill="#F39877"/>
<path d="M66.7706 168.734C67.1379 168.786 79.7178 178.116 79.7178 178.116C79.7178 178.116 82.7904 171.92 84.1678 171.736C85.5451 171.552 89.7832 173.255 90.1576 173.72C90.5319 174.185 91.3583 174.266 92.1918 174.347C93.0253 174.428 94.4945 176.604 94.4945 176.604L97.3199 178.816C97.3199 178.816 96.4299 180.542 96.1968 180.837C95.9637 181.132 94.0778 180.306 94.0778 179.989C94.0778 179.672 94.3179 181.928 92.8487 181.995C91.6743 181.925 90.5278 181.593 89.4865 181.021L88.9921 178.418L85.3474 175.94L84.9094 178.44C84.9094 178.44 88.6036 179.229 88.4835 180.498C88.4517 180.86 88.3228 181.206 88.1117 181.495C87.9007 181.785 87.6158 182.006 87.2898 182.135L84.2384 182.069L77.5211 183.75C77.5211 183.75 59.9049 179.679 59.2622 177.592C58.6194 175.505 61.6072 168.004 66.7706 168.734Z" fill="#FAC7B5"/>
<path d="M66.8964 164.377C68.4362 165.737 69.6321 167.472 70.3787 169.429C71.1557 171.295 79.5611 177.711 79.5611 177.711L72.7379 183.471C72.7379 183.471 58.5263 184.083 57.8623 181.878C57.1984 179.673 59.4163 169.835 59.4163 169.835L66.8964 164.377Z" fill="#F39877"/>
<path d="M58.0389 189.414C58.1205 189.724 58.312 189.989 58.5745 190.157C58.837 190.324 59.1507 190.38 59.4516 190.314L84.1735 184.672L105.406 180.638L105.583 178.669L85.2966 181.707L58.943 187.858C58.7841 187.895 58.634 187.965 58.5017 188.065C58.3694 188.164 58.2577 188.29 58.1732 188.435C58.0888 188.58 58.0333 188.742 58.0102 188.91C57.9872 189.079 57.9969 189.25 58.0389 189.414Z" fill="#E0E0E0"/>
<path d="M96.6427 151.374L85.2211 181.907C85.1179 182.185 85.0867 182.485 85.1307 182.779C85.1746 183.073 85.2921 183.35 85.4714 183.581C85.6506 183.812 85.8851 183.99 86.1513 184.096C86.4174 184.203 86.7057 184.234 86.987 184.186L112.203 179.326C112.48 179.278 112.739 179.156 112.956 178.971C113.173 178.786 113.34 178.545 113.439 178.271L124.896 147.982C124.949 147.84 124.967 147.686 124.948 147.536C124.928 147.385 124.873 147.241 124.786 147.119C124.699 146.997 124.584 146.899 124.451 146.836C124.319 146.773 124.173 146.746 124.028 146.758L98.013 150.312C97.7122 150.338 97.4243 150.45 97.182 150.638C96.9398 150.826 96.7529 151.081 96.6427 151.374Z" fill="#E0E0E0"/>
<path d="M99.2208 150.312C99.3197 150.356 96.579 157.952 93.1109 167.274C89.6428 176.597 86.7538 184.156 86.6549 184.119C86.5561 184.082 89.2967 176.479 92.7719 167.156C96.2471 157.834 99.1289 150.275 99.2208 150.312Z" fill="#263238"/>
<path d="M105.535 164.752C104.829 166.227 104.871 167.746 105.641 168.151C106.411 168.557 107.605 167.687 108.311 166.212C109.017 164.737 108.982 163.218 108.212 162.819C107.442 162.421 106.249 163.277 105.535 164.752Z" fill="white"/>
<path d="M58.4569 184.664C58.4569 184.664 56.3944 175.615 56.8112 173.956C57.9978 169.184 64.1077 157.141 63.5991 149.928C63.0905 142.715 56.8959 123.149 56.8959 123.149L50.9909 121.003C48.6035 126.438 39.3363 125.221 31.7713 118.856L22.2922 120.862L7.45906 169.081L4.93036 186.648C-1.08768 194.842 5.8486 199.186 5.8486 199.186C5.8486 199.186 17.2772 202.947 26.3325 201.258C33.0922 200.005 42.9527 195.019 45.1636 193.212C50.4541 188.883 58.8454 189.185 58.8454 189.185L58.4569 184.664Z" fill="#F39877"/>
<path d="M41.8722 185.107L48.0597 187.747C48.0597 187.747 51.4996 185.608 52.0011 185.409C54.8874 184.855 57.8027 184.481 60.7315 184.288C61.6907 184.311 62.65 184.249 63.5993 184.104L55.4269 189.355L50.2494 196.553C48.8248 197.04 47.3403 197.311 45.8418 197.357C43.5674 197.357 38.1992 196 38.1992 196L41.8722 185.107Z" fill="#FAC7B5"/>
<path d="M23.4782 120.716C23.4782 120.716 12.6218 121.387 8.80045 130.436C6.25056 136.469 1.03069 163.049 0.225459 167.909C-0.57977 172.769 0.225464 178.691 3.95495 181.759C7.68443 184.828 38.6151 198.582 38.6151 198.582L45.064 185.609L18.9718 168.691H18.1242L21.2462 149.169" fill="#F39877"/>
<path d="M21.2466 149.161C21.2466 149.161 21.2466 149.271 21.2466 149.5L21.0983 150.488C20.9641 151.373 20.7734 152.664 20.5191 154.323C19.9894 157.686 19.2336 162.569 18.2729 168.698L18.1599 168.565H19.0429L45.1775 185.439L45.3117 185.527L45.2411 185.668C43.1927 189.798 41.0383 194.149 38.7992 198.648L38.7286 198.803L38.5732 198.729C32.2938 195.934 25.6048 192.888 18.7533 189.65C16.0409 188.367 13.3756 187.071 10.7575 185.763C9.4578 185.1 8.1652 184.436 6.90085 183.743C5.60389 183.109 4.39072 182.304 3.29144 181.346C2.26651 180.304 1.46483 179.047 0.93932 177.658C0.414186 176.324 0.0740688 174.918 -0.0707486 173.484C-0.208188 172.084 -0.208188 170.673 -0.0707486 169.273C0.0563929 167.886 0.331867 166.551 0.56496 165.224C1.55384 159.943 2.5851 154.943 3.5881 150.267C4.59111 145.591 5.59411 141.255 6.61124 137.324C7.11981 135.362 7.6425 133.496 8.21464 131.756C8.76363 130.111 9.5626 128.57 10.5809 127.19C11.5041 126.025 12.576 124.998 13.7665 124.137C14.7744 123.428 15.846 122.823 16.9662 122.33C18.5153 121.648 20.1339 121.154 21.7905 120.855C22.3556 120.759 22.7935 120.708 23.0831 120.678C23.2313 120.668 23.3799 120.668 23.5281 120.678L23.0902 120.737C22.7935 120.781 22.3839 120.848 21.7976 120.958C20.1564 121.283 18.555 121.798 17.0227 122.493C15.9162 122.988 14.8587 123.596 13.8654 124.307C12.6973 125.167 11.6469 126.189 10.7433 127.345C9.74582 128.71 8.96587 130.234 8.43361 131.859C7.8756 133.592 7.35997 135.451 6.86553 137.42C5.86252 141.351 4.88071 145.687 3.89183 150.363C2.90295 155.039 1.87876 160.032 0.896941 165.312C0.670912 166.64 0.395441 167.975 0.275363 169.332C0.134212 170.704 0.134212 172.089 0.275363 173.462C0.57909 176.205 1.51852 179.06 3.53159 181.058C4.61018 181.989 5.79675 182.775 7.0633 183.396C8.32059 184.082 9.6132 184.746 10.9129 185.402C13.5263 186.705 16.1869 187.998 18.8945 189.281C25.746 192.519 32.4351 195.565 38.6721 198.375L38.4461 198.463L44.902 185.491L44.9585 185.719L18.9016 168.756H18.9581H18.1105H17.9763V168.616L20.3637 154.287C20.6392 152.627 20.8582 151.337 21.0065 150.459C21.0771 150.038 21.1336 149.721 21.176 149.478C21.2184 149.235 21.2466 149.161 21.2466 149.161Z" fill="#263238"/>
<path d="M62.6587 134.455C62.694 134.455 62.5103 135.141 62.3832 136.38C62.3128 137.132 62.2893 137.889 62.3126 138.644C62.3126 139.529 62.4468 140.532 62.5951 141.646C63.0048 144.24 63.262 146.858 63.365 149.486C63.4939 152.731 62.9992 155.971 61.9099 159.014C60.7162 162.222 59.1552 165.069 58.1875 167.827C57.4109 170.31 57.1485 172.937 57.4176 175.534C57.5518 177.747 57.7496 179.569 57.8767 180.815C57.9332 181.405 57.9756 181.884 58.0109 182.246C58.0267 182.415 58.0267 182.585 58.0109 182.755C57.9596 182.595 57.9264 182.429 57.9121 182.26C57.8555 181.892 57.792 181.42 57.7002 180.83C57.5377 179.591 57.2975 177.791 57.128 175.549C56.82 172.913 57.061 170.239 57.8344 167.709C58.802 164.9 60.356 162.045 61.5356 158.859C62.6012 155.858 63.0954 152.669 62.9906 149.471C62.8999 146.853 62.664 144.243 62.2843 141.653C62.1572 140.54 62.0724 139.522 62.0583 138.629C62.0453 137.862 62.0902 137.095 62.1925 136.336C62.2536 135.858 62.3433 135.385 62.4609 134.92C62.5107 134.758 62.577 134.602 62.6587 134.455Z" fill="#263238"/>
<path d="M24.3256 139.691C24.255 139.691 24.594 138.666 24.7706 136.992C24.8749 136.012 24.8891 135.025 24.813 134.042C24.7077 132.842 24.4853 131.655 24.1491 130.502C23.5105 128.405 22.486 126.459 21.133 124.772C20.0946 123.481 19.2965 122.825 19.3459 122.766C19.5563 122.881 19.751 123.025 19.9251 123.193C20.4335 123.618 20.9061 124.086 21.3378 124.595C22.7763 126.268 23.8574 128.241 24.5093 130.384C24.8511 131.568 25.069 132.787 25.1591 134.02C25.2206 135.025 25.1803 136.033 25.039 137.029C24.9901 137.414 24.9193 137.796 24.8271 138.172C24.7705 138.456 24.6925 138.735 24.594 139.006C24.5316 139.245 24.4414 139.475 24.3256 139.691Z" fill="#263238"/>
<path d="M39.3711 166.683C40.3853 166.386 41.3694 165.985 42.3095 165.489C42.7738 165.217 43.2219 164.917 43.6515 164.589C44.1294 164.194 44.5868 163.773 45.0218 163.328C46.0148 162.301 46.8809 161.149 47.6 159.898C48.9103 157.621 49.8395 155.127 50.3477 152.523C50.7149 150.51 50.7432 149.234 50.8209 149.241C50.8497 149.538 50.8497 149.837 50.8209 150.134C50.7932 150.952 50.7153 151.767 50.5878 152.575C50.1523 155.244 49.2393 157.803 47.8966 160.12C47.1683 161.404 46.2747 162.577 45.2408 163.608C44.7949 164.058 44.3231 164.479 43.8281 164.869C43.3767 165.195 42.9048 165.488 42.4154 165.747C42.0192 165.967 41.6057 166.152 41.1793 166.3C40.8627 166.424 40.5367 166.52 40.2046 166.587C39.9301 166.645 39.6511 166.677 39.3711 166.683Z" fill="#263238"/>
<path d="M11.2871 172.223C12.23 171.04 13.4452 170.126 14.8188 169.568C16.136 168.896 17.5923 168.577 19.0569 168.638C17.6577 168.949 16.2852 169.378 14.953 169.922C13.6729 170.583 12.4468 171.352 11.2871 172.223Z" fill="#263238"/>
<path d="M65.1808 185.809C65.1474 186.037 65.0495 186.249 64.8997 186.418C64.75 186.588 64.5552 186.707 64.3403 186.76C64.2464 186.771 64.1516 186.771 64.0577 186.76C63.3514 186.76 63.0618 185.44 63.0618 185.44L59.9963 185.875C59.9963 185.875 55.617 191.672 54.0701 193.316C47.9885 199.792 46.4062 195.116 46.4062 195.116L48.2851 187.512L52.1771 180.712C52.1771 180.712 51.9298 181.125 52.0217 180.056C52.1135 178.987 53.9147 178.802 53.9147 178.802C54.0347 178.249 55.0943 177.733 55.0943 177.733L59.9751 176.789C60.4731 176.692 60.9855 176.714 61.4745 176.852C61.9635 176.989 62.4166 177.24 62.8004 177.585L65.76 180.24C65.76 180.24 67.5117 182.276 67.5047 182.888C67.4967 183.142 67.3994 183.384 67.2313 183.568C67.0632 183.751 66.8361 183.864 66.5935 183.884C66.5935 183.884 66.8195 185.521 66.4452 185.698C66.0343 185.805 65.6082 185.833 65.1879 185.779L65.1808 185.809Z" fill="#FAC7B5"/>
<path d="M53.7734 184.348C53.7734 184.399 54.4021 184.134 55.4263 183.861C56.7547 183.505 58.1239 183.344 59.4948 183.381C60.2486 183.404 60.9996 183.488 61.741 183.632C62.4049 183.787 63.083 183.868 63.3938 184.244C63.4627 184.325 63.5101 184.424 63.5312 184.53C63.5523 184.636 63.5463 184.746 63.5139 184.849C63.4667 185.016 63.3733 185.165 63.2455 185.277C63.0336 185.461 62.8499 185.439 62.857 185.476C62.8641 185.513 63.0406 185.564 63.3232 185.38C63.4879 185.268 63.6122 185.102 63.6764 184.908C63.7283 184.776 63.7453 184.631 63.7254 184.49C63.7055 184.348 63.6495 184.215 63.5633 184.104C63.3555 183.854 63.0795 183.677 62.7722 183.595C62.4685 183.499 62.1436 183.411 61.7975 183.337C59.6622 182.873 57.4494 182.977 55.3627 183.639C54.8022 183.792 54.2666 184.03 53.7734 184.348Z" fill="#FF9A6C"/>
<path d="M54.373 187.594C54.373 187.682 56.3014 186.989 58.7029 186.377C61.1045 185.765 63.0893 185.462 63.0752 185.366C62.6334 185.331 62.1891 185.359 61.7543 185.447C60.7009 185.589 59.6562 185.793 58.6252 186.059C57.5942 186.323 56.5779 186.645 55.5809 187.026C55.1564 187.16 54.7504 187.35 54.373 187.594Z" fill="#FF9A6C"/>
<path d="M65.1175 185.691C65.1082 185.506 65.0774 185.322 65.0257 185.145C64.9117 184.657 64.7701 184.177 64.6019 183.707C64.4876 183.375 64.3458 183.054 64.1781 182.748C63.9811 182.39 63.7168 182.076 63.4011 181.826C62.7189 181.227 61.9288 180.775 61.0773 180.499C60.2367 180.214 59.3613 180.058 58.4779 180.034C57.761 180.045 57.0486 180.154 56.3589 180.359C55.7656 180.521 55.2994 180.691 54.9815 180.801C54.8097 180.846 54.6454 180.919 54.4941 181.015C55.1398 180.912 55.779 180.77 56.4083 180.587C57.0888 180.419 57.7857 180.335 58.485 180.337C59.3402 180.375 60.1863 180.537 60.9996 180.816C61.815 181.079 62.5749 181.502 63.2387 182.062C63.7753 182.516 64.1812 183.116 64.4112 183.795C64.8632 184.946 65.054 185.713 65.1175 185.691Z" fill="#FF9A6C"/>
<path d="M55.6875 178.934C55.6875 178.985 56.3938 178.779 57.5805 178.55C58.7671 178.322 60.4765 177.909 61.9245 179.155C63.2327 180.013 64.4211 181.055 65.4562 182.253C65.8352 182.788 66.1662 183.358 66.4451 183.956C66.4331 183.773 66.39 183.593 66.3179 183.425C66.1452 182.954 65.9072 182.512 65.6116 182.113C64.6084 180.844 63.4158 179.754 62.0799 178.882C61.7082 178.605 61.3048 178.377 60.8791 178.204C60.4697 178.062 60.0387 177.999 59.6077 178.019C58.8933 178.045 58.1833 178.146 57.4887 178.322C56.8663 178.447 56.2613 178.653 55.6875 178.934Z" fill="#FF9A6C"/>
<path d="M56.8192 190.425C56.8967 190.325 56.9675 190.219 57.0311 190.108L57.6315 189.194C58.3847 188.072 59.2008 186.999 60.0754 185.978H60.0119L63.0845 185.565L62.9432 185.469C63.0054 185.726 63.0979 185.974 63.2187 186.207C63.3375 186.467 63.5265 186.685 63.7625 186.834C63.9027 186.896 64.0568 186.917 64.2075 186.893C64.3515 186.886 64.493 186.851 64.6243 186.789C64.8921 186.651 65.1046 186.419 65.2247 186.133C65.259 186.063 65.2851 185.988 65.3024 185.912V185.816L65.147 185.941H65.26C65.4013 185.941 65.5425 185.941 65.6838 185.941C65.8251 185.941 65.9663 185.941 66.1076 185.941C66.1843 185.931 66.2599 185.914 66.3336 185.89C66.4303 185.872 66.5191 185.823 66.5879 185.749C66.6884 185.605 66.7472 185.434 66.7574 185.255C66.768 185.101 66.768 184.945 66.7574 184.791C66.7538 184.482 66.7326 184.175 66.6939 183.869L66.5597 184.046C66.7713 184.028 66.9741 183.95 67.146 183.82C67.3179 183.69 67.4523 183.513 67.5344 183.308C67.6123 183.089 67.6123 182.849 67.5344 182.63C67.4569 182.438 67.3647 182.253 67.2589 182.077C66.8213 181.397 66.3374 180.751 65.8109 180.144L64.264 178.728L63.261 177.829C62.9392 177.511 62.5865 177.229 62.2086 176.988C61.8115 176.769 61.3771 176.634 60.9301 176.59C60.5003 176.563 60.0692 176.606 59.6516 176.715L55.0816 177.615C54.83 177.741 54.593 177.897 54.3753 178.079C54.121 178.254 53.9316 178.514 53.8384 178.817L53.9868 178.714C53.7129 178.675 53.4342 178.707 53.1747 178.806C52.9151 178.905 52.6824 179.068 52.4964 179.282C52.1965 179.706 52.0604 180.232 52.115 180.757V180.683L49.4238 185.344L48.7175 186.627C48.6265 186.772 48.5484 186.925 48.4844 187.084C48.5968 186.954 48.694 186.811 48.774 186.657L49.5439 185.418L52.2562 180.838V180.793C52.2099 180.331 52.3336 179.867 52.6023 179.495C52.7591 179.316 52.9558 179.179 53.1752 179.098C53.3945 179.017 53.6296 178.994 53.8596 179.031H53.9797V178.913C54.0695 178.687 54.222 178.494 54.4176 178.36C54.6292 178.197 54.8537 178.054 55.0887 177.932L59.694 177.062C60.0841 176.961 60.4864 176.921 60.8877 176.944C61.2937 176.979 61.6882 177.102 62.0461 177.305C62.405 177.534 62.739 177.804 63.0421 178.109L64.0451 179.009L65.6767 180.395C66.1883 180.99 66.6603 181.621 67.0894 182.283C67.1882 182.438 67.2711 182.604 67.3366 182.777C67.3891 182.925 67.3891 183.087 67.3366 183.235C67.2775 183.383 67.1804 183.512 67.0558 183.607C66.9312 183.702 66.784 183.76 66.6303 183.773H66.4749V183.928C66.5136 184.221 66.5349 184.517 66.5385 184.813C66.5642 185.064 66.5278 185.318 66.4325 185.55C66.3961 185.575 66.3553 185.593 66.3124 185.602C66.2529 185.622 66.1912 185.634 66.1288 185.639C65.9995 185.65 65.8696 185.65 65.7403 185.639C65.6063 185.65 65.4717 185.65 65.3377 185.639H65.2317C65.373 185.536 65.0481 185.786 65.0834 185.764V185.816C65.072 185.875 65.053 185.932 65.0269 185.985C64.9364 186.211 64.7708 186.394 64.5607 186.502C64.4586 186.551 64.3482 186.579 64.2358 186.583C64.1372 186.617 64.0306 186.617 63.9321 186.583C63.5703 186.292 63.3198 185.877 63.2257 185.41V185.3H63.1198L60.0542 185.757H60.0119C59.1474 186.8 58.3498 187.901 57.6244 189.054C57.3772 189.459 57.1936 189.791 57.0735 190.005C56.9728 190.134 56.8874 190.275 56.8192 190.425Z" fill="#FF9A6C"/>
<g opacity="0.3">
<path d="M50.567 152.672C50.0328 155.401 49.0353 158.009 47.6216 160.371C45.9334 163.071 43.8215 164.494 41.1939 166.183L40.9961 166.264C42.575 166.283 44.1354 165.909 45.5483 165.173C46.9612 164.437 48.1859 163.36 49.1212 162.032C50.0565 160.703 50.6755 159.162 50.9269 157.534C51.1783 155.907 51.0549 154.24 50.567 152.672Z" fill="black"/>
</g>
</g>
<defs>
<clipPath id="clip0_2535_11535">
<rect width="373" height="260" fill="white"/>
</clipPath>
</defs>
</svg>
