<svg width="20" height="20" viewBox="0 0 20 20" fill="none" xmlns="http://www.w3.org/2000/svg">
<g id="Icon">
<path id="Vector" d="M17.1667 5.33333H13.8333V4.5C13.8333 3.83696 13.5699 3.20107 13.1011 2.73223C12.6323 2.26339 11.9964 2 11.3333 2H9.66667C9.00363 2 8.36774 2.26339 7.8989 2.73223C7.43006 3.20107 7.16667 3.83696 7.16667 4.5V5.33333H3.83333C3.61232 5.33333 3.40036 5.42113 3.24408 5.57741C3.0878 5.73369 3 5.94565 3 6.16667C3 6.38768 3.0878 6.59964 3.24408 6.75592C3.40036 6.9122 3.61232 7 3.83333 7H4.66667V16.1667C4.66667 16.8297 4.93006 17.4656 5.3989 17.9344C5.86774 18.4033 6.50363 18.6667 7.16667 18.6667H13.8333C14.4964 18.6667 15.1323 18.4033 15.6011 17.9344C16.0699 17.4656 16.3333 16.8297 16.3333 16.1667V7H17.1667C17.3877 7 17.5996 6.9122 17.7559 6.75592C17.9122 6.59964 18 6.38768 18 6.16667C18 5.94565 17.9122 5.73369 17.7559 5.57741C17.5996 5.42113 17.3877 5.33333 17.1667 5.33333ZM8.83333 4.5C8.83333 4.27899 8.92113 4.06702 9.07741 3.91074C9.23369 3.75446 9.44565 3.66667 9.66667 3.66667H11.3333C11.5543 3.66667 11.7663 3.75446 11.9226 3.91074C12.0789 4.06702 12.1667 4.27899 12.1667 4.5V5.33333H8.83333V4.5ZM14.6667 16.1667C14.6667 16.3877 14.5789 16.5996 14.4226 16.7559C14.2663 16.9122 14.0543 17 13.8333 17H7.16667C6.94565 17 6.73369 16.9122 6.57741 16.7559C6.42113 16.5996 6.33333 16.3877 6.33333 16.1667V7H14.6667V16.1667Z" fill="#FF4B4B"/>
</g>
</svg>
